<svg width="30" height="30" viewBox="0 0 30 30" fill="none" xmlns="http://www.w3.org/2000/svg">
<path d="M11.919 16.6775H8.74136C8.22821 16.6775 8.07031 16.4801 8.07031 16.0064C8.07031 14.7235 8.07031 13.4012 8.07031 12.1183C8.07031 11.6051 8.26768 11.4077 8.74136 11.4077H11.919V8.58537C11.8795 7.34195 12.1756 6.07879 12.7874 4.95379C13.4387 3.82879 14.465 2.99985 15.6493 2.58537C16.4585 2.28932 17.2479 2.1709 18.0966 2.1709H21.2348C21.6887 2.1709 21.8861 2.36827 21.8861 2.82221V6.47353C21.8861 6.92748 21.6887 7.12485 21.2348 7.12485C20.3664 7.12485 19.4979 7.12485 18.6295 7.16432C17.7611 7.20379 17.3072 7.57879 17.3072 8.48669C17.2677 9.45379 17.3072 10.3814 17.3072 11.3683H20.9979C21.5111 11.3683 21.7085 11.5656 21.7085 12.0788V15.967C21.7085 16.4801 21.5506 16.6775 20.9979 16.6775H17.3466V27.1183C17.3466 27.6709 17.1493 27.8485 16.6164 27.8485H12.6098C12.1361 27.8485 11.9387 27.6512 11.9387 27.1775L11.919 16.6775Z" fill="white"/>
</svg>
