<svg width="136" height="137" viewBox="0 0 136 137" fill="none" xmlns="http://www.w3.org/2000/svg">
<path d="M107.98 46.4651C95.658 23.4401 67.5942 14.4476 45.2975 26.3796C23.0008 38.3116 14.9145 66.6499 27.2363 89.6748C39.5581 112.7 67.6219 121.692 89.9186 109.76C112.215 97.8283 120.302 69.4901 107.98 46.4651Z" fill="url(#paint0_linear_844_3850)"/>
<path d="M107.983 46.4636C95.6609 23.4386 69.2509 13.561 48.9943 24.4013C28.7377 35.2416 22.3052 62.6948 34.627 85.7198C46.9487 108.745 73.3587 118.622 93.6154 107.782C113.872 96.9417 120.304 69.4885 107.983 46.4636Z" fill="url(#paint1_linear_844_3850)"/>
<path d="M102.263 49.5282C91.865 30.0972 69.5777 21.7612 52.4834 30.9092C35.3891 40.0572 29.961 63.2251 40.3594 82.656C50.7579 102.087 73.0452 110.423 90.1395 101.275C107.234 92.1269 112.662 68.9591 102.263 49.5282Z" fill="url(#paint2_linear_844_3850)"/>
<path d="M39.8208 82.9291C34.7292 73.4134 33.2023 62.7197 35.521 52.8171C37.8398 42.9145 43.76 34.9382 52.166 30.4398C60.572 25.9415 70.4592 25.4308 80.0185 28.9986C89.5778 32.5664 97.597 39.7643 102.689 49.28C107.78 58.7957 109.309 69.4885 106.988 79.392C104.668 89.2955 98.7495 97.2709 90.3435 101.769C81.9375 106.268 72.0503 106.778 62.4925 103.21C52.9347 99.6408 44.914 92.4439 39.8208 82.9291ZM101.725 49.8004C91.4838 30.669 69.4866 22.4188 52.6862 31.4104C35.8859 40.402 30.5553 63.2746 40.7908 82.4113C51.0264 101.548 73.0288 109.793 89.8267 100.801C106.625 91.8087 111.962 68.9298 101.725 49.8004Z" fill="url(#paint3_linear_844_3850)"/>
<path d="M96.7735 51.5157L77.9468 62.3158L61.4453 50.001L96.7735 51.5157Z" fill="url(#paint4_linear_844_3850)"/>
<path d="M96.7755 51.5153L80.2069 82.7012L77.9488 62.3155L96.7755 51.5153Z" fill="url(#paint5_linear_844_3850)"/>
<path d="M61.4436 50.0012L61.5935 71.6956L77.945 62.3161L61.4436 50.0012Z" fill="url(#paint6_linear_844_3850)"/>
<path d="M80.2034 82.7015L77.9453 62.3158L61.5938 71.6953L80.2034 82.7015Z" fill="url(#paint7_linear_844_3850)"/>
<path d="M58.4729 51.7072L58.6228 73.4015L45.7841 80.767L58.4729 51.7072Z" fill="url(#paint8_linear_844_3850)"/>
<path d="M77.2296 84.4083L45.7812 80.7676L58.6199 73.4021L77.2296 84.4083Z" fill="url(#paint9_linear_844_3850)"/>
<path style="mix-blend-mode:screen" opacity="0.54" d="M100.928 68.4953C104.078 55.2086 95.8602 41.8842 82.5735 38.7344C69.2868 35.5846 55.9624 43.8021 52.8126 57.0888C49.6628 70.3755 57.8804 83.6999 71.167 86.8497C84.4537 89.9995 97.7781 81.782 100.928 68.4953Z" fill="url(#paint10_radial_844_3850)"/>
<defs>
<linearGradient id="paint0_linear_844_3850" x1="45.2613" y1="26.4112" x2="89.8798" y2="109.787" gradientUnits="userSpaceOnUse">
<stop stop-color="#9296B9"/>
<stop offset="0.11" stop-color="#E2EAD6"/>
<stop offset="0.12" stop-color="#E0EBDB"/>
<stop offset="0.15" stop-color="#D7EFEC"/>
<stop offset="0.19" stop-color="#D2F1F6"/>
<stop offset="0.23" stop-color="#D0F2F9"/>
<stop offset="0.3" stop-color="#CFF0F9"/>
<stop offset="0.33" stop-color="#CDE9F8"/>
<stop offset="0.35" stop-color="#C9DEF6"/>
<stop offset="0.36" stop-color="#C4CDF3"/>
<stop offset="0.37" stop-color="#BFBDF0"/>
<stop offset="0.42" stop-color="#AAB0DF"/>
<stop offset="0.63" stop-color="#6283A0"/>
<stop offset="0.65" stop-color="#899EB6"/>
<stop offset="0.68" stop-color="#A8B3C6"/>
<stop offset="0.7" stop-color="#BEC2D2"/>
<stop offset="0.72" stop-color="#CBCBDA"/>
<stop offset="0.74" stop-color="#D0CEDC"/>
<stop offset="0.88" stop-color="#5B7C9C"/>
<stop offset="0.92" stop-color="#8299B5"/>
<stop offset="0.97" stop-color="#BAC4D9"/>
<stop offset="1" stop-color="#D0D4E7"/>
</linearGradient>
<linearGradient id="paint1_linear_844_3850" x1="28.6444" y1="53.2151" x2="113.884" y2="79.0261" gradientUnits="userSpaceOnUse">
<stop stop-color="#E2EAFF"/>
<stop offset="0.55" stop-color="#D0F2F9"/>
<stop offset="0.62" stop-color="#C4E6F0"/>
<stop offset="0.75" stop-color="#A6C7D7"/>
<stop offset="0.92" stop-color="#7496B0"/>
<stop offset="1" stop-color="#5B7C9C"/>
</linearGradient>
<linearGradient id="paint2_linear_844_3850" x1="42.9391" y1="38.6083" x2="99.6024" y2="93.6337" gradientUnits="userSpaceOnUse">
<stop stop-color="#E2EAF9"/>
<stop offset="0.42" stop-color="#D0F2F9"/>
<stop offset="0.52" stop-color="#B7D9E5"/>
<stop offset="0.74" stop-color="#85A7BE"/>
<stop offset="0.91" stop-color="#6788A5"/>
<stop offset="1" stop-color="#5B7C9C"/>
</linearGradient>
<linearGradient id="paint3_linear_844_3850" x1="40.3185" y1="83.8411" x2="102.178" y2="48.3514" gradientUnits="userSpaceOnUse">
<stop stop-color="#9296B9"/>
<stop offset="0.11" stop-color="#E2EAD6"/>
<stop offset="0.12" stop-color="#E0EBDB"/>
<stop offset="0.15" stop-color="#D7EFEC"/>
<stop offset="0.19" stop-color="#D2F1F6"/>
<stop offset="0.23" stop-color="#D0F2F9"/>
<stop offset="0.3" stop-color="#CFF0F9"/>
<stop offset="0.33" stop-color="#CDE9F8"/>
<stop offset="0.35" stop-color="#C9DEF6"/>
<stop offset="0.36" stop-color="#C4CDF3"/>
<stop offset="0.37" stop-color="#BFBDF0"/>
<stop offset="0.42" stop-color="#AAB0DF"/>
<stop offset="0.63" stop-color="#6283A0"/>
<stop offset="0.65" stop-color="#899EB6"/>
<stop offset="0.68" stop-color="#A8B3C6"/>
<stop offset="0.7" stop-color="#BEC2D2"/>
<stop offset="0.72" stop-color="#CBCBDA"/>
<stop offset="0.74" stop-color="#D0CEDC"/>
<stop offset="0.88" stop-color="#5B7C9C"/>
<stop offset="0.92" stop-color="#8299B5"/>
<stop offset="0.97" stop-color="#BAC4D9"/>
<stop offset="1" stop-color="#D0D4E7"/>
</linearGradient>
<linearGradient id="paint4_linear_844_3850" x1="78.6389" y1="48.2114" x2="81.1746" y2="62.1546" gradientUnits="userSpaceOnUse">
<stop stop-color="#5B7C9C"/>
<stop offset="0.08" stop-color="#7496B0"/>
<stop offset="0.25" stop-color="#A6C7D7"/>
<stop offset="0.38" stop-color="#C4E6F0"/>
<stop offset="0.45" stop-color="#D0F2F9"/>
<stop offset="1" stop-color="#E2EAF9"/>
</linearGradient>
<linearGradient id="paint5_linear_844_3850" x1="86.4389" y1="55.8611" x2="91.1047" y2="81.5122" gradientUnits="userSpaceOnUse">
<stop stop-color="#5B7C9C"/>
<stop offset="0.18" stop-color="#7496B0"/>
<stop offset="0.55" stop-color="#A6C7D7"/>
<stop offset="0.84" stop-color="#C4E6F0"/>
<stop offset="1" stop-color="#D0F2F9"/>
</linearGradient>
<linearGradient id="paint6_linear_844_3850" x1="66.8381" y1="50.9216" x2="70.4352" y2="70.698" gradientUnits="userSpaceOnUse">
<stop stop-color="#5B7C9C"/>
<stop offset="0.08" stop-color="#7496B0"/>
<stop offset="0.25" stop-color="#A6C7D7"/>
<stop offset="0.38" stop-color="#C4E6F0"/>
<stop offset="0.45" stop-color="#D0F2F9"/>
<stop offset="1" stop-color="#E2EAF9"/>
</linearGradient>
<linearGradient id="paint7_linear_844_3850" x1="69.52" y1="65.6657" x2="72.9624" y2="84.6002" gradientUnits="userSpaceOnUse">
<stop stop-color="#5B7C9C"/>
<stop offset="0.18" stop-color="#7496B0"/>
<stop offset="0.55" stop-color="#A6C7D7"/>
<stop offset="0.84" stop-color="#C4E6F0"/>
<stop offset="1" stop-color="#D0F2F9"/>
</linearGradient>
<linearGradient id="paint8_linear_844_3850" x1="50.1806" y1="55.5595" x2="54.6108" y2="79.9164" gradientUnits="userSpaceOnUse">
<stop stop-color="#5B7C9C"/>
<stop offset="0.11" stop-color="#7496B0"/>
<stop offset="0.34" stop-color="#A6C7D7"/>
<stop offset="0.52" stop-color="#C4E6F0"/>
<stop offset="0.62" stop-color="#D0F2F9"/>
<stop offset="1" stop-color="#E2EAF9"/>
</linearGradient>
<linearGradient id="paint9_linear_844_3850" x1="60.0119" y1="74.4069" x2="62.3944" y2="87.5073" gradientUnits="userSpaceOnUse">
<stop stop-color="#5B7C9C"/>
<stop offset="0.18" stop-color="#7496B0"/>
<stop offset="0.55" stop-color="#A6C7D7"/>
<stop offset="0.84" stop-color="#C4E6F0"/>
<stop offset="1" stop-color="#D0F2F9"/>
</linearGradient>
<radialGradient id="paint10_radial_844_3850" cx="0" cy="0" r="1" gradientUnits="userSpaceOnUse" gradientTransform="translate(76.8808 62.8038) rotate(83.1566) scale(24.7226 24.7226)">
<stop stop-color="#90FFFF"/>
<stop offset="0.01" stop-color="#8BF7F7"/>
<stop offset="0.05" stop-color="#71C9C9"/>
<stop offset="0.09" stop-color="#599D9D"/>
<stop offset="0.14" stop-color="#437777"/>
<stop offset="0.2" stop-color="#315757"/>
<stop offset="0.26" stop-color="#223C3C"/>
<stop offset="0.32" stop-color="#152626"/>
<stop offset="0.4" stop-color="#0C1515"/>
<stop offset="0.5" stop-color="#050909"/>
<stop offset="0.63" stop-color="#010202"/>
<stop offset="1"/>
</radialGradient>
</defs>
</svg>
