<svg width="370" height="535" viewBox="0 0 370 535" fill="none" xmlns="http://www.w3.org/2000/svg">
<g filter="url(#filter0_b_844_6778)">
<path d="M14 227.165C14 216.18 27.6892 210.927 35.3579 218.792C146.308 332.57 216.877 328.021 327.887 217.712C335.591 210.057 349 215.355 349 226.216V523C349 529.627 343.627 535 337 535H26C19.3726 535 14 529.627 14 523V227.165Z" fill="url(#paint0_linear_844_6778)"/>
<path d="M14.4 227.165C14.4 216.561 27.6378 211.448 35.0715 219.071C90.5613 275.975 136.044 303.391 181.606 302.685C227.161 301.978 272.655 273.16 328.169 217.996C335.635 210.577 348.6 215.73 348.6 226.216V523C348.6 529.406 343.406 534.6 337 534.6H26C19.5935 534.6 14.4 529.406 14.4 523V227.165Z" stroke="url(#paint1_linear_844_6778)" stroke-opacity="0.3" stroke-width="0.8"/>
</g>
<g filter="url(#filter1_f_844_6778)">
<circle cx="185" cy="185" r="85" fill="#3C53D7"/>
</g>
<g clip-path="url(#clip0_844_6778)">
<path d="M133.766 217.091H137.266L199.066 181.371C199.606 181.123 200.198 181.006 200.792 181.03C201.387 181.055 201.967 181.219 202.486 181.511L239.746 203.001H242.996V205.301C243.032 205.521 242.993 205.747 242.886 205.943C242.78 206.138 242.61 206.293 242.406 206.381L177.706 243.781C176.826 244.291 173.966 244.941 172.956 244.361L134.606 220.741C133.936 220.361 133.666 219.841 133.806 219.391L133.766 217.091Z" fill="#2E1F88"/>
<path d="M177.73 241.239L242.43 203.839C243.31 203.329 243.2 202.449 242.19 201.839L202.49 178.999C201.971 178.708 201.392 178.543 200.798 178.517C200.204 178.491 199.612 178.605 199.07 178.849L134.36 216.209C133.49 216.709 133.6 217.599 134.61 218.209L173 241.819C174 242.399 176.85 241.749 177.73 241.239Z" fill="url(#paint2_linear_844_6778)"/>
<path d="M167.56 232.36L227.17 197.89C227.92 197.46 227.83 196.71 226.96 196.21L201 181.31C200.555 181.063 200.058 180.924 199.549 180.903C199.04 180.882 198.534 180.981 198.07 181.19L138.5 215.65C137.75 216.09 137.84 216.84 138.71 217.35L164.64 232.24C165.083 232.487 165.579 232.626 166.086 232.647C166.593 232.668 167.098 232.569 167.56 232.36Z" fill="#2E1F88"/>
<path d="M202.493 183.609L200.073 182.209C199.722 182.014 199.33 181.904 198.929 181.889C198.527 181.873 198.128 181.952 197.763 182.119L194.993 183.719C194.403 184.059 194.473 184.659 195.163 185.059L197.583 186.449C197.933 186.646 198.325 186.758 198.726 186.775C199.127 186.792 199.527 186.715 199.893 186.549L202.673 184.939C203.253 184.599 203.183 183.999 202.493 183.609Z" fill="#8F80EC"/>
<path d="M196.995 186.81L194.575 185.42C194.225 185.223 193.833 185.112 193.432 185.094C193.031 185.077 192.631 185.154 192.265 185.32L189.485 186.93C188.895 187.27 188.965 187.87 189.655 188.26L191.995 189.66C192.346 189.855 192.738 189.965 193.139 189.98C193.541 189.996 193.94 189.917 194.305 189.75L197.085 188.15C197.705 187.81 197.635 187.21 196.995 186.81Z" fill="#8F80EC"/>
<path d="M191.396 190L188.996 188.62C188.643 188.425 188.25 188.315 187.848 188.297C187.445 188.28 187.044 188.356 186.676 188.52L183.896 190.13C183.306 190.47 183.386 191.07 184.066 191.46L186.486 192.86C186.836 193.056 187.228 193.168 187.629 193.185C188.03 193.203 188.43 193.125 188.796 192.96L191.576 191.35C192.156 191 192.086 190.41 191.396 190Z" fill="#8F80EC"/>
<path d="M185.853 193.221L183.433 191.821C183.082 191.628 182.69 191.52 182.289 191.504C181.888 191.488 181.489 191.566 181.123 191.731L178.333 193.331C177.743 193.681 177.823 194.271 178.503 194.671L180.923 196.061C181.274 196.258 181.665 196.369 182.066 196.387C182.468 196.404 182.867 196.327 183.233 196.161L185.993 194.551C186.603 194.211 186.533 193.611 185.853 193.221Z" fill="#8F80EC"/>
<path d="M180.305 196.42L177.885 195C177.535 194.803 177.143 194.692 176.742 194.674C176.34 194.657 175.941 194.734 175.575 194.9L172.795 196.54C172.195 196.88 172.275 197.48 172.955 197.87L175.375 199.27C175.726 199.465 176.118 199.575 176.519 199.591C176.92 199.606 177.32 199.527 177.685 199.36L180.465 197.76C181.065 197.42 180.995 196.82 180.305 196.42Z" fill="#8F80EC"/>
<path d="M174.758 199.631L172.338 198.231C171.987 198.036 171.596 197.926 171.195 197.909C170.794 197.891 170.394 197.967 170.028 198.131L167.248 199.741C166.648 200.081 166.728 200.681 167.408 201.071L169.828 202.471C170.178 202.667 170.57 202.779 170.971 202.796C171.372 202.814 171.772 202.736 172.138 202.571L174.918 201.001C175.518 200.621 175.438 200.001 174.758 199.631Z" fill="#8F80EC"/>
<path d="M169.207 202.83L166.787 201.43C166.435 201.237 166.043 201.129 165.643 201.113C165.242 201.098 164.843 201.175 164.477 201.34L161.697 202.94C161.107 203.29 161.177 203.88 161.857 204.28L164.277 205.67C164.627 205.867 165.019 205.979 165.42 205.996C165.821 206.013 166.221 205.936 166.587 205.77L169.377 204.16C169.997 203.82 169.887 203.23 169.207 202.83Z" fill="#8F80EC"/>
<path d="M163.659 205.999L161.239 204.609C160.889 204.413 160.497 204.301 160.096 204.284C159.695 204.266 159.295 204.344 158.929 204.509L156.149 206.119C155.559 206.459 155.629 207.059 156.319 207.449L158.729 208.849C159.082 209.045 159.476 209.154 159.879 209.17C160.281 209.186 160.682 209.107 161.049 208.939L163.829 207.339C164.419 206.999 164.349 206.429 163.659 205.999Z" fill="#8F80EC"/>
<path d="M158.105 209.24L155.685 207.84C155.334 207.645 154.942 207.535 154.54 207.52C154.139 207.504 153.74 207.583 153.375 207.75L150.595 209.35C150.005 209.69 150.075 210.29 150.765 210.69L153.185 212.08C153.535 212.277 153.926 212.388 154.328 212.406C154.729 212.423 155.129 212.346 155.495 212.18L158.275 210.57C158.865 210.23 158.795 209.63 158.105 209.24Z" fill="#8F80EC"/>
<path d="M152.558 212.441L150.148 211.001C149.794 210.808 149.401 210.699 148.998 210.684C148.596 210.668 148.195 210.746 147.828 210.911L145.048 212.511C144.458 212.861 144.528 213.451 145.218 213.851L147.638 215.251C147.989 215.444 148.381 215.552 148.782 215.568C149.183 215.583 149.582 215.506 149.948 215.341L152.728 213.741C153.318 213.431 153.248 212.841 152.558 212.441Z" fill="#8F80EC"/>
<path d="M146.994 215.64L144.574 214.25C144.224 214.053 143.832 213.942 143.431 213.924C143.03 213.907 142.63 213.984 142.264 214.15L139.474 215.76C138.884 216.1 138.964 216.7 139.644 217.09L142.064 218.49C142.415 218.684 142.806 218.795 143.207 218.812C143.608 218.829 144.008 218.753 144.374 218.59L147.174 217C147.764 216.64 147.694 216 146.994 215.64Z" fill="#8F80EC"/>
<path d="M208.147 186.871L205.727 185.471C205.376 185.276 204.984 185.166 204.583 185.15C204.182 185.135 203.783 185.214 203.417 185.381L198.997 187.941C198.407 188.281 198.487 188.881 199.167 189.271L201.587 190.671C201.938 190.866 202.33 190.976 202.732 190.992C203.133 191.007 203.532 190.928 203.897 190.761L208.327 188.201C208.907 187.861 208.827 187.261 208.147 186.871Z" fill="#8F80EC"/>
<path d="M201.419 190.75L198.999 189.35C198.646 189.157 198.252 189.049 197.85 189.033C197.447 189.018 197.047 189.095 196.679 189.26L193.899 190.86C193.309 191.21 193.399 191.8 194.079 192.19L196.499 193.59C196.849 193.785 197.238 193.895 197.638 193.912C198.037 193.93 198.435 193.854 198.799 193.69L201.579 192.09C202.179 191.74 202.109 191.15 201.419 190.75Z" fill="#8F80EC"/>
<path d="M196.504 193.59L194.084 192.19C193.734 191.995 193.345 191.885 192.946 191.868C192.546 191.85 192.148 191.926 191.784 192.09L188.994 193.7C188.394 194.04 188.484 194.63 189.164 195.02L191.584 196.42C191.931 196.619 192.321 196.731 192.722 196.749C193.122 196.766 193.52 196.688 193.884 196.52L196.664 194.92C197.274 194.58 197.184 194 196.504 193.59Z" fill="#8F80EC"/>
<path d="M191.598 196.42L189.178 195C188.829 194.806 188.439 194.696 188.04 194.678C187.641 194.661 187.243 194.737 186.878 194.9L184.098 196.53C183.508 196.87 183.588 197.46 184.278 197.86L186.698 199.25C187.046 199.448 187.435 199.562 187.835 199.581C188.235 199.6 188.633 199.524 188.998 199.36L191.778 197.75C192.368 197.41 192.288 196.82 191.598 196.42Z" fill="#8F80EC"/>
<path d="M186.697 199.251L184.277 197.861C183.929 197.663 183.54 197.549 183.14 197.53C182.74 197.511 182.342 197.587 181.977 197.751L179.197 199.361C178.597 199.701 178.687 200.291 179.367 200.691L181.787 202.091C182.136 202.285 182.526 202.395 182.925 202.413C183.324 202.43 183.722 202.354 184.087 202.191L186.867 200.581C187.467 200.241 187.377 199.651 186.697 199.251Z" fill="#8F80EC"/>
<path d="M181.786 202.089L179.366 200.689C179.017 200.493 178.627 200.381 178.228 200.364C177.828 200.346 177.43 200.424 177.066 200.589L174.286 202.189C173.696 202.539 173.776 203.129 174.466 203.519L176.886 204.919C177.235 205.114 177.624 205.224 178.024 205.241C178.423 205.259 178.821 205.183 179.186 205.019L181.996 203.409C182.556 203.069 182.476 202.479 181.786 202.089Z" fill="#8F80EC"/>
<path d="M176.884 204.92L174.464 203.52C174.115 203.325 173.725 203.215 173.326 203.198C172.927 203.18 172.529 203.256 172.164 203.42L169.384 205C168.784 205.34 168.874 205.93 169.554 206.32L171.994 207.75C172.344 207.944 172.733 208.054 173.132 208.072C173.532 208.089 173.93 208.013 174.294 207.85L177.074 206.25C177.654 205.9 177.564 205.31 176.884 204.92Z" fill="#8F80EC"/>
<path d="M171.997 207.75L169.577 206.35C169.227 206.155 168.838 206.045 168.438 206.028C168.039 206.01 167.641 206.086 167.277 206.25L164.497 207.86C163.907 208.2 163.987 208.79 164.677 209.19L167.097 210.58C167.444 210.779 167.834 210.892 168.234 210.909C168.634 210.926 169.033 210.848 169.397 210.68L172.177 209.08C172.747 208.74 172.667 208.14 171.997 207.75Z" fill="#8F80EC"/>
<path d="M167.073 210.581L164.653 209.191C164.306 208.993 163.916 208.879 163.517 208.86C163.117 208.841 162.718 208.917 162.353 209.081L159.563 210.691C158.973 211.031 159.063 211.621 159.743 212.021L162.163 213.411C162.511 213.609 162.901 213.722 163.3 213.742C163.7 213.761 164.099 213.685 164.463 213.521L167.243 211.911C167.833 211.571 167.753 211.001 167.073 210.581Z" fill="#8F80EC"/>
<path d="M162.168 213.41L159.748 212C159.401 211.801 159.011 211.688 158.611 211.67C158.21 211.653 157.812 211.732 157.448 211.9L154.668 213.5C154.078 213.84 154.158 214.43 154.848 214.83L157.258 216.23C157.609 216.424 158.001 216.534 158.402 216.552C158.802 216.569 159.202 216.493 159.568 216.33L162.348 214.72C162.938 214.4 162.848 213.81 162.168 213.41Z" fill="#8F80EC"/>
<path d="M157.255 216.249L154.845 214.849C154.497 214.653 154.107 214.541 153.707 214.524C153.308 214.507 152.909 214.584 152.545 214.749L149.755 216.349C149.165 216.699 149.245 217.289 149.925 217.689L152.345 219.079C152.695 219.276 153.087 219.388 153.488 219.405C153.89 219.422 154.289 219.345 154.655 219.179L157.435 217.569C157.995 217.229 157.995 216.639 157.255 216.249Z" fill="#8F80EC"/>
<path d="M206 194.64L203.58 193.25C203.226 193.053 202.83 192.941 202.425 192.926C202.02 192.91 201.617 192.99 201.25 193.16L198.47 194.76C197.88 195.1 197.95 195.7 198.64 196.1L201 197.49C201.35 197.687 201.741 197.798 202.143 197.816C202.544 197.833 202.944 197.756 203.31 197.59L206.13 196C206.72 195.64 206.66 195 206 194.64Z" fill="#8F80EC"/>
<path d="M201.086 197.461L198.676 196.061C198.32 195.872 197.925 195.769 197.523 195.759C197.12 195.748 196.721 195.831 196.356 196.001L193.576 197.601C192.986 197.951 193.066 198.541 193.746 198.941L196.166 200.331C196.516 200.527 196.907 200.639 197.309 200.656C197.71 200.674 198.11 200.596 198.476 200.431L201.256 198.821C201.846 198.451 201.776 197.851 201.086 197.461Z" fill="#8F80EC"/>
<path d="M196.227 200.27L193.807 198.87C193.455 198.677 193.063 198.568 192.662 198.553C192.261 198.537 191.862 198.615 191.497 198.78L188.717 200.38C188.117 200.73 188.197 201.32 188.877 201.72L191.297 203.11C191.647 203.306 192.038 203.418 192.44 203.435C192.841 203.453 193.241 203.375 193.607 203.21L196.387 201.6C196.997 201.26 196.907 200.66 196.227 200.27Z" fill="#8F80EC"/>
<path d="M191.355 203.08L188.935 201.68C188.584 201.487 188.192 201.379 187.791 201.363C187.39 201.348 186.991 201.425 186.625 201.59L183.845 203.19C183.255 203.54 183.325 204.13 184.005 204.53L186.425 205.93C186.777 206.123 187.169 206.232 187.57 206.247C187.971 206.263 188.37 206.185 188.735 206.02L191.525 204.41C192.115 204.07 191.995 203.48 191.355 203.08Z" fill="#8F80EC"/>
<path d="M186.491 205.891L184.071 204.491C183.719 204.298 183.327 204.189 182.926 204.174C182.526 204.158 182.126 204.236 181.761 204.401L179.001 206.001C178.411 206.351 178.481 206.941 179.171 207.341L181.581 208.741C181.934 208.934 182.328 209.042 182.73 209.058C183.133 209.074 183.533 208.996 183.901 208.831L186.681 207.231C187.251 206.881 187.181 206.291 186.491 205.891Z" fill="#8F80EC"/>
<path d="M181.62 208.7L179.21 207.3C178.857 207.107 178.463 206.998 178.061 206.982C177.658 206.967 177.258 207.045 176.89 207.21L174.11 208.81C173.52 209.16 173.59 209.75 174.28 210.15L176.7 211.55C177.052 211.742 177.444 211.851 177.845 211.867C178.245 211.882 178.644 211.805 179.01 211.64L181.79 210C182.38 209.69 182.31 209.1 181.62 208.7Z" fill="#8F80EC"/>
<path d="M176.758 211.51L174.338 210.12C173.986 209.915 173.59 209.798 173.183 209.777C172.776 209.756 172.37 209.833 171.998 210L169.208 211.61C168.618 211.95 168.698 212.54 169.378 212.94L171.798 214.34C172.15 214.533 172.542 214.642 172.943 214.657C173.344 214.673 173.743 214.595 174.108 214.43L176.888 212.83C177.508 212.5 177.438 211.91 176.758 211.51Z" fill="#8F80EC"/>
<path d="M171.891 214.32L169.471 212.93C169.121 212.733 168.729 212.621 168.328 212.604C167.926 212.587 167.527 212.664 167.161 212.83L164.381 214.44C163.781 214.78 163.861 215.38 164.541 215.77L166.961 217.17C167.313 217.362 167.704 217.471 168.105 217.487C168.506 217.502 168.905 217.425 169.271 217.26L172.051 215.66C172.651 215.31 172.571 214.72 171.891 214.32Z" fill="#8F80EC"/>
<path d="M209.167 199.31L206.757 197.92C206.405 197.723 206.012 197.612 205.609 197.594C205.206 197.577 204.805 197.654 204.437 197.82L201.657 199.43C201.067 199.77 201.137 200.37 201.827 200.76L204.247 202.16C204.598 202.355 204.99 202.465 205.391 202.481C205.793 202.496 206.192 202.417 206.557 202.25L209.337 200.65C209.927 200.31 209.857 199.71 209.167 199.31Z" fill="#8F80EC"/>
<path d="M204.306 202.12L201.886 200.73C201.536 200.534 201.145 200.422 200.743 200.405C200.342 200.387 199.942 200.465 199.576 200.63L196.786 202.24C196.196 202.58 196.276 203.18 196.956 203.57L199.376 205C199.727 205.196 200.119 205.305 200.521 205.321C200.922 205.337 201.321 205.258 201.686 205.09L204.466 203.49C205.056 203.12 204.996 202.52 204.306 202.12Z" fill="#8F80EC"/>
<path d="M199.438 204.931L196.998 203.541C196.648 203.344 196.256 203.233 195.855 203.215C195.454 203.198 195.054 203.275 194.688 203.441L191.908 205.051C191.318 205.391 191.388 205.991 192.068 206.381L194.488 207.781C194.839 207.975 195.23 208.086 195.631 208.103C196.032 208.12 196.431 208.044 196.798 207.881L199.578 206.271C200.198 205.931 200.118 205.331 199.438 204.931Z" fill="#8F80EC"/>
<path d="M225.174 196.591L222.754 195.201C222.403 195.004 222.012 194.893 221.611 194.875C221.209 194.858 220.81 194.935 220.444 195.101L217.654 196.711C217.064 197.051 217.144 197.651 217.824 198.041L220.244 199.441C220.595 199.636 220.987 199.746 221.388 199.762C221.789 199.777 222.189 199.698 222.554 199.531L225.334 197.931C225.924 197.591 225.854 197.001 225.174 196.591Z" fill="#8F80EC"/>
<path d="M220.305 199.4L217.885 198C217.535 197.803 217.143 197.692 216.742 197.674C216.34 197.657 215.941 197.734 215.575 197.9L212.795 199.52C212.195 199.86 212.275 200.46 212.955 200.85L215.375 202.25C215.726 202.445 216.118 202.555 216.519 202.571C216.92 202.586 217.32 202.507 217.685 202.34L220.465 200.74C221.065 200.4 220.995 199.8 220.305 199.4Z" fill="#8F80EC"/>
<path d="M215.437 202.21L212.997 200.82C212.647 200.624 212.255 200.512 211.854 200.495C211.453 200.477 211.053 200.555 210.687 200.72L207.907 202.33C207.317 202.67 207.387 203.27 208.077 203.66L210.487 205.06C210.84 205.255 211.233 205.365 211.635 205.382C212.038 205.4 212.439 205.324 212.807 205.16L215.587 203.55C216.197 203.21 216.127 202.61 215.437 202.21Z" fill="#8F80EC"/>
<path d="M179.323 223.06L176.903 221.67C176.553 221.473 176.162 221.362 175.76 221.344C175.359 221.327 174.959 221.404 174.593 221.57L171.813 223.18C171.223 223.52 171.293 224.12 171.983 224.51L174.403 225.91C174.755 226.103 175.147 226.211 175.548 226.227C175.949 226.242 176.348 226.165 176.713 226L179.493 224.4C180.083 224.05 179.993 223.46 179.323 223.06Z" fill="#8F80EC"/>
<path d="M174.467 225.87L172.047 224.48C171.697 224.284 171.306 224.172 170.904 224.155C170.503 224.137 170.103 224.215 169.737 224.38L166.997 226C166.407 226.34 166.487 226.94 167.167 227.33L169.587 228.73C169.939 228.923 170.331 229.032 170.732 229.047C171.133 229.063 171.532 228.985 171.897 228.82L174.677 227.22C175.217 226.86 175.147 226.27 174.467 225.87Z" fill="#8F80EC"/>
<path d="M169.594 228.681L167.174 227.291C166.824 227.094 166.432 226.983 166.031 226.965C165.63 226.948 165.23 227.025 164.864 227.191L162.084 228.801C161.484 229.141 161.564 229.741 162.244 230.131L164.664 231.531C165.016 231.724 165.407 231.832 165.808 231.848C166.209 231.864 166.608 231.786 166.974 231.621L169.754 230.021C170.354 229.681 170.274 229.081 169.594 228.681Z" fill="#8F80EC"/>
<path d="M194.565 207.74L192.145 206.35C191.795 206.153 191.404 206.041 191.002 206.024C190.601 206.007 190.201 206.084 189.835 206.25L187.055 207.86C186.465 208.2 186.535 208.8 187.225 209.19L189.635 210.59C189.988 210.784 190.381 210.894 190.784 210.912C191.186 210.929 191.587 210.853 191.955 210.69L194.735 209.08C195.325 208.74 195.255 208.14 194.565 207.74Z" fill="#8F80EC"/>
<path d="M189.698 210.56L187.278 209.16C186.928 208.963 186.537 208.852 186.135 208.834C185.734 208.817 185.334 208.894 184.968 209.06L182.188 210.67C181.598 211.01 181.668 211.61 182.358 212L184.778 213.4C185.128 213.597 185.52 213.708 185.921 213.726C186.323 213.743 186.722 213.666 187.088 213.5L189.868 211.89C190.458 211.55 190.388 211 189.698 210.56Z" fill="#8F80EC"/>
<path d="M184.838 213.37L182.418 212C182.068 211.803 181.676 211.692 181.275 211.674C180.873 211.657 180.474 211.734 180.108 211.9L177.318 213.51C176.728 213.85 176.808 214.45 177.488 214.84L179.908 216.24C180.258 216.437 180.65 216.548 181.051 216.566C181.452 216.583 181.852 216.506 182.218 216.34L184.998 214.7C185.588 214.36 185.518 213.76 184.838 213.37Z" fill="#8F80EC"/>
<path d="M180 216.179L177.58 214.779C177.23 214.582 176.838 214.471 176.437 214.454C176.036 214.436 175.636 214.513 175.27 214.679L172.49 216.289C171.89 216.629 171.97 217.229 172.65 217.619L175 218.999C175.35 219.196 175.742 219.307 176.143 219.325C176.545 219.342 176.944 219.265 177.31 219.099L180.09 217.489C180.73 217.169 180.65 216.569 180 216.179Z" fill="#8F80EC"/>
<path d="M175.098 219L172.678 217.6C172.327 217.405 171.935 217.295 171.534 217.278C171.134 217.26 170.734 217.336 170.368 217.5L167.588 219.11C166.998 219.45 167.068 220.05 167.748 220.44L170.168 221.84C170.518 222.037 170.909 222.148 171.311 222.166C171.712 222.183 172.112 222.106 172.478 221.94L175.268 220.33C175.858 220 175.778 219.38 175.098 219Z" fill="#8F80EC"/>
<path d="M166.999 217.13L164.579 215.74C164.228 215.543 163.837 215.432 163.436 215.415C163.034 215.397 162.635 215.474 162.269 215.64L159.489 217.25C158.899 217.59 158.979 218.18 159.669 218.57L162.089 219.97C162.438 220.165 162.828 220.275 163.227 220.292C163.626 220.309 164.024 220.233 164.389 220.07L167.169 218.47C167.779 218.12 167.709 217.53 166.999 217.13Z" fill="#8F80EC"/>
<path d="M152.659 218.9L150.239 217.51C149.889 217.313 149.497 217.201 149.096 217.184C148.695 217.167 148.295 217.244 147.929 217.41L145.149 219C144.559 219.34 144.629 219.94 145.319 220.33L147.729 221.73C148.082 221.925 148.476 222.035 148.879 222.05C149.281 222.066 149.682 221.987 150.049 221.82L152.829 220.22C153.419 219.9 153.349 219.3 152.659 218.9Z" fill="#8F80EC"/>
<path d="M213.786 190.13L211.366 188.73C211.015 188.534 210.623 188.424 210.222 188.408C209.82 188.393 209.421 188.472 209.056 188.64L203.396 191.9C202.806 192.25 202.866 192.85 203.556 193.25L205.996 194.64C206.349 194.835 206.742 194.945 207.145 194.961C207.548 194.976 207.949 194.897 208.316 194.73L213.996 191.46C214.546 191.12 214.476 190.52 213.786 190.13Z" fill="#8F80EC"/>
<path d="M169.928 221.999L167.508 220.609C167.158 220.413 166.767 220.301 166.365 220.284C165.964 220.266 165.564 220.344 165.198 220.509L156.438 225.569C155.848 225.909 155.918 226.509 156.608 226.899L159.028 228.299C159.379 228.495 159.771 228.605 160.172 228.621C160.574 228.637 160.973 228.557 161.338 228.389L170.088 223.389C170.688 222.999 170.608 222.369 169.928 221.999Z" fill="#8F80EC"/>
<path d="M210.226 205.221L207.816 203.821C207.462 203.628 207.069 203.52 206.666 203.504C206.264 203.488 205.863 203.566 205.496 203.731L177.126 220.111C176.536 220.451 176.606 221.051 177.296 221.441L179.716 222.841C180.066 223.038 180.458 223.149 180.859 223.167C181.26 223.184 181.66 223.107 182.026 222.941L210.396 206.561C210.996 206.211 210.916 205.621 210.226 205.221Z" fill="#8F80EC"/>
<path d="M219.434 193.39L216.994 192C216.643 191.805 216.251 191.695 215.85 191.68C215.448 191.664 215.049 191.743 214.684 191.91L207.224 196.21C206.634 196.55 206.714 197.15 207.394 197.54L209.814 198.94C210.164 199.137 210.556 199.249 210.957 199.266C211.358 199.283 211.758 199.206 212.124 199.04L219.574 194.73C220.194 194.38 220.114 193.78 219.434 193.39Z" fill="#8F80EC"/>
<path d="M162.106 220L159.686 218.6C159.337 218.405 158.948 218.295 158.548 218.278C158.149 218.26 157.751 218.336 157.386 218.5L150.786 222.31C150.196 222.65 150.276 223.25 150.956 223.64L153.376 225.04C153.727 225.235 154.119 225.345 154.521 225.36C154.922 225.376 155.321 225.297 155.686 225.13L162.286 221.33C162.876 221 162.786 220.36 162.106 220Z" fill="#8F80EC"/>
<path d="M200.95 224.511L211.05 218.681L203.03 214.051L192.93 219.881L200.95 224.511Z" fill="url(#paint3_linear_844_6778)"/>
<path d="M212.27 218L215.1 216.37C215.93 215.89 215.83 215.05 214.87 214.5L210.32 211.87C209.827 211.597 209.278 211.443 208.715 211.421C208.153 211.398 207.593 211.508 207.08 211.74L204.25 213.37L212.27 218Z" fill="url(#paint4_linear_844_6778)"/>
<path d="M199.73 225.21L196.9 226.85C196.387 227.082 195.827 227.192 195.265 227.169C194.702 227.147 194.153 226.993 193.66 226.72L189.11 224.09C188.11 223.54 188.05 222.7 188.88 222.22L191.71 220.59L199.73 225.21Z" fill="url(#paint5_linear_844_6778)"/>
<path d="M133.798 216.23L198.257 177.33C198.58 177.117 198.849 176.832 199.041 176.497C199.234 176.162 199.346 175.786 199.368 175.4L200.737 129.35C200.737 128.64 198.857 127.71 198.247 128.07L132.798 166C132.475 166.213 132.206 166.499 132.014 166.834C131.821 167.169 131.709 167.544 131.688 167.93V214.62C131.688 215.29 133.188 216.59 133.798 216.23Z" fill="#2E1F88"/>
<path d="M134.208 216.09L199.648 178.2C199.972 177.989 200.242 177.704 200.435 177.368C200.628 177.033 200.739 176.656 200.758 176.27V129.58C200.758 128.87 200.258 128.58 199.638 128.94L134.198 166.83C133.873 167.041 133.601 167.325 133.407 167.661C133.212 167.996 133.099 168.373 133.078 168.76V215.45C133.078 216.16 133.588 216.45 134.208 216.09Z" fill="url(#paint6_linear_844_6778)"/>
<path d="M198.8 174.661V133.461C198.8 132.461 198.1 132.081 197.24 132.581L136.59 167.691C136.132 167.98 135.749 168.374 135.473 168.84C135.197 169.306 135.035 169.83 135 170.371V211.571C135 212.571 135.7 212.951 136.56 212.451L197.26 177.341C197.707 177.045 198.08 176.648 198.347 176.183C198.614 175.718 198.769 175.196 198.8 174.661Z" fill="#141736"/>
<path d="M199.604 185.999L202.344 184.409C202.774 184.159 202.724 183.719 202.214 183.409L199.754 181.999C199.489 181.865 199.196 181.795 198.899 181.795C198.601 181.795 198.309 181.865 198.044 181.999L195.304 183.579C194.864 183.839 194.924 184.279 195.424 184.579L197.894 185.999C198.159 186.134 198.451 186.204 198.749 186.204C199.046 186.204 199.339 186.134 199.604 185.999Z" fill="url(#paint7_linear_844_6778)"/>
<path d="M194.059 189.22L196.799 187.64C197.239 187.39 197.179 186.94 196.679 186.64L194.209 185.22C193.95 185.074 193.66 184.992 193.363 184.98C193.066 184.968 192.77 185.026 192.499 185.15L189.759 186.73C189.329 186.98 189.379 187.42 189.889 187.73L192.349 189.15C192.61 189.293 192.9 189.374 193.196 189.386C193.493 189.398 193.788 189.341 194.059 189.22Z" fill="url(#paint8_linear_844_6778)"/>
<path d="M188.509 192.42L191.249 190.84C191.689 190.59 191.629 190.15 191.129 189.84L188.659 188.41C188.404 188.278 188.122 188.205 187.835 188.196C187.548 188.188 187.262 188.243 186.999 188.36L184.259 189.94C183.829 190.19 183.879 190.64 184.389 190.94L186.849 192.36C187.103 192.496 187.385 192.572 187.673 192.582C187.96 192.592 188.246 192.537 188.509 192.42Z" fill="url(#paint9_linear_844_6778)"/>
<path d="M182.995 195.63L185.735 194.05C186.175 193.79 186.115 193.35 185.615 193.05L183.145 191.63C182.887 191.483 182.597 191.399 182.3 191.385C182.003 191.371 181.707 191.427 181.435 191.55L178.705 193.14C178.265 193.39 178.315 193.83 178.825 194.14L181.285 195.57C181.546 195.711 181.837 195.79 182.133 195.801C182.43 195.811 182.725 195.752 182.995 195.63Z" fill="url(#paint10_linear_844_6778)"/>
<path d="M177.409 198.829L180.149 197.249C180.589 196.999 180.529 196.549 180.029 196.249L177.559 194.829C177.301 194.686 177.013 194.606 176.718 194.593C176.423 194.581 176.129 194.638 175.859 194.759L173.119 196.339C172.679 196.589 172.729 197.029 173.239 197.339L175.709 198.759C175.968 198.902 176.256 198.983 176.551 198.995C176.846 199.007 177.14 198.951 177.409 198.829Z" fill="url(#paint11_linear_844_6778)"/>
<path d="M171.869 202.001L174.599 200.421C175.039 200.171 174.989 199.731 174.479 199.421L171.999 198.001C171.736 197.872 171.447 197.805 171.154 197.805C170.861 197.805 170.572 197.872 170.309 198.001L167.569 199.581C167.129 199.841 167.189 200.281 167.689 200.581L170.159 202.001C170.424 202.135 170.717 202.205 171.014 202.205C171.311 202.205 171.604 202.135 171.869 202.001Z" fill="url(#paint12_linear_844_6778)"/>
<path d="M166.319 205.241L169.049 203.661C169.489 203.401 169.439 202.961 168.929 202.661L166.469 201.241C166.21 201.093 165.92 201.01 165.622 200.998C165.325 200.985 165.029 201.045 164.759 201.171L161.999 202.761C161.559 203.011 161.619 203.451 162.119 203.761L164.589 205.191C164.853 205.334 165.147 205.413 165.448 205.422C165.748 205.431 166.047 205.369 166.319 205.241Z" fill="url(#paint13_linear_844_6778)"/>
<path d="M160.768 208.441L163.508 206.861C163.938 206.611 163.888 206.171 163.378 205.861L160.918 204.441C160.657 204.298 160.368 204.217 160.071 204.205C159.774 204.193 159.479 204.249 159.208 204.371L156.468 206.001C156.028 206.251 156.088 206.691 156.588 207.001L159.058 208.421C159.322 208.556 159.614 208.628 159.91 208.632C160.207 208.635 160.5 208.57 160.768 208.441Z" fill="url(#paint14_linear_844_6778)"/>
<path d="M155.219 211.64L157.999 210.06C158.439 209.81 158.379 209.37 157.869 209.06L155.409 207.63C155.149 207.487 154.859 207.406 154.562 207.394C154.265 207.382 153.97 207.439 153.699 207.56L150.959 209.14C150.519 209.4 150.579 209.84 151.089 210.14L153.549 211.56C153.802 211.703 154.084 211.785 154.374 211.798C154.664 211.812 154.954 211.758 155.219 211.64Z" fill="url(#paint15_linear_844_6778)"/>
<path d="M149.669 214.851L152.409 213.271C152.849 213.011 152.789 212.571 152.289 212.271L149.819 210.851C149.559 210.705 149.269 210.623 148.972 210.611C148.675 210.599 148.379 210.657 148.109 210.781L145.369 212.361C144.939 212.611 144.989 213.051 145.499 213.361L147.999 214.781C148.254 214.917 148.537 214.995 148.826 215.007C149.115 215.019 149.403 214.966 149.669 214.851Z" fill="url(#paint16_linear_844_6778)"/>
<path d="M144.12 218.05L146.86 216.47C147.3 216.22 147.24 215.78 146.74 215.47L144.27 214.05C144.01 213.907 143.72 213.826 143.424 213.814C143.127 213.802 142.831 213.859 142.56 213.98L139.83 215.56C139.39 215.81 139.44 216.25 139.95 216.56L142.41 218C142.672 218.14 142.963 218.217 143.259 218.226C143.556 218.235 143.851 218.175 144.12 218.05Z" fill="url(#paint17_linear_844_6778)"/>
<path d="M203.597 190.231L207.997 187.691C208.437 187.441 208.387 187.001 207.877 186.691L205.397 185.281C205.138 185.138 204.85 185.057 204.555 185.045C204.26 185.032 203.966 185.089 203.697 185.211L199.307 187.751C198.867 188.001 198.917 188.441 199.427 188.751L201.887 190.181C202.149 190.32 202.439 190.398 202.736 190.406C203.033 190.415 203.327 190.355 203.597 190.231Z" fill="url(#paint18_linear_844_6778)"/>
<path d="M198.529 193.16L201.269 191.58C201.709 191.32 201.649 190.88 201.149 190.58L198.679 189.16C198.424 189.018 198.139 188.939 197.847 188.929C197.555 188.918 197.265 188.977 196.999 189.1L194.259 190.68C193.829 190.93 193.879 191.37 194.389 191.68L196.849 193.11C197.107 193.245 197.393 193.319 197.684 193.328C197.975 193.337 198.264 193.279 198.529 193.16Z" fill="url(#paint19_linear_844_6778)"/>
<path d="M193.627 195.999L196.357 194.419C196.797 194.169 196.747 193.719 196.237 193.419L193.767 191.999C193.509 191.856 193.22 191.775 192.925 191.763C192.63 191.751 192.336 191.808 192.067 191.929L189.327 193.509C188.887 193.759 188.947 194.199 189.447 194.509L191.917 195.939C192.178 196.081 192.468 196.16 192.765 196.17C193.062 196.181 193.357 196.122 193.627 195.999Z" fill="url(#paint20_linear_844_6778)"/>
<path d="M188.716 198.82L191.456 197.24C191.896 196.99 191.836 196.55 191.336 196.24L188.866 194.82C188.606 194.677 188.316 194.596 188.019 194.584C187.722 194.571 187.427 194.628 187.156 194.75L184.416 196.33C183.986 196.58 184.036 197.03 184.546 197.33L186.996 198.75C187.257 198.894 187.549 198.976 187.847 198.988C188.146 199 188.443 198.943 188.716 198.82Z" fill="url(#paint21_linear_844_6778)"/>
<path d="M183.807 201.649L186.547 200.069C186.987 199.819 186.937 199.379 186.427 199.069L183.997 197.659C183.738 197.516 183.45 197.436 183.155 197.423C182.86 197.411 182.566 197.468 182.297 197.589L179.557 199.169C179.117 199.429 179.167 199.869 179.677 200.169L182.147 201.589C182.4 201.727 182.682 201.803 182.97 201.814C183.258 201.824 183.544 201.768 183.807 201.649Z" fill="url(#paint22_linear_844_6778)"/>
<path d="M178.908 204.491L181.648 202.901C182.078 202.651 182.028 202.211 181.518 201.901L179.058 200.501C178.8 200.354 178.51 200.27 178.213 200.256C177.916 200.242 177.619 200.299 177.348 200.421L174.608 202.001C174.168 202.251 174.228 202.691 174.728 203.001L177.198 204.421C177.458 204.566 177.748 204.648 178.045 204.66C178.342 204.672 178.638 204.614 178.908 204.491Z" fill="url(#paint23_linear_844_6778)"/>
<path d="M173.995 207.319L176.735 205.739C177.175 205.479 177.115 205.039 176.615 204.739L174.145 203.319C173.886 203.174 173.596 203.092 173.299 203.08C173.002 203.068 172.706 203.126 172.435 203.249L169.705 204.829C169.265 205.079 169.315 205.519 169.825 205.829L172.295 207.259C172.555 207.401 172.843 207.48 173.138 207.49C173.433 207.501 173.727 207.442 173.995 207.319Z" fill="url(#paint24_linear_844_6778)"/>
<path d="M169.096 210.15L171.836 208.57C172.266 208.32 172.216 207.87 171.706 207.57L169.246 206.15C168.986 206.007 168.696 205.926 168.399 205.914C168.102 205.902 167.807 205.958 167.536 206.08L164.796 207.67C164.356 207.92 164.416 208.36 164.916 208.67L167.386 210.09C167.647 210.231 167.937 210.31 168.234 210.321C168.53 210.331 168.825 210.273 169.096 210.15Z" fill="url(#paint25_linear_844_6778)"/>
<path d="M164.191 212.999L166.931 211.419C167.371 211.169 167.311 210.729 166.811 210.419L164.341 208.999C164.08 208.856 163.791 208.775 163.494 208.763C163.197 208.751 162.902 208.808 162.631 208.929L159.901 210.499C159.461 210.749 159.511 211.199 160.021 211.499L162.481 212.919C162.739 213.066 163.029 213.15 163.326 213.164C163.623 213.178 163.919 213.122 164.191 212.999Z" fill="url(#paint26_linear_844_6778)"/>
<path d="M159.289 215.81L161.999 214.23C162.429 213.98 162.379 213.54 161.869 213.23L159.409 211.8C159.149 211.657 158.859 211.576 158.562 211.564C158.265 211.552 157.97 211.609 157.699 211.73L154.999 213.33C154.559 213.59 154.619 214.03 155.119 214.33L157.589 215.75C157.847 215.895 158.136 215.975 158.432 215.986C158.727 215.996 159.021 215.936 159.289 215.81Z" fill="url(#paint27_linear_844_6778)"/>
<path d="M154.378 218.649L157.118 217.069C157.558 216.809 157.498 216.369 156.998 216.069L154.528 214.649C154.27 214.501 153.979 214.418 153.682 214.406C153.384 214.394 153.088 214.453 152.818 214.579L150.088 216.159C149.648 216.409 149.698 216.849 150.208 217.159L152.668 218.589C152.929 218.731 153.219 218.81 153.516 218.82C153.813 218.831 154.108 218.772 154.378 218.649Z" fill="url(#paint28_linear_844_6778)"/>
<path d="M203.064 197.061L205.804 195.471C206.234 195.221 206.184 194.781 205.674 194.471L203.214 193.051C202.953 192.908 202.663 192.83 202.365 192.821C202.068 192.812 201.773 192.874 201.504 193.001L198.764 194.591C198.324 194.841 198.384 195.281 198.884 195.591L201.354 197.001C201.615 197.142 201.906 197.221 202.202 197.232C202.499 197.242 202.794 197.184 203.064 197.061Z" fill="url(#paint29_linear_844_6778)"/>
<path d="M198.2 199.87L200.94 198.29C201.38 198.03 201.32 197.59 200.82 197.29L198.35 195.87C198.091 195.722 197.801 195.639 197.504 195.627C197.206 195.614 196.91 195.674 196.64 195.8L193.9 197.39C193.47 197.64 193.52 198.08 194.03 198.39L196.49 199.82C196.752 199.96 197.043 200.037 197.339 200.046C197.636 200.055 197.931 199.994 198.2 199.87Z" fill="url(#paint30_linear_844_6778)"/>
<path d="M193.324 202.68L196.064 201.1C196.504 200.84 196.444 200.4 195.944 200.1L193.474 198.68C193.216 198.533 192.926 198.449 192.628 198.437C192.33 198.425 192.034 198.484 191.764 198.61L188.994 200.2C188.554 200.45 188.604 200.89 189.114 201.2L191.574 202.63C191.841 202.777 192.139 202.858 192.443 202.867C192.748 202.875 193.05 202.811 193.324 202.68Z" fill="url(#paint31_linear_844_6778)"/>
<path d="M188.471 205.491L191.201 203.911C191.641 203.651 191.591 203.211 191.081 202.911L188.621 201.501C188.362 201.353 188.072 201.27 187.774 201.257C187.477 201.245 187.181 201.305 186.911 201.431L184.171 203.001C183.731 203.251 183.791 203.691 184.291 204.001L186.761 205.431C187.022 205.572 187.312 205.651 187.609 205.662C187.905 205.672 188.2 205.614 188.471 205.491Z" fill="url(#paint32_linear_844_6778)"/>
<path d="M183.596 208.301L186.336 206.721C186.766 206.461 186.716 206.021 186.206 205.721L183.746 204.301C183.481 204.148 183.183 204.062 182.878 204.052C182.573 204.041 182.27 204.106 181.996 204.241L179.296 205.821C178.856 206.071 178.916 206.511 179.416 206.821L181.886 208.251C182.147 208.391 182.438 208.468 182.735 208.477C183.032 208.485 183.326 208.425 183.596 208.301Z" fill="url(#paint33_linear_844_6778)"/>
<path d="M178.724 211.11L181.464 209.53C181.904 209.27 181.844 208.83 181.344 208.53L178.874 207.11C178.615 206.962 178.325 206.879 178.027 206.867C177.729 206.855 177.433 206.914 177.164 207.04L174.424 208.62C173.994 208.87 174.044 209.31 174.554 209.62L176.994 211C177.253 211.153 177.545 211.242 177.845 211.261C178.146 211.281 178.447 211.229 178.724 211.11Z" fill="url(#paint34_linear_844_6778)"/>
<path d="M173.857 213.921L176.597 212.341C177.037 212.081 176.977 211.641 176.477 211.341L173.997 209.931C173.737 209.785 173.447 209.703 173.15 209.691C172.853 209.679 172.557 209.737 172.287 209.861L169.557 211.441C169.117 211.691 169.167 212.131 169.677 212.441L172.137 213.871C172.4 214.012 172.692 214.09 172.991 214.099C173.29 214.108 173.586 214.047 173.857 213.921Z" fill="url(#paint35_linear_844_6778)"/>
<path d="M168.994 216.73L171.724 215.15C172.164 214.89 172.114 214.45 171.604 214.15L169.144 212.73C168.885 212.584 168.595 212.502 168.298 212.49C168 212.478 167.705 212.536 167.434 212.66L164.694 214.24C164.254 214.49 164.314 214.93 164.814 215.24L167.284 216.67C167.545 216.811 167.835 216.89 168.132 216.901C168.429 216.911 168.724 216.852 168.994 216.73Z" fill="url(#paint36_linear_844_6778)"/>
<path d="M206.274 201.72L208.994 200.14C209.434 199.89 209.374 199.45 208.874 199.14L206.404 197.72C206.144 197.577 205.854 197.496 205.557 197.484C205.26 197.472 204.965 197.529 204.694 197.65L201.994 199.24C201.564 199.49 201.614 199.93 202.124 200.24L204.584 201.66C204.842 201.798 205.129 201.876 205.422 201.886C205.715 201.897 206.006 201.84 206.274 201.72Z" fill="url(#paint37_linear_844_6778)"/>
<path d="M201.409 204.529L204.149 202.999C204.589 202.749 204.529 202.309 204.029 201.999L201.559 200.579C201.299 200.436 201.009 200.356 200.713 200.343C200.416 200.331 200.12 200.388 199.849 200.509L197.119 202.089C196.679 202.339 196.729 202.779 197.239 203.089L199.699 204.509C199.964 204.645 200.255 204.717 200.552 204.72C200.849 204.724 201.142 204.658 201.409 204.529Z" fill="url(#paint38_linear_844_6778)"/>
<path d="M196.549 207.341L199.279 205.761C199.719 205.511 199.669 205.071 199.159 204.761L196.689 203.341C196.43 203.198 196.142 203.117 195.847 203.105C195.552 203.093 195.258 203.15 194.989 203.271L192.249 204.851C191.809 205.101 191.869 205.541 192.369 205.851L194.839 207.271C195.099 207.414 195.389 207.495 195.686 207.507C195.982 207.519 196.278 207.462 196.549 207.341Z" fill="url(#paint39_linear_844_6778)"/>
<path d="M222.274 198.999L224.994 197.419C225.434 197.169 225.374 196.729 224.874 196.419L222.424 194.999C222.164 194.856 221.874 194.775 221.578 194.763C221.281 194.751 220.985 194.808 220.714 194.929L217.994 196.519C217.554 196.769 217.604 197.209 218.114 197.519L220.574 198.939C220.834 199.079 221.123 199.158 221.417 199.168C221.712 199.178 222.005 199.121 222.274 198.999Z" fill="url(#paint40_linear_844_6778)"/>
<path d="M217.416 201.81L220.146 200.23C220.586 199.98 220.536 199.54 220.026 199.23L217.556 197.81C217.298 197.667 217.009 197.586 216.714 197.574C216.419 197.562 216.125 197.619 215.856 197.74L213.116 199.32C212.676 199.57 212.736 200.01 213.236 200.32L215.706 201.74C215.966 201.883 216.256 201.964 216.553 201.976C216.85 201.988 217.145 201.931 217.416 201.81Z" fill="url(#paint41_linear_844_6778)"/>
<path d="M212.547 204.62L215.287 203C215.717 202.75 215.667 202.31 215.157 202L212.697 200.63C212.438 200.488 212.15 200.408 211.855 200.396C211.56 200.384 211.266 200.44 210.997 200.56L208.257 202.14C207.817 202.39 207.877 202.83 208.377 203.14L210.847 204.56C211.106 204.7 211.395 204.778 211.69 204.788C211.984 204.799 212.278 204.741 212.547 204.62Z" fill="url(#paint42_linear_844_6778)"/>
<path d="M176.434 225.47L179.174 223.89C179.614 223.63 179.554 223.19 179.044 222.89L176.584 221.47C176.325 221.324 176.035 221.242 175.738 221.23C175.441 221.218 175.145 221.276 174.874 221.4L172.134 223C171.704 223.25 171.754 223.69 172.264 224L174.724 225.43C174.987 225.568 175.278 225.644 175.575 225.651C175.871 225.658 176.166 225.596 176.434 225.47Z" fill="url(#paint43_linear_844_6778)"/>
<path d="M171.566 228.28L174.306 226.7C174.746 226.45 174.686 226 174.186 225.7L171.716 224.28C171.456 224.135 171.166 224.053 170.869 224.041C170.572 224.028 170.276 224.087 170.006 224.21L167.276 225.79C166.836 226.04 166.886 226.48 167.396 226.79L169.856 228.22C170.117 228.362 170.407 228.441 170.704 228.451C171 228.462 171.295 228.403 171.566 228.28Z" fill="url(#paint44_linear_844_6778)"/>
<path d="M166.698 231.091L169.438 229.511C169.878 229.261 169.828 228.811 169.318 228.511L166.848 227.091C166.591 226.945 166.302 226.863 166.007 226.851C165.711 226.839 165.417 226.897 165.148 227.021L162.408 228.601C161.968 228.851 162.018 229.291 162.528 229.601L164.998 231.001C165.255 231.147 165.543 231.231 165.838 231.247C166.133 231.262 166.428 231.209 166.698 231.091Z" fill="url(#paint45_linear_844_6778)"/>
<path d="M191.674 210.15L194.414 208.57C194.844 208.32 194.794 207.88 194.284 207.57L191.824 206.15C191.564 206.007 191.274 205.926 190.977 205.914C190.68 205.902 190.385 205.958 190.114 206.08L187.374 207.66C186.934 207.91 186.994 208.36 187.494 208.66L189.994 210.08C190.25 210.218 190.535 210.296 190.826 210.308C191.117 210.321 191.407 210.266 191.674 210.15Z" fill="url(#paint46_linear_844_6778)"/>
<path d="M186.809 212.999L189.549 211.419C189.989 211.169 189.929 210.729 189.429 210.419L186.999 208.999C186.738 208.856 186.448 208.775 186.152 208.763C185.855 208.751 185.56 208.808 185.289 208.929L182.549 210.509C182.119 210.759 182.169 211.209 182.679 211.509L185.139 212.929C185.394 213.066 185.676 213.144 185.966 213.156C186.255 213.168 186.543 213.114 186.809 212.999Z" fill="url(#paint47_linear_844_6778)"/>
<path d="M181.941 215.771L184.681 214.191C185.121 213.941 185.061 213.501 184.561 213.191L182.091 211.761C181.83 211.618 181.541 211.537 181.244 211.525C180.947 211.513 180.652 211.57 180.381 211.691L177.651 213.271C177.211 213.521 177.261 213.971 177.771 214.271L180.231 215.691C180.489 215.838 180.779 215.922 181.076 215.936C181.373 215.95 181.669 215.893 181.941 215.771Z" fill="url(#paint48_linear_844_6778)"/>
<path d="M177.066 218.58L179.806 217C180.246 216.75 180.196 216.31 179.686 216L177.216 214.57C176.957 214.427 176.669 214.346 176.374 214.334C176.079 214.321 175.785 214.378 175.516 214.5L172.776 216.08C172.336 216.34 172.386 216.78 172.896 217.08L175.366 218.5C175.622 218.646 175.911 218.73 176.206 218.744C176.502 218.758 176.796 218.702 177.066 218.58Z" fill="url(#paint49_linear_844_6778)"/>
<path d="M172.205 221.39L174.935 219.81C175.375 219.56 175.325 219.12 174.815 218.81L172.355 217.38C172.095 217.237 171.805 217.156 171.508 217.144C171.212 217.132 170.916 217.189 170.645 217.31L167.905 218.89C167.465 219.15 167.525 219.59 168.025 219.89L170.495 221.31C170.754 221.457 171.043 221.541 171.341 221.555C171.638 221.569 171.934 221.512 172.205 221.39Z" fill="url(#paint50_linear_844_6778)"/>
<path d="M164.127 219.541L166.867 218.001C167.297 217.751 167.247 217.301 166.737 217.001L164.277 215.581C164.018 215.436 163.727 215.354 163.43 215.341C163.133 215.329 162.837 215.387 162.567 215.511L159.827 217.091C159.387 217.341 159.447 217.781 159.947 218.091L162.417 219.521C162.681 219.656 162.973 219.728 163.27 219.732C163.566 219.735 163.86 219.67 164.127 219.541Z" fill="url(#paint51_linear_844_6778)"/>
<path d="M149.768 221.31L152.508 219.73C152.938 219.48 152.888 219.04 152.378 218.73L149.918 217.31C149.657 217.167 149.368 217.086 149.071 217.074C148.774 217.062 148.479 217.119 148.208 217.24L145.468 218.82C145.028 219.07 145.088 219.51 145.588 219.82L148.058 221.24C148.318 221.383 148.608 221.464 148.904 221.476C149.201 221.488 149.497 221.431 149.768 221.31Z" fill="url(#paint52_linear_844_6778)"/>
<path d="M207.999 194.2L213.639 191C214.079 190.75 214.019 190.31 213.519 190L211.049 188.57C210.789 188.427 210.499 188.346 210.202 188.334C209.905 188.321 209.61 188.378 209.339 188.5L203.729 191.75C203.289 192 203.339 192.44 203.849 192.75L206.309 194.18C206.57 194.312 206.859 194.382 207.151 194.386C207.444 194.389 207.734 194.326 207.999 194.2Z" fill="url(#paint53_linear_844_6778)"/>
<path d="M161.057 227.829L169.767 222.829C170.207 222.579 170.157 222.129 169.647 221.829L167.177 220.409C166.918 220.266 166.63 220.186 166.335 220.173C166.04 220.161 165.746 220.218 165.477 220.339L156.757 225.339C156.317 225.589 156.377 226.029 156.877 226.339L159.347 227.759C159.607 227.903 159.897 227.983 160.193 227.995C160.49 228.008 160.786 227.951 161.057 227.829Z" fill="url(#paint54_linear_844_6778)"/>
<path d="M181.744 222.4L210.074 206.05C210.514 205.79 210.454 205.35 209.954 205.05L207.484 203.63C207.225 203.485 206.935 203.402 206.638 203.39C206.34 203.378 206.045 203.436 205.774 203.56L177.444 219.92C177.004 220.17 177.064 220.62 177.564 220.92L179.994 222.33C180.259 222.482 180.556 222.568 180.861 222.58C181.165 222.592 181.468 222.53 181.744 222.4Z" fill="url(#paint55_linear_844_6778)"/>
<path d="M211.864 198.49L219.274 194.21C219.714 193.96 219.664 193.52 219.154 193.21L216.694 191.8C216.435 191.658 216.147 191.578 215.852 191.566C215.558 191.554 215.264 191.61 214.994 191.73L207.564 196C207.134 196.25 207.184 196.7 207.694 197L210.154 198.42C210.414 198.565 210.704 198.647 211.001 198.659C211.298 198.671 211.594 198.613 211.864 198.49Z" fill="url(#paint56_linear_844_6778)"/>
<path d="M155.411 224.57L162.001 220.79C162.431 220.53 162.381 220.09 161.871 219.79L159.411 218.37C159.151 218.225 158.861 218.143 158.564 218.13C158.267 218.118 157.971 218.176 157.701 218.3L151.151 222.08C150.711 222.33 150.761 222.77 151.271 223.08L153.731 224.5C153.987 224.638 154.272 224.717 154.563 224.729C154.854 224.741 155.144 224.687 155.411 224.57Z" fill="url(#paint57_linear_844_6778)"/>
<path d="M187.087 173.71V158.98L184.367 157.4V172.14L187.087 173.71Z" fill="#9A2977"/>
<g opacity="0.5">
<path d="M191.457 172.071V157.881L188.727 156.311V170.491L191.457 172.071Z" fill="#0A743C"/>
<path d="M191.457 157.88L194.147 156.33L191.427 154.75L188.727 156.31L191.457 157.88Z" fill="#329F4B"/>
<path d="M191.453 172.07L194.143 170.51V156.33L191.453 157.88V172.07Z" fill="#01CC52"/>
<path d="M187.087 180.7V165.97L184.367 164.4V179.13L187.087 180.7Z" fill="#9A2977"/>
<path d="M187.086 180.7L189.786 179.15V164.41L187.086 165.97V180.7Z" fill="#F342BD"/>
<path d="M182.746 176.471V161.201L180.016 159.631V174.901L182.746 176.471Z" fill="#0A743C"/>
<path d="M182.746 161.2L185.436 159.65L182.716 158.07L180.016 159.63L182.746 161.2Z" fill="#329F4B"/>
<path d="M182.742 176.47L185.432 174.92V159.65L182.742 161.2V176.47Z" fill="#01CC52"/>
<path d="M178.136 177.941V168.111L175.406 166.541V176.371L178.136 177.941Z" fill="#9A2977"/>
<path d="M178.136 168.11L180.826 166.55L178.106 164.98L175.406 166.54L178.136 168.11Z" fill="#C14590"/>
<path d="M178.133 177.941L180.823 176.391V166.551L178.133 168.111V177.941Z" fill="#F342BD"/>
<path d="M173.472 171.541V161.531L170.742 159.961V169.961L173.472 171.541Z" fill="#0A743C"/>
<path d="M173.472 161.53L176.162 159.97L173.442 158.4L170.742 159.96L173.472 161.53Z" fill="#329F4B"/>
<path d="M173.469 171.541L176.159 169.981V159.971L173.469 161.531V171.541Z" fill="#01CC52"/>
<path d="M168.863 183.86V167.48L166.133 165.9V182.29L168.863 183.86Z" fill="#9A2977"/>
<path d="M168.863 167.48L171.553 165.92L168.833 164.35L166.133 165.9L168.863 167.48Z" fill="#C14590"/>
<path d="M168.859 183.86L171.549 182.31V165.92L168.859 167.48V183.86Z" fill="#F342BD"/>
<path d="M159.582 187.191V178.111L156.852 176.541V185.621L159.582 187.191Z" fill="#0A743C"/>
<path d="M159.582 178.11L162.282 176.56L159.552 174.98L156.852 176.54L159.582 178.11Z" fill="#329F4B"/>
<path d="M159.578 187.191L162.278 185.641V176.561L159.578 178.111V187.191Z" fill="#01CC52"/>
<path d="M154.91 186.12V177.65L152.18 176.08V184.55L154.91 186.12Z" fill="#0A743C"/>
<path d="M154.91 177.65L157.6 176.1L154.88 174.52L152.18 176.08L154.91 177.65Z" fill="#329F4B"/>
<path d="M154.906 186.12L157.596 184.56V176.1L154.906 177.65V186.12Z" fill="#01CC52"/>
<path d="M150.3 193.59V182.5L147.57 180.93V192.02L150.3 193.59Z" fill="#9A2977"/>
<path d="M150.3 182.499L153 180.949L150.27 179.369L147.57 180.929L150.3 182.499Z" fill="#C14590"/>
<path d="M150.297 193.589L152.997 192.039V180.949L150.297 182.499V193.589Z" fill="#F342BD"/>
<path d="M145.628 198.23V183.9L142.898 182.32V196.65L145.628 198.23Z" fill="#9A2977"/>
<path d="M145.628 183.9L148.318 182.34L145.598 180.77L142.898 182.32L145.628 183.9Z" fill="#C14590"/>
<path d="M145.625 198.23L148.315 196.67V182.34L145.625 183.9V198.23Z" fill="#F342BD"/>
<path d="M141.019 198.662V190.512L138.289 188.932V197.092L141.019 198.662Z" fill="#9A2977"/>
<path d="M141.019 190.511L143.719 188.951L140.989 187.381L138.289 188.931L141.019 190.511Z" fill="#C14590"/>
<path d="M141.016 198.661L143.716 197.111V188.951L141.016 190.511V198.661Z" fill="#F342BD"/>
</g>
<path d="M191.457 165.08V150.89L188.727 149.32V163.5L191.457 165.08Z" fill="#0A743C"/>
<path d="M191.457 150.89L194.147 149.33L191.427 147.76L188.727 149.32L191.457 150.89Z" fill="#329F4B"/>
<path d="M191.453 165.08L194.143 163.52V149.33L191.453 150.89V165.08Z" fill="#01CC52"/>
<path d="M187.087 158.98L189.787 157.42L187.057 155.85L184.367 157.4L187.087 158.98Z" fill="#C14590"/>
<path d="M187.086 173.71L189.786 172.15V157.42L187.086 158.98V173.71Z" fill="#F342BD"/>
<path d="M182.746 169.481V154.211L180.016 152.631V167.911L182.746 169.481Z" fill="#0A743C"/>
<path d="M182.746 154.21L185.436 152.65L182.716 151.08L180.016 152.63L182.746 154.21Z" fill="#329F4B"/>
<path d="M182.742 169.48L185.432 167.92V152.65L182.742 154.21V169.48Z" fill="#01CC52"/>
<path d="M178.136 170.951V161.121L175.406 159.551V169.381L178.136 170.951Z" fill="#9A2977"/>
<path d="M178.136 161.12L180.826 159.56L178.106 157.99L175.406 159.55L178.136 161.12Z" fill="#C14590"/>
<path d="M178.133 170.951L180.823 169.401V159.561L178.133 161.121V170.951Z" fill="#F342BD"/>
<path d="M173.472 164.551V154.541L170.742 152.961V162.971L173.472 164.551Z" fill="#0A743C"/>
<path d="M173.472 154.54L176.162 152.98L173.442 151.41L170.742 152.96L173.472 154.54Z" fill="#329F4B"/>
<path d="M173.469 164.55L176.159 162.99V152.98L173.469 154.54V164.55Z" fill="#01CC52"/>
<path d="M168.863 176.87V160.48L166.133 158.91V175.3L168.863 176.87Z" fill="#9A2977"/>
<path d="M168.863 160.48L171.553 158.93L168.833 157.35L166.133 158.91L168.863 160.48Z" fill="#C14590"/>
<path d="M168.859 176.87L171.549 175.32V158.93L168.859 160.48V176.87Z" fill="#F342BD"/>
<path d="M159.582 180.201V171.121L156.852 169.551V178.631L159.582 180.201Z" fill="#0A743C"/>
<path d="M159.582 171.12L162.282 169.56L159.552 167.99L156.852 169.55L159.582 171.12Z" fill="#329F4B"/>
<path d="M159.578 180.201L162.278 178.641V169.561L159.578 171.121V180.201Z" fill="#01CC52"/>
<path d="M154.91 179.13V170.66L152.18 169.09V177.55L154.91 179.13Z" fill="#0A743C"/>
<path d="M154.91 170.659L157.6 169.099L154.88 167.529L152.18 169.089L154.91 170.659Z" fill="#329F4B"/>
<path d="M154.906 179.13L157.596 177.57V169.1L154.906 170.66V179.13Z" fill="#01CC52"/>
<path d="M150.3 186.599V175.509L147.57 173.939V185.029L150.3 186.599Z" fill="#9A2977"/>
<path d="M150.3 175.509L153 173.959L150.27 172.379L147.57 173.939L150.3 175.509Z" fill="#C14590"/>
<path d="M150.297 186.599L152.997 185.039V173.959L150.297 175.509V186.599Z" fill="#F342BD"/>
<path d="M145.628 191.23V176.91L142.898 175.33V189.66L145.628 191.23Z" fill="#9A2977"/>
<path d="M145.628 176.91L148.318 175.35L145.598 173.77L142.898 175.33L145.628 176.91Z" fill="#C14590"/>
<path d="M145.625 191.23L148.315 189.68V175.35L145.625 176.91V191.23Z" fill="#F342BD"/>
<path d="M141.019 191.671V183.521L138.289 181.941V190.091L141.019 191.671Z" fill="#9A2977"/>
<path d="M141.019 183.521L143.719 181.961L140.989 180.391L138.289 181.941L141.019 183.521Z" fill="#C14590"/>
<path d="M141.016 191.671L143.716 190.111V181.961L141.016 183.521V191.671Z" fill="#F342BD"/>
<path d="M230.2 171.929C228.2 175.349 225.02 177.199 223.04 176.059C222.855 175.959 222.686 175.831 222.54 175.679C221.08 174.229 221.24 170.899 223.04 167.789C224.84 164.679 227.64 162.869 229.62 163.409C229.821 163.469 230.015 163.549 230.2 163.649C232.18 164.799 232.18 168.499 230.2 171.929Z" fill="#E49800"/>
<path d="M229.12 171.299C227.32 174.409 224.52 176.219 222.54 175.679C221.08 174.229 221.24 170.899 223.04 167.789C224.84 164.679 227.64 162.869 229.62 163.409C231.08 164.859 230.91 168.189 229.12 171.299Z" fill="#FFB70E"/>
<path d="M231.407 161.551C230.187 160.851 228.487 160.951 226.617 162.031C224.644 163.318 223.002 165.052 221.825 167.091C220.647 169.131 219.966 171.419 219.837 173.771C219.837 175.931 220.597 177.451 221.837 178.161L219.227 176.661C217.997 175.951 217.227 174.431 217.227 172.271C217.353 169.918 218.032 167.629 219.208 165.587C220.384 163.546 222.025 161.81 223.997 160.521C225.877 159.441 227.567 159.341 228.797 160.051L231.407 161.551Z" fill="url(#paint58_linear_844_6778)"/>
<path d="M226.616 162.001C224.643 163.288 223.002 165.021 221.824 167.061C220.646 169.101 219.965 171.389 219.836 173.741C219.836 178.071 222.836 179.821 226.616 177.661C228.59 176.372 230.232 174.637 231.41 172.596C232.588 170.554 233.268 168.264 233.396 165.911C233.396 161.621 230.356 159.871 226.616 162.001ZM226.616 175.681C223.816 177.291 221.546 175.981 221.546 172.751C221.644 170.996 222.154 169.29 223.035 167.77C223.916 166.249 225.143 164.958 226.616 164.001C229.416 162.381 231.686 163.691 231.686 166.921C231.592 168.681 231.083 170.395 230.202 171.922C229.322 173.449 228.093 174.747 226.616 175.711V175.681Z" fill="#FFCC54"/>
<path d="M227.073 172.463V173.373L226.062 172.793V171.883L227.073 172.463Z" fill="#E49800"/>
<path d="M226.047 173.053V173.963L225.047 173.383V172.473L226.047 173.053Z" fill="#E49800"/>
<path d="M228.741 168.771C228.581 168.696 228.404 168.666 228.229 168.681C228.053 168.697 227.885 168.759 227.741 168.861L227.641 168.921L226.641 168.341L226.741 168.281C226.875 168.183 227.033 168.124 227.198 168.108C227.364 168.092 227.53 168.121 227.681 168.191L228.741 168.771Z" fill="#FFDD82"/>
<path d="M228.576 166.002C228.452 165.932 228.313 165.895 228.171 165.895C228.029 165.895 227.889 165.932 227.766 166.002L226.766 165.422C226.89 165.354 227.029 165.318 227.171 165.318C227.312 165.318 227.452 165.354 227.576 165.422L228.576 166.002Z" fill="#FFDD82"/>
<path d="M226.242 172.001L227.332 171.371C227.575 171.225 227.772 171.013 227.902 170.761C228.051 170.524 228.134 170.251 228.142 169.971C228.154 169.871 228.138 169.769 228.095 169.677C228.053 169.586 227.986 169.507 227.902 169.451L226.902 168.871C226.985 168.929 227.05 169.007 227.092 169.099C227.134 169.19 227.152 169.291 227.142 169.391C227.133 169.674 227.05 169.95 226.902 170.191C226.764 170.434 226.568 170.64 226.332 170.791L225.242 171.421L226.242 172.001Z" fill="#E49800"/>
<path d="M226.266 169.232L227.266 168.652C227.472 168.525 227.641 168.346 227.756 168.132C227.885 167.925 227.958 167.687 227.966 167.442C227.975 167.355 227.96 167.267 227.923 167.188C227.886 167.109 227.828 167.041 227.756 166.992L226.756 166.412C226.826 166.463 226.881 166.531 226.916 166.61C226.951 166.689 226.965 166.776 226.956 166.862C226.952 167.106 226.882 167.344 226.756 167.552C226.636 167.764 226.468 167.946 226.266 168.082L225.266 168.652L226.266 169.232Z" fill="#E49800"/>
<path d="M227.762 165.002L227.073 165.402L226.062 164.832L226.762 164.422L227.762 165.002Z" fill="#FFDD82"/>
<path d="M227.073 165.402V166.402L226.062 165.822V164.832L227.073 165.402Z" fill="#E49800"/>
<path d="M227.074 166.402L226.744 166.592L225.734 166.012L226.064 165.822L227.074 166.402Z" fill="#FFDD82"/>
<path d="M225.273 168.191V172.591L224.273 172.011V167.611L225.273 168.191Z" fill="#E49800"/>
<path d="M225.273 172.592L224.713 172.912L223.703 172.332L224.273 172.012L225.273 172.592Z" fill="#FFDD82"/>
<path d="M224.713 172.912V173.822L223.703 173.242V172.332L224.713 172.912Z" fill="#E49800"/>
<path d="M226.747 165.591L226.047 166.001L225.047 165.421L225.737 165.021L226.747 165.591Z" fill="#FFDD82"/>
<path d="M226.047 166.002V166.992L225.047 166.422V165.422L226.047 166.002Z" fill="#E49800"/>
<path d="M226.043 166.992L224.713 167.762L223.703 167.192L225.043 166.422L226.043 166.992Z" fill="#FFDD82"/>
<path d="M224.713 167.761V168.511L223.703 167.941V167.191L224.713 167.761Z" fill="#E49800"/>
<path d="M227.796 168.862L227.696 168.922C228.069 168.692 228.382 168.375 228.608 168C228.834 167.624 228.967 167.2 228.996 166.762C229.013 166.608 228.988 166.451 228.922 166.31C228.857 166.169 228.755 166.049 228.626 165.962C228.502 165.892 228.363 165.855 228.221 165.855C228.079 165.855 227.939 165.892 227.816 165.962V165.002L227.126 165.402V166.402L226.796 166.592V165.592L226.096 166.002V167.002L224.766 167.772V168.522L225.326 168.202V172.602L224.766 172.922V173.832L226.096 173.062V174.002L226.796 173.602V172.692L227.126 172.502V173.412L227.816 173.002V172.102C228.21 171.848 228.54 171.505 228.778 171.1C229.016 170.695 229.156 170.24 229.186 169.772V169.672C229.136 168.782 228.536 168.442 227.796 168.862ZM226.266 167.622L227.266 167.042C227.646 166.822 227.966 167.042 227.966 167.442C227.958 167.686 227.885 167.924 227.756 168.132C227.641 168.346 227.472 168.525 227.266 168.652L226.266 169.232V167.622ZM227.906 170.792C227.776 171.044 227.578 171.255 227.336 171.402L226.246 172.032V170.172L227.336 169.542C227.786 169.282 228.146 169.542 228.146 170.002C228.137 170.282 228.054 170.555 227.906 170.792Z" fill="#FFCC54"/>
<path d="M161.994 128.45C159.184 133.31 154.644 135.93 151.844 134.31C151.585 134.162 151.346 133.98 151.134 133.77C149.064 131.72 149.304 127 151.844 122.6C154.384 118.2 158.354 115.6 161.164 116.4C161.454 116.479 161.732 116.593 161.994 116.74C164.804 118.36 164.804 123.6 161.994 128.45Z" fill="#E49800"/>
<path d="M160.47 127.57C157.93 131.97 153.96 134.57 151.15 133.77C149.08 131.72 149.32 127 151.86 122.6C154.4 118.2 158.37 115.6 161.18 116.4C163.25 118.45 163 123.17 160.47 127.57Z" fill="#FFB70E"/>
<path d="M163.721 113.77C161.981 112.77 159.581 112.91 156.931 114.44C151.631 117.5 147.331 124.95 147.331 131.07C147.331 134.13 148.411 136.28 150.151 137.28L146.461 135.15C144.721 134.15 143.641 132 143.641 128.94C143.641 122.82 147.941 115.37 153.241 112.31C155.891 110.78 158.291 110.64 160.001 111.64L163.721 113.77Z" fill="url(#paint59_linear_844_6778)"/>
<path d="M156.928 114.44C151.628 117.5 147.328 124.95 147.328 131.07C147.328 137.19 151.628 139.67 156.928 136.61C162.228 133.55 166.528 126.11 166.528 119.98C166.528 113.85 162.228 111.38 156.928 114.44ZM156.928 133.81C152.928 136.1 149.758 134.24 149.758 129.67C149.892 127.18 150.611 124.757 151.857 122.597C153.103 120.438 154.84 118.602 156.928 117.24C160.928 114.96 164.108 116.81 164.108 121.38C163.972 123.87 163.251 126.293 162.004 128.453C160.756 130.612 159.017 132.448 156.928 133.81Z" fill="#FFCC54"/>
<path d="M153.544 122.68C150.194 123.57 149.474 124.29 148.594 127.68C147.704 124.33 146.984 123.61 143.594 122.68C146.944 121.8 147.664 121.08 148.594 117.73C149.474 121.08 150.194 121.8 153.544 122.68Z" fill="white"/>
<path d="M146.609 115.73C144.609 116.27 144.179 116.73 143.609 118.73C143.079 116.73 142.609 116.3 140.609 115.73C142.609 115.2 143.049 114.73 143.609 112.73C144.179 114.77 144.609 115.2 146.609 115.73Z" fill="white"/>
<path d="M164.103 137.191C165.429 137.191 166.503 136.116 166.503 134.791C166.503 133.465 165.429 132.391 164.103 132.391C162.778 132.391 161.703 133.465 161.703 134.791C161.703 136.116 162.778 137.191 164.103 137.191Z" fill="white"/>
<path d="M156.928 131.43L153.508 127.85L158.108 127.18L156.928 131.43Z" fill="#FFCC54"/>
<path d="M160.348 123.9L153.508 127.85L158.108 127.18L160.348 123.9Z" fill="#E49800"/>
<path d="M156.93 131.43L158.11 127.18L160.35 123.9L156.93 131.43Z" fill="#E49800"/>
<path d="M153.508 127.36L156.928 118.73L158.108 126.68L153.508 127.36Z" fill="#FFDD82"/>
<path d="M158.11 126.68L156.93 118.73L160.35 123.41L158.11 126.68Z" fill="#FFCC54"/>
<path d="M149.446 234.001C147.506 237.361 144.376 239.171 142.446 238.001C142.266 237.897 142.101 237.77 141.956 237.621C140.526 236.211 140.686 232.941 142.446 229.901C144.206 226.861 146.946 225.091 148.886 225.621C149.085 225.672 149.277 225.749 149.456 225.851C151.386 227.001 151.386 230.651 149.446 234.001Z" fill="#E49800"/>
<path d="M148.388 233.391C146.628 236.391 143.888 238.201 141.948 237.671C140.518 236.261 140.678 232.991 142.438 229.951C144.198 226.911 146.938 225.141 148.878 225.671C150.308 227.081 150.148 230.351 148.388 233.391Z" fill="#FFB70E"/>
<path d="M150.638 223.85C149.438 223.16 147.778 223.26 145.948 224.32C144.015 225.578 142.406 227.274 141.252 229.27C140.098 231.267 139.432 233.508 139.308 235.81C139.308 237.92 140.048 239.41 141.248 240.1L138.698 238.63C137.498 237.94 136.758 236.45 136.758 234.34C136.882 232.037 137.547 229.796 138.699 227.798C139.851 225.8 141.457 224.102 143.388 222.84C145.228 221.78 146.888 221.68 148.088 222.38L150.638 223.85Z" fill="url(#paint60_linear_844_6778)"/>
<path d="M145.999 224.32C144.066 225.577 142.458 227.273 141.304 229.27C140.15 231.267 139.484 233.507 139.359 235.81C139.359 240.04 142.359 241.75 145.999 239.64C147.929 238.38 149.534 236.683 150.686 234.687C151.838 232.69 152.504 230.451 152.629 228.15C152.579 223.91 149.609 222.2 145.999 224.32ZM145.999 237.7C143.259 239.28 140.999 238 140.999 234.84C141.1 233.116 141.605 231.44 142.474 229.948C143.342 228.456 144.55 227.189 145.999 226.25C148.729 224.67 150.949 225.95 150.949 229.11C150.854 230.829 150.357 232.502 149.497 233.994C148.637 235.486 147.439 236.756 145.999 237.7Z" fill="#FFCC54"/>
<path d="M138.808 225.21C137.428 225.58 137.128 225.87 136.758 227.26C136.388 225.87 136.088 225.58 134.758 225.21C136.138 224.84 136.438 224.54 136.758 223.15C137.128 224.54 137.428 224.84 138.808 225.21Z" fill="white"/>
<path d="M152.56 238.381C151.44 238.681 151.2 238.921 150.9 240.041C150.61 238.921 150.37 238.681 149.25 238.381C150.37 238.081 150.61 237.841 150.9 236.721C151.2 237.841 151.44 238.081 152.56 238.381Z" fill="white"/>
<path d="M143.288 234.18C143.508 234.31 144.418 234 145.578 233.39C145.838 233.26 146.108 233.11 146.388 232.95L147.068 232.54C148.478 231.66 149.538 230.77 149.538 230.43C149.541 230.411 149.538 230.39 149.529 230.373C149.52 230.355 149.506 230.34 149.488 230.33L148.608 229.82C148.624 229.832 148.637 229.847 148.646 229.864C148.655 229.882 148.659 229.901 148.658 229.92C148.658 230.26 147.598 231.15 146.178 232.03C145.968 232.17 145.738 232.31 145.498 232.44C145.258 232.57 144.958 232.75 144.698 232.88C143.528 233.49 142.628 233.8 142.398 233.67L143.288 234.18Z" fill="#E49800"/>
<path d="M149.992 230.171C149.622 229.961 148.472 230.301 146.992 231.051L146.102 230.541C147.542 229.791 148.702 229.451 149.102 229.661L149.992 230.171Z" fill="#FFDD82"/>
<path d="M145.575 232.971V232.051L144.695 231.531V232.461L145.575 232.971Z" fill="#E49800"/>
<path d="M145.575 234.131V237.201L144.695 236.691V233.621L145.575 234.131Z" fill="#E49800"/>
<path d="M145.575 231.172V231.922L144.695 231.412V230.672L145.575 231.172Z" fill="#E49800"/>
<path d="M145.575 231.912C143.885 233.002 142.625 234.192 142.625 234.732C142.622 234.777 142.633 234.82 142.654 234.859C142.675 234.898 142.706 234.93 142.745 234.952L141.855 234.442C141.816 234.42 141.785 234.388 141.764 234.349C141.743 234.31 141.732 234.267 141.735 234.222C141.735 233.682 143.005 232.492 144.735 231.402L145.575 231.912Z" fill="#FFDD82"/>
<path d="M149.123 227.301L143.513 230.541L142.633 230.031L148.233 226.791L149.123 227.301Z" fill="#FFDD82"/>
<path d="M143.513 230.541V232.361L142.633 231.851V230.031L143.513 230.541Z" fill="#E49800"/>
<path d="M147.065 231.051V230.321L149.125 229.131V227.301L143.515 230.541V232.361L145.575 231.181V231.911C143.885 233.001 142.625 234.191 142.625 234.731C142.625 235.271 143.885 235.001 145.575 234.131V237.201L147.065 236.341V233.281C148.815 232.171 150.145 230.941 150.145 230.391C150.145 229.841 148.815 230.131 147.065 231.051ZM147.065 232.541L146.385 232.951C146.105 233.111 145.835 233.261 145.575 233.391C144.225 234.101 143.225 234.391 143.225 234.081C143.225 233.771 144.225 232.901 145.575 232.081V233.001C145.835 232.871 146.105 232.721 146.385 232.561L147.065 232.151V231.211C148.475 230.461 149.535 230.131 149.535 230.461C149.535 230.791 148.475 231.661 147.065 232.541Z" fill="#FFCC54"/>
<path d="M143.608 230C141.288 230.62 140.798 231.11 140.178 233.43C139.568 231.11 139.068 230.62 136.758 230C139.068 229.39 139.568 228.89 140.178 226.58C140.798 228.9 141.288 229.4 143.608 230Z" fill="white"/>
<path d="M221.416 146.09C219.476 149.44 216.336 151.26 214.416 150.09C214.233 149.987 214.065 149.859 213.916 149.71C212.496 148.3 212.656 145.03 214.416 141.99C216.176 138.95 218.916 137.18 220.856 137.71C221.056 137.762 221.247 137.839 221.426 137.94C223.346 139.11 223.346 142.74 221.416 146.09Z" fill="#E49800"/>
<path d="M220.358 145.479C218.598 148.479 215.848 150.289 213.908 149.759C212.488 148.349 212.648 145.079 214.408 142.039C216.168 138.999 218.908 137.229 220.848 137.759C222.278 139.169 222.108 142.439 220.358 145.479Z" fill="#FFB70E"/>
<path d="M222.597 135.94C221.397 135.25 219.737 135.35 217.907 136.4C215.977 137.663 214.371 139.361 213.22 141.359C212.068 143.357 211.402 145.598 211.277 147.9C211.277 150.01 212.017 151.5 213.217 152.19L210.667 150.72C209.467 150.03 208.727 148.54 208.727 146.42C208.852 144.119 209.518 141.88 210.67 139.884C211.821 137.887 213.427 136.191 215.357 134.93C217.187 133.87 218.847 133.77 220.047 134.47L222.597 135.94Z" fill="url(#paint61_linear_844_6778)"/>
<path d="M217.903 136.399C215.974 137.662 214.368 139.361 213.216 141.358C212.065 143.356 211.399 145.597 211.273 147.899C211.273 152.129 214.273 153.839 217.903 151.729C219.836 150.471 221.444 148.775 222.598 146.779C223.752 144.782 224.418 142.542 224.543 140.239C224.543 135.999 221.573 134.289 217.903 136.399ZM217.903 149.789C215.163 151.369 212.903 150.089 212.903 146.929C213.004 145.206 213.509 143.53 214.378 142.038C215.247 140.545 216.454 139.278 217.903 138.339C220.643 136.759 222.903 138.039 222.903 141.199C222.803 142.923 222.298 144.599 221.429 146.091C220.56 147.584 219.353 148.851 217.903 149.789Z" fill="#FFCC54"/>
<path d="M215.567 142.1C213.257 142.71 212.757 143.21 212.147 145.52C211.537 143.21 211.037 142.71 208.727 142.1C211.037 141.49 211.537 140.99 212.147 138.68C212.757 141 213.257 141.49 215.567 142.1Z" fill="white"/>
<path d="M137.747 155.391C135.807 158.751 132.667 160.561 130.747 159.391C130.569 159.288 130.405 159.164 130.257 159.021C128.827 157.601 128.997 154.341 130.747 151.301C132.497 148.261 135.247 146.481 137.187 147.011C137.389 147.067 137.584 147.148 137.767 147.251C139.677 148.421 139.677 152.001 137.747 155.391Z" fill="#E49800"/>
<path d="M136.674 154.78C134.924 157.78 132.174 159.6 130.234 159.07C128.804 157.65 128.974 154.39 130.724 151.35C132.474 148.31 135.224 146.53 137.164 147.06C138.594 148.48 138.434 151.74 136.674 154.78Z" fill="#FFB70E"/>
<path d="M138.927 145.241C137.727 144.551 136.067 144.651 134.237 145.711C132.305 146.969 130.697 148.666 129.543 150.662C128.39 152.658 127.723 154.899 127.597 157.201C127.597 159.321 128.347 160.801 129.597 161.501L126.997 160.001C125.797 159.311 125.047 157.831 125.047 155.711C125.174 153.412 125.842 151.175 126.996 149.182C128.149 147.189 129.757 145.496 131.687 144.241C133.517 143.181 135.177 143.081 136.377 143.771L138.927 145.241Z" fill="url(#paint62_linear_844_6778)"/>
<path d="M134.234 145.711C132.301 146.968 130.692 148.664 129.538 150.661C128.384 152.657 127.718 154.898 127.594 157.201C127.594 161.431 130.594 163.151 134.234 161.031C136.166 159.772 137.774 158.076 138.927 156.079C140.081 154.083 140.748 151.843 140.874 149.541C140.874 145.311 137.894 143.591 134.234 145.711ZM134.234 159.101C131.494 160.681 129.234 159.401 129.234 156.231C129.331 154.508 129.835 152.832 130.704 151.341C131.573 149.85 132.783 148.585 134.234 147.651C136.974 146.061 139.234 147.351 139.234 150.511C139.133 152.235 138.628 153.91 137.759 155.403C136.891 156.895 135.683 158.162 134.234 159.101Z" fill="#FFCC54"/>
<path d="M127.107 146.601C125.717 146.971 125.417 147.271 125.047 148.601C124.687 147.221 124.387 146.921 123.047 146.601C124.437 146.231 124.737 145.941 125.097 144.551C125.417 145.941 125.717 146.231 127.107 146.601Z" fill="white"/>
</g>
<defs>
<filter id="filter0_b_844_6778" x="-26" y="174.1" width="415" height="400.9" filterUnits="userSpaceOnUse" color-interpolation-filters="sRGB">
<feFlood flood-opacity="0" result="BackgroundImageFix"/>
<feGaussianBlur in="BackgroundImageFix" stdDeviation="20"/>
<feComposite in2="SourceAlpha" operator="in" result="effect1_backgroundBlur_844_6778"/>
<feBlend mode="normal" in="SourceGraphic" in2="effect1_backgroundBlur_844_6778" result="shape"/>
</filter>
<filter id="filter1_f_844_6778" x="0" y="0" width="370" height="370" filterUnits="userSpaceOnUse" color-interpolation-filters="sRGB">
<feFlood flood-opacity="0" result="BackgroundImageFix"/>
<feBlend mode="normal" in="SourceGraphic" in2="BackgroundImageFix" result="shape"/>
<feGaussianBlur stdDeviation="50" result="effect1_foregroundBlur_844_6778"/>
</filter>
<linearGradient id="paint0_linear_844_6778" x1="21.1907" y1="203.563" x2="357.688" y2="518.007" gradientUnits="userSpaceOnUse">
<stop stop-opacity="0.25"/>
<stop offset="1" stop-color="#2D8CFF" stop-opacity="0.09"/>
</linearGradient>
<linearGradient id="paint1_linear_844_6778" x1="28.1949" y1="196" x2="414.281" y2="350.075" gradientUnits="userSpaceOnUse">
<stop stop-color="#2D8CFF" stop-opacity="0.68"/>
<stop offset="1" stop-color="#999999"/>
</linearGradient>
<linearGradient id="paint2_linear_844_6778" x1="244.89" y1="210.259" x2="85.8899" y2="210.259" gradientUnits="userSpaceOnUse">
<stop stop-color="#6B55F4"/>
<stop offset="1" stop-color="#45289B"/>
</linearGradient>
<linearGradient id="paint3_linear_844_6778" x1="211.05" y1="219.281" x2="192.93" y2="219.281" gradientUnits="userSpaceOnUse">
<stop stop-color="#705BCA"/>
<stop offset="1" stop-color="#8F80EC"/>
</linearGradient>
<linearGradient id="paint4_linear_844_6778" x1="215.66" y1="214.68" x2="204.25" y2="214.68" gradientUnits="userSpaceOnUse">
<stop stop-color="#705BCA"/>
<stop offset="1" stop-color="#8F80EC"/>
</linearGradient>
<linearGradient id="paint5_linear_844_6778" x1="199.73" y1="223.88" x2="188.32" y2="223.88" gradientUnits="userSpaceOnUse">
<stop stop-color="#705BCA"/>
<stop offset="1" stop-color="#8F80EC"/>
</linearGradient>
<linearGradient id="paint6_linear_844_6778" x1="200.758" y1="172.51" x2="133.078" y2="172.51" gradientUnits="userSpaceOnUse">
<stop stop-color="#6B55F4"/>
<stop offset="1" stop-color="#45289B"/>
</linearGradient>
<linearGradient id="paint7_linear_844_6778" x1="202.634" y1="183.989" x2="195.014" y2="183.989" gradientUnits="userSpaceOnUse">
<stop stop-color="#705BCA"/>
<stop offset="1" stop-color="#8F80EC"/>
</linearGradient>
<linearGradient id="paint8_linear_844_6778" x1="197.089" y1="187.19" x2="189.469" y2="187.19" gradientUnits="userSpaceOnUse">
<stop stop-color="#705BCA"/>
<stop offset="1" stop-color="#8F80EC"/>
</linearGradient>
<linearGradient id="paint9_linear_844_6778" x1="191.549" y1="190.39" x2="183.919" y2="190.39" gradientUnits="userSpaceOnUse">
<stop stop-color="#705BCA"/>
<stop offset="1" stop-color="#8F80EC"/>
</linearGradient>
<linearGradient id="paint10_linear_844_6778" x1="185.995" y1="193.6" x2="178.365" y2="193.6" gradientUnits="userSpaceOnUse">
<stop stop-color="#705BCA"/>
<stop offset="1" stop-color="#8F80EC"/>
</linearGradient>
<linearGradient id="paint11_linear_844_6778" x1="180.449" y1="196.799" x2="172.819" y2="196.799" gradientUnits="userSpaceOnUse">
<stop stop-color="#705BCA"/>
<stop offset="1" stop-color="#8F80EC"/>
</linearGradient>
<linearGradient id="paint12_linear_844_6778" x1="174.899" y1="200.001" x2="167.269" y2="200.001" gradientUnits="userSpaceOnUse">
<stop stop-color="#705BCA"/>
<stop offset="1" stop-color="#8F80EC"/>
</linearGradient>
<linearGradient id="paint13_linear_844_6778" x1="169.349" y1="203.211" x2="161.719" y2="203.211" gradientUnits="userSpaceOnUse">
<stop stop-color="#705BCA"/>
<stop offset="1" stop-color="#8F80EC"/>
</linearGradient>
<linearGradient id="paint14_linear_844_6778" x1="163.798" y1="206.411" x2="156.178" y2="206.411" gradientUnits="userSpaceOnUse">
<stop stop-color="#705BCA"/>
<stop offset="1" stop-color="#8F80EC"/>
</linearGradient>
<linearGradient id="paint15_linear_844_6778" x1="158.249" y1="209.61" x2="150.629" y2="209.61" gradientUnits="userSpaceOnUse">
<stop stop-color="#705BCA"/>
<stop offset="1" stop-color="#8F80EC"/>
</linearGradient>
<linearGradient id="paint16_linear_844_6778" x1="152.699" y1="212.821" x2="145.079" y2="212.821" gradientUnits="userSpaceOnUse">
<stop stop-color="#705BCA"/>
<stop offset="1" stop-color="#8F80EC"/>
</linearGradient>
<linearGradient id="paint17_linear_844_6778" x1="147.16" y1="216.02" x2="139.53" y2="216.02" gradientUnits="userSpaceOnUse">
<stop stop-color="#705BCA"/>
<stop offset="1" stop-color="#8F80EC"/>
</linearGradient>
<linearGradient id="paint18_linear_844_6778" x1="208.287" y1="187.721" x2="199.007" y2="187.721" gradientUnits="userSpaceOnUse">
<stop stop-color="#705BCA"/>
<stop offset="1" stop-color="#8F80EC"/>
</linearGradient>
<linearGradient id="paint19_linear_844_6778" x1="201.559" y1="191.13" x2="193.939" y2="191.13" gradientUnits="userSpaceOnUse">
<stop stop-color="#705BCA"/>
<stop offset="1" stop-color="#8F80EC"/>
</linearGradient>
<linearGradient id="paint20_linear_844_6778" x1="196.657" y1="193.959" x2="189.027" y2="193.959" gradientUnits="userSpaceOnUse">
<stop stop-color="#705BCA"/>
<stop offset="1" stop-color="#8F80EC"/>
</linearGradient>
<linearGradient id="paint21_linear_844_6778" x1="191.746" y1="196.79" x2="184.126" y2="196.79" gradientUnits="userSpaceOnUse">
<stop stop-color="#705BCA"/>
<stop offset="1" stop-color="#8F80EC"/>
</linearGradient>
<linearGradient id="paint22_linear_844_6778" x1="186.847" y1="199.619" x2="179.217" y2="199.619" gradientUnits="userSpaceOnUse">
<stop stop-color="#705BCA"/>
<stop offset="1" stop-color="#8F80EC"/>
</linearGradient>
<linearGradient id="paint23_linear_844_6778" x1="181.938" y1="202.461" x2="174.318" y2="202.461" gradientUnits="userSpaceOnUse">
<stop stop-color="#705BCA"/>
<stop offset="1" stop-color="#8F80EC"/>
</linearGradient>
<linearGradient id="paint24_linear_844_6778" x1="177.035" y1="205.289" x2="169.405" y2="205.289" gradientUnits="userSpaceOnUse">
<stop stop-color="#705BCA"/>
<stop offset="1" stop-color="#8F80EC"/>
</linearGradient>
<linearGradient id="paint25_linear_844_6778" x1="172.126" y1="208.12" x2="164.506" y2="208.12" gradientUnits="userSpaceOnUse">
<stop stop-color="#705BCA"/>
<stop offset="1" stop-color="#8F80EC"/>
</linearGradient>
<linearGradient id="paint26_linear_844_6778" x1="167.231" y1="210.949" x2="159.601" y2="210.949" gradientUnits="userSpaceOnUse">
<stop stop-color="#705BCA"/>
<stop offset="1" stop-color="#8F80EC"/>
</linearGradient>
<linearGradient id="paint27_linear_844_6778" x1="162.319" y1="213.78" x2="154.699" y2="213.78" gradientUnits="userSpaceOnUse">
<stop stop-color="#705BCA"/>
<stop offset="1" stop-color="#8F80EC"/>
</linearGradient>
<linearGradient id="paint28_linear_844_6778" x1="157.418" y1="216.619" x2="149.788" y2="216.619" gradientUnits="userSpaceOnUse">
<stop stop-color="#705BCA"/>
<stop offset="1" stop-color="#8F80EC"/>
</linearGradient>
<linearGradient id="paint29_linear_844_6778" x1="206.094" y1="195.031" x2="198.474" y2="195.031" gradientUnits="userSpaceOnUse">
<stop stop-color="#705BCA"/>
<stop offset="1" stop-color="#8F80EC"/>
</linearGradient>
<linearGradient id="paint30_linear_844_6778" x1="201.24" y1="197.84" x2="193.61" y2="197.84" gradientUnits="userSpaceOnUse">
<stop stop-color="#705BCA"/>
<stop offset="1" stop-color="#8F80EC"/>
</linearGradient>
<linearGradient id="paint31_linear_844_6778" x1="196.364" y1="200.65" x2="188.734" y2="200.65" gradientUnits="userSpaceOnUse">
<stop stop-color="#705BCA"/>
<stop offset="1" stop-color="#8F80EC"/>
</linearGradient>
<linearGradient id="paint32_linear_844_6778" x1="191.501" y1="203.461" x2="183.871" y2="203.461" gradientUnits="userSpaceOnUse">
<stop stop-color="#705BCA"/>
<stop offset="1" stop-color="#8F80EC"/>
</linearGradient>
<linearGradient id="paint33_linear_844_6778" x1="186.626" y1="206.271" x2="179.006" y2="206.271" gradientUnits="userSpaceOnUse">
<stop stop-color="#705BCA"/>
<stop offset="1" stop-color="#8F80EC"/>
</linearGradient>
<linearGradient id="paint34_linear_844_6778" x1="181.754" y1="209.08" x2="174.134" y2="209.08" gradientUnits="userSpaceOnUse">
<stop stop-color="#705BCA"/>
<stop offset="1" stop-color="#8F80EC"/>
</linearGradient>
<linearGradient id="paint35_linear_844_6778" x1="176.897" y1="211.891" x2="169.267" y2="211.891" gradientUnits="userSpaceOnUse">
<stop stop-color="#705BCA"/>
<stop offset="1" stop-color="#8F80EC"/>
</linearGradient>
<linearGradient id="paint36_linear_844_6778" x1="172.024" y1="214.7" x2="164.394" y2="214.7" gradientUnits="userSpaceOnUse">
<stop stop-color="#705BCA"/>
<stop offset="1" stop-color="#8F80EC"/>
</linearGradient>
<linearGradient id="paint37_linear_844_6778" x1="209.304" y1="199.69" x2="201.684" y2="199.69" gradientUnits="userSpaceOnUse">
<stop stop-color="#705BCA"/>
<stop offset="1" stop-color="#8F80EC"/>
</linearGradient>
<linearGradient id="paint38_linear_844_6778" x1="204.449" y1="202.499" x2="196.819" y2="202.499" gradientUnits="userSpaceOnUse">
<stop stop-color="#705BCA"/>
<stop offset="1" stop-color="#8F80EC"/>
</linearGradient>
<linearGradient id="paint39_linear_844_6778" x1="199.579" y1="205.311" x2="191.949" y2="205.311" gradientUnits="userSpaceOnUse">
<stop stop-color="#705BCA"/>
<stop offset="1" stop-color="#8F80EC"/>
</linearGradient>
<linearGradient id="paint40_linear_844_6778" x1="225.314" y1="196.969" x2="217.684" y2="196.969" gradientUnits="userSpaceOnUse">
<stop stop-color="#705BCA"/>
<stop offset="1" stop-color="#8F80EC"/>
</linearGradient>
<linearGradient id="paint41_linear_844_6778" x1="220.446" y1="199.78" x2="212.816" y2="199.78" gradientUnits="userSpaceOnUse">
<stop stop-color="#705BCA"/>
<stop offset="1" stop-color="#8F80EC"/>
</linearGradient>
<linearGradient id="paint42_linear_844_6778" x1="215.577" y1="202.59" x2="207.957" y2="202.59" gradientUnits="userSpaceOnUse">
<stop stop-color="#705BCA"/>
<stop offset="1" stop-color="#8F80EC"/>
</linearGradient>
<linearGradient id="paint43_linear_844_6778" x1="179.464" y1="223.44" x2="171.844" y2="223.44" gradientUnits="userSpaceOnUse">
<stop stop-color="#705BCA"/>
<stop offset="1" stop-color="#8F80EC"/>
</linearGradient>
<linearGradient id="paint44_linear_844_6778" x1="174.606" y1="226.25" x2="166.976" y2="226.25" gradientUnits="userSpaceOnUse">
<stop stop-color="#705BCA"/>
<stop offset="1" stop-color="#8F80EC"/>
</linearGradient>
<linearGradient id="paint45_linear_844_6778" x1="169.738" y1="229.061" x2="162.108" y2="229.061" gradientUnits="userSpaceOnUse">
<stop stop-color="#705BCA"/>
<stop offset="1" stop-color="#8F80EC"/>
</linearGradient>
<linearGradient id="paint46_linear_844_6778" x1="194.704" y1="208.12" x2="187.084" y2="208.12" gradientUnits="userSpaceOnUse">
<stop stop-color="#705BCA"/>
<stop offset="1" stop-color="#8F80EC"/>
</linearGradient>
<linearGradient id="paint47_linear_844_6778" x1="189.839" y1="210.929" x2="182.219" y2="210.929" gradientUnits="userSpaceOnUse">
<stop stop-color="#705BCA"/>
<stop offset="1" stop-color="#8F80EC"/>
</linearGradient>
<linearGradient id="paint48_linear_844_6778" x1="184.981" y1="213.741" x2="177.351" y2="213.741" gradientUnits="userSpaceOnUse">
<stop stop-color="#705BCA"/>
<stop offset="1" stop-color="#8F80EC"/>
</linearGradient>
<linearGradient id="paint49_linear_844_6778" x1="180.106" y1="216.55" x2="172.476" y2="216.55" gradientUnits="userSpaceOnUse">
<stop stop-color="#705BCA"/>
<stop offset="1" stop-color="#8F80EC"/>
</linearGradient>
<linearGradient id="paint50_linear_844_6778" x1="175.235" y1="219.36" x2="167.615" y2="219.36" gradientUnits="userSpaceOnUse">
<stop stop-color="#705BCA"/>
<stop offset="1" stop-color="#8F80EC"/>
</linearGradient>
<linearGradient id="paint51_linear_844_6778" x1="167.157" y1="217.511" x2="159.537" y2="217.511" gradientUnits="userSpaceOnUse">
<stop stop-color="#705BCA"/>
<stop offset="1" stop-color="#8F80EC"/>
</linearGradient>
<linearGradient id="paint52_linear_844_6778" x1="152.798" y1="219.28" x2="145.178" y2="219.28" gradientUnits="userSpaceOnUse">
<stop stop-color="#705BCA"/>
<stop offset="1" stop-color="#8F80EC"/>
</linearGradient>
<linearGradient id="paint53_linear_844_6778" x1="213.929" y1="191.33" x2="203.429" y2="191.33" gradientUnits="userSpaceOnUse">
<stop stop-color="#705BCA"/>
<stop offset="1" stop-color="#8F80EC"/>
</linearGradient>
<linearGradient id="paint54_linear_844_6778" x1="170.067" y1="224.069" x2="156.467" y2="224.069" gradientUnits="userSpaceOnUse">
<stop stop-color="#705BCA"/>
<stop offset="1" stop-color="#8F80EC"/>
</linearGradient>
<linearGradient id="paint55_linear_844_6778" x1="210.364" y1="212.98" x2="177.154" y2="212.98" gradientUnits="userSpaceOnUse">
<stop stop-color="#705BCA"/>
<stop offset="1" stop-color="#8F80EC"/>
</linearGradient>
<linearGradient id="paint56_linear_844_6778" x1="219.574" y1="195.11" x2="207.274" y2="195.11" gradientUnits="userSpaceOnUse">
<stop stop-color="#705BCA"/>
<stop offset="1" stop-color="#8F80EC"/>
</linearGradient>
<linearGradient id="paint57_linear_844_6778" x1="162.261" y1="221.44" x2="150.821" y2="221.44" gradientUnits="userSpaceOnUse">
<stop stop-color="#705BCA"/>
<stop offset="1" stop-color="#8F80EC"/>
</linearGradient>
<linearGradient id="paint58_linear_844_6778" x1="218.127" y1="176.031" x2="227.707" y2="159.421" gradientUnits="userSpaceOnUse">
<stop stop-color="#FFB70E"/>
<stop offset="0.64" stop-color="#FFCC54"/>
<stop offset="1" stop-color="#FFB70E"/>
</linearGradient>
<linearGradient id="paint59_linear_844_6778" x1="144.911" y1="134.26" x2="158.481" y2="110.74" gradientUnits="userSpaceOnUse">
<stop stop-color="#FFB70E"/>
<stop offset="0.64" stop-color="#FFCC54"/>
<stop offset="1" stop-color="#FFB70E"/>
</linearGradient>
<linearGradient id="paint60_linear_844_6778" x1="137.628" y1="238.01" x2="147.018" y2="221.76" gradientUnits="userSpaceOnUse">
<stop stop-color="#FFB70E"/>
<stop offset="0.64" stop-color="#FFCC54"/>
<stop offset="1" stop-color="#FFB70E"/>
</linearGradient>
<linearGradient id="paint61_linear_844_6778" x1="209.597" y1="150.1" x2="218.977" y2="133.85" gradientUnits="userSpaceOnUse">
<stop stop-color="#FFB70E"/>
<stop offset="0.64" stop-color="#FFCC54"/>
<stop offset="1" stop-color="#FFB70E"/>
</linearGradient>
<linearGradient id="paint62_linear_844_6778" x1="125.927" y1="159.411" x2="135.307" y2="143.151" gradientUnits="userSpaceOnUse">
<stop stop-color="#FFB70E"/>
<stop offset="0.64" stop-color="#FFCC54"/>
<stop offset="1" stop-color="#FFB70E"/>
</linearGradient>
<clipPath id="clip0_844_6778">
<rect width="120.04" height="133.61" fill="white" transform="translate(123 111)"/>
</clipPath>
</defs>
</svg>
