<svg width="810" height="261" viewBox="0 0 810 261" fill="none" xmlns="http://www.w3.org/2000/svg">
<path d="M-8.27573 143.053L35.5013 100.925C49.4705 87.4825 70.5922 84.7666 87.5077 94.2383L228.244 173.042C243.998 181.863 263.542 180.164 277.538 168.758L406.567 63.603C423.944 49.441 449.191 50.6077 465.188 66.3122L563.635 162.959C581.213 180.214 609.53 179.681 626.445 161.775L722.259 60.3481C736.365 45.4153 758.927 42.2305 776.616 52.6751L808.497 71.5" stroke="url(#paint0_linear_892_1507)" stroke-width="2"/>
<g filter="url(#filter0_b_892_1507)">
<circle cx="221" cy="167" r="28" fill="#2DFFE7" fill-opacity="0.08"/>
</g>
<g filter="url(#filter1_b_892_1507)">
<circle cx="377" cy="83" r="28" fill="#2DFFE7" fill-opacity="0.08"/>
</g>
<g clip-path="url(#clip0_892_1507)">
<path fill-rule="evenodd" clip-rule="evenodd" d="M229.231 156.113C227.316 154.662 224.994 153.699 222.431 153.43C214.936 152.64 208.221 158.076 207.431 165.572C207.116 168.568 207.796 171.438 209.203 173.856C209.334 174.08 209.258 174.369 209.033 174.499C208.809 174.63 208.52 174.554 208.39 174.329C206.886 171.745 206.158 168.677 206.495 165.473C207.339 157.461 214.517 151.65 222.53 152.494C225.189 152.773 227.606 153.752 229.617 155.227L229.314 154.164C229.242 153.914 229.387 153.653 229.637 153.582C229.887 153.511 230.147 153.656 230.219 153.905L230.934 156.41C230.973 156.549 230.947 156.699 230.862 156.816C230.777 156.933 230.643 157.004 230.498 157.009L227.895 157.103C227.636 157.112 227.417 156.909 227.408 156.65C227.399 156.39 227.602 156.172 227.861 156.162C227.861 156.162 228.644 156.134 229.231 156.113ZM212.387 178.774L212.691 179.837C212.762 180.087 212.617 180.348 212.368 180.419C212.118 180.49 211.857 180.345 211.786 180.096L211.071 177.591C211.031 177.452 211.058 177.302 211.143 177.185C211.228 177.068 211.362 176.997 211.507 176.992L214.109 176.898C214.369 176.889 214.587 177.092 214.597 177.352C214.606 177.611 214.403 177.829 214.143 177.839C214.143 177.839 213.36 177.867 212.773 177.888C214.688 179.338 217.011 180.302 219.573 180.572C227.069 181.361 233.784 175.925 234.573 168.429C234.888 165.435 234.21 162.563 232.802 160.145C232.671 159.921 232.747 159.633 232.971 159.502C233.196 159.371 233.484 159.447 233.615 159.672C235.121 162.256 235.846 165.326 235.509 168.528C234.666 176.54 227.487 182.351 219.475 181.508C216.816 181.228 214.399 180.249 212.387 178.774ZM226.56 170.591C225.629 168.442 223.486 166.933 221.002 166.933C218.519 166.933 216.376 168.442 215.445 170.59C214.795 170.59 214.283 170.59 213.972 170.59C213.887 170.59 213.806 170.553 213.751 170.488C213.695 170.424 213.67 170.339 213.682 170.254C214.229 166.702 217.298 163.981 221.002 163.981C224.709 163.981 227.778 166.702 228.323 170.254C228.336 170.339 228.311 170.424 228.255 170.489C228.199 170.554 228.118 170.591 228.032 170.591C227.722 170.591 227.21 170.591 226.56 170.591ZM221.002 163.393C218.94 163.393 217.259 161.71 217.259 159.648C217.259 157.586 218.94 155.903 221.002 155.903C223.067 155.903 224.748 157.586 224.748 159.648C224.748 161.71 223.067 163.393 221.002 163.393ZM221.002 178.098C218.187 178.098 215.89 175.802 215.89 172.986C215.89 170.171 218.187 167.874 221.002 167.874C223.818 167.874 226.114 170.171 226.114 172.986C226.114 175.802 223.818 178.098 221.002 178.098ZM220.532 170.056C220.415 170.082 220.302 170.116 220.193 170.159C219.514 170.425 219.025 171.011 219.064 171.807C219.113 172.849 220.053 173.289 220.932 173.432C221.174 173.472 221.433 173.529 221.661 173.633C221.912 173.747 222.128 173.922 222.166 174.239L222.166 174.24C222.196 174.489 222.08 174.667 221.908 174.785C221.671 174.949 221.348 175.021 221.058 175.028H221.057C220.516 175.041 219.958 174.802 219.82 174.249C219.757 173.997 219.502 173.843 219.25 173.906C218.997 173.969 218.844 174.224 218.907 174.476C219.108 175.284 219.769 175.778 220.532 175.924V176.222C220.532 176.482 220.743 176.693 221.002 176.693C221.262 176.693 221.473 176.482 221.473 176.222V175.931C222.366 175.779 223.228 175.179 223.1 174.127C222.972 173.058 221.983 172.651 221.084 172.503L221.083 172.503C220.859 172.467 220.622 172.41 220.416 172.31C220.199 172.204 220.017 172.043 220.004 171.762L220.004 171.761C219.986 171.402 220.231 171.155 220.537 171.034C221.065 170.827 221.799 170.961 222.074 171.616C222.175 171.856 222.451 171.969 222.69 171.868C222.93 171.768 223.043 171.492 222.942 171.252C222.652 170.561 222.084 170.176 221.473 170.051V169.752C221.473 169.493 221.262 169.282 221.002 169.282C220.743 169.282 220.532 169.493 220.532 169.752V170.056Z" fill="white"/>
</g>
<path d="M215.668 212.887C215.605 215.831 217.942 218.269 220.887 218.332C223.831 218.395 226.269 216.058 226.332 213.113C226.395 210.169 224.058 207.731 221.113 207.668C218.169 207.605 215.731 209.942 215.668 212.887ZM219 259.979C218.988 260.531 219.427 260.988 219.979 261C220.531 261.012 220.988 260.573 221 260.021L219 259.979ZM220 212.979L219 259.979L221 260.021L222 213.021L220 212.979Z" fill="#2DFFE7" fill-opacity="0.44"/>
<path d="M371.668 48.1134C371.605 45.1686 373.942 42.7305 376.887 42.6679C379.831 42.6052 382.269 44.9417 382.332 47.8866C382.395 50.8314 380.058 53.2695 377.113 53.3321C374.169 53.3948 371.731 51.0583 371.668 48.1134ZM375 1.02127C374.988 0.469114 375.427 0.0119756 375.979 0.000227473C376.531 -0.0115206 376.988 0.42657 377 0.978729L375 1.02127ZM376 48.0213L375 1.02127L377 0.978729L378 47.9787L376 48.0213Z" fill="#2DFFE7" fill-opacity="0.44"/>
<g clip-path="url(#clip1_892_1507)">
<path d="M370.75 85.5C367.988 85.5 365.75 83.2625 365.75 80.5C365.75 77.7375 367.988 75.5 370.75 75.5C373.512 75.5 375.75 77.7375 375.75 80.5C375.75 83.2625 373.512 85.5 370.75 85.5ZM379.5 98H362V91.75C362 89.6875 363.688 88 365.75 88H375.75C377.812 88 379.5 89.6875 379.5 91.75V98ZM388.25 68H372C369.938 68 368.25 69.6875 368.25 71.75V73.4375C369.037 73.1625 369.875 73 370.75 73C374.175 73 377.063 75.3 377.963 78.4375L380.75 81.225L385.237 76.7375H382V74.2375H387C388.375 74.2375 389.5 75.3625 389.5 76.7375V81.7375H387V78.5L380.75 84.75L378.062 82.0625C377.775 83.3875 377.137 84.575 376.262 85.5375C379.05 85.7625 381.325 87.8 381.875 90.4875H392V71.75C392 69.6875 390.312 68 388.25 68Z" fill="white"/>
</g>
<g filter="url(#filter2_b_892_1507)">
<circle cx="634" cy="148" r="28" fill="#2DFFE7" fill-opacity="0.08"/>
</g>
<path d="M628.668 189.887C628.605 192.831 630.942 195.269 633.887 195.332C636.831 195.395 639.269 193.058 639.332 190.113C639.395 187.169 637.058 184.731 634.113 184.668C631.169 184.605 628.731 186.942 628.668 189.887ZM632 236.979C631.988 237.531 632.427 237.988 632.979 238C633.531 238.012 633.988 237.573 634 237.021L632 236.979ZM633 189.979L632 236.979L634 237.021L635 190.021L633 189.979Z" fill="#2DFFE7" fill-opacity="0.44"/>
<path fill-rule="evenodd" clip-rule="evenodd" d="M643.027 137.184C642.802 136.993 642.774 136.656 642.964 136.43C643.155 136.205 643.492 136.177 643.718 136.368C646.127 138.411 647.737 141.259 648.23 144.435C648.634 147.037 648.254 149.577 647.265 151.816C646.484 153.585 645.323 155.167 643.87 156.443L644.339 156.414C644.634 156.396 644.887 156.621 644.904 156.916C644.922 157.211 644.697 157.464 644.402 157.481L642.121 157.62C641.785 157.604 641.543 157.271 641.638 156.94L641.637 156.94L642.246 154.802C642.327 154.517 642.623 154.353 642.907 154.433C643.192 154.514 643.357 154.81 643.276 155.095L643.106 155.691C644.469 154.509 645.557 153.036 646.285 151.385C647.196 149.324 647.547 146.988 647.175 144.598C646.722 141.675 645.245 139.069 643.027 137.184ZM636.535 162.637H631.218C631.809 164.57 634.234 165.274 635.755 163.872C636.116 163.541 636.389 163.116 636.535 162.637ZM637.5 159.026H630.253V161.566H637.5V159.026H637.5ZM636.114 131.391V140.035L636.242 140.428C636.677 140.614 637.079 140.847 637.456 141.131L638.321 140.947V131.391H636.114ZM632.835 134.074V138.509H635.042V134.074H632.835ZM631.764 140.035V136.543H629.557V140.947L630.422 141.131C630.799 140.847 631.201 140.614 631.636 140.428L631.764 140.035ZM635.624 150.312C635.465 150.371 635.351 150.497 635.302 150.647L635.301 150.646L634.842 152.061H633.036L632.576 150.646C632.52 150.474 632.386 150.35 632.225 150.301C631.792 150.151 631.248 149.816 630.893 149.524C630.763 149.417 630.597 149.382 630.444 149.414L630.443 149.413L628.985 149.723L628.082 148.161L629.079 147.053C629.198 146.921 629.239 146.746 629.205 146.584C629.144 146.253 629.134 145.766 629.162 145.424C629.19 145.074 629.296 144.831 629.079 144.589L629.079 144.589L628.082 143.48L628.532 142.7L628.533 142.701L628.985 141.919L630.443 142.229C630.62 142.266 630.795 142.212 630.918 142.098C631.262 141.8 631.824 141.491 632.254 141.33C632.413 141.271 632.527 141.145 632.575 140.995L632.576 140.996L633.036 139.58H634.842L635.301 140.996C635.357 141.167 635.492 141.292 635.652 141.341C636.086 141.491 636.629 141.826 636.984 142.118C637.115 142.225 637.281 142.26 637.434 142.228L637.434 142.229L638.893 141.919L639.795 143.481L638.798 144.589C638.679 144.721 638.638 144.896 638.673 145.057C638.734 145.389 638.744 145.875 638.716 146.217C638.687 146.568 638.581 146.81 638.799 147.052L638.798 147.053L639.795 148.16L638.893 149.723L637.435 149.413C637.258 149.376 637.083 149.43 636.96 149.544C636.615 149.844 636.055 150.15 635.624 150.312ZM636.39 148.272C637.744 146.918 637.744 144.723 636.39 143.369C635.036 142.015 632.841 142.015 631.487 143.369C630.133 144.723 630.133 146.918 631.487 148.272C632.841 149.626 635.036 149.626 636.39 148.272ZM640.408 152.972C641.773 150.596 643.018 148.43 643.018 146.099C643.018 143.187 641.661 140.516 639.393 138.794V140.872C639.51 140.931 639.61 141.023 639.679 141.141L640.861 143.188C641.01 143.447 640.975 143.77 640.777 143.99L639.761 145.119C639.817 145.583 639.817 146.059 639.76 146.523L640.777 147.652C640.975 147.872 641.01 148.194 640.861 148.453L639.679 150.5C639.531 150.757 639.233 150.889 638.944 150.827L637.456 150.511C637.079 150.795 636.677 151.028 636.241 151.214L635.772 152.659C635.68 152.942 635.418 153.133 635.121 153.133H632.757C632.46 153.133 632.198 152.942 632.106 152.659L631.636 151.213C631.201 151.028 630.799 150.795 630.422 150.511L628.934 150.828C628.645 150.889 628.347 150.757 628.199 150.5L627.018 148.453L627.017 148.453C626.867 148.195 626.902 147.872 627.1 147.652L628.117 146.523C628.06 146.059 628.06 145.583 628.117 145.119L627.1 143.99C626.893 143.759 626.867 143.431 627.034 143.161L627.609 142.166L627.608 142.165L628.199 141.141C628.268 141.023 628.367 140.931 628.485 140.872V138.658C626.116 140.37 624.679 143.11 624.679 146.099C624.679 148.419 625.934 150.58 627.311 152.949C628.206 154.49 629.151 156.115 629.861 157.954H637.891C638.595 156.128 639.526 154.508 640.408 152.972ZM625.469 155.583C625.704 155.762 625.749 156.098 625.57 156.332C625.391 156.567 625.055 156.612 624.821 156.433C618.397 151.53 617.815 142.055 623.613 136.394L623.147 136.448C622.854 136.482 622.588 136.271 622.555 135.977C622.521 135.684 622.732 135.418 623.026 135.385L625.234 135.13C625.595 135.088 625.909 135.415 625.811 135.804L625.32 137.948C625.255 138.235 624.968 138.415 624.68 138.349C624.392 138.284 624.212 137.997 624.278 137.709L624.417 137.103C619.029 142.295 619.538 151.057 625.469 155.583Z" fill="white"/>
<defs>
<filter id="filter0_b_892_1507" x="173" y="119" width="96" height="96" filterUnits="userSpaceOnUse" color-interpolation-filters="sRGB">
<feFlood flood-opacity="0" result="BackgroundImageFix"/>
<feGaussianBlur in="BackgroundImageFix" stdDeviation="10"/>
<feComposite in2="SourceAlpha" operator="in" result="effect1_backgroundBlur_892_1507"/>
<feBlend mode="normal" in="SourceGraphic" in2="effect1_backgroundBlur_892_1507" result="shape"/>
</filter>
<filter id="filter1_b_892_1507" x="329" y="35" width="96" height="96" filterUnits="userSpaceOnUse" color-interpolation-filters="sRGB">
<feFlood flood-opacity="0" result="BackgroundImageFix"/>
<feGaussianBlur in="BackgroundImageFix" stdDeviation="10"/>
<feComposite in2="SourceAlpha" operator="in" result="effect1_backgroundBlur_892_1507"/>
<feBlend mode="normal" in="SourceGraphic" in2="effect1_backgroundBlur_892_1507" result="shape"/>
</filter>
<filter id="filter2_b_892_1507" x="586" y="100" width="96" height="96" filterUnits="userSpaceOnUse" color-interpolation-filters="sRGB">
<feFlood flood-opacity="0" result="BackgroundImageFix"/>
<feGaussianBlur in="BackgroundImageFix" stdDeviation="10"/>
<feComposite in2="SourceAlpha" operator="in" result="effect1_backgroundBlur_892_1507"/>
<feBlend mode="normal" in="SourceGraphic" in2="effect1_backgroundBlur_892_1507" result="shape"/>
</filter>
<linearGradient id="paint0_linear_892_1507" x1="2.9622" y1="101.44" x2="781.497" y2="52.2763" gradientUnits="userSpaceOnUse">
<stop stop-color="#161616"/>
<stop offset="0.456667" stop-color="#2DFFE7"/>
<stop offset="1" stop-color="#161616" stop-opacity="0.28"/>
</linearGradient>
<clipPath id="clip0_892_1507">
<rect width="30" height="30" fill="white" transform="translate(206 152)"/>
</clipPath>
<clipPath id="clip1_892_1507">
<rect width="30" height="30" fill="white" transform="translate(362 68)"/>
</clipPath>
</defs>
</svg>
