<svg width="70" height="70" viewBox="0 0 70 70" fill="none" xmlns="http://www.w3.org/2000/svg">
<path fill-rule="evenodd" clip-rule="evenodd" d="M51.3533 47.173C51.3896 48.8046 50.9386 50.3736 50.1078 51.7067C49.1267 53.281 47.6173 54.5245 45.7575 55.1518C45.2906 55.3093 44.8178 55.4226 44.3442 55.4936C44.3626 52.2067 45.9479 49.9939 47.7819 47.434C48.0351 47.0808 48.2921 46.7224 48.5487 46.3554C49.1589 46.6343 49.7943 46.8513 50.4445 47.0037C50.7444 47.074 51.0477 47.1305 51.3531 47.173H51.3533ZM63.4706 27.7961C63.023 29.1161 62.1576 30.3135 60.8547 31.1758C60.1712 30.2519 59.3298 29.4434 58.3604 28.7943C57.8425 28.4474 57.1414 28.5861 56.7945 29.104C56.4477 29.6219 56.5863 30.323 57.1042 30.6698C59.2672 32.1182 60.5737 34.5555 60.5781 37.1624C60.5808 38.7791 60.0854 40.315 59.2117 41.5943C58.3388 42.8725 57.0898 43.892 55.585 44.477C54.0783 45.0627 52.4667 45.1545 50.9579 44.8011C50.567 44.7095 50.1832 44.5879 49.8101 44.4373C51.3168 41.9473 52.5517 38.9383 52.5517 34.6784C52.5517 29.777 50.6314 25.6565 46.9945 22.7615C44.0817 20.4423 40.26 19.0784 36.1339 18.8672V6.00753C36.9426 4.43007 38.1903 3.18114 39.6745 2.37136C41.2325 1.52137 43.052 1.15059 44.8997 1.38589C46.643 1.60792 48.2269 2.34688 49.4883 3.45007C50.3223 4.17946 51.0149 5.06813 51.5188 6.07192C50.4234 6.04595 49.3387 6.21384 48.313 6.55946C46.6887 7.10702 45.215 8.10138 44.0841 9.47759C43.6883 9.95884 43.7577 10.6698 44.2388 11.0656C44.7201 11.4612 45.431 11.3919 45.8268 10.9107C46.6836 9.86806 47.7997 9.11487 49.0296 8.70034C50.2583 8.28622 51.6036 8.21061 52.9203 8.52261C54.2367 8.83446 55.4051 9.50589 56.3175 10.4276C57.2301 11.3497 57.8892 12.5229 58.1869 13.8382C58.4782 15.1257 58.4018 16.4816 57.9678 17.7266C57.5407 18.9525 56.7759 20.0611 55.7243 20.9075C55.2381 21.2984 55.161 22.0094 55.5518 22.4955C55.9426 22.9817 56.6536 23.0588 57.1397 22.6681C58.3628 21.6837 59.2917 20.4297 59.8811 19.0374C61.3702 19.7959 62.4517 20.97 63.1026 22.3163C63.5175 23.1743 63.7594 24.1038 63.8223 25.0415C63.8849 25.9753 63.7696 26.9143 63.4708 27.796L63.4706 27.7961ZM53.3178 19.657C53.1052 18.4269 52.5636 17.4416 51.6937 16.7014C51.4916 16.5295 51.2736 16.373 51.0395 16.2319C51.355 15.9704 51.6565 15.6782 51.9491 15.3546C52.3669 14.8929 52.3312 14.1799 51.8694 13.7622C51.4077 13.3445 50.6948 13.3801 50.277 13.8419C49.643 14.5432 48.9618 15.033 48.1364 15.3266C47.2678 15.6355 46.2125 15.7438 44.8657 15.6682C44.2428 15.634 43.71 16.1113 43.6758 16.7342C43.6416 17.3571 44.1189 17.8899 44.7418 17.9241C46.1332 18.0023 47.3004 17.9101 48.3233 17.6345C49.1476 17.7742 49.7845 18.0352 50.2339 18.4176C50.6829 18.7996 50.9678 19.3397 51.0884 20.0373C51.1934 20.653 51.7776 21.0668 52.3933 20.9618C53.0089 20.8568 53.4228 20.2726 53.3178 19.657ZM19.045 44.8009C17.5361 45.1543 15.9245 45.0626 14.4179 44.4769C12.9129 43.8919 11.6639 42.8724 10.791 41.5942C9.9175 40.315 9.42189 38.779 9.42463 37.1623C9.429 34.5554 10.7355 32.1181 12.8985 30.6697C13.4164 30.3228 13.555 29.6217 13.2082 29.1038C12.8613 28.5859 12.1602 28.4473 11.6423 28.7942C10.6729 29.4433 9.8315 30.2517 9.14804 31.1757C7.84498 30.3134 6.97969 29.1161 6.53207 27.796C6.2332 26.9144 6.11795 25.9753 6.18056 25.0415C6.24345 24.1038 6.48531 23.1743 6.90025 22.3163C7.55117 20.97 8.63262 19.7957 10.1218 19.0374C10.7112 20.4297 11.64 21.6838 12.8631 22.6681C13.3493 23.059 14.0602 22.9817 14.4511 22.4955C14.842 22.0094 14.7647 21.2984 14.2786 20.9075C12.1719 19.2121 11.2214 16.4661 11.816 13.8382C12.1136 12.5229 12.7727 11.3497 13.6853 10.4276C14.5978 9.50589 15.7662 8.83446 17.0825 8.52261C18.3993 8.21061 19.7446 8.28622 20.9733 8.70034C22.2032 9.11487 23.3192 9.86806 24.176 10.9107C24.5718 11.3919 25.2828 11.4612 25.764 11.0656C26.2453 10.6698 26.3146 9.95884 25.9189 9.47759C24.788 8.10138 23.3143 7.10702 21.6899 6.55946C20.6643 6.2137 19.5795 6.04581 18.4842 6.07192C18.9882 5.06813 19.6809 4.17932 20.5147 3.45007C21.7761 2.34688 23.36 1.60792 25.1033 1.38589C26.9511 1.15059 28.7706 1.52124 30.3285 2.37136C31.8127 3.181 33.0604 4.43007 33.8691 6.00753V18.867C29.7427 19.0784 25.9211 20.4423 23.0085 22.7613C19.3737 25.6563 17.4512 29.7769 17.4512 34.6783C17.4512 38.9382 18.6866 41.9469 20.1934 44.4368C19.82 44.5876 19.4361 44.7093 19.0451 44.8009H19.045ZM17.6094 20.9618C18.2251 21.0668 18.8093 20.653 18.9143 20.0373C19.0349 19.3397 19.3198 18.7996 19.7688 18.4176C20.2182 18.0352 20.8551 17.7742 21.6794 17.6345C22.7023 17.9101 23.8695 18.0021 25.2609 17.9241C25.8838 17.8899 26.3611 17.3571 26.3269 16.7342C26.2927 16.1113 25.7599 15.634 25.137 15.6682C23.7902 15.7438 22.7349 15.6355 21.8663 15.3266C21.0408 15.0329 20.3597 14.5432 19.7257 13.8419C19.308 13.3802 18.595 13.3445 18.1333 13.7622C17.6716 14.1799 17.636 14.8929 18.0536 15.3546C18.3462 15.6782 18.6477 15.9704 18.9632 16.2319C18.7292 16.373 18.5111 16.5295 18.309 16.7014C17.4389 17.4416 16.8975 18.4268 16.6849 19.657C16.5799 20.2726 16.9938 20.8568 17.6094 20.9618ZM21.4545 46.3551C20.8441 46.6343 20.2087 46.8513 19.5581 47.0037C19.2581 47.074 18.9549 47.1305 18.6495 47.173C18.6131 48.8046 19.0641 50.3736 19.895 51.7067C20.8761 53.281 22.3854 54.5245 24.2452 55.1518C24.7124 55.3094 25.1854 55.4227 25.6593 55.4937C25.641 52.2067 24.0549 49.9939 22.2215 47.434C21.9683 47.0808 21.7113 46.7221 21.4545 46.3551ZM32.9189 67.8454C32.9189 68.3077 33.295 68.6838 33.7573 68.6838H36.2456C36.7078 68.6838 37.0839 68.3077 37.0839 67.8454V66.5846H32.9191V67.8454H32.9189ZM29.8451 64.0449C29.8451 64.425 30.1549 64.7355 30.5358 64.7355H39.4671C39.8486 64.7355 40.1578 64.425 40.1578 64.0449V62.1571H29.8452V64.0449H29.8451ZM27.924 59.6174C27.924 59.9983 28.2345 60.3081 28.6147 60.3081H41.3882C41.769 60.3081 42.0788 59.9983 42.0788 59.6174V57.6034H27.924V59.6174ZM45.9414 46.1148C44.0421 48.7647 42.0787 51.5048 42.0787 55.551V55.5824H27.9239V55.551C27.9239 51.5041 25.9612 48.764 24.0612 46.1148C21.9252 43.1338 19.7161 40.0519 19.7161 34.6783C19.7161 25.3513 27.6401 21.1031 35.0017 21.1031C42.3633 21.1031 50.2873 25.3513 50.2873 34.6783C50.2873 40.0519 48.0775 43.1339 45.9414 46.1148ZM46.0632 40.6469C46.0632 40.0218 45.5561 39.5147 44.931 39.5147H43.2365V37.0825H44.931C45.5561 37.0825 46.0632 36.5754 46.0632 35.9503C46.0632 35.3252 45.5561 34.8174 44.931 34.8174H43.2365V32.3852H44.931C45.5561 32.3852 46.0632 31.8781 46.0632 31.2531C46.0632 30.628 45.5561 30.1209 44.931 30.1209H43.2365V29.6697C43.2365 28.5921 42.3589 27.7152 41.2813 27.7152H40.8302V26.0206C40.8302 25.3948 40.3232 24.8877 39.698 24.8877C39.0728 24.8877 38.5651 25.3948 38.5651 26.0206V27.7152H36.1336V26.0206C36.1336 25.3948 35.6265 24.8877 35.0014 24.8877C34.3763 24.8877 33.8693 25.3948 33.8693 26.0206V27.7152H31.437V26.0206C31.437 25.3948 30.9293 24.8877 30.3049 24.8877C29.6805 24.8877 29.1727 25.3948 29.1727 26.0206V27.7152H28.721C27.644 27.7152 26.7664 28.5921 26.7664 29.6697V30.1209H25.0719C24.4461 30.1209 23.9398 30.6273 23.9398 31.2531C23.9398 31.8788 24.4462 32.3852 25.0719 32.3852H26.7664V34.8174H25.0719C24.4461 34.8174 23.9398 35.3245 23.9398 35.9503C23.9398 36.5761 24.4462 37.0825 25.0719 37.0825H26.7664V39.5147H25.0719C24.4461 39.5147 23.9398 40.0218 23.9398 40.6469C23.9398 41.2719 24.4462 41.7797 25.0719 41.7797H26.7664V42.2301C26.7664 43.3077 27.644 44.1846 28.721 44.1846H29.1727V45.8791C29.1727 46.5048 29.6791 47.0119 30.3049 47.0119C30.9306 47.0119 31.437 46.5048 31.437 45.8791V44.1846H33.8693V45.8791C33.8693 46.5048 34.3757 47.0119 35.0014 47.0119C35.6272 47.0119 36.1336 46.5048 36.1336 45.8791V44.1846H38.5651V45.8791C38.5651 46.5048 39.0736 47.0119 39.698 47.0119C40.3224 47.0119 40.8302 46.5048 40.8302 45.8791V44.1846H41.2813C42.3589 44.1846 43.2365 43.3077 43.2365 42.2301V41.7797H44.931C45.5561 41.7797 46.0632 41.2728 46.0632 40.6469ZM29.0306 29.9802H40.9715V41.9197H29.0306V29.9802ZM31.8313 39.1193H38.1708V32.7806H31.8313V39.1193Z" fill="url(#paint0_linear_844_2730)"/>
<defs>
<linearGradient id="paint0_linear_844_2730" x1="35.0013" y1="68.6838" x2="35.0013" y2="1.31643" gradientUnits="userSpaceOnUse">
<stop stop-color="#236BFF"/>
<stop offset="1" stop-color="#00CEF2"/>
</linearGradient>
</defs>
</svg>
