<svg width="50" height="50" viewBox="0 0 50 50" fill="none" xmlns="http://www.w3.org/2000/svg">
<g clip-path="url(#clip0_844_5824)">
<path d="M46.4219 27.0703C45.3516 26.7422 44.1797 26.1484 43.3516 25.6797C43.7109 25.1719 44.0078 24.5781 44.2109 23.8984C44.8438 23.4453 45.1953 22.4844 45.3047 21.9375C45.4844 20.9922 45.2031 20.3516 44.75 20L44.7656 19.5938C44.8125 18.5234 44.4531 17.5312 43.75 16.7969C43 16.0156 41.9531 15.5859 40.7812 15.5859H40.1094C38.9375 15.5859 37.8828 16.0156 37.1406 16.7969C36.4375 17.5312 36.0781 18.5234 36.125 19.5859L36.1406 20C35.6875 20.3516 35.4062 20.9922 35.5859 21.9297C35.7031 22.5547 36.0781 23.4609 36.6719 23.8906C36.875 24.5703 37.1719 25.1719 37.5312 25.6797C36.7031 26.1406 35.5312 26.7422 34.4688 27.0703C33.875 27.25 33.3438 27.5547 32.8984 27.9844C32.8047 27.9531 32.7188 27.9062 32.625 27.875C31.1641 27.4297 29.5625 26.6016 28.4219 25.9531C28.9453 25.2656 29.375 24.4141 29.6562 23.4375C30.4062 22.9453 30.875 21.7969 31.0313 21.0078C31.2734 19.7578 30.8516 19.0078 30.3047 18.6562L30.3281 18.0234C30.3906 16.7031 29.9453 15.4844 29.0859 14.5859C28.1719 13.625 26.8672 13.0938 25.4219 13.0938H24.5547C23.1094 13.0938 21.8125 13.625 20.8906 14.5859C20.0312 15.4844 19.5859 16.7109 19.6484 18.0234L19.6719 18.6719C19.1172 19.0312 18.7109 19.7812 18.9453 21.0078C19.0938 21.7969 19.5703 22.9531 20.3203 23.4375C20.6016 24.4141 21.0312 25.2656 21.5547 25.9531C20.4062 26.6094 18.8047 27.4375 17.3516 27.875C17.2578 27.9062 17.1719 27.9453 17.0781 27.9766C16.6328 27.5469 16.1016 27.2422 15.5078 27.0625C14.4453 26.7422 13.2656 26.1328 12.4453 25.6719C12.8047 25.1641 13.1016 24.5703 13.3047 23.8906C13.9375 23.4375 14.2891 22.4688 14.3984 21.9297C14.5078 21.3828 14.4609 20.9141 14.2734 20.5234C14.1719 20.3047 14.0234 20.125 13.8438 19.9922L13.8594 19.5859C13.9062 18.5156 13.5469 17.5234 12.8438 16.7891C12.0938 16.0078 11.0391 15.5781 9.875 15.5781H9.21875C8.04688 15.5781 6.99219 16.0078 6.25 16.7891C5.54688 17.5234 5.1875 18.5156 5.23438 19.5781L5.25 19.9922C4.79688 20.3438 4.51563 20.9844 4.69531 21.9297C4.8125 22.5547 5.1875 23.4531 5.78125 23.8906C5.98438 24.5703 6.28125 25.1719 6.64062 25.6797C5.8125 26.1406 4.64062 26.75 3.57812 27.0703C0.359375 28.0391 0.320312 32.2734 0.320312 32.4531C0.320312 32.8047 0.554688 33.1094 0.890625 33.2031C3.77344 34.0078 6.67969 34.4062 9.57031 34.4062C10.8281 34.4062 12.0938 34.3281 13.3438 34.1719C13.3281 34.3984 13.3281 34.5547 13.3281 34.5937C13.3281 34.9453 13.5625 35.25 13.8984 35.3438C17.5781 36.375 21.2891 36.8906 24.9922 36.8906C28.7031 36.8906 32.4062 36.375 36.0938 35.3438C36.4297 35.25 36.6641 34.9453 36.6641 34.5937C36.6641 34.5625 36.6641 34.4063 36.6484 34.1719C37.9062 34.3281 39.1641 34.4062 40.4297 34.4062C43.3281 34.4062 46.2266 34 49.1016 33.2031C49.4375 33.1094 49.6719 32.8047 49.6719 32.4531C49.6797 32.2734 49.6406 28.0391 46.4219 27.0703ZM37.1016 21.25C37.1094 21.25 37.1172 21.25 37.125 21.2422C37.4844 21.1562 37.7266 20.8281 37.7188 20.4531L37.6875 19.5156C37.6562 18.8672 37.8594 18.2969 38.2656 17.8672C38.7109 17.3984 39.3672 17.1406 40.1094 17.1406H40.7812C41.5234 17.1406 42.1719 17.3984 42.625 17.8672C43.0312 18.2969 43.2344 18.8672 43.2031 19.5234L43.1719 20.4531C43.1562 20.8203 43.4062 21.1484 43.7656 21.2422C43.7734 21.2422 43.7812 21.25 43.7891 21.25C43.8047 21.3047 43.8125 21.4219 43.7734 21.6406C43.6797 22.1016 43.4453 22.5 43.3281 22.6172C43.0625 22.6953 42.8672 22.9062 42.7969 23.1797C42.4062 24.7734 41.4609 25.8438 40.4453 25.8438C39.4297 25.8438 38.4844 24.7734 38.0938 23.1797C38.0312 22.9141 37.8281 22.6953 37.5625 22.6172C37.4453 22.5078 37.2031 22.1094 37.1172 21.6406C37.0781 21.4219 37.0938 21.3047 37.1016 21.25ZM21.1953 22.1328C21.0234 22.0391 20.6328 21.4219 20.4922 20.7109C20.4219 20.3281 20.4531 20.0234 20.6172 19.9531C20.6328 19.9531 20.6484 19.9453 20.6641 19.9453C21.0234 19.8594 21.2812 19.5312 21.2656 19.1562L21.2188 17.9531C21.1797 17.0547 21.4609 16.2578 22.0312 15.6641C22.6484 15.0156 23.5547 14.6562 24.5625 14.6562H25.4297C26.4453 14.6562 27.3438 15.0156 27.9609 15.6641C28.5312 16.2578 28.8125 17.0547 28.7734 17.9609L28.7266 19.1562C28.7109 19.5391 29.0234 19.8906 29.4062 19.9609C29.5547 19.9922 29.5703 20.3594 29.5 20.7109C29.3594 21.4297 28.9609 22.0391 28.8516 22.1172C28.5469 22.1719 28.3047 22.3984 28.2344 22.7031C27.7109 24.8594 26.4062 26.3047 24.9922 26.3047C23.5781 26.3047 22.2734 24.8594 21.75 22.7031C21.6797 22.3984 21.5 22.1953 21.1953 22.1328ZM6.21094 21.25C6.21875 21.25 6.22656 21.25 6.23438 21.2422C6.59375 21.1562 6.83594 20.8281 6.82812 20.4531L6.79688 19.5156C6.76562 18.8672 6.96875 18.2969 7.375 17.8672C7.82031 17.3984 8.47656 17.1406 9.21875 17.1406H9.89062C10.6328 17.1406 11.2813 17.3984 11.7344 17.8672C12.1406 18.2969 12.3438 18.8672 12.3125 19.5234L12.2812 20.4531C12.2656 20.8203 12.5156 21.1484 12.875 21.2422C12.8828 21.2422 12.8906 21.25 12.8984 21.25C12.9141 21.3047 12.9219 21.4219 12.8828 21.6406C12.7891 22.1016 12.5547 22.5078 12.4375 22.6172C12.1797 22.6953 11.9766 22.9062 11.9062 23.1797C11.5156 24.7734 10.5703 25.8438 9.55469 25.8438C8.53906 25.8438 7.59375 24.7734 7.20313 23.1797C7.14063 22.9141 6.9375 22.6953 6.67188 22.6172C6.55469 22.5078 6.3125 22.1094 6.22656 21.6406C6.1875 21.4219 6.20312 21.3047 6.21094 21.25ZM1.92969 31.8672C2.04688 30.8984 2.46875 29.0391 4.03125 28.5703C5.38281 28.1562 6.82812 27.3906 7.78125 26.8359C8.32031 27.2031 8.92188 27.3984 9.55469 27.3984C10.1875 27.3984 10.7891 27.1953 11.3281 26.8359C12.2812 27.3906 13.7266 28.1641 15.0781 28.5703C15.2812 28.6328 15.4688 28.7188 15.6406 28.8359C14.4375 29.8594 13.8594 31.3594 13.5859 32.5703C9.72656 33.0937 5.8125 32.8672 1.92969 31.8672ZM14.9297 34.0156C14.9453 33.8594 14.9688 33.6719 15 33.4688C15 33.4609 15 33.4531 15.0078 33.4453C15.2031 32.2734 15.7188 30.5312 17.1016 29.7031C17.2031 29.6797 17.3047 29.6406 17.3906 29.5703C17.4062 29.5625 17.4141 29.5391 17.4297 29.5312C17.5547 29.4766 17.6875 29.4219 17.8281 29.3828C19.5859 28.8516 21.5156 27.8125 22.7344 27.1016C23.4219 27.5937 24.1953 27.875 25 27.875C25.8047 27.875 26.5781 27.5937 27.2656 27.1016C28.4844 27.8125 30.4141 28.8516 32.1797 29.3828C32.3203 29.4297 32.4609 29.4766 32.5859 29.5391C32.6016 29.5469 32.6016 29.5625 32.6172 29.5781C32.7031 29.6406 32.7969 29.6797 32.8984 29.7109C34.2812 30.5391 34.7969 32.2812 34.9922 33.4531C34.9922 33.4609 34.9922 33.4766 35 33.4844C35.0312 33.6875 35.0547 33.8672 35.0703 34.0312C28.3828 35.7734 21.6172 35.7734 14.9297 34.0156ZM36.4141 32.5703C36.1406 31.3516 35.5625 29.8594 34.3594 28.8359C34.5312 28.7266 34.7188 28.6328 34.9297 28.5703C36.2812 28.1562 37.7266 27.3906 38.6719 26.8359C39.2109 27.2031 39.8125 27.3984 40.4453 27.3984C41.0703 27.3984 41.6797 27.1953 42.2188 26.8359C43.0938 27.3437 44.5859 28.1484 45.9688 28.5703C47.5156 29.0391 47.9453 30.9062 48.0703 31.875C44.1953 32.8672 40.2812 33.0937 36.4141 32.5703Z" fill="url(#paint0_linear_844_5824)"/>
<path d="M45.4931 35.4372C45.1181 35.2263 44.6416 35.3669 44.4306 35.7419C42.2197 39.7341 38.8994 42.906 34.8213 44.906C34.4306 45.0935 34.2744 45.5622 34.4619 45.9528C34.5947 46.2263 34.876 46.3903 35.165 46.3903C35.2822 46.3903 35.3994 46.3669 35.5088 46.3122C39.876 44.1638 43.4306 40.7732 45.79 36.4997C46.0088 36.1169 45.8681 35.6482 45.4931 35.4372Z" fill="url(#paint1_linear_844_5824)"/>
<path d="M15.1765 44.906C11.0984 42.8982 7.77804 39.7341 5.5671 35.7419C5.35616 35.3669 4.88741 35.2263 4.5046 35.4372C4.1296 35.6482 3.98898 36.1247 4.19991 36.4997C6.55929 40.7732 10.114 44.1638 14.4812 46.3122C14.5905 46.3669 14.7077 46.3903 14.8249 46.3903C15.114 46.3903 15.3874 46.2263 15.528 45.9528C15.7233 45.57 15.5593 45.1013 15.1765 44.906Z" fill="url(#paint2_linear_844_5824)"/>
<path d="M34.8171 5.0861C39.5046 7.3986 43.2389 11.3127 45.3327 16.0939C45.4577 16.3908 45.7467 16.5627 46.0514 16.5627C46.153 16.5627 46.2624 16.5392 46.3639 16.5002C46.7624 16.3283 46.9421 15.8674 46.7702 15.4689C44.528 10.3517 40.5358 6.16423 35.5124 3.68766C35.1217 3.50016 34.6608 3.65641 34.4655 4.03923C34.2702 4.42985 34.4342 4.8986 34.8171 5.0861Z" fill="url(#paint3_linear_844_5824)"/>
<path d="M3.63107 16.5001C3.73264 16.547 3.84201 16.5626 3.94357 16.5626C4.24826 16.5626 4.52951 16.3907 4.66232 16.0939C6.75607 11.3126 10.4904 7.39854 15.1779 5.08604C15.5686 4.89854 15.7248 4.42979 15.5295 4.03916C15.342 3.64854 14.8733 3.49229 14.4826 3.6876C9.46701 6.16416 5.46701 10.3517 3.23264 15.4689C3.05295 15.8673 3.24045 16.3282 3.63107 16.5001Z" fill="url(#paint4_linear_844_5824)"/>
<path d="M22.8359 7.53906C22.875 7.57812 22.9375 7.61719 23.0156 7.66406C23.0937 7.70313 23.1875 7.75 23.2969 7.78906C23.4062 7.82812 23.5234 7.86719 23.6563 7.89844C23.7891 7.92969 23.9297 7.96094 24.0781 7.97656L23.9688 9.03906C23.9609 9.07812 23.9609 9.10938 23.9766 9.14062C23.9922 9.17188 24.0156 9.19531 24.0547 9.21875C24.0938 9.23438 24.1484 9.25 24.2109 9.26562C24.2812 9.27344 24.3672 9.28125 24.4844 9.28125C24.5703 9.28125 24.6406 9.27344 24.7031 9.26562C24.7578 9.25781 24.8047 9.24219 24.8359 9.23438C24.8672 9.21875 24.8906 9.20312 24.9062 9.17969C24.9219 9.15625 24.9297 9.13281 24.9297 9.10938L25.0391 7.98438C25.375 7.95312 25.6797 7.89062 25.9531 7.78906C26.2266 7.6875 26.4688 7.54688 26.6641 7.36719C26.8594 7.19531 27.0078 6.98438 27.1172 6.74219C27.2266 6.5 27.2734 6.22656 27.2734 5.92969C27.2734 5.64844 27.2266 5.40625 27.1406 5.20312C27.0547 5 26.9375 4.82812 26.7969 4.6875C26.6562 4.54688 26.4922 4.42969 26.3047 4.32812C26.125 4.23438 25.9375 4.14844 25.7422 4.07031C25.5547 4 25.3672 3.92969 25.1797 3.85938C25 3.78906 24.8281 3.71875 24.6875 3.64062C24.5391 3.5625 24.4297 3.46094 24.3359 3.35156C24.2578 3.25 24.2188 3.11719 24.2188 2.95312C24.2188 2.85156 24.2344 2.75 24.2734 2.66406C24.3125 2.57812 24.375 2.5 24.4531 2.4375C24.5312 2.375 24.6406 2.32812 24.7656 2.28906C24.8984 2.25781 25.0469 2.23438 25.2344 2.23438C25.4297 2.23438 25.6172 2.25781 25.7812 2.30469C25.9453 2.35156 26.0938 2.39844 26.2188 2.45312C26.3438 2.50781 26.4531 2.55469 26.5391 2.60156C26.625 2.64844 26.6953 2.67188 26.7344 2.67188C26.7578 2.67188 26.7812 2.66406 26.7969 2.65625C26.8125 2.64062 26.8281 2.61719 26.8438 2.58594C26.8594 2.54688 26.8672 2.49219 26.875 2.42969C26.8828 2.35938 26.8828 2.27344 26.8828 2.16406C26.8828 2.08594 26.8828 2.01562 26.875 1.95312C26.875 1.89062 26.8672 1.83594 26.8594 1.79688C26.8516 1.75 26.8359 1.71875 26.8203 1.6875C26.8047 1.65625 26.7813 1.625 26.75 1.60156C26.7188 1.57031 26.6641 1.53906 26.5938 1.5C26.5156 1.46094 26.4297 1.42969 26.3359 1.39844C26.2422 1.36719 26.1406 1.33594 26.0312 1.3125C25.9219 1.28906 25.8203 1.26562 25.7187 1.25781L25.8203 0.265625C25.8203 0.226562 25.8125 0.195312 25.8047 0.164062C25.7969 0.132812 25.7734 0.109375 25.7344 0.0859375C25.6953 0.0703125 25.6406 0.0546875 25.5703 0.0390625C25.5078 0.0078125 25.4219 0 25.3125 0C25.2188 0 25.1484 0 25.0937 0.0078125C25.0391 0.015625 24.9922 0.0234375 24.9609 0.0390625C24.9297 0.0546875 24.9063 0.0703125 24.8906 0.09375C24.875 0.109375 24.8672 0.140625 24.8672 0.164062L24.7656 1.21875C24.4609 1.25 24.1875 1.32031 23.9531 1.42188C23.7109 1.52344 23.5156 1.64844 23.3516 1.8125C23.1875 1.97656 23.0625 2.16406 22.9766 2.375C22.8906 2.58594 22.8437 2.82812 22.8437 3.09375C22.8437 3.38281 22.8828 3.63281 22.9687 3.83594C23.0547 4.03906 23.1719 4.21094 23.3125 4.35938C23.4531 4.5 23.6172 4.625 23.7969 4.71875C23.9766 4.82031 24.1641 4.89844 24.3516 4.97656C24.5391 5.04688 24.7266 5.11719 24.9062 5.1875C25.0859 5.25 25.25 5.32812 25.3906 5.40625C25.5312 5.49219 25.6484 5.58594 25.7344 5.69531C25.8203 5.80469 25.8594 5.94531 25.8594 6.10938C25.8594 6.35938 25.7578 6.5625 25.5625 6.71094C25.3672 6.85938 25.0625 6.9375 24.6484 6.9375C24.3828 6.9375 24.1562 6.91406 23.9609 6.85938C23.7656 6.80469 23.6016 6.75 23.4688 6.6875C23.3359 6.625 23.2188 6.57031 23.1328 6.51562C23.0469 6.46094 22.9766 6.4375 22.9375 6.4375C22.9063 6.4375 22.875 6.44531 22.8437 6.46094C22.8203 6.47656 22.7969 6.50781 22.7812 6.54688C22.75 6.57812 22.7422 6.64063 22.7344 6.71875C22.7266 6.79688 22.7266 6.89062 22.7266 7.01562C22.7266 7.17187 22.7344 7.28906 22.75 7.36719C22.7656 7.4375 22.7969 7.5 22.8359 7.53906Z" fill="url(#paint5_linear_844_5824)"/>
<path d="M26.7969 45.4141C26.6562 45.2734 26.4922 45.1562 26.3047 45.0547C26.125 44.9609 25.9375 44.875 25.7422 44.7969C25.5547 44.7266 25.3672 44.6562 25.1797 44.5859C25 44.5234 24.8281 44.4453 24.6875 44.3672C24.5391 44.2891 24.4297 44.1875 24.3359 44.0781C24.2578 43.9687 24.2188 43.8359 24.2188 43.6719C24.2188 43.5703 24.2344 43.4687 24.2734 43.3828C24.3125 43.2969 24.375 43.2188 24.4531 43.1562C24.5312 43.0938 24.6406 43.0469 24.7656 43.0078C24.8984 42.9766 25.0469 42.9531 25.2344 42.9531C25.4297 42.9531 25.6172 42.9766 25.7812 43.0234C25.9453 43.0703 26.0938 43.1172 26.2188 43.1719C26.3438 43.2266 26.4531 43.2734 26.5391 43.3203C26.625 43.3672 26.6953 43.3906 26.7344 43.3906C26.7578 43.3906 26.7812 43.3828 26.7969 43.375C26.8125 43.3594 26.8281 43.3359 26.8438 43.3047C26.8594 43.2656 26.8672 43.2109 26.875 43.1484C26.8828 43.0781 26.8828 42.9922 26.8828 42.8828C26.8828 42.8047 26.8828 42.7344 26.875 42.6719C26.875 42.6094 26.8672 42.5547 26.8594 42.5156C26.8516 42.4687 26.8359 42.4375 26.8203 42.4062C26.8047 42.375 26.7813 42.3437 26.75 42.3203C26.7188 42.2891 26.6641 42.2578 26.5938 42.2187C26.5156 42.1797 26.4297 42.1484 26.3359 42.1172C26.2422 42.0859 26.1406 42.0547 26.0312 42.0312C25.9219 42.0078 25.8203 41.9844 25.7187 41.9766L25.8203 40.9844C25.8203 40.9453 25.8125 40.9141 25.8047 40.8828C25.7969 40.8516 25.7734 40.8281 25.7344 40.8047C25.6953 40.7891 25.6406 40.7734 25.5703 40.7578C25.5 40.75 25.4063 40.7422 25.2969 40.7422C25.2031 40.7422 25.1328 40.7422 25.0781 40.75C25.0234 40.7578 24.9766 40.7656 24.9453 40.7812C24.9141 40.7969 24.8906 40.8125 24.875 40.8359C24.8594 40.8516 24.8516 40.875 24.8516 40.9062L24.75 41.9609C24.4453 41.9922 24.1719 42.0625 23.9375 42.1641C23.6953 42.2656 23.5 42.3906 23.3359 42.5547C23.1719 42.7187 23.0469 42.9062 22.9609 43.1172C22.875 43.3359 22.8281 43.5703 22.8281 43.8359C22.8281 44.125 22.8672 44.375 22.9531 44.5781C23.0391 44.7812 23.1562 44.9531 23.2969 45.1016C23.4375 45.2422 23.6016 45.3672 23.7813 45.4609C23.9609 45.5625 24.1484 45.6406 24.3359 45.7187C24.5234 45.7891 24.7109 45.8594 24.8906 45.9219C25.0703 45.9844 25.2344 46.0625 25.375 46.1406C25.5156 46.2188 25.6328 46.3203 25.7187 46.4297C25.8047 46.5391 25.8438 46.6797 25.8438 46.8437C25.8438 47.0937 25.7422 47.2969 25.5469 47.4453C25.3516 47.5781 25.0469 47.6562 24.6406 47.6562C24.375 47.6562 24.1484 47.6328 23.9531 47.5781C23.7578 47.5234 23.5938 47.4687 23.4609 47.4062C23.3281 47.3437 23.2109 47.2891 23.125 47.2344C23.0391 47.1797 22.9688 47.1562 22.9297 47.1562C22.8984 47.1562 22.8672 47.1641 22.8359 47.1797C22.8125 47.1953 22.7891 47.2266 22.7734 47.2656C22.7578 47.3047 22.7422 47.3672 22.7344 47.4453C22.7266 47.5234 22.7266 47.6172 22.7266 47.7422C22.7266 47.8984 22.7344 48.0156 22.75 48.0938C22.7656 48.1719 22.7969 48.2344 22.8359 48.2734C22.875 48.3125 22.9375 48.3516 23.0156 48.3984C23.0937 48.4375 23.1875 48.4844 23.2969 48.5234C23.4062 48.5625 23.5234 48.6016 23.6563 48.6328C23.7891 48.6641 23.9297 48.6953 24.0781 48.7109L23.9688 49.7734C23.9609 49.8125 23.9609 49.8437 23.9766 49.875C23.9922 49.9062 24.0156 49.9297 24.0547 49.9531C24.0938 49.9687 24.1484 49.9844 24.2109 50C24.2812 50.0078 24.3672 50.0156 24.4844 50.0156C24.5703 50.0156 24.6406 50.0078 24.7031 50C24.7578 49.9922 24.8047 49.9766 24.8359 49.9687C24.8672 49.9531 24.8906 49.9375 24.9062 49.9141C24.9219 49.8906 24.9297 49.8672 24.9297 49.8437L25.0391 48.7187C25.375 48.6875 25.6797 48.625 25.9531 48.5234C26.2266 48.4219 26.4688 48.2812 26.6641 48.1016C26.8594 47.9297 27.0078 47.7187 27.1172 47.4766C27.2266 47.2344 27.2734 46.9687 27.2734 46.6641C27.2734 46.3828 27.2266 46.1406 27.1406 45.9375C27.0547 45.7266 26.9453 45.5547 26.7969 45.4141Z" fill="url(#paint6_linear_844_5824)"/>
</g>
<defs>
<linearGradient id="paint0_linear_844_5824" x1="24.9964" y1="36.8906" x2="24.9964" y2="13.0938" gradientUnits="userSpaceOnUse">
<stop stop-color="#3C53D7"/>
<stop offset="1" stop-color="#00BAA9"/>
</linearGradient>
<linearGradient id="paint1_linear_844_5824" x1="40.1383" y1="46.3903" x2="40.1383" y2="35.3389" gradientUnits="userSpaceOnUse">
<stop stop-color="#3C53D7"/>
<stop offset="1" stop-color="#00BAA9"/>
</linearGradient>
<linearGradient id="paint2_linear_844_5824" x1="9.85614" y1="46.3903" x2="9.85614" y2="35.3389" gradientUnits="userSpaceOnUse">
<stop stop-color="#3C53D7"/>
<stop offset="1" stop-color="#00BAA9"/>
</linearGradient>
<linearGradient id="paint3_linear_844_5824" x1="40.6091" y1="16.5627" x2="40.6091" y2="3.6084" gradientUnits="userSpaceOnUse">
<stop stop-color="#3C53D7"/>
<stop offset="1" stop-color="#00BAA9"/>
</linearGradient>
<linearGradient id="paint4_linear_844_5824" x1="9.38883" y1="16.5626" x2="9.38883" y2="3.60352" gradientUnits="userSpaceOnUse">
<stop stop-color="#3C53D7"/>
<stop offset="1" stop-color="#00BAA9"/>
</linearGradient>
<linearGradient id="paint5_linear_844_5824" x1="25" y1="9.28125" x2="25" y2="0" gradientUnits="userSpaceOnUse">
<stop stop-color="#3C53D7"/>
<stop offset="1" stop-color="#00BAA9"/>
</linearGradient>
<linearGradient id="paint6_linear_844_5824" x1="25" y1="50.0156" x2="25" y2="40.7422" gradientUnits="userSpaceOnUse">
<stop stop-color="#3C53D7"/>
<stop offset="1" stop-color="#00BAA9"/>
</linearGradient>
<clipPath id="clip0_844_5824">
<rect width="50" height="50" fill="white"/>
</clipPath>
</defs>
</svg>
