<svg width="40" height="70" viewBox="0 0 40 70" fill="none" xmlns="http://www.w3.org/2000/svg">
<g clip-path="url(#clip0_844_2975)">
<path style="mix-blend-mode:screen" d="M19.1309 47.145V28.4746L0.492188 35.5676L19.1309 47.145Z" fill="url(#paint0_linear_844_2975)"/>
<path style="mix-blend-mode:screen" d="M19.1328 0V28.4739L37.7715 35.567L19.1328 0Z" fill="url(#paint1_linear_844_2975)"/>
<path style="mix-blend-mode:screen" d="M19.1328 47.145L37.7715 35.5676L19.1328 28.4746V47.145Z" fill="url(#paint2_linear_844_2975)"/>
<path style="mix-blend-mode:screen" d="M0.492188 35.567L19.1309 28.4739V0L0.492188 35.567Z" fill="url(#paint3_linear_844_2975)"/>
<path style="mix-blend-mode:screen" d="M19.1309 69.999V52.932L0.492188 40.8926L19.1309 69.999Z" fill="url(#paint4_linear_844_2975)"/>
<path style="mix-blend-mode:screen" d="M19.1328 69.999V52.932L37.7715 40.8926L19.1328 69.999Z" fill="url(#paint5_linear_844_2975)"/>
<path style="mix-blend-mode:screen" d="M0.492188 40.8926L19.1309 50.0342L37.7696 40.8926L19.1309 52.932L0.492188 40.8926Z" fill="url(#paint6_linear_844_2975)"/>
<path style="mix-blend-mode:screen" d="M19.1328 0L11.25 26.2339L19.1328 47.1443V0Z" fill="url(#paint7_linear_844_2975)"/>
<path style="mix-blend-mode:screen" d="M0.492188 35.5674L11.2481 26.2344L19.1309 47.1448L0.492188 35.5674Z" fill="url(#paint8_linear_844_2975)"/>
<path style="mix-blend-mode:screen" d="M19.1328 0L27.384 26.7567L19.1328 47.1443V0Z" fill="url(#paint9_linear_844_2975)"/>
<path style="mix-blend-mode:screen" d="M37.7715 35.567L27.384 26.7567L19.1328 0L37.7715 35.567Z" fill="url(#paint10_linear_844_2975)"/>
<path style="mix-blend-mode:screen" d="M19.1328 47.1434L27.384 26.7559L37.7715 35.5661L19.1328 47.1434Z" fill="url(#paint11_linear_844_2975)"/>
<path style="mix-blend-mode:screen" d="M0.492188 40.8926L14.6429 55.5152L19.1309 69.999L0.492188 40.8926Z" fill="url(#paint12_linear_844_2975)"/>
<path style="mix-blend-mode:screen" d="M19.1364 52.9336L14.6484 55.5168L19.1364 70.0006V52.9336Z" fill="url(#paint13_linear_844_2975)"/>
<path style="mix-blend-mode:screen" d="M0.492188 40.8926L14.6429 55.5152L19.1309 52.932L0.492188 40.8926Z" fill="url(#paint14_linear_844_2975)"/>
<path style="mix-blend-mode:screen" d="M37.7715 40.8926L19.1328 52.932L23.2584 55.4458L37.7715 40.8926Z" fill="url(#paint15_linear_844_2975)"/>
<path style="mix-blend-mode:screen" d="M19.1328 69.999L23.2584 55.4458L37.7715 40.8926L19.1328 69.999Z" fill="url(#paint16_linear_844_2975)"/>
<path style="mix-blend-mode:screen" d="M19.1309 0L11.2481 26.2339L0.492188 35.567L19.1309 0Z" fill="url(#paint17_linear_844_2975)"/>
<path style="mix-blend-mode:screen" d="M25.5249 59.9052C26.3749 60.5753 29.7759 55.2306 28.8029 54.7534C27.9531 54.0829 24.5522 59.4281 25.5249 59.9052Z" fill="url(#paint18_radial_844_2975)"/>
<path style="mix-blend-mode:screen" opacity="0.73" d="M27.8362 57.7529C32.3763 50.6542 30.9986 49.787 26.4911 56.9063C21.9516 64.0049 23.3285 64.8717 27.8362 57.7529Z" fill="url(#paint19_radial_844_2975)"/>
<path style="mix-blend-mode:screen" opacity="0.73" d="M29.0735 58.5323C37.7661 44.8629 33.9521 42.4614 25.2516 56.1259C16.5601 69.7948 20.3737 72.1958 29.0735 58.5323Z" fill="url(#paint20_radial_844_2975)"/>
<path style="mix-blend-mode:screen" opacity="0.73" d="M27.2823 57.4048C34.1804 46.5758 33.9316 46.4189 27.044 57.255C20.1472 68.0835 20.3942 68.2402 27.2823 57.4048Z" fill="url(#paint21_radial_844_2975)"/>
<path style="mix-blend-mode:screen" d="M23.5764 36.1696C24.2876 36.5431 26.0388 32.1866 25.2639 31.97C24.5529 31.5962 22.8022 35.9527 23.5764 36.1696Z" fill="url(#paint22_radial_844_2975)"/>
<path style="mix-blend-mode:screen" opacity="0.73" d="M24.9683 34.287C27.3096 28.4978 26.1874 28.0511 23.872 33.851C21.5304 39.6412 22.6526 40.0867 24.9683 34.287Z" fill="url(#paint23_radial_844_2975)"/>
<path style="mix-blend-mode:screen" opacity="0.73" d="M25.9717 34.6879C30.4448 23.5468 27.3373 22.3096 22.8575 33.4488C18.3844 44.5904 21.4919 45.8264 25.9717 34.6879Z" fill="url(#paint24_radial_844_2975)"/>
<path style="mix-blend-mode:screen" opacity="0.73" d="M24.5103 34.1084C28.0628 25.2801 27.86 25.1995 24.3161 34.0319C20.7638 42.859 20.9662 42.9396 24.5103 34.1084Z" fill="url(#paint25_radial_844_2975)"/>
<path style="mix-blend-mode:screen" d="M26.1645 22.9062C26.9542 22.7549 25.5789 18.267 24.8386 18.5801C24.0488 18.7314 25.4242 23.2191 26.1645 22.9062Z" fill="url(#paint26_radial_844_2975)"/>
<path style="mix-blend-mode:screen" opacity="0.73" d="M26.0627 20.5713C24.2466 14.5981 23.0903 14.9482 24.9341 20.9137C26.7493 26.8866 27.9054 26.5363 26.0627 20.5713Z" fill="url(#paint27_radial_844_2975)"/>
<path style="mix-blend-mode:screen" opacity="0.73" d="M27.106 20.2568C23.5858 8.7828 20.3836 9.75239 23.8974 21.2295C27.4177 32.7032 30.6196 31.7334 27.106 20.2568Z" fill="url(#paint28_radial_844_2975)"/>
<path style="mix-blend-mode:screen" opacity="0.73" d="M25.5997 20.7135C22.8167 11.6165 22.6076 11.6795 25.3999 20.7742C28.1829 29.871 28.3917 29.8077 25.5997 20.7135Z" fill="url(#paint29_radial_844_2975)"/>
<path style="mix-blend-mode:screen" d="M35.6125 33.7368C35.9947 33.3763 33.6441 31.3825 33.3468 31.815C32.9636 32.1755 35.3142 34.1693 35.6125 33.7368Z" fill="url(#paint30_radial_844_2975)"/>
<path style="mix-blend-mode:screen" opacity="0.73" d="M34.7326 32.4828C31.6318 29.8325 31.1098 30.4415 34.2309 33.0681C37.3315 35.7184 37.8535 35.1101 34.7326 32.4828Z" fill="url(#paint31_radial_844_2975)"/>
<path style="mix-blend-mode:screen" opacity="0.73" d="M35.1975 31.9437C29.1859 26.8473 27.7625 28.5061 33.7716 33.6063C39.7832 38.7025 41.2063 37.0438 35.1975 31.9437Z" fill="url(#paint32_radial_844_2975)"/>
<path style="mix-blend-mode:screen" opacity="0.73" d="M34.524 32.7237C29.7621 28.6803 29.669 28.7885 34.4353 32.8273C39.197 36.8705 39.2899 36.7625 34.524 32.7237Z" fill="url(#paint33_radial_844_2975)"/>
<path style="mix-blend-mode:screen" d="M3.75257 44.2385C3.25162 44.6195 5.79458 47.2894 6.2037 46.8123C6.70465 46.4313 4.16169 43.7614 3.75257 44.2385Z" fill="url(#paint34_radial_844_2975)"/>
<path style="mix-blend-mode:screen" opacity="0.73" d="M4.64418 45.8418C7.9964 49.3885 8.69512 48.7299 5.31597 45.2088C1.96298 41.6637 1.26529 42.3207 4.64418 45.8418Z" fill="url(#paint35_radial_844_2975)"/>
<path style="mix-blend-mode:screen" opacity="0.73" d="M4.0254 46.4257C10.5298 53.2508 12.4353 51.4563 5.93454 44.6269C-0.569575 37.802 -2.4746 39.5965 4.0254 46.4257Z" fill="url(#paint36_radial_844_2975)"/>
<path style="mix-blend-mode:screen" opacity="0.73" d="M4.92366 45.5818C10.0747 50.9957 10.1994 50.8786 5.04242 45.4698C-0.108644 40.056 -0.232787 40.1728 4.92366 45.5818Z" fill="url(#paint37_radial_844_2975)"/>
<path style="mix-blend-mode:screen" d="M15.0912 57.1374C14.6112 57.2394 15.5016 59.9607 15.9492 59.7614C16.4301 59.6603 15.5393 56.9381 15.0912 57.1374Z" fill="url(#paint38_radial_844_2975)"/>
<path style="mix-blend-mode:screen" opacity="0.73" d="M15.1769 58.5614C16.3411 62.1682 17.0534 61.9383 15.862 58.3399C14.6977 54.733 13.9854 54.9632 15.1769 58.5614Z" fill="url(#paint39_radial_844_2975)"/>
<path style="mix-blend-mode:screen" opacity="0.73" d="M14.5449 58.7652C16.8226 65.7248 18.7648 65.0973 16.4909 58.1357C14.2171 51.1741 12.2725 51.8041 14.5449 58.7652Z" fill="url(#paint40_radial_844_2975)"/>
<path style="mix-blend-mode:screen" opacity="0.73" d="M15.4577 58.4699C17.2588 63.9876 17.3856 63.9468 15.579 58.4306C13.7781 52.9129 13.6514 52.9537 15.4577 58.4699Z" fill="url(#paint41_radial_844_2975)"/>
<path style="mix-blend-mode:screen" d="M22.4705 50.8797C22.2507 50.4434 19.8286 51.9881 20.1364 52.369C20.3564 52.8053 22.7776 51.2604 22.4705 50.8797Z" fill="url(#paint42_radial_844_2975)"/>
<path style="mix-blend-mode:screen" opacity="0.73" d="M21.1024 51.3226C17.8884 53.3551 18.2924 53.9825 21.491 51.9257C24.7047 49.8934 24.3002 49.266 21.1024 51.3226Z" fill="url(#paint43_radial_844_2975)"/>
<path style="mix-blend-mode:screen" opacity="0.73" d="M20.7476 50.7671C14.5546 54.7186 15.6558 56.4294 21.8518 52.4809C28.0479 48.5324 26.9431 46.8188 20.7476 50.7671Z" fill="url(#paint44_radial_844_2975)"/>
<path style="mix-blend-mode:screen" opacity="0.73" d="M21.2652 51.5707C16.354 54.6992 16.4258 54.8112 21.3342 51.6774C26.2452 48.5492 26.1737 48.4377 21.2652 51.5707Z" fill="url(#paint45_radial_844_2975)"/>
<path style="mix-blend-mode:overlay" d="M25.8433 30.9357L27.4872 26.9665C30.1497 29.2118 35.2033 33.4359 37.7696 35.567C35.2956 33.441 29.9788 28.814 27.5559 26.8004L27.5687 26.7692L27.4705 26.7294C24.8678 18.2068 21.8444 8.46142 19.1309 0C21.66 8.53797 24.648 18.2849 27.3015 26.8096L27.3184 26.8238L25.6871 30.8752C23.3111 29.9628 21.0349 29.0911 19.1319 28.3609C17.7724 28.8812 15.4475 29.7719 13.0228 30.7027L11.354 26.212C13.8454 18.0042 16.7531 8.23178 19.1309 0C16.5736 8.19198 13.603 17.9807 11.1583 26.2069C8.21597 28.7148 3.4971 32.921 0.492188 35.567L5.17026 33.8421C6.71645 33.253 9.9122 32.069 12.9328 30.9362L19.1309 47.1443L13.0869 30.8782C15.5686 29.9472 17.9092 29.0582 19.0929 28.5724C20.9805 29.2869 23.2482 30.1452 25.6204 31.0385L19.1309 47.1443L25.7766 31.0974C29.9673 32.6753 34.4658 34.3583 37.7696 35.5672C34.4822 34.2624 30.0178 32.539 25.8433 30.9357ZM5.13333 33.7454L0.492188 35.5667C3.61048 32.9356 8.02744 29.1223 11.1983 26.4L12.8656 30.7632C9.86938 31.9132 6.74877 33.1144 5.13333 33.7454Z" fill="url(#paint46_linear_844_2975)"/>
</g>
<defs>
<linearGradient id="paint0_linear_844_2975" x1="0.492188" y1="37.8097" x2="19.1309" y2="37.8097" gradientUnits="userSpaceOnUse">
<stop stop-color="#3C53D7"/>
<stop offset="1" stop-color="#222B2E"/>
</linearGradient>
<linearGradient id="paint1_linear_844_2975" x1="19.1328" y1="17.7835" x2="37.7715" y2="17.7835" gradientUnits="userSpaceOnUse">
<stop stop-color="#41464A"/>
<stop offset="1" stop-color="#283236"/>
</linearGradient>
<linearGradient id="paint2_linear_844_2975" x1="19.1328" y1="37.8097" x2="37.7715" y2="37.8097" gradientUnits="userSpaceOnUse">
<stop stop-color="#A1A7AB"/>
<stop offset="1" stop-color="#222B2E"/>
</linearGradient>
<linearGradient id="paint3_linear_844_2975" x1="10.0723" y1="17.9759" x2="20.6162" y2="25.8342" gradientUnits="userSpaceOnUse">
<stop stop-color="#414547"/>
<stop offset="1"/>
</linearGradient>
<linearGradient id="paint4_linear_844_2975" x1="0.492188" y1="55.4458" x2="19.1309" y2="55.4458" gradientUnits="userSpaceOnUse">
<stop stop-color="#414547"/>
<stop offset="1"/>
</linearGradient>
<linearGradient id="paint5_linear_844_2975" x1="19.1328" y1="55.4458" x2="37.7715" y2="55.4458" gradientUnits="userSpaceOnUse">
<stop stop-color="#A1A7AB"/>
<stop offset="1" stop-color="#222B2E"/>
</linearGradient>
<linearGradient id="paint6_linear_844_2975" x1="0.492188" y1="46.9124" x2="37.7696" y2="46.9124" gradientUnits="userSpaceOnUse">
<stop stop-color="#A1A7AB"/>
<stop offset="1" stop-color="#222B2E"/>
</linearGradient>
<linearGradient id="paint7_linear_844_2975" x1="11.25" y1="23.5722" x2="19.1328" y2="23.5722" gradientUnits="userSpaceOnUse">
<stop stop-color="#3C53D7"/>
<stop offset="1" stop-color="#849199"/>
</linearGradient>
<linearGradient id="paint8_linear_844_2975" x1="0.492188" y1="36.6896" x2="19.1309" y2="36.6896" gradientUnits="userSpaceOnUse">
<stop stop-color="#3C82D7"/>
<stop offset="1" stop-color="#71878F"/>
</linearGradient>
<linearGradient id="paint9_linear_844_2975" x1="19.1328" y1="23.5722" x2="27.384" y2="23.5722" gradientUnits="userSpaceOnUse">
<stop stop-color="#37454A"/>
<stop offset="1" stop-color="#7F8487"/>
</linearGradient>
<linearGradient id="paint10_linear_844_2975" x1="19.1328" y1="17.7835" x2="37.7715" y2="17.7835" gradientUnits="userSpaceOnUse">
<stop stop-color="#93A1AB"/>
<stop offset="1" stop-color="#536970"/>
</linearGradient>
<linearGradient id="paint11_linear_844_2975" x1="21.9725" y1="29.896" x2="27.9141" y2="40.5145" gradientUnits="userSpaceOnUse">
<stop stop-color="#A1A7AB"/>
<stop offset="1" stop-color="#4A5D63"/>
</linearGradient>
<linearGradient id="paint12_linear_844_2975" x1="2.84713" y1="39.8564" x2="17.7421" y2="66.4761" gradientUnits="userSpaceOnUse">
<stop stop-color="#6B7F8F"/>
<stop offset="1" stop-color="#222B2E"/>
</linearGradient>
<linearGradient id="paint13_linear_844_2975" x1="15.5229" y1="55.0769" x2="21.9529" y2="66.5684" gradientUnits="userSpaceOnUse">
<stop stop-color="#3C53D7"/>
<stop offset="1" stop-color="#A1A7AB"/>
</linearGradient>
<linearGradient id="paint14_linear_844_2975" x1="0.492188" y1="48.2038" x2="19.1309" y2="48.2038" gradientUnits="userSpaceOnUse">
<stop stop-color="#A1A7AB"/>
<stop offset="1" stop-color="#222B2E"/>
</linearGradient>
<linearGradient id="paint15_linear_844_2975" x1="19.1328" y1="48.1693" x2="37.7715" y2="48.1693" gradientUnits="userSpaceOnUse">
<stop stop-color="#7F99AB"/>
<stop offset="1" stop-color="#222B2E"/>
</linearGradient>
<linearGradient id="paint16_linear_844_2975" x1="19.1328" y1="55.4458" x2="37.7715" y2="55.4458" gradientUnits="userSpaceOnUse">
<stop stop-color="#98A3AB"/>
<stop offset="1" stop-color="#222B2E"/>
</linearGradient>
<linearGradient id="paint17_linear_844_2975" x1="8.81207" y1="17.0463" x2="14.6098" y2="21.3675" gradientUnits="userSpaceOnUse">
<stop stop-color="#6A6E70"/>
<stop offset="1" stop-color="#4F646B"/>
</linearGradient>
<radialGradient id="paint18_radial_844_2975" cx="0" cy="0" r="1" gradientUnits="userSpaceOnUse" gradientTransform="translate(26.6696 57.103) rotate(122.242) scale(3.00013 0.831169)">
<stop stop-color="white"/>
<stop offset="0.04" stop-color="#EAEAEA"/>
<stop offset="0.15" stop-color="#B4B4B4"/>
<stop offset="0.26" stop-color="#848484"/>
<stop offset="0.37" stop-color="#5B5B5B"/>
<stop offset="0.49" stop-color="#3A3A3A"/>
<stop offset="0.61" stop-color="#212121"/>
<stop offset="0.73" stop-color="#0E0E0E"/>
<stop offset="0.86" stop-color="#040404"/>
<stop offset="1"/>
</radialGradient>
<radialGradient id="paint19_radial_844_2975" cx="0" cy="0" r="1" gradientUnits="userSpaceOnUse" gradientTransform="translate(26.6852 57.0746) rotate(31.8699) scale(0.78925 6.41439)">
<stop stop-color="#B7BAEE"/>
<stop offset="0.08" stop-color="#8DA1E4"/>
<stop offset="0.11" stop-color="#7288C4"/>
<stop offset="0.17" stop-color="#4A6496"/>
<stop offset="0.18" stop-color="#496494"/>
<stop offset="0.3" stop-color="#435F77"/>
<stop offset="0.46" stop-color="#2B3D4D"/>
<stop offset="0.61" stop-color="#18232B"/>
<stop offset="0.75" stop-color="#0B1013"/>
<stop offset="0.89" stop-color="#030405"/>
<stop offset="1"/>
</radialGradient>
<radialGradient id="paint20_radial_844_2975" cx="0" cy="0" r="1" gradientUnits="userSpaceOnUse" gradientTransform="translate(29.539 61.3651) rotate(31.473) scale(2.17269 12.2516)">
<stop stop-color="#B7BAEE"/>
<stop offset="0.08" stop-color="#8DA1E4"/>
<stop offset="0.11" stop-color="#7288C4"/>
<stop offset="0.17" stop-color="#4A6496"/>
<stop offset="0.18" stop-color="#496494"/>
<stop offset="0.3" stop-color="#435F77"/>
<stop offset="0.46" stop-color="#2B3D4D"/>
<stop offset="0.61" stop-color="#18232B"/>
<stop offset="0.75" stop-color="#0B1013"/>
<stop offset="0.89" stop-color="#030405"/>
<stop offset="1"/>
</radialGradient>
<radialGradient id="paint21_radial_844_2975" cx="0" cy="0" r="1" gradientUnits="userSpaceOnUse" gradientTransform="translate(33.3535 45.2321) rotate(44.8491) scale(0.14461 9.54413)">
<stop stop-color="#B7BAEE"/>
<stop offset="0.08" stop-color="#8DA1E4"/>
<stop offset="0.11" stop-color="#7288C4"/>
<stop offset="0.17" stop-color="#4A6496"/>
<stop offset="0.18" stop-color="#496494"/>
<stop offset="0.3" stop-color="#435F77"/>
<stop offset="0.46" stop-color="#2B3D4D"/>
<stop offset="0.61" stop-color="#18232B"/>
<stop offset="0.75" stop-color="#0B1013"/>
<stop offset="0.89" stop-color="#030405"/>
<stop offset="1"/>
</radialGradient>
<radialGradient id="paint22_radial_844_2975" cx="0" cy="0" r="1" gradientUnits="userSpaceOnUse" gradientTransform="translate(23.5064 34.3081) rotate(111.626) scale(2.21555 0.600595)">
<stop stop-color="white"/>
<stop offset="0.04" stop-color="#EAEAEA"/>
<stop offset="0.15" stop-color="#B4B4B4"/>
<stop offset="0.26" stop-color="#848484"/>
<stop offset="0.37" stop-color="#5B5B5B"/>
<stop offset="0.49" stop-color="#3A3A3A"/>
<stop offset="0.61" stop-color="#212121"/>
<stop offset="0.73" stop-color="#0E0E0E"/>
<stop offset="0.86" stop-color="#040404"/>
<stop offset="1"/>
</radialGradient>
<radialGradient id="paint23_radial_844_2975" cx="0" cy="0" r="1" gradientUnits="userSpaceOnUse" gradientTransform="translate(24.2636 35.8824) rotate(19.8864) scale(0.571403 4.75633)">
<stop stop-color="#B7BAEE"/>
<stop offset="0.08" stop-color="#8DA1E4"/>
<stop offset="0.11" stop-color="#7288C4"/>
<stop offset="0.17" stop-color="#4A6496"/>
<stop offset="0.18" stop-color="#496494"/>
<stop offset="0.3" stop-color="#435F77"/>
<stop offset="0.46" stop-color="#2B3D4D"/>
<stop offset="0.61" stop-color="#18232B"/>
<stop offset="0.75" stop-color="#0B1013"/>
<stop offset="0.89" stop-color="#030405"/>
<stop offset="1"/>
</radialGradient>
<radialGradient id="paint24_radial_844_2975" cx="0" cy="0" r="1" gradientUnits="userSpaceOnUse" gradientTransform="translate(19.7885 38.7905) rotate(20.1272) scale(1.68157 9.08903)">
<stop stop-color="#B7BAEE"/>
<stop offset="0.08" stop-color="#8DA1E4"/>
<stop offset="0.11" stop-color="#7288C4"/>
<stop offset="0.17" stop-color="#4A6496"/>
<stop offset="0.18" stop-color="#496494"/>
<stop offset="0.3" stop-color="#435F77"/>
<stop offset="0.46" stop-color="#2B3D4D"/>
<stop offset="0.61" stop-color="#18232B"/>
<stop offset="0.75" stop-color="#0B1013"/>
<stop offset="0.89" stop-color="#030405"/>
<stop offset="1"/>
</radialGradient>
<radialGradient id="paint25_radial_844_2975" cx="0" cy="0" r="1" gradientUnits="userSpaceOnUse" gradientTransform="translate(3.09062 15.1341) rotate(26.4445) scale(0.133624 7.21952)">
<stop stop-color="#B7BAEE"/>
<stop offset="0.08" stop-color="#8DA1E4"/>
<stop offset="0.11" stop-color="#7288C4"/>
<stop offset="0.17" stop-color="#4A6496"/>
<stop offset="0.18" stop-color="#496494"/>
<stop offset="0.3" stop-color="#435F77"/>
<stop offset="0.46" stop-color="#2B3D4D"/>
<stop offset="0.61" stop-color="#18232B"/>
<stop offset="0.75" stop-color="#0B1013"/>
<stop offset="0.89" stop-color="#030405"/>
<stop offset="1"/>
</radialGradient>
<radialGradient id="paint26_radial_844_2975" cx="0" cy="0" r="1" gradientUnits="userSpaceOnUse" gradientTransform="translate(26.3076 21.4574) rotate(73.1452) scale(2.21247 0.608591)">
<stop stop-color="white"/>
<stop offset="0.04" stop-color="#EAEAEA"/>
<stop offset="0.15" stop-color="#B4B4B4"/>
<stop offset="0.26" stop-color="#848484"/>
<stop offset="0.37" stop-color="#5B5B5B"/>
<stop offset="0.49" stop-color="#3A3A3A"/>
<stop offset="0.61" stop-color="#212121"/>
<stop offset="0.73" stop-color="#0E0E0E"/>
<stop offset="0.86" stop-color="#040404"/>
<stop offset="1"/>
</radialGradient>
<radialGradient id="paint27_radial_844_2975" cx="0" cy="0" r="1" gradientUnits="userSpaceOnUse" gradientTransform="translate(28.3249 19.6623) rotate(-15.1787) scale(0.55687 4.72047)">
<stop stop-color="#B7BAEE"/>
<stop offset="0.08" stop-color="#8DA1E4"/>
<stop offset="0.11" stop-color="#7288C4"/>
<stop offset="0.17" stop-color="#4A6496"/>
<stop offset="0.18" stop-color="#496494"/>
<stop offset="0.3" stop-color="#435F77"/>
<stop offset="0.46" stop-color="#2B3D4D"/>
<stop offset="0.61" stop-color="#18232B"/>
<stop offset="0.75" stop-color="#0B1013"/>
<stop offset="0.89" stop-color="#030405"/>
<stop offset="1"/>
</radialGradient>
<radialGradient id="paint28_radial_844_2975" cx="0" cy="0" r="1" gradientUnits="userSpaceOnUse" gradientTransform="translate(26.6821 22.7682) rotate(-17.4391) scale(1.6551 9.07837)">
<stop stop-color="#B7BAEE"/>
<stop offset="0.08" stop-color="#8DA1E4"/>
<stop offset="0.11" stop-color="#7288C4"/>
<stop offset="0.17" stop-color="#4A6496"/>
<stop offset="0.18" stop-color="#496494"/>
<stop offset="0.3" stop-color="#435F77"/>
<stop offset="0.46" stop-color="#2B3D4D"/>
<stop offset="0.61" stop-color="#18232B"/>
<stop offset="0.75" stop-color="#0B1013"/>
<stop offset="0.89" stop-color="#030405"/>
<stop offset="1"/>
</radialGradient>
<radialGradient id="paint29_radial_844_2975" cx="0" cy="0" r="1" gradientUnits="userSpaceOnUse" gradientTransform="translate(11.7905 41.5543) rotate(-26.4445) scale(0.133584 7.11082)">
<stop stop-color="#B7BAEE"/>
<stop offset="0.08" stop-color="#8DA1E4"/>
<stop offset="0.11" stop-color="#7288C4"/>
<stop offset="0.17" stop-color="#4A6496"/>
<stop offset="0.18" stop-color="#496494"/>
<stop offset="0.3" stop-color="#435F77"/>
<stop offset="0.46" stop-color="#2B3D4D"/>
<stop offset="0.61" stop-color="#18232B"/>
<stop offset="0.75" stop-color="#0B1013"/>
<stop offset="0.89" stop-color="#030405"/>
<stop offset="1"/>
</radialGradient>
<radialGradient id="paint30_radial_844_2975" cx="0" cy="0" r="1" gradientUnits="userSpaceOnUse" gradientTransform="translate(35.2801 32.168) rotate(40.6144) scale(1.45947 0.404868)">
<stop stop-color="white"/>
<stop offset="0.04" stop-color="#EAEAEA"/>
<stop offset="0.15" stop-color="#B4B4B4"/>
<stop offset="0.26" stop-color="#848484"/>
<stop offset="0.37" stop-color="#5B5B5B"/>
<stop offset="0.49" stop-color="#3A3A3A"/>
<stop offset="0.61" stop-color="#212121"/>
<stop offset="0.73" stop-color="#0E0E0E"/>
<stop offset="0.86" stop-color="#040404"/>
<stop offset="1"/>
</radialGradient>
<radialGradient id="paint31_radial_844_2975" cx="0" cy="0" r="1" gradientUnits="userSpaceOnUse" gradientTransform="translate(33.9669 33.1752) rotate(-48.2166) scale(0.383445 3.09588)">
<stop stop-color="#B7BAEE"/>
<stop offset="0.08" stop-color="#8DA1E4"/>
<stop offset="0.11" stop-color="#7288C4"/>
<stop offset="0.17" stop-color="#4A6496"/>
<stop offset="0.18" stop-color="#496494"/>
<stop offset="0.3" stop-color="#435F77"/>
<stop offset="0.46" stop-color="#2B3D4D"/>
<stop offset="0.61" stop-color="#18232B"/>
<stop offset="0.75" stop-color="#0B1013"/>
<stop offset="0.89" stop-color="#030405"/>
<stop offset="1"/>
</radialGradient>
<radialGradient id="paint32_radial_844_2975" cx="0" cy="0" r="1" gradientUnits="userSpaceOnUse" gradientTransform="translate(33.87 31.1944) rotate(-48.9362) scale(1.07701 5.97167)">
<stop stop-color="#B7BAEE"/>
<stop offset="0.08" stop-color="#8DA1E4"/>
<stop offset="0.11" stop-color="#7288C4"/>
<stop offset="0.17" stop-color="#4A6496"/>
<stop offset="0.18" stop-color="#496494"/>
<stop offset="0.3" stop-color="#435F77"/>
<stop offset="0.46" stop-color="#2B3D4D"/>
<stop offset="0.61" stop-color="#18232B"/>
<stop offset="0.75" stop-color="#0B1013"/>
<stop offset="0.89" stop-color="#030405"/>
<stop offset="1"/>
</radialGradient>
<radialGradient id="paint33_radial_844_2975" cx="0" cy="0" r="1" gradientUnits="userSpaceOnUse" gradientTransform="translate(38.8548 20.4623) rotate(-44.8491) scale(0.0552608 4.75236)">
<stop stop-color="#B7BAEE"/>
<stop offset="0.08" stop-color="#8DA1E4"/>
<stop offset="0.11" stop-color="#7288C4"/>
<stop offset="0.17" stop-color="#4A6496"/>
<stop offset="0.18" stop-color="#496494"/>
<stop offset="0.3" stop-color="#435F77"/>
<stop offset="0.46" stop-color="#2B3D4D"/>
<stop offset="0.61" stop-color="#18232B"/>
<stop offset="0.75" stop-color="#0B1013"/>
<stop offset="0.89" stop-color="#030405"/>
<stop offset="1"/>
</radialGradient>
<radialGradient id="paint34_radial_844_2975" cx="0" cy="0" r="1" gradientUnits="userSpaceOnUse" gradientTransform="translate(5.07036 47.5478) rotate(-133.574) scale(1.75747 0.467803)">
<stop stop-color="white"/>
<stop offset="0.04" stop-color="#EAEAEA"/>
<stop offset="0.15" stop-color="#B4B4B4"/>
<stop offset="0.26" stop-color="#848484"/>
<stop offset="0.37" stop-color="#5B5B5B"/>
<stop offset="0.49" stop-color="#3A3A3A"/>
<stop offset="0.61" stop-color="#212121"/>
<stop offset="0.73" stop-color="#0E0E0E"/>
<stop offset="0.86" stop-color="#040404"/>
<stop offset="1"/>
</radialGradient>
<radialGradient id="paint35_radial_844_2975" cx="0" cy="0" r="1" gradientUnits="userSpaceOnUse" gradientTransform="translate(8.09749 47.6933) rotate(138.516) scale(0.45918 3.71859)">
<stop stop-color="#B7BAEE"/>
<stop offset="0.08" stop-color="#8DA1E4"/>
<stop offset="0.11" stop-color="#7288C4"/>
<stop offset="0.17" stop-color="#4A6496"/>
<stop offset="0.18" stop-color="#496494"/>
<stop offset="0.3" stop-color="#435F77"/>
<stop offset="0.46" stop-color="#2B3D4D"/>
<stop offset="0.61" stop-color="#18232B"/>
<stop offset="0.75" stop-color="#0B1013"/>
<stop offset="0.89" stop-color="#030405"/>
<stop offset="1"/>
</radialGradient>
<radialGradient id="paint36_radial_844_2975" cx="0" cy="0" r="1" gradientUnits="userSpaceOnUse" gradientTransform="translate(11.9636 42.2931) rotate(137.125) scale(1.33327 7.16718)">
<stop stop-color="#B7BAEE"/>
<stop offset="0.08" stop-color="#8DA1E4"/>
<stop offset="0.11" stop-color="#7288C4"/>
<stop offset="0.17" stop-color="#4A6496"/>
<stop offset="0.18" stop-color="#496494"/>
<stop offset="0.3" stop-color="#435F77"/>
<stop offset="0.46" stop-color="#2B3D4D"/>
<stop offset="0.61" stop-color="#18232B"/>
<stop offset="0.75" stop-color="#0B1013"/>
<stop offset="0.89" stop-color="#030405"/>
<stop offset="1"/>
</radialGradient>
<radialGradient id="paint37_radial_844_2975" cx="0" cy="0" r="1" gradientUnits="userSpaceOnUse" gradientTransform="translate(-14.9069 60.4837) rotate(135.151) scale(0.0660966 5.68423)">
<stop stop-color="#B7BAEE"/>
<stop offset="0.08" stop-color="#8DA1E4"/>
<stop offset="0.11" stop-color="#7288C4"/>
<stop offset="0.17" stop-color="#4A6496"/>
<stop offset="0.18" stop-color="#496494"/>
<stop offset="0.3" stop-color="#435F77"/>
<stop offset="0.46" stop-color="#2B3D4D"/>
<stop offset="0.61" stop-color="#18232B"/>
<stop offset="0.75" stop-color="#0B1013"/>
<stop offset="0.89" stop-color="#030405"/>
<stop offset="1"/>
</radialGradient>
<radialGradient id="paint38_radial_844_2975" cx="0" cy="0" r="1" gradientUnits="userSpaceOnUse" gradientTransform="translate(16.4612 60.2488) rotate(-108.289) scale(1.36065 0.371168)">
<stop stop-color="white"/>
<stop offset="0.04" stop-color="#EAEAEA"/>
<stop offset="0.15" stop-color="#B4B4B4"/>
<stop offset="0.26" stop-color="#848484"/>
<stop offset="0.37" stop-color="#5B5B5B"/>
<stop offset="0.49" stop-color="#3A3A3A"/>
<stop offset="0.61" stop-color="#212121"/>
<stop offset="0.73" stop-color="#0E0E0E"/>
<stop offset="0.86" stop-color="#040404"/>
<stop offset="1"/>
</radialGradient>
<radialGradient id="paint39_radial_844_2975" cx="0" cy="0" r="1" gradientUnits="userSpaceOnUse" gradientTransform="translate(11.4975 55.4247) rotate(160.114) scale(0.347901 2.89085)">
<stop stop-color="#B7BAEE"/>
<stop offset="0.08" stop-color="#8DA1E4"/>
<stop offset="0.11" stop-color="#7288C4"/>
<stop offset="0.17" stop-color="#4A6496"/>
<stop offset="0.18" stop-color="#496494"/>
<stop offset="0.3" stop-color="#435F77"/>
<stop offset="0.46" stop-color="#2B3D4D"/>
<stop offset="0.61" stop-color="#18232B"/>
<stop offset="0.75" stop-color="#0B1013"/>
<stop offset="0.89" stop-color="#030405"/>
<stop offset="1"/>
</radialGradient>
<radialGradient id="paint40_radial_844_2975" cx="0" cy="0" r="1" gradientUnits="userSpaceOnUse" gradientTransform="translate(15.5047 61.4303) rotate(162.561) scale(1.00966 5.56847)">
<stop stop-color="#B7BAEE"/>
<stop offset="0.08" stop-color="#8DA1E4"/>
<stop offset="0.11" stop-color="#7288C4"/>
<stop offset="0.17" stop-color="#4A6496"/>
<stop offset="0.18" stop-color="#496494"/>
<stop offset="0.3" stop-color="#435F77"/>
<stop offset="0.46" stop-color="#2B3D4D"/>
<stop offset="0.61" stop-color="#18232B"/>
<stop offset="0.75" stop-color="#0B1013"/>
<stop offset="0.89" stop-color="#030405"/>
<stop offset="1"/>
</radialGradient>
<radialGradient id="paint41_radial_844_2975" cx="0" cy="0" r="1" gradientUnits="userSpaceOnUse" gradientTransform="translate(46.2453 19.4735) rotate(153.555) scale(0.0815141 4.38783)">
<stop stop-color="#B7BAEE"/>
<stop offset="0.08" stop-color="#8DA1E4"/>
<stop offset="0.11" stop-color="#7288C4"/>
<stop offset="0.17" stop-color="#4A6496"/>
<stop offset="0.18" stop-color="#496494"/>
<stop offset="0.3" stop-color="#435F77"/>
<stop offset="0.46" stop-color="#2B3D4D"/>
<stop offset="0.61" stop-color="#18232B"/>
<stop offset="0.75" stop-color="#0B1013"/>
<stop offset="0.89" stop-color="#030405"/>
<stop offset="1"/>
</radialGradient>
<radialGradient id="paint42_radial_844_2975" cx="0" cy="0" r="1" gradientUnits="userSpaceOnUse" gradientTransform="translate(21.4561 51.8586) rotate(-32.5077) scale(1.35017 0.373815)">
<stop stop-color="white"/>
<stop offset="0.04" stop-color="#EAEAEA"/>
<stop offset="0.15" stop-color="#B4B4B4"/>
<stop offset="0.26" stop-color="#848484"/>
<stop offset="0.37" stop-color="#5B5B5B"/>
<stop offset="0.49" stop-color="#3A3A3A"/>
<stop offset="0.61" stop-color="#212121"/>
<stop offset="0.73" stop-color="#0E0E0E"/>
<stop offset="0.86" stop-color="#040404"/>
<stop offset="1"/>
</radialGradient>
<radialGradient id="paint43_radial_844_2975" cx="0" cy="0" r="1" gradientUnits="userSpaceOnUse" gradientTransform="translate(17.7222 51.7802) rotate(-121.097) scale(0.345591 2.89893)">
<stop stop-color="#B7BAEE"/>
<stop offset="0.08" stop-color="#8DA1E4"/>
<stop offset="0.11" stop-color="#7288C4"/>
<stop offset="0.17" stop-color="#4A6496"/>
<stop offset="0.18" stop-color="#496494"/>
<stop offset="0.3" stop-color="#435F77"/>
<stop offset="0.46" stop-color="#2B3D4D"/>
<stop offset="0.61" stop-color="#18232B"/>
<stop offset="0.75" stop-color="#0B1013"/>
<stop offset="0.89" stop-color="#030405"/>
<stop offset="1"/>
</radialGradient>
<radialGradient id="paint44_radial_844_2975" cx="0" cy="0" r="1" gradientUnits="userSpaceOnUse" gradientTransform="translate(23.7413 53.6054) rotate(-123.043) scale(1.0228 5.57499)">
<stop stop-color="#B7BAEE"/>
<stop offset="0.08" stop-color="#8DA1E4"/>
<stop offset="0.11" stop-color="#7288C4"/>
<stop offset="0.17" stop-color="#4A6496"/>
<stop offset="0.18" stop-color="#496494"/>
<stop offset="0.3" stop-color="#435F77"/>
<stop offset="0.46" stop-color="#2B3D4D"/>
<stop offset="0.61" stop-color="#18232B"/>
<stop offset="0.75" stop-color="#0B1013"/>
<stop offset="0.89" stop-color="#030405"/>
<stop offset="1"/>
</radialGradient>
<radialGradient id="paint45_radial_844_2975" cx="0" cy="0" r="1" gradientUnits="userSpaceOnUse" gradientTransform="translate(26.9832 17.9067) rotate(-135.151) scale(0.0514873 4.32487)">
<stop stop-color="#B7BAEE"/>
<stop offset="0.08" stop-color="#8DA1E4"/>
<stop offset="0.11" stop-color="#7288C4"/>
<stop offset="0.17" stop-color="#4A6496"/>
<stop offset="0.18" stop-color="#496494"/>
<stop offset="0.3" stop-color="#435F77"/>
<stop offset="0.46" stop-color="#2B3D4D"/>
<stop offset="0.61" stop-color="#18232B"/>
<stop offset="0.75" stop-color="#0B1013"/>
<stop offset="0.89" stop-color="#030405"/>
<stop offset="1"/>
</radialGradient>
<linearGradient id="paint46_linear_844_2975" x1="0.492188" y1="23.5722" x2="37.7696" y2="23.5722" gradientUnits="userSpaceOnUse">
<stop stop-color="white"/>
<stop offset="0.25" stop-color="#A9AAAB"/>
<stop offset="0.44" stop-color="#FCFEFF"/>
<stop offset="0.68" stop-color="#6F6F70"/>
<stop offset="1" stop-color="#595959"/>
</linearGradient>
<clipPath id="clip0_844_2975">
<rect width="39.0526" height="70" fill="white"/>
</clipPath>
</defs>
</svg>
