<svg width="50" height="50" viewBox="0 0 50 50" fill="none" xmlns="http://www.w3.org/2000/svg">
<g clip-path="url(#clip0_844_5821)">
<path d="M26.3507 13.771C26.3507 6.50605 20.4402 0.595703 13.1753 0.595703C5.91035 0.595703 0 6.50605 0 13.771C0 21.0359 5.91035 26.9464 13.1753 26.9464C20.4402 26.9464 26.3507 21.0358 26.3507 13.771ZM1.5625 13.771C1.5625 7.36768 6.77197 2.1582 13.1753 2.1582C19.5786 2.1582 24.7882 7.36768 24.7882 13.771C24.7882 20.1743 19.5787 25.3839 13.1753 25.3839C6.77207 25.3838 1.5625 20.1743 1.5625 13.771ZM17.0975 15.3419C15.3744 15.3425 13.9731 16.7447 13.9737 18.4678C13.974 19.3024 14.2993 20.0871 14.8897 20.677C15.4799 21.2668 16.2642 21.5915 17.0984 21.5915H17.0996C17.9343 21.5912 18.7189 21.2659 19.3089 20.6756C19.8989 20.0853 20.2236 19.3003 20.2233 18.4657C20.223 17.631 19.8978 16.8464 19.3073 16.2563C18.7172 15.6666 17.9328 15.3419 17.0984 15.3419C17.0981 15.3419 17.0978 15.3419 17.0975 15.3419ZM18.6608 18.4661C18.6609 18.8834 18.4986 19.2759 18.2037 19.571C17.9088 19.8661 17.5164 20.0288 17.099 20.0289C17.0988 20.0289 17.0986 20.0289 17.0984 20.0289C16.6813 20.0289 16.2892 19.8665 15.9941 19.5718C15.699 19.2768 15.5363 18.8845 15.5362 18.4672C15.5359 17.6057 16.2365 16.9046 17.0979 16.9043H17.0985C17.5156 16.9043 17.9079 17.0667 18.2029 17.3615C18.498 17.6564 18.6606 18.0487 18.6608 18.4661ZM9.25322 12.2002C10.9763 12.1996 12.3775 10.7973 12.377 9.07432C12.3767 8.23965 12.0514 7.45498 11.4609 6.86504C10.8708 6.27529 10.0864 5.95059 9.25215 5.95059C9.25176 5.95059 9.25137 5.95059 9.25098 5.95059C8.41621 5.95088 7.63164 6.27617 7.0416 6.8666C6.45166 7.45693 6.12686 8.2418 6.12715 9.07656C6.12773 10.7993 7.5293 12.2003 9.25185 12.2002H9.25322ZM7.68984 9.07598C7.68975 8.65859 7.85205 8.26621 8.14707 7.971C8.44199 7.67578 8.83428 7.51318 9.25166 7.51309H9.25225C9.66934 7.51309 10.0615 7.67549 10.3566 7.97021C10.6518 8.26523 10.8145 8.65752 10.8146 9.07481C10.8148 9.93623 10.1143 10.6373 9.25273 10.6377C9.25254 10.6377 9.25234 10.6377 9.25215 10.6377C8.39092 10.6377 7.69023 9.93721 7.68984 9.07598ZM18.2729 8.06758L9.48965 20.3001C9.33701 20.5126 9.09746 20.6257 8.85439 20.6257C8.69658 20.6257 8.5373 20.578 8.39941 20.479C8.04893 20.2273 7.96885 19.7392 8.22041 19.3887L17.0036 7.15615C17.2554 6.80576 17.7435 6.72568 18.0939 6.97715C18.4444 7.22891 18.5245 7.71709 18.2729 8.06758ZM29.4196 12.7946L35.7033 17.4048C35.9407 17.579 36.256 17.6049 36.5186 17.4718C36.7812 17.3388 36.9468 17.0693 36.9468 16.7749V15.1819C40.2921 15.2831 43.4069 16.1398 44.5076 20.426C44.5871 20.7357 44.8475 20.9657 45.1646 21.0065C45.198 21.0108 45.2314 21.0129 45.2645 21.0129C45.5455 21.0129 45.8082 20.8612 45.9472 20.6111C47.291 18.1929 47.2699 15.3497 45.8908 13.0057C44.2767 10.262 41.0426 8.61924 36.9467 8.43467V6.90547C36.9467 6.60205 36.771 6.32598 36.496 6.19756C36.221 6.06924 35.8966 6.11152 35.664 6.30635L29.3803 11.5655C29.1962 11.7196 29.0933 11.9497 29.1009 12.1896C29.1086 12.4296 29.2261 12.6525 29.4196 12.7946ZM35.3842 8.57813V9.19853C35.3842 9.62998 35.734 9.97978 36.1654 9.97978C40.0626 9.97978 43.1165 11.3714 44.5441 13.7979C45.3021 15.0863 45.5423 16.5669 45.263 17.9961C44.4591 16.4173 43.2549 15.2591 41.6658 14.5404C39.8492 13.7189 37.8659 13.6082 36.1654 13.6082C35.734 13.6082 35.3842 13.958 35.3842 14.3895V15.2326L31.1473 12.1242L35.3842 8.57813ZM22.5052 40.3952L16.2214 35.7852C15.984 35.6109 15.6688 35.5851 15.4062 35.7182C15.1436 35.8512 14.9779 36.1206 14.9779 36.415V38.008C11.6326 37.9068 8.51777 37.0501 7.41709 32.764C7.3376 32.4542 7.07725 32.2242 6.76006 32.1834C6.44287 32.143 6.13281 32.2993 5.97754 32.5788C4.63369 34.9971 4.65479 37.8402 6.03389 40.1843C7.64805 42.9279 10.8821 44.5707 14.978 44.7553V46.2845C14.978 46.5879 15.1537 46.864 15.4287 46.9924C15.5343 47.0416 15.6471 47.0657 15.7592 47.0657C15.9392 47.0657 16.1174 47.0036 16.2607 46.8836L22.5445 41.6243C22.7286 41.4702 22.8315 41.2401 22.8239 41.0002C22.8162 40.7603 22.6986 40.5372 22.5052 40.3952ZM16.5405 44.6117V43.9913C16.5405 43.5599 16.1907 43.2101 15.7593 43.2101C11.8621 43.2101 8.8082 41.8185 7.38057 39.3919C6.62256 38.1035 6.38242 36.6229 6.66172 35.1937C7.46563 36.7726 8.66982 37.9308 10.2589 38.6493C12.0755 39.4708 14.0588 39.5815 15.7593 39.5815C16.1907 39.5815 16.5405 39.2317 16.5405 38.8003V37.9571L20.7774 41.0656L16.5405 44.6117ZM49.8295 44.6908C49.0088 42.0406 47.3277 39.6607 45.0958 37.9895C43.8001 37.0192 42.3657 36.3059 40.8452 35.8665C42.8823 34.6175 44.2443 32.3704 44.2443 29.8108C44.2443 25.8967 41.06 22.7124 37.1458 22.7124C33.2316 22.7124 30.0473 25.8968 30.0473 29.8108C30.0473 32.3704 31.4093 34.6175 33.4464 35.8665C31.9259 36.3059 30.4914 37.0192 29.1957 37.9895C26.9638 39.6607 25.2826 42.0406 24.462 44.6908C24.1114 45.8226 24.3057 46.9712 25.0088 47.925C25.7119 48.8788 26.7517 49.404 27.9364 49.404H46.3552C47.5399 49.404 48.5797 48.8787 49.2827 47.925C49.9858 46.9711 50.18 45.8226 49.8295 44.6908ZM31.6099 29.8108C31.6099 26.7583 34.0934 24.2749 37.1459 24.2749C40.1984 24.2749 42.6819 26.7583 42.6819 29.8108C42.6819 32.8631 40.199 35.3463 37.1469 35.3469C37.1465 35.3469 37.1461 35.3469 37.1458 35.3469C37.1455 35.3469 37.1451 35.3469 37.1448 35.3469C34.0927 35.3462 31.6099 32.863 31.6099 29.8108ZM48.025 46.9978C47.6182 47.5497 47.0407 47.8414 46.3552 47.8414H27.9363C27.2508 47.8414 26.6733 47.5497 26.2664 46.9978C25.8595 46.4458 25.7517 45.8079 25.9545 45.1529C27.4812 40.2224 31.9782 36.9097 37.1446 36.9093H37.1457H37.1467C42.3131 36.9098 46.81 40.2225 48.3368 45.153C48.5397 45.8079 48.4319 46.4458 48.025 46.9978Z" fill="url(#paint0_linear_844_5821)"/>
</g>
<defs>
<linearGradient id="paint0_linear_844_5821" x1="24.9999" y1="49.404" x2="24.9999" y2="0.595703" gradientUnits="userSpaceOnUse">
<stop stop-color="#3C53D7"/>
<stop offset="1" stop-color="#00BAA9"/>
</linearGradient>
<clipPath id="clip0_844_5821">
<rect width="50" height="50" fill="white"/>
</clipPath>
</defs>
</svg>
