<svg width="50" height="50" viewBox="0 0 50 50" fill="none" xmlns="http://www.w3.org/2000/svg">
<g clip-path="url(#clip0_844_5834)">
<path d="M36.3266 21.6446V12.1822C36.3266 11.9114 36.2015 11.6611 36.0245 11.4631L25.4159 0.323104C25.2179 0.114822 24.9364 0 24.6552 0H7.83547C4.73031 0 2.25 2.53219 2.25 5.63773V37.4427C2.25 40.5483 4.73031 43.0389 7.83547 43.0389H21.1121C23.6233 47.2072 28.188 49.9999 33.3878 49.9999C41.2869 49.9999 47.7375 43.5806 47.7375 35.6712C47.7482 28.762 42.7876 22.9889 36.3266 21.6446ZM25.6974 3.65791L32.8148 11.1503H28.1983C26.8227 11.1503 25.6974 10.0147 25.6974 8.63913V3.65791ZM7.83547 40.9545C5.88693 40.9545 4.33435 39.3913 4.33435 37.4427V5.63773C4.33435 3.67851 5.88693 2.08435 7.83547 2.08435H23.613V8.63913C23.613 11.1713 25.6661 13.2347 28.1983 13.2347H34.2423V21.3733C33.9299 21.363 33.6796 21.3318 33.4088 21.3318C29.7719 21.3318 26.4268 22.7283 23.9049 24.9168H10.6702C10.0968 24.9168 9.628 25.3856 9.628 25.9586C9.628 26.5319 10.0968 27.0008 10.6702 27.0008H21.9666C21.2266 28.0429 20.6116 29.0851 20.1325 30.2314H10.6702C10.0968 30.2314 9.628 30.7003 9.628 31.2736C9.628 31.8466 10.0968 32.3158 10.6702 32.3158H19.455C19.1945 33.358 19.0591 34.5146 19.0591 35.6712C19.0591 37.5469 19.4237 39.402 20.0802 40.9652H7.83547V40.9545ZM33.3985 47.9263C26.6457 47.9263 21.1537 42.4342 21.1537 35.6815C21.1537 28.9287 26.635 23.4367 33.3985 23.4367C40.1616 23.4367 45.6429 28.9287 45.6429 35.6815C45.6429 42.4342 40.1513 47.9263 33.3985 47.9263Z" fill="url(#paint0_linear_844_5834)"/>
<path d="M10.6672 21.7797H21.2236C21.7969 21.7797 22.2657 21.3105 22.2657 20.7375C22.2657 20.1641 21.7969 19.6953 21.2236 19.6953H10.6672C10.0938 19.6953 9.625 20.1641 9.625 20.7375C9.625 21.3105 10.0938 21.7797 10.6672 21.7797Z" fill="url(#paint1_linear_844_5834)"/>
<path d="M41.9303 27.167C41.524 26.7607 40.8675 26.7607 40.4609 27.167L38.1995 29.4284C36.7408 28.699 35.115 28.1989 33.385 28.1989C27.0698 28.1989 22.1618 34.8265 21.9531 35.108C21.6823 35.4727 21.6823 35.9728 21.9531 36.3375C22.0783 36.5042 23.9021 38.9742 26.7158 40.9125L24.8294 42.7985C24.4231 43.2051 24.4231 43.8616 24.8294 44.2679C25.0377 44.4765 25.2982 44.57 25.5695 44.57C25.8403 44.57 26.1008 44.4659 26.3091 44.2679L28.5709 42.0065C30.0296 42.7359 31.6554 43.2364 33.385 43.2364C39.7002 43.2364 44.6086 36.6084 44.8169 36.3272C45.0881 35.9625 45.0881 35.4621 44.8169 35.0974C44.6921 34.9307 42.8683 32.461 40.0546 30.5228L41.941 28.6364C42.3369 28.2302 42.3369 27.5736 41.9303 27.167ZM24.121 35.7123C25.4234 34.17 29.1335 30.2725 33.3747 30.2725C34.5107 30.2725 35.5945 30.5541 36.6157 30.9916L36.0843 31.523C35.3026 31.0126 34.3646 30.7208 33.3644 30.7208C30.6132 30.7208 28.3622 32.9611 28.3622 35.723C28.3622 36.7232 28.6643 37.6612 29.1644 38.4425L28.1955 39.4118C26.3198 38.1613 24.8504 36.5668 24.121 35.7123ZM36.2926 35.7123C36.2926 37.3171 34.9898 38.6302 33.3747 38.6302C32.9475 38.6302 32.5515 38.5363 32.1868 38.3799L36.032 34.5347C36.1987 34.8891 36.2926 35.2953 36.2926 35.7123ZM30.4671 35.7123C30.4671 34.1075 31.7699 32.7944 33.385 32.7944C33.8122 32.7944 34.2082 32.8883 34.5729 33.0447L30.7277 36.8899C30.5507 36.5355 30.4671 36.1395 30.4671 35.7123ZM42.6288 35.7123C41.326 37.2546 37.6159 41.152 33.3747 41.152C32.2387 41.152 31.1549 40.8705 30.1337 40.433L30.6655 39.9016C31.4468 40.412 32.3848 40.7038 33.385 40.7038C36.1362 40.7038 38.3872 38.4635 38.3872 35.702C38.3872 34.7014 38.0851 33.7634 37.585 32.9821L38.5539 32.0128C40.4296 33.2739 41.899 34.8578 42.6288 35.7123Z" fill="url(#paint2_linear_844_5834)"/>
</g>
<defs>
<linearGradient id="paint0_linear_844_5834" x1="24.9938" y1="49.9999" x2="24.9938" y2="0" gradientUnits="userSpaceOnUse">
<stop stop-color="#3C53D7"/>
<stop offset="1" stop-color="#00BAA9"/>
</linearGradient>
<linearGradient id="paint1_linear_844_5834" x1="15.9454" y1="21.7797" x2="15.9454" y2="19.6953" gradientUnits="userSpaceOnUse">
<stop stop-color="#3C53D7"/>
<stop offset="1" stop-color="#00BAA9"/>
</linearGradient>
<linearGradient id="paint2_linear_844_5834" x1="33.3851" y1="44.57" x2="33.3851" y2="26.8623" gradientUnits="userSpaceOnUse">
<stop stop-color="#3C53D7"/>
<stop offset="1" stop-color="#00BAA9"/>
</linearGradient>
<clipPath id="clip0_844_5834">
<rect width="50" height="50" fill="white"/>
</clipPath>
</defs>
</svg>
