<svg width="80" height="77" viewBox="0 0 80 77" fill="none" xmlns="http://www.w3.org/2000/svg">
<g clip-path="url(#clip0_844_2308)">
<path opacity="0.1" d="M-25.8138 66.3264C-11.5179 52.0305 -11.5179 28.8523 -25.8138 14.5564C-40.1097 0.260553 -63.2879 0.26053 -77.5838 14.5564C-91.8796 28.8523 -91.8796 52.0305 -77.5838 66.3264C-63.2879 80.6223 -40.1097 80.6223 -25.8138 66.3264Z" fill="#576A60"/>
<path d="M-25.8138 62.884C-11.5179 48.5881 -11.5179 25.4099 -25.8138 11.1141C-40.1097 -3.18183 -63.2879 -3.18185 -77.5838 11.114C-91.8796 25.4099 -91.8796 48.5881 -77.5838 62.884C-63.2879 77.1799 -40.1097 77.1799 -25.8138 62.884Z" fill="url(#paint0_linear_844_2308)"/>
<path opacity="0.1" d="M40.0434 75.6074C59.9238 75.6074 76.04 59.4912 76.04 39.6108C76.04 19.7305 59.9238 3.61426 40.0434 3.61426C20.1631 3.61426 4.04688 19.7305 4.04688 39.6108C4.04688 59.4912 20.1631 75.6074 40.0434 75.6074Z" fill="#A78865"/>
<path d="M65.1883 63.2171C79.2459 49.1595 79.2459 26.3678 65.1883 12.3103C51.1308 -1.74727 28.3391 -1.74726 14.2815 12.3103C0.224005 26.3678 0.223999 49.1595 14.2815 63.2171C28.3391 77.2746 51.1308 77.2746 65.1883 63.2171Z" fill="url(#paint1_linear_844_2308)"/>
<path d="M40.0434 72.2206C59.9238 72.2206 76.04 56.1044 76.04 36.2241C76.04 16.3437 59.9238 0.227539 40.0434 0.227539C20.1631 0.227539 4.04688 16.3437 4.04688 36.2241C4.04688 56.1044 20.1631 72.2206 40.0434 72.2206Z" fill="url(#paint2_linear_844_2308)"/>
<path d="M39.7368 3.15884C48.8312 3.1585 57.5745 6.67059 64.1416 12.9621C70.7087 19.2535 74.5922 27.8382 74.9816 36.9244C75.0023 36.4244 75.0126 35.9209 75.0126 35.4175C75.0126 30.785 74.1002 26.1978 72.3274 21.918C70.5547 17.6381 67.9562 13.7493 64.6806 10.4737C61.4049 7.198 57.5161 4.5996 53.2363 2.82682C48.9564 1.05404 44.3693 0.141602 39.7368 0.141602C35.1043 0.141602 30.5172 1.05404 26.2373 2.82682C21.9574 4.5996 18.0686 7.198 14.793 10.4737C11.5173 13.7493 8.91893 17.6381 7.14615 21.918C5.37337 26.1978 4.46094 30.785 4.46094 35.4175C4.46094 35.9209 4.46093 36.4244 4.49541 36.9244C4.88393 27.8385 8.76668 19.2539 15.3332 12.9623C21.8998 6.67074 30.6426 3.15854 39.7368 3.15884Z" fill="url(#paint3_radial_844_2308)"/>
<path opacity="0.47" d="M7.40374 38.2896C7.40465 31.0759 9.6575 24.0425 13.8479 18.1708C18.0383 12.299 23.9572 7.88192 30.7787 5.53583C37.6002 3.18973 44.9839 3.03169 51.8995 5.08375C58.8152 7.13582 64.9177 11.2956 69.3555 16.9827C66.8638 12.9986 63.5876 9.56312 59.7261 6.88526C55.8647 4.2074 51.4989 2.34316 46.8942 1.40594C42.2895 0.468733 37.5423 0.478153 32.9414 1.43363C28.3405 2.38911 23.9821 4.27067 20.1313 6.96383C16.2806 9.65699 13.018 13.1054 10.5421 17.0994C8.06625 21.0933 6.42885 25.5492 5.72952 30.1959C5.03019 34.8427 5.28357 39.5831 6.47423 44.1289C7.6649 48.6746 9.76799 52.9306 12.6555 56.6378C9.21355 51.1376 7.39321 44.7779 7.40374 38.2896Z" fill="url(#paint4_linear_844_2308)"/>
<path d="M40.0438 6.06543C34.0487 6.06407 28.1878 7.84057 23.2024 11.1703C18.217 14.5 14.331 19.2334 12.0358 24.7717C9.7406 30.3101 9.13939 36.4047 10.3081 42.2848C11.4769 48.1649 14.3631 53.5663 18.6018 57.806C22.8405 62.0457 28.2413 64.9331 34.1211 66.1032C40.0009 67.2733 46.0957 66.6735 51.6346 64.3795C57.1735 62.0856 61.9077 58.2007 65.2386 53.216C68.5694 48.2314 70.3472 42.3709 70.3472 36.3758C70.3472 28.3382 67.1548 20.6297 61.472 14.9456C55.7892 9.26147 48.0814 6.06726 40.0438 6.06543ZM40.0438 65.3516C34.315 65.3516 28.7148 63.6528 23.9514 60.4701C19.1881 57.2873 15.4755 52.7635 13.2832 47.4707C11.0908 42.178 10.5172 36.354 11.6348 30.7352C12.7525 25.1165 15.5112 19.9553 19.5621 15.9044C23.613 11.8535 28.7742 9.09481 34.3929 7.97717C40.0117 6.85953 45.8357 7.43313 51.1284 9.62546C56.4212 11.8178 60.945 15.5304 64.1278 20.2937C67.3105 25.0571 69.0093 30.6573 69.0093 36.3861C69.0093 44.0682 65.9576 51.4357 60.5255 56.8678C55.0934 62.2999 47.7259 65.3516 40.0438 65.3516Z" fill="url(#paint5_linear_844_2308)"/>
<path d="M68.6627 40.9005C71.1606 25.0938 60.3716 10.2549 44.5648 7.757C28.758 5.2591 13.9192 16.0481 11.4213 31.8549C8.92338 47.6617 19.7124 62.5005 35.5191 64.9984C51.3259 67.4963 66.1648 56.7073 68.6627 40.9005Z" fill="#D8AD22"/>
<path d="M40.2002 64.2763C55.6927 64.2763 68.2519 51.7171 68.2519 36.2246C68.2519 20.732 55.6927 8.17285 40.2002 8.17285C24.7076 8.17285 12.1484 20.732 12.1484 36.2246C12.1484 51.7171 24.7076 64.2763 40.2002 64.2763Z" fill="url(#paint6_radial_844_2308)"/>
<path d="M14.3826 37.8038C14.3828 32.0582 16.25 26.4682 19.7031 21.876C23.1562 17.2838 28.0081 13.9381 33.5278 12.343C39.0475 10.7478 44.9361 10.9895 50.3065 13.0317C55.6769 15.074 60.2382 18.8061 63.3033 23.6659C61.7363 20.4182 59.5231 17.5244 56.799 15.1617C54.075 12.7989 50.8974 11.0169 47.4608 9.92471C44.0243 8.83248 40.401 8.45302 36.8127 8.80955C33.2244 9.16608 29.7466 10.2511 26.5922 11.9982C23.4377 13.7453 20.6729 16.1177 18.4671 18.9703C16.2612 21.8229 14.6606 25.0956 13.7633 28.5881C12.866 32.0806 12.6909 35.7195 13.2486 39.2821C13.8063 42.8447 15.0851 46.256 17.0068 49.3072C15.2748 45.7201 14.3776 41.7872 14.3826 37.8038Z" fill="url(#paint7_linear_844_2308)"/>
<path d="M40.1943 62.5861C32.648 62.5859 25.3933 59.671 19.9448 54.4498C14.4962 49.2287 11.2747 42.1049 10.9529 34.5654C10.9529 34.9827 10.9219 35.3999 10.9219 35.8172C10.9219 43.5807 14.0059 51.0262 19.4955 56.5159C24.9852 62.0055 32.4308 65.0896 40.1943 65.0896C47.9578 65.0896 55.4034 62.0055 60.893 56.5159C66.3826 51.0262 69.4667 43.5807 69.4667 35.8172C69.4667 35.3999 69.4667 34.9827 69.4391 34.5654C69.1164 42.1052 65.8942 49.229 60.4451 54.4501C54.996 59.6711 47.741 62.5859 40.1943 62.5861Z" fill="url(#paint8_radial_844_2308)"/>
<path opacity="0.47" d="M67.0241 33.4306C67.024 39.4167 65.155 45.2535 61.6781 50.1263C58.2012 54.9991 53.2897 58.6648 47.6291 60.6119C41.9685 62.559 35.8413 62.6903 30.1025 60.9875C24.3637 59.2847 19.2997 55.8328 15.6172 51.1134C17.6838 54.4212 20.4019 57.2739 23.6061 59.4977C26.8104 61.7215 30.4336 63.27 34.2554 64.0488C38.0771 64.8276 42.0175 64.8206 45.8364 64.028C49.6553 63.2355 53.273 61.674 56.4692 59.4387C59.6655 57.2034 62.3734 54.341 64.4281 51.0258C66.4828 47.7106 67.8413 44.0119 68.421 40.1549C69.0006 36.2979 68.7893 32.3633 67.7998 28.5906C66.8104 24.8179 65.0634 21.286 62.6654 18.21C65.5218 22.7722 67.0326 28.048 67.0241 33.4306Z" fill="url(#paint9_linear_844_2308)"/>
<path opacity="0.94" d="M53.8563 35.4549C53.1756 35.1522 52.4792 34.8863 51.77 34.6584L51.5528 34.5584C51.7287 34.4584 51.8562 34.3894 51.9804 34.3135C52.8575 33.8264 53.5949 33.1222 54.122 32.2685C54.649 31.4148 54.9481 30.4401 54.9907 29.4377C55.1095 28.1894 54.9445 26.9304 54.508 25.7549C53.8632 24.0997 52.6356 23.0342 51.0597 22.3066C49.3944 21.5896 47.6224 21.1515 45.8149 21.0101C45.1562 20.9377 45.1562 20.9446 45.1562 20.2997V14.6515C45.1562 14.5135 45.1562 14.5618 45.1562 14.1963H41.0735V20.748H40.2804C39.5907 20.748 38.9011 20.748 38.1873 20.7859C37.939 20.7859 37.8701 20.6756 37.8701 20.4411C37.8701 18.3722 37.8701 16.3997 37.8701 14.1997H33.7321V20.8066H25.6562V25.2273C26.0218 25.2273 26.4942 25.2273 26.8976 25.2273C27.5631 25.2273 28.1631 25.2273 28.8252 25.2722C30.0907 25.3411 30.7942 26.1722 30.7942 27.4342V44.8894C30.7942 46.0411 30.3287 46.6135 29.1873 46.6135H26.739C26.5838 46.6135 26.47 46.5963 26.4321 46.8204C26.1907 48.3204 25.9425 49.748 25.6942 51.2446C25.6932 51.255 25.6961 51.2655 25.7026 51.2738C25.709 51.2821 25.7183 51.2877 25.7287 51.2894H33.7321V58.2377H37.8701C37.8701 56.0342 37.8701 53.9963 37.8701 51.8928C37.8701 51.7515 37.7976 51.548 38.039 51.548C39.0425 51.548 39.9597 51.5273 41.0597 51.5273V58.2377H45.1769C45.1769 56.7687 45.1769 55.0446 45.1769 53.4687C45.1769 52.9308 45.1769 52.3756 45.1769 51.8377C45.1769 51.5446 45.2528 51.4342 45.5597 51.3997C46.9873 51.248 48.4252 51.1342 49.8287 50.8584C51.5997 50.5673 53.2639 49.8184 54.6562 48.6859C55.8423 47.6465 56.6692 46.2584 57.0183 44.7204C57.5041 42.9535 57.5361 41.0926 57.1114 39.3101C56.639 37.5101 55.4769 36.2722 53.8563 35.4549ZM38.2804 25.5135C39.7528 25.5618 41.2287 25.5135 42.6907 25.648C43.9873 25.6896 45.2376 26.1397 46.2632 26.9342C47.5287 27.9928 47.8562 30.1687 46.8907 31.4894C46.2536 32.3224 45.3445 32.9057 44.3218 33.1377C42.3183 33.6721 40.2804 33.6756 38.2321 33.6411C37.97 33.6411 37.9631 33.4997 37.9631 33.2963C37.9631 32.048 37.9631 30.7963 37.9631 29.548C37.9631 28.2997 37.9631 27.0928 37.9631 25.8653C37.9597 25.6411 37.9976 25.5066 38.2804 25.5135ZM48.7701 44.0756C48.2149 44.9928 47.3114 45.4549 46.3563 45.7997C44.8567 46.3139 43.2829 46.5783 41.6976 46.5825C40.508 46.617 39.2493 46.5825 38.1493 46.5825V46.1687C38.1493 43.4825 38.07 40.7963 38.0528 38.1101C38.0528 37.7653 38.108 37.6549 38.4597 37.6618C40.0563 37.7032 41.6356 37.6825 43.2321 37.7549C44.7305 37.7933 46.1965 38.1995 47.5011 38.9377C47.9274 39.1863 48.2995 39.5181 48.5953 39.9132C48.891 40.3084 49.1044 40.7589 49.2228 41.2381C49.3411 41.7173 49.362 42.2154 49.2843 42.7028C49.2065 43.1902 49.0316 43.657 48.7701 44.0756Z" fill="url(#paint10_linear_844_2308)"/>
<path d="M52.53 34.5794C51.8484 34.2761 51.1508 34.0102 50.4403 33.7828C50.3886 33.7621 50.3403 33.7346 50.2265 33.6828L50.6541 33.438C51.5312 32.9508 52.2686 32.2467 52.7956 31.393C53.3227 30.5393 53.6219 29.5646 53.6644 28.5622C53.7817 27.3136 53.6155 26.0547 53.1782 24.8794C52.5369 23.2242 51.3093 22.1587 49.73 21.4311C48.0655 20.7153 46.2949 20.2773 44.4886 20.1346C43.83 20.0656 43.83 20.069 43.83 19.4242C43.83 17.5553 43.83 15.6484 43.83 13.7794C43.83 13.6415 43.83 13.6897 43.8472 13.3242H39.7403V19.8759H38.9679C38.2782 19.8759 37.5886 19.8759 36.8748 19.9139C36.6265 19.9139 36.5576 19.8035 36.5576 19.569C36.5576 17.5001 36.5576 15.5277 36.5576 13.3277H32.4196V19.9277H24.3438V24.3484C24.7093 24.3484 25.1782 24.3484 25.5851 24.3484C26.2506 24.3484 26.8472 24.3484 27.5127 24.3932C28.7783 24.4622 29.4817 25.2932 29.4817 26.5553V44.0104C29.4817 45.1621 29.0162 45.7173 27.8748 45.7346H25.4265C25.2713 45.7346 25.1575 45.7173 25.1196 45.9415C24.8782 47.4415 24.6299 48.8691 24.3782 50.3656C24.3781 50.3764 24.3819 50.3869 24.3888 50.3951C24.3958 50.4033 24.4055 50.4088 24.4162 50.4104H32.4162V57.3863H36.5541C36.5541 55.1828 36.5541 53.1449 36.5541 51.0415C36.5541 50.9001 36.4817 50.6966 36.7231 50.6966C37.7265 50.6966 38.6438 50.6759 39.7438 50.6759V57.3966H43.8507C43.8507 55.9277 43.8507 54.207 43.8334 52.6277C43.8334 52.0897 43.8334 51.5346 43.8334 50.9966C43.8334 50.7035 43.9093 50.5932 44.2162 50.5621C45.6403 50.407 47.0782 50.2932 48.4851 50.0173C50.256 49.7257 51.92 48.9769 53.3127 47.8449C54.4988 46.806 55.3247 45.4176 55.6713 43.8794C56.1582 42.1128 56.1914 40.2519 55.7679 38.4691C55.3127 36.6346 54.1403 35.3966 52.53 34.5794ZM36.9541 24.638C38.4265 24.6863 39.8989 24.6553 41.3644 24.7725C42.6601 24.8136 43.9094 25.2639 44.9334 26.0587C46.2024 27.1173 46.53 29.2932 45.5645 30.6139C44.9273 31.4469 44.0183 32.0302 42.9955 32.2622C40.9921 32.7966 38.9541 32.8001 36.9058 32.7656C36.6438 32.7656 36.6369 32.6242 36.6369 32.4208C36.6369 31.1725 36.6369 29.9208 36.6369 28.6725C36.6369 27.4242 36.6369 26.2173 36.6369 24.9897C36.6334 24.7656 36.6714 24.6311 36.9541 24.638ZM47.4403 43.2001C46.8886 44.1173 45.9817 44.5794 45.0265 44.9242C43.5212 45.4453 41.9402 45.7144 40.3472 45.7208C39.1576 45.7587 37.8989 45.7208 36.7989 45.7208V45.307C36.7989 42.6208 36.7162 39.9346 36.7024 37.2484C36.7024 36.9035 36.7541 36.7932 37.1093 36.8001C38.7058 36.8415 40.2851 36.8208 41.8817 36.8932C43.3801 36.9316 44.8461 37.3378 46.1506 38.0759C46.5776 38.3222 46.9507 38.6517 47.2478 39.0449C47.5449 39.4382 47.76 39.8871 47.8803 40.365C48.0005 40.8429 48.0236 41.3402 47.948 41.8272C47.8724 42.3142 47.6998 42.7811 47.4403 43.2001Z" fill="url(#paint11_linear_844_2308)"/>
<path opacity="0.13" d="M61.5049 54.9037C63.6908 52.5412 65.4534 49.8198 66.7152 46.8589L22.7635 14.4727C20.2178 16.6461 18.0464 19.2229 16.3359 22.1003L61.5049 54.9037Z" fill="url(#paint12_linear_844_2308)"/>
<path opacity="0.13" d="M64.8316 50.5274C66.5733 47.6914 67.7926 44.5661 68.4316 41.2998L27.8764 11.2998C24.9419 12.8895 22.0143 14.8757 19.8281 17.3653L64.8316 50.5274Z" fill="url(#paint13_linear_844_2308)"/>
</g>
<defs>
<linearGradient id="paint0_linear_844_2308" x1="-51.6982" y1="5.16724" x2="-51.6982" y2="71.2569" gradientUnits="userSpaceOnUse">
<stop stop-color="#AD8169"/>
<stop offset="0.04" stop-color="#BE9179"/>
<stop offset="0.08" stop-color="#C99D84"/>
<stop offset="0.14" stop-color="#D0A38A"/>
<stop offset="0.31" stop-color="#D2A58C"/>
<stop offset="0.32" stop-color="#D3A68D"/>
<stop offset="0.46" stop-color="#D5A88F"/>
<stop offset="0.49" stop-color="#C59980"/>
<stop offset="0.53" stop-color="#BA8D75"/>
<stop offset="0.59" stop-color="#B3876F"/>
<stop offset="0.75" stop-color="#B1856D"/>
<stop offset="0.94" stop-color="#C28C73"/>
</linearGradient>
<linearGradient id="paint1_linear_844_2308" x1="3.73821" y1="37.7652" x2="75.7313" y2="37.7652" gradientUnits="userSpaceOnUse">
<stop stop-color="#E0B050"/>
<stop offset="1" stop-color="#FFDD78"/>
</linearGradient>
<linearGradient id="paint2_linear_844_2308" x1="40.0434" y1="4.92409" x2="40.0434" y2="69.9103" gradientUnits="userSpaceOnUse">
<stop stop-color="#E0B050"/>
<stop offset="0.01" stop-color="#E6BA59"/>
<stop offset="0.05" stop-color="#F1CB68"/>
<stop offset="0.09" stop-color="#F9D672"/>
<stop offset="0.15" stop-color="#FEDD78"/>
<stop offset="0.31" stop-color="#FFDF7B"/>
<stop offset="0.33" stop-color="#FFE286"/>
<stop offset="0.37" stop-color="#FFE48D"/>
<stop offset="0.46" stop-color="#FFE48F"/>
<stop offset="0.47" stop-color="#FBDE86"/>
<stop offset="0.5" stop-color="#F1CF70"/>
<stop offset="0.52" stop-color="#E9C45F"/>
<stop offset="0.56" stop-color="#E3BC54"/>
<stop offset="0.61" stop-color="#E0B74D"/>
<stop offset="0.75" stop-color="#DFB64B"/>
<stop offset="0.94" stop-color="#FFDF61"/>
</linearGradient>
<radialGradient id="paint3_radial_844_2308" cx="0" cy="0" r="1" gradientUnits="userSpaceOnUse" gradientTransform="translate(40.0196 -4.47219) scale(42.6276 42.6276)">
<stop stop-color="#FFFAFF"/>
<stop offset="0.1" stop-color="#FFFAFF"/>
<stop offset="1" stop-color="#FFFAFF"/>
</radialGradient>
<linearGradient id="paint4_linear_844_2308" x1="5.32788" y1="28.662" x2="69.3555" y2="28.662" gradientUnits="userSpaceOnUse">
<stop stop-color="#FFFAFF"/>
<stop offset="0.9" stop-color="#FFFAFF"/>
<stop offset="1" stop-color="#FFFAFF"/>
</linearGradient>
<linearGradient id="paint5_linear_844_2308" x1="9.73347" y1="36.3758" x2="70.3576" y2="36.3758" gradientUnits="userSpaceOnUse">
<stop stop-color="#E0B050"/>
<stop offset="1" stop-color="#FFDD78"/>
</linearGradient>
<radialGradient id="paint6_radial_844_2308" cx="0" cy="0" r="1" gradientUnits="userSpaceOnUse" gradientTransform="translate(35.8691 27.3763) scale(61.4655 61.4655)">
<stop stop-color="#E0B050"/>
<stop offset="0.01" stop-color="#E6BA59"/>
<stop offset="0.05" stop-color="#F1CB68"/>
<stop offset="0.09" stop-color="#F9D672"/>
<stop offset="0.15" stop-color="#FEDD78"/>
<stop offset="0.31" stop-color="#FFDF7A"/>
<stop offset="0.5" stop-color="#F0CC64"/>
<stop offset="0.75" stop-color="#DFB64B"/>
<stop offset="0.94" stop-color="#FFDF61"/>
</radialGradient>
<linearGradient id="paint7_linear_844_2308" x1="30.5999" y1="21.521" x2="20.8481" y2="6.43138" gradientUnits="userSpaceOnUse">
<stop stop-color="#FFFAFF"/>
<stop offset="0.9" stop-color="#FFFAFF"/>
<stop offset="1" stop-color="#FFFAFF"/>
</linearGradient>
<radialGradient id="paint8_radial_844_2308" cx="0" cy="0" r="1" gradientUnits="userSpaceOnUse" gradientTransform="translate(39.9598 68.9171) rotate(180) scale(35.3724 35.3724)">
<stop stop-color="#FFFAFF"/>
<stop offset="0.1" stop-color="#FFFAFF"/>
<stop offset="1" stop-color="#FFFAFF"/>
</radialGradient>
<linearGradient id="paint9_linear_844_2308" x1="68.7448" y1="41.4238" x2="15.6172" y2="41.4238" gradientUnits="userSpaceOnUse">
<stop stop-color="#FFFAFF"/>
<stop offset="0.9" stop-color="#FFFAFF"/>
<stop offset="1" stop-color="#FFFAFF"/>
</linearGradient>
<linearGradient id="paint10_linear_844_2308" x1="14.8597" y1="3.70319" x2="72.1252" y2="82.2652" gradientUnits="userSpaceOnUse">
<stop stop-color="#DAA91D"/>
<stop offset="0.64" stop-color="#C5942C"/>
<stop offset="0.87" stop-color="#EBBB10"/>
</linearGradient>
<linearGradient id="paint11_linear_844_2308" x1="24.33" y1="35.3449" x2="56.0679" y2="35.3449" gradientUnits="userSpaceOnUse">
<stop stop-color="#E09500"/>
<stop offset="1" stop-color="#FFCA2C"/>
</linearGradient>
<linearGradient id="paint12_linear_844_2308" x1="57.9842" y1="50.9382" x2="21.0359" y2="13.9899" gradientUnits="userSpaceOnUse">
<stop stop-color="#FFFAFF"/>
<stop offset="0.9" stop-color="#FFFAFF"/>
<stop offset="1" stop-color="#FFFAFF"/>
</linearGradient>
<linearGradient id="paint13_linear_844_2308" x1="61.5074" y1="46.7205" x2="24.5729" y2="9.78602" gradientUnits="userSpaceOnUse">
<stop stop-color="#FFFAFF"/>
<stop offset="0.9" stop-color="#FFFAFF"/>
<stop offset="1" stop-color="#FFFAFF"/>
</linearGradient>
<clipPath id="clip0_844_2308">
<rect width="80" height="76.8966" fill="white"/>
</clipPath>
</defs>
</svg>
