<svg width="80" height="74" viewBox="0 0 80 74" fill="none" xmlns="http://www.w3.org/2000/svg">
<g clip-path="url(#clip0_844_3875)">
<path opacity="0.1" d="M40.1176 73.5771C59.4996 73.5771 75.2119 57.8649 75.2119 38.4829C75.2119 19.1009 59.4996 3.38867 40.1176 3.38867C20.7356 3.38867 5.02344 19.1009 5.02344 38.4829C5.02344 57.8649 20.7356 73.5771 40.1176 73.5771Z" fill="#657C90"/>
<path d="M64.6336 61.497C78.3387 47.7919 78.3387 25.5714 64.6336 11.8663C50.9284 -1.83884 28.708 -1.83884 15.0028 11.8663C1.29769 25.5714 1.29772 47.7919 15.0029 61.497C28.708 75.2021 50.9284 75.2022 64.6336 61.497Z" fill="url(#paint0_linear_844_3875)"/>
<path d="M64.9305 59.9931C78.6356 46.2879 78.6356 24.0675 64.9305 10.3624C51.2253 -3.34278 29.0049 -3.34277 15.2997 10.3624C1.5946 24.0675 1.59459 46.2879 15.2997 59.9931C29.0049 73.6982 51.2253 73.6982 64.9305 59.9931Z" fill="url(#paint1_linear_844_3875)"/>
<path d="M39.8152 2.93922C48.6829 2.93636 57.2088 6.36003 63.6118 12.495C70.0147 18.63 73.7996 27.0018 74.1756 35.8615C74.1987 35.3723 74.2086 34.8698 74.2086 34.3905C74.2086 25.2688 70.5851 16.5207 64.1351 10.0707C57.6851 3.62064 48.9369 -0.00292969 39.8152 -0.00292969C30.6935 -0.00292969 21.9455 3.62064 15.4954 10.0707C9.04543 16.5207 5.42188 25.2688 5.42188 34.3905C5.42188 34.883 5.42187 35.3822 5.45492 35.8615C5.83095 27.0018 9.61578 18.63 16.0187 12.495C22.4217 6.36003 30.9475 2.93636 39.8152 2.93922Z" fill="url(#paint2_radial_844_3875)"/>
<path opacity="0.47" d="M8.29096 37.1969C8.29068 30.1634 10.4864 23.3053 14.5717 17.5798C18.657 11.8544 24.428 7.54728 31.0791 5.25974C37.7302 2.9722 44.9296 2.81835 51.6724 4.81968C58.4151 6.82101 64.3648 10.8776 68.691 16.4234C66.2656 12.5309 63.0729 9.17325 59.3076 6.55497C55.5422 3.93669 51.2831 2.11267 46.7898 1.19412C42.2966 0.275578 37.6633 0.281752 33.1725 1.21225C28.6817 2.14275 24.4274 3.97809 20.669 6.60638C16.9107 9.23467 13.727 12.6009 11.312 16.4997C8.89698 20.3986 7.30134 24.7484 6.62229 29.284C5.94323 33.8197 6.195 38.4461 7.36226 42.8813C8.52952 47.3165 10.5878 51.4675 13.4117 55.0812C10.0568 49.72 8.28189 43.5213 8.29096 37.1969Z" fill="url(#paint3_linear_844_3875)"/>
<path d="M40.1162 5.77539C34.271 5.77539 28.5571 7.50869 23.6971 10.7561C18.837 14.0035 15.049 18.6192 12.8121 24.0194C10.5753 29.4196 9.99005 35.3619 11.1304 41.0948C12.2707 46.8276 15.0854 52.0936 19.2186 56.2268C23.3517 60.3599 28.6177 63.1746 34.3506 64.315C40.0834 65.4553 46.0257 64.87 51.4259 62.6332C56.8262 60.3963 61.4418 56.6084 64.6892 51.7483C67.9366 46.8882 69.6699 41.1743 69.6699 35.3291C69.6699 31.4481 68.9055 27.605 67.4203 24.0194C65.9351 20.4338 63.7582 17.1758 61.0138 14.4315C58.2695 11.6872 55.0116 9.51025 51.4259 8.02504C47.8403 6.53982 43.9973 5.77539 40.1162 5.77539ZM40.1162 63.5804C34.5284 63.5804 29.066 61.9233 24.42 58.8187C19.774 55.7141 16.1529 51.3015 14.0148 46.1389C11.8768 40.9762 11.3177 35.2955 12.4083 29.8151C13.4989 24.3348 16.1903 19.3009 20.1419 15.3501C24.0936 11.3994 29.1281 8.70924 34.6087 7.6199C40.0894 6.53057 45.77 7.09099 50.9321 9.23027C56.0942 11.3696 60.506 14.9916 63.6095 19.6384C66.713 24.2851 68.3688 29.7479 68.3675 35.3357C68.3657 42.8273 65.3885 50.0114 60.0905 55.3081C54.7926 60.6048 47.6078 63.5804 40.1162 63.5804Z" fill="url(#paint4_linear_844_3875)"/>
<path d="M60.094 55.3077C71.1268 44.2749 71.1268 26.3872 60.094 15.3544C49.0612 4.32161 31.1735 4.32163 20.1407 15.3544C9.1079 26.3872 9.10792 44.2749 20.1407 55.3077C31.1735 66.3405 49.0612 66.3405 60.094 55.3077Z" fill="#A7B0C1"/>
<path d="M59.6093 54.5172C70.2896 43.8368 70.2896 26.5205 59.6092 15.8402C48.9289 5.15984 31.6126 5.15984 20.9323 15.8402C10.2519 26.5205 10.2519 43.8368 20.9322 54.5172C31.6126 65.1976 48.9289 65.1975 59.6093 54.5172Z" fill="url(#paint5_radial_844_3875)"/>
<path d="M15.0984 36.7206C15.0983 31.1186 16.9188 25.6684 20.2858 21.1911C23.6527 16.7138 28.3835 13.452 33.7654 11.8973C39.1474 10.3425 44.8888 10.579 50.1246 12.5711C55.3604 14.5633 59.8069 18.2031 62.7942 22.9421C61.2677 19.7732 59.1104 16.9494 56.4544 14.6434C53.7984 12.3375 50.6996 10.5981 47.3478 9.53169C43.996 8.4653 40.4617 8.09441 36.9615 8.44172C33.4614 8.78903 30.069 9.84724 26.9921 11.5515C23.9152 13.2558 21.2187 15.5703 19.0676 18.3533C16.9165 21.1362 15.3562 24.329 14.4823 27.736C13.6083 31.1431 13.4391 34.6926 13.985 38.1674C14.5309 41.6421 15.7804 44.9688 17.657 47.9438C15.9678 44.4439 15.093 40.6069 15.0984 36.7206Z" fill="url(#paint6_linear_844_3875)"/>
<path d="M40.2654 60.8825C32.9077 60.8824 25.8343 58.0406 20.5216 52.9503C15.209 47.86 12.0675 40.9145 11.753 33.5635C11.753 33.9701 11.7266 34.3767 11.7266 34.7866C11.7266 42.3556 14.7333 49.6145 20.0854 54.9666C25.4375 60.3187 32.6965 63.3255 40.2654 63.3255C47.8344 63.3255 55.0933 60.3187 60.4454 54.9666C65.7975 49.6145 68.8043 42.3556 68.8043 34.7866C68.8043 34.3767 68.8043 33.9701 68.7778 33.5635C68.4633 40.9145 65.3219 47.86 60.0092 52.9503C54.6965 58.0406 47.6231 60.8824 40.2654 60.8825Z" fill="url(#paint7_radial_844_3875)"/>
<path opacity="0.47" d="M66.4237 32.4596C66.4239 38.2959 64.6018 43.9866 61.2118 48.7374C57.8218 53.4882 53.0331 57.0621 47.5141 58.9601C41.9951 60.8582 36.0211 60.9857 30.4261 59.3249C24.8312 57.6641 19.8943 54.2978 16.3047 49.696C18.3149 52.929 20.9629 55.7186 24.0869 57.8944C27.2109 60.0702 30.7455 61.5867 34.475 62.3512C38.2045 63.1157 42.0507 63.1124 45.7788 62.3412C49.5069 61.5701 53.0388 60.0474 56.159 57.8661C59.2792 55.6848 61.9222 52.8906 63.9267 49.654C65.9312 46.4174 67.2553 42.8063 67.818 39.0411C68.3807 35.2759 68.1704 31.4355 67.1997 27.7542C66.2291 24.073 64.5185 20.6281 62.1725 17.6299C64.9566 22.0747 66.4302 27.2148 66.4237 32.4596Z" fill="url(#paint8_linear_844_3875)"/>
<path d="M-24.1155 60.6047C-10.6388 47.1281 -10.6388 25.2781 -24.1155 11.8015C-37.5921 -1.67513 -59.4421 -1.67513 -72.9187 11.8015C-86.3953 25.2781 -86.3953 47.1281 -72.9187 60.6047C-59.4421 74.0814 -37.5921 74.0814 -24.1155 60.6047Z" fill="url(#paint9_linear_844_3875)"/>
<path d="M50.6115 33.8482C47.1339 27.3887 43.6518 20.9336 40.1653 14.4829C39.633 13.9838 39.6926 14.7243 39.6066 14.8829C37.3234 19.0548 35.0589 23.2422 32.8132 27.4449C31.6066 29.7127 30.281 31.9077 29.2231 34.2714C29.0744 34.6945 29.4281 34.721 29.6099 34.8433C32.9157 37.0471 36.2215 39.2345 39.5273 41.4053C39.7157 41.5276 39.9174 41.8714 40.1884 41.511C43.7355 39.2598 47.2562 36.9623 50.714 34.5424C51.0678 34.2383 50.7107 34.0367 50.6115 33.8482Z" fill="#737A84"/>
<path d="M40.1849 43.907C40.0206 43.9145 39.8564 43.8891 39.702 43.8323C39.5476 43.7755 39.4061 43.6885 39.2857 43.5764C37.4433 42.3555 35.6009 41.1356 33.7585 39.9169C32.3237 38.9714 30.8857 38.0359 29.4609 37.0938C29.961 38.1889 30.5515 39.2405 31.2262 40.2375C33.9899 44.5847 36.7436 48.9384 39.5238 53.2723C39.6527 53.4739 39.6659 54.1681 40.1849 53.7119L50.6047 37.3185L50.4031 37.1235L40.1849 43.907Z" fill="#737A84"/>
<path d="M39.2028 13.3682C42.6871 19.8211 46.1692 26.2762 49.6491 32.7335C49.7516 32.9219 50.1053 33.1235 49.7582 33.4244C47.9632 32.7864 46.3301 31.745 44.6111 30.912C42.8921 30.0789 41.2656 29.1963 39.5764 28.3731C39.2836 28.2842 39.0325 28.0929 38.869 27.8343C38.8207 27.7138 38.7852 27.5886 38.7631 27.4607C38.6574 23.1863 38.7202 18.912 38.7367 14.6376C38.7367 14.1946 38.6441 13.5996 39.2028 13.3682Z" fill="#3B565E"/>
<path d="M39.1978 13.3685C38.8871 13.6991 39.0293 14.1189 39.026 14.4958C39.0127 18.9035 39.0127 23.3112 39.026 27.7189C38.8309 28.2446 38.3879 28.4165 37.9813 28.6181C35.1163 30.0462 32.2678 31.4909 29.4359 32.952C29.0756 33.1371 28.7053 33.4611 28.2656 33.1471C29.3268 30.7801 30.6524 28.5884 31.859 26.3206C34.0959 22.1201 36.3593 17.9327 38.6491 13.7586C38.7251 13.6099 38.6788 12.8561 39.1978 13.3685Z" fill="#8DA9B1"/>
<path d="M28.2565 33.1537C30.8218 31.881 33.3871 30.6181 35.9491 29.3355C36.9772 28.8165 37.9921 28.2644 39.0169 27.7256V27.9735C39.2473 28.298 39.353 28.6947 39.3144 29.0909C39.3342 32.5719 39.3144 36.0529 39.3144 39.5339C39.3144 39.8281 39.2284 40.1057 39.2086 40.3933C38.9408 40.7537 38.7392 40.4099 38.5474 40.2876C35.2416 38.108 31.9359 35.9206 28.6301 33.7256C28.4648 33.6033 28.1011 33.5768 28.2565 33.1537Z" fill="#405B63"/>
<path d="M39.2287 40.3935C38.918 40.1191 39.0271 39.7323 39.0237 39.3819C39.0237 35.5802 39.0237 31.7775 39.0237 27.9736C40.5742 28.3042 41.8866 29.2959 43.3213 29.9571C45.3543 30.8993 47.3345 31.9835 49.3444 32.9984C49.5307 33.0871 49.6778 33.2413 49.7576 33.4315C46.2832 35.8447 42.7725 38.1422 39.2287 40.3935Z" fill="#243941"/>
<path d="M39.2207 52.5986C38.6918 53.0548 38.6752 52.3606 38.5595 52.159C35.7805 47.824 33.0157 43.4791 30.2653 39.1243C29.5906 38.1272 29.0001 37.0756 28.5 35.9805C29.9347 36.9226 31.376 37.8581 32.7975 38.8036L38.3215 42.4631C38.442 42.5751 38.5835 42.662 38.7379 42.7188C38.8923 42.7755 39.0564 42.801 39.2207 42.7937C39.4455 43.3491 39.3298 43.9342 39.3199 44.5028C39.2835 47.2003 39.4422 49.9044 39.2207 52.5986Z" fill="#8EAAB2"/>
<path d="M39.2175 52.5985C38.9728 52.4398 39.0191 52.1687 39.0191 51.9373C39.0191 49.2002 39.0191 46.4641 39.0191 43.7291C38.9995 43.4089 39.0693 43.0895 39.2208 42.8068L49.4423 36.0332L49.6439 36.2316L39.2175 52.5985Z" fill="#3B565E"/>
<path opacity="0.3" d="M61.0397 53.3918C63.17 51.0903 64.8877 48.4388 66.1173 45.5538L23.2644 13.9736C20.7836 16.0925 18.6674 18.6041 17 21.4083L61.0397 53.3918Z" fill="url(#paint10_linear_844_3875)"/>
<path opacity="0.3" d="M64.2762 49.1276C65.9693 46.3619 67.1538 43.3156 67.7737 40.1326L28.2464 10.873C25.3836 12.4235 22.5307 14.3607 20.3984 16.7871L64.2762 49.1276Z" fill="url(#paint11_linear_844_3875)"/>
</g>
<defs>
<linearGradient id="paint0_linear_844_3875" x1="4.72196" y1="36.681" x2="74.9104" y2="36.6809" gradientUnits="userSpaceOnUse">
<stop stop-color="#ACB3C3"/>
<stop offset="1" stop-color="#949DAF"/>
</linearGradient>
<linearGradient id="paint1_linear_844_3875" x1="40.117" y1="4.66024" x2="40.117" y2="68.0222" gradientUnits="userSpaceOnUse">
<stop stop-color="#ADB4C4"/>
<stop offset="0.04" stop-color="#BEC4D5"/>
<stop offset="0.08" stop-color="#C9D0E0"/>
<stop offset="0.14" stop-color="#D0D6E7"/>
<stop offset="0.31" stop-color="#D2D8E9"/>
<stop offset="0.32" stop-color="#D3D9EA"/>
<stop offset="0.46" stop-color="#D5DBEC"/>
<stop offset="0.49" stop-color="#C5CCDC"/>
<stop offset="0.53" stop-color="#BAC0D1"/>
<stop offset="0.59" stop-color="#B3BACA"/>
<stop offset="0.75" stop-color="#B1B8C8"/>
<stop offset="0.94" stop-color="#C2C6D6"/>
</linearGradient>
<radialGradient id="paint2_radial_844_3875" cx="0" cy="0" r="1" gradientUnits="userSpaceOnUse" gradientTransform="translate(40.0929 -4.49549) scale(41.5603 41.5603)">
<stop stop-color="white"/>
<stop offset="0.1" stop-color="white"/>
<stop offset="1" stop-color="white"/>
</radialGradient>
<linearGradient id="paint3_linear_844_3875" x1="6.26785" y1="27.8085" x2="68.691" y2="27.8085" gradientUnits="userSpaceOnUse">
<stop stop-color="white"/>
<stop offset="0.9" stop-color="white"/>
<stop offset="1" stop-color="white"/>
</linearGradient>
<linearGradient id="paint4_linear_844_3875" x1="10.5658" y1="35.3291" x2="69.6699" y2="35.3291" gradientUnits="userSpaceOnUse">
<stop stop-color="#ACB3C3"/>
<stop offset="1" stop-color="#949DAF"/>
</linearGradient>
<radialGradient id="paint5_radial_844_3875" cx="0" cy="0" r="1" gradientUnits="userSpaceOnUse" gradientTransform="translate(36.0513 26.5545) scale(59.9273)">
<stop stop-color="#ADB4C4"/>
<stop offset="0.04" stop-color="#BEC4D5"/>
<stop offset="0.08" stop-color="#C9D0E0"/>
<stop offset="0.14" stop-color="#D0D6E7"/>
<stop offset="0.31" stop-color="#D2D8E9"/>
<stop offset="0.4" stop-color="#CAD0E1"/>
<stop offset="0.75" stop-color="#B1B8C8"/>
<stop offset="0.94" stop-color="#C2C6D6"/>
</radialGradient>
<linearGradient id="paint6_linear_844_3875" x1="30.9099" y1="20.8462" x2="21.4025" y2="6.13219" gradientUnits="userSpaceOnUse">
<stop stop-color="white"/>
<stop offset="0.9" stop-color="white"/>
<stop offset="1" stop-color="white"/>
</linearGradient>
<radialGradient id="paint7_radial_844_3875" cx="0" cy="0" r="1" gradientUnits="userSpaceOnUse" gradientTransform="translate(40.034 67.0544) rotate(180) scale(34.486 34.4859)">
<stop stop-color="white"/>
<stop offset="0.1" stop-color="white"/>
<stop offset="1" stop-color="white"/>
</radialGradient>
<linearGradient id="paint8_linear_844_3875" x1="68.0997" y1="40.2481" x2="16.3014" y2="40.2481" gradientUnits="userSpaceOnUse">
<stop stop-color="white"/>
<stop offset="0.9" stop-color="white"/>
<stop offset="1" stop-color="white"/>
</linearGradient>
<linearGradient id="paint9_linear_844_3875" x1="-83.0264" y1="36.2046" x2="-14.0082" y2="36.2046" gradientUnits="userSpaceOnUse">
<stop stop-color="#E0B050"/>
<stop offset="1" stop-color="#FFDD78"/>
</linearGradient>
<linearGradient id="paint10_linear_844_3875" x1="57.6049" y1="49.5273" x2="21.5818" y2="13.5042" gradientUnits="userSpaceOnUse">
<stop stop-color="white"/>
<stop offset="0.9" stop-color="white"/>
<stop offset="1" stop-color="white"/>
</linearGradient>
<linearGradient id="paint11_linear_844_3875" x1="61.0464" y1="45.4152" x2="25.0332" y2="9.40527" gradientUnits="userSpaceOnUse">
<stop stop-color="white"/>
<stop offset="0.9" stop-color="white"/>
<stop offset="1" stop-color="white"/>
</linearGradient>
<clipPath id="clip0_844_3875">
<rect width="80" height="73.719" fill="white"/>
</clipPath>
</defs>
</svg>
