<svg width="36" height="36" viewBox="0 0 36 36" fill="none" xmlns="http://www.w3.org/2000/svg">
<g clip-path="url(#clip0_844_2569)">
<path d="M27.6406 15.2099H29.8408C30.0273 15.2099 30.2062 15.1358 30.338 15.0039L31.7033 13.6387" stroke="white" stroke-miterlimit="10" stroke-linecap="round" stroke-linejoin="round"/>
<path d="M27.6406 17.9961H32.4625" stroke="white" stroke-miterlimit="10" stroke-linecap="round" stroke-linejoin="round"/>
<path d="M27.6406 20.7875L29.8408 20.7832C30.0273 20.7832 30.2062 20.8573 30.338 20.9891L31.7081 22.3593" stroke="white" stroke-miterlimit="10" stroke-linecap="round" stroke-linejoin="round"/>
<path d="M34.1315 19.3391C34.8729 19.3391 35.4739 18.7381 35.4739 17.9967C35.4739 17.2553 34.8729 16.6543 34.1315 16.6543C33.3901 16.6543 32.7891 17.2553 32.7891 17.9967C32.7891 18.7381 33.3901 19.3391 34.1315 19.3391Z" stroke="white" stroke-miterlimit="10" stroke-linecap="round" stroke-linejoin="round"/>
<path d="M32.7487 24.5461C33.49 24.5461 34.0911 23.9451 34.0911 23.2037C34.0911 22.4623 33.49 21.8613 32.7487 21.8613C32.0073 21.8613 31.4062 22.4623 31.4062 23.2037C31.4062 23.9451 32.0073 24.5461 32.7487 24.5461Z" stroke="white" stroke-miterlimit="10" stroke-linecap="round" stroke-linejoin="round"/>
<path d="M32.7487 14.1399C33.49 14.1399 34.0911 13.5389 34.0911 12.7975C34.0911 12.0561 33.49 11.4551 32.7487 11.4551C32.0073 11.4551 31.4062 12.0561 31.4062 12.7975C31.4062 13.5389 32.0073 14.1399 32.7487 14.1399Z" stroke="white" stroke-miterlimit="10" stroke-linecap="round" stroke-linejoin="round"/>
<path d="M8.29773 20.7871H6.16705C5.98059 20.7871 5.80171 20.8612 5.66988 20.9931L4.30469 22.3582" stroke="white" stroke-miterlimit="10" stroke-linecap="round" stroke-linejoin="round"/>
<path d="M8.29923 18H3.54688" stroke="white" stroke-miterlimit="10" stroke-linecap="round" stroke-linejoin="round"/>
<path d="M8.29421 15.2141H6.16353C5.97706 15.2141 5.79819 15.14 5.66635 15.0081L4.29688 13.6387" stroke="white" stroke-miterlimit="10" stroke-linecap="round" stroke-linejoin="round"/>
<path d="M1.87366 19.343C2.61505 19.343 3.21606 18.742 3.21606 18.0006C3.21606 17.2592 2.61505 16.6582 1.87366 16.6582C1.13227 16.6582 0.53125 17.2592 0.53125 18.0006C0.53125 18.742 1.13227 19.343 1.87366 19.343Z" stroke="white" stroke-miterlimit="10" stroke-linecap="round" stroke-linejoin="round"/>
<path d="M3.25647 14.136C3.99786 14.136 4.59888 13.535 4.59888 12.7936C4.59888 12.0522 3.99786 11.4512 3.25647 11.4512C2.51508 11.4512 1.91406 12.0522 1.91406 12.7936C1.91406 13.535 2.51508 14.136 3.25647 14.136Z" stroke="white" stroke-miterlimit="10" stroke-linecap="round" stroke-linejoin="round"/>
<path d="M3.25647 24.5422C3.99786 24.5422 4.59888 23.9412 4.59888 23.1998C4.59888 22.4584 3.99786 21.8574 3.25647 21.8574C2.51508 21.8574 1.91406 22.4584 1.91406 23.1998C1.91406 23.9412 2.51508 24.5422 3.25647 24.5422Z" stroke="white" stroke-miterlimit="10" stroke-linecap="round" stroke-linejoin="round"/>
<path d="M9.27696 10.8952L8.69723 11.4775C8.44088 11.735 8.29688 12.0842 8.29688 12.4484V23.3454C8.29688 23.7095 8.44088 24.0588 8.69723 24.3163L11.6816 27.314C11.9379 27.5715 12.2856 27.7162 12.6482 27.7162H23.4965C23.8591 27.7162 24.2068 27.5716 24.4631 27.314L27.2409 24.5238C27.4972 24.2663 27.6412 23.917 27.6412 23.5529V12.656C27.6412 12.2918 27.4972 11.9426 27.2409 11.685L24.2565 8.68734C24.0002 8.42986 23.6525 8.28516 23.29 8.28516H12.4416C12.0791 8.28516 11.7314 8.42979 11.475 8.68734L10.7544 9.41114" stroke="white" stroke-miterlimit="10" stroke-linecap="round" stroke-linejoin="round"/>
<path d="M24.539 16.9734V13.6999C24.539 13.4933 24.4573 13.2952 24.3119 13.1491L22.7981 11.6286C22.6527 11.4824 22.4554 11.4004 22.2498 11.4004H13.4811C13.2754 11.4004 13.0782 11.4824 12.9327 11.6286L11.6255 12.9416C11.4801 13.0877 11.3984 13.2858 11.3984 13.4923V22.3002C11.3984 22.5068 11.4801 22.705 11.6255 22.8511L13.1393 24.3716C13.2847 24.5177 13.482 24.5997 13.6877 24.5997H22.4563C22.662 24.5997 22.8592 24.5177 23.0047 24.3716L24.3119 23.0586C24.4573 22.9124 24.539 22.7143 24.539 22.5077V19.0732" stroke="white" stroke-miterlimit="10" stroke-linecap="round" stroke-linejoin="round"/>
<path d="M14.6328 20.5503L16.539 15.523C16.5779 15.4273 16.7127 15.4272 16.7519 15.5228L18.6408 20.5503" stroke="white" stroke-miterlimit="10" stroke-linecap="round" stroke-linejoin="round"/>
<path d="M15.2344 19.2969H18.0629" stroke="white" stroke-miterlimit="10" stroke-linecap="round" stroke-linejoin="round"/>
<path d="M20.8359 15.4512V20.5504" stroke="white" stroke-miterlimit="10" stroke-linecap="round" stroke-linejoin="round"/>
<path d="M18.0312 24.6289V31.4449" stroke="white" stroke-miterlimit="10" stroke-linecap="round" stroke-linejoin="round"/>
<path d="M15.203 24.6289V29.8914C15.203 30.0778 15.1289 30.2567 14.9971 30.3886L11.4462 33.9395C11.3143 34.0713 11.1355 34.1454 10.949 34.1454H6.53125" stroke="white" stroke-miterlimit="10" stroke-linecap="round" stroke-linejoin="round"/>
<path d="M5.18616 35.4719C5.92755 35.4719 6.52856 34.8709 6.52856 34.1295C6.52856 33.3881 5.92755 32.7871 5.18616 32.7871C4.44477 32.7871 3.84375 33.3881 3.84375 34.1295C3.84375 34.8709 4.44477 35.4719 5.18616 35.4719Z" stroke="white" stroke-miterlimit="10" stroke-linecap="round" stroke-linejoin="round"/>
<path d="M18.0299 34.1301C18.7713 34.1301 19.3723 33.5291 19.3723 32.7877C19.3723 32.0463 18.7713 31.4453 18.0299 31.4453C17.2885 31.4453 16.6875 32.0463 16.6875 32.7877C16.6875 33.5291 17.2885 34.1301 18.0299 34.1301Z" stroke="white" stroke-miterlimit="10" stroke-linecap="round" stroke-linejoin="round"/>
<path d="M20.8047 24.6289V29.8914C20.8047 30.0778 20.8788 30.2567 21.0106 30.3886L24.5616 33.9395C24.6934 34.0713 24.8723 34.1454 25.0587 34.1454H29.4764" stroke="white" stroke-miterlimit="10" stroke-linecap="round" stroke-linejoin="round"/>
<path d="M30.819 35.4719C31.5604 35.4719 32.1614 34.8709 32.1614 34.1295C32.1614 33.3881 31.5604 32.7871 30.819 32.7871C30.0776 32.7871 29.4766 33.3881 29.4766 34.1295C29.4766 34.8709 30.0776 35.4719 30.819 35.4719Z" stroke="white" stroke-miterlimit="10" stroke-linecap="round" stroke-linejoin="round"/>
<path d="M18.0078 11.3706V4.55469" stroke="white" stroke-miterlimit="10" stroke-linecap="round" stroke-linejoin="round"/>
<path d="M20.8359 11.3701V6.10756C20.8359 5.92109 20.91 5.74222 21.0419 5.61038L24.5928 2.05946C24.7246 1.92763 24.9035 1.85352 25.09 1.85352H29.5076" stroke="white" stroke-miterlimit="10" stroke-linecap="round" stroke-linejoin="round"/>
<path d="M30.8502 3.21216C31.5916 3.21216 32.1926 2.61114 32.1926 1.86975C32.1926 1.12836 31.5916 0.527344 30.8502 0.527344C30.1088 0.527344 29.5078 1.12836 29.5078 1.86975C29.5078 2.61114 30.1088 3.21216 30.8502 3.21216Z" stroke="white" stroke-miterlimit="10" stroke-linecap="round" stroke-linejoin="round"/>
<path d="M18.0065 4.55395C18.7479 4.55395 19.3489 3.95294 19.3489 3.21155C19.3489 2.47016 18.7479 1.86914 18.0065 1.86914C17.2651 1.86914 16.6641 2.47016 16.6641 3.21155C16.6641 3.95294 17.2651 4.55395 18.0065 4.55395Z" stroke="white" stroke-miterlimit="10" stroke-linecap="round" stroke-linejoin="round"/>
<path d="M15.2343 11.3701V6.10756C15.2343 5.92109 15.1602 5.74222 15.0283 5.61038L11.4774 2.05946C11.3456 1.92763 11.1667 1.85352 10.9802 1.85352H6.5625" stroke="white" stroke-miterlimit="10" stroke-linecap="round" stroke-linejoin="round"/>
<path d="M5.21741 3.21216C5.9588 3.21216 6.55981 2.61114 6.55981 1.86975C6.55981 1.12836 5.9588 0.527344 5.21741 0.527344C4.47602 0.527344 3.875 1.12836 3.875 1.86975C3.875 2.61114 4.47602 3.21216 5.21741 3.21216Z" stroke="white" stroke-miterlimit="10" stroke-linecap="round" stroke-linejoin="round"/>
</g>
<defs>
<clipPath id="clip0_844_2569">
<rect width="36" height="36" fill="white"/>
</clipPath>
</defs>
</svg>
