<svg width="36" height="36" viewBox="0 0 36 36" fill="none" xmlns="http://www.w3.org/2000/svg">
<path d="M21.896 15.3183C21.6942 14.2833 20.7809 13.5 19.6875 13.5C19.016 13.5 18.4127 13.796 18 14.2643C17.5873 13.796 16.984 13.5 16.3125 13.5C15.2198 13.5 14.3058 14.2833 14.104 15.3183C13.0929 15.6579 12.375 16.6212 12.375 17.7188C12.375 18.2278 12.5241 18.7123 12.8011 19.125C12.5241 19.5377 12.375 20.0222 12.375 20.5312C12.375 21.6288 13.0929 22.5921 14.104 22.9317C14.3058 23.9667 15.2191 24.75 16.3125 24.75C16.984 24.75 17.5873 24.454 18 23.9857C18.4127 24.454 19.016 24.75 19.6875 24.75C20.7802 24.75 21.6942 23.9667 21.896 22.9317C22.9071 22.5921 23.625 21.6288 23.625 20.5312C23.625 20.0222 23.4759 19.5377 23.1989 19.125C23.4759 18.7123 23.625 18.2278 23.625 17.7188C23.625 16.6212 22.9071 15.6579 21.896 15.3183ZM16.3125 23.625C15.6937 23.625 15.1903 23.123 15.1875 22.5056V22.4916C15.1938 22.2075 14.9864 21.9635 14.7052 21.9234C14.0182 21.825 13.5 21.2273 13.5 20.532C13.5 20.1509 13.6498 19.7944 13.9226 19.5272C14.0309 19.4217 14.0913 19.2769 14.0913 19.1257C14.0913 18.9745 14.0302 18.8297 13.9226 18.7242C13.6498 18.457 13.5 18.1005 13.5 17.7195C13.5 17.0241 14.0182 16.4257 14.7052 16.328C14.9864 16.2879 15.1938 16.0439 15.1882 15.7598V15.7458C15.1903 15.1277 15.6945 14.6257 16.3125 14.6257C16.9305 14.6257 17.4375 15.1305 17.4375 15.7507V22.5007C17.4375 23.1209 16.9327 23.6257 16.3125 23.6257V23.625ZM22.0774 19.5265C22.3502 19.7937 22.5 20.1502 22.5 20.5312C22.5 21.2266 21.9818 21.825 21.2948 21.9227C21.0136 21.9628 20.8062 22.2068 20.8118 22.4909V22.5049C20.8097 23.123 20.3055 23.625 19.6875 23.625C19.0695 23.625 18.5625 23.1202 18.5625 22.5V15.75C18.5625 15.1298 19.0673 14.625 19.6875 14.625C20.3077 14.625 20.8104 15.127 20.8125 15.7458V15.7648C20.809 16.0467 21.0157 16.2872 21.2948 16.3273C21.9818 16.4257 22.5 17.0234 22.5 17.7188C22.5 18.0998 22.3502 18.4563 22.0774 18.7235C21.9691 18.829 21.9087 18.9738 21.9087 19.125C21.9087 19.2762 21.9698 19.421 22.0774 19.5265Z" fill="white"/>
<path d="M18 10.125C13.0373 10.125 9 14.1623 9 19.125C9 22.083 10.4252 24.1003 11.6831 25.8799C12.6584 27.2595 13.5 28.4513 13.5 29.8125V32.625C13.5 33.8653 14.5097 34.875 15.75 34.875H20.25C21.4903 34.875 22.5 33.8653 22.5 32.625V29.8125C22.5 28.4505 23.3423 27.2595 24.3169 25.8799C25.5748 24.1003 27 22.083 27 19.125C27 14.1623 22.9627 10.125 18 10.125ZM21.375 30.375V31.5H14.625V30.375H21.375ZM20.25 33.75H15.75C15.1298 33.75 14.625 33.2452 14.625 32.625H21.375C21.375 33.2452 20.8702 33.75 20.25 33.75ZM23.3979 25.2302C22.4733 26.5387 21.5951 27.7826 21.4109 29.25H14.5891C14.4049 27.7826 13.5267 26.5387 12.6021 25.2302C11.3843 23.5069 10.125 21.7252 10.125 19.125C10.125 14.7825 13.6575 11.25 18 11.25C22.3425 11.25 25.875 14.7825 25.875 19.125C25.875 21.7259 24.6157 23.5076 23.3979 25.2302Z" fill="white"/>
<path d="M33.75 16.875C32.7038 16.875 31.8213 17.5929 31.571 18.5625H28.6875C28.3767 18.5625 28.125 18.8142 28.125 19.125C28.125 19.4358 28.3767 19.6875 28.6875 19.6875H31.571C31.8213 20.6571 32.703 21.375 33.75 21.375C34.9903 21.375 36 20.3653 36 19.125C36 17.8847 34.9903 16.875 33.75 16.875ZM33.75 20.25C33.1298 20.25 32.625 19.7452 32.625 19.125C32.625 18.5048 33.1298 18 33.75 18C34.3702 18 34.875 18.5048 34.875 19.125C34.875 19.7452 34.3702 20.25 33.75 20.25Z" fill="white"/>
<path d="M7.3125 18.5625H4.42898C4.17867 17.5929 3.29695 16.875 2.25 16.875C1.00969 16.875 0 17.8847 0 19.125C0 20.3653 1.00969 21.375 2.25 21.375C3.29625 21.375 4.17867 20.6571 4.42898 19.6875H7.3125C7.62328 19.6875 7.875 19.4358 7.875 19.125C7.875 18.8142 7.62328 18.5625 7.3125 18.5625ZM2.25 20.25C1.62984 20.25 1.125 19.7452 1.125 19.125C1.125 18.5048 1.62984 18 2.25 18C2.87016 18 3.375 18.5048 3.375 19.125C3.375 19.7452 2.87016 20.25 2.25 20.25Z" fill="white"/>
<path d="M30.7248 9.57974C31.6023 8.70224 31.6023 7.27489 30.7248 6.3981C29.8473 5.5213 28.4199 5.5206 27.5431 6.3981C26.8034 7.13778 26.6874 8.26981 27.1958 9.13185L25.1567 11.1709C24.9373 11.3903 24.9373 11.7468 25.1567 11.9661C25.3761 12.1855 25.7326 12.1855 25.952 11.9661L27.991 9.92708C28.8538 10.4354 29.9851 10.3194 30.7248 9.57974ZM28.3384 8.7838C27.8996 8.34505 27.8996 7.63138 28.3384 7.19263C28.7771 6.75388 29.4908 6.75388 29.9295 7.19263C30.3683 7.63138 30.3683 8.34505 29.9295 8.7838C29.4908 9.22255 28.7771 9.22255 28.3384 8.7838Z" fill="white"/>
<path d="M17.4375 5.55398V8.4375C17.4375 8.74828 17.6892 9 18 9C18.3108 9 18.5625 8.74828 18.5625 8.4375V5.55398C19.5321 5.30367 20.25 4.42195 20.25 3.375C20.25 2.13469 19.2403 1.125 18 1.125C16.7597 1.125 15.75 2.13469 15.75 3.375C15.75 4.42125 16.4679 5.30367 17.4375 5.55398ZM18 2.25C18.6202 2.25 19.125 2.75484 19.125 3.375C19.125 3.99516 18.6202 4.5 18 4.5C17.3798 4.5 16.875 3.99516 16.875 3.375C16.875 2.75484 17.3798 2.25 18 2.25Z" fill="white"/>
<path d="M10.8431 11.9664C11.0625 11.747 11.0625 11.3905 10.8431 11.1712L8.80403 9.13211C9.31239 8.26938 9.19638 7.13805 8.45669 6.39836C7.57919 5.52086 6.15185 5.52086 5.27505 6.39836C4.39825 7.27586 4.39755 8.7032 5.27505 9.58C6.01474 10.3197 7.14677 10.4357 8.0088 9.92734L10.0479 11.9664C10.2672 12.1858 10.6237 12.1858 10.8431 11.9664ZM7.66075 8.78406C7.222 9.22281 6.50833 9.22281 6.06958 8.78406C5.63083 8.34531 5.63083 7.63164 6.06958 7.19289C6.50833 6.75414 7.222 6.75414 7.66075 7.19289C8.0995 7.63164 8.0995 8.34531 7.66075 8.78406Z" fill="white"/>
</svg>
