<svg width="50" height="50" viewBox="0 0 50 50" fill="none" xmlns="http://www.w3.org/2000/svg">
<path fill-rule="evenodd" clip-rule="evenodd" d="M26.1398 27.9792C29.1293 29.0799 31.3328 31.8039 31.6831 35.0819C31.7068 35.3032 31.6354 35.5241 31.4866 35.6896C31.3378 35.8551 31.1258 35.9496 30.9033 35.9496H15.4709C15.2483 35.9496 15.0362 35.855 14.8874 35.6894C14.7386 35.5239 14.6673 35.3028 14.6911 35.0816C15.043 31.8035 17.2473 29.0796 20.236 27.979C19.1664 27.1146 18.4805 25.7924 18.4805 24.3154C18.4805 21.7225 20.5942 19.6067 23.1871 19.6067C25.7824 19.6067 27.8957 21.7227 27.8957 24.3154C27.8957 25.7924 27.2099 27.1147 26.1398 27.9792ZM23.1871 29.0241C19.8923 29.0241 17.1309 31.3089 16.3999 34.381H29.9748C29.2453 31.3089 26.4835 29.0241 23.1871 29.0241ZM23.1871 27.4555C24.9177 27.4555 26.3271 26.0444 26.3271 24.3154C26.3271 22.5865 24.9177 21.1754 23.1871 21.1754C21.4582 21.1754 20.0491 22.5866 20.0491 24.3154C20.0491 26.0443 21.4582 27.4555 23.1871 27.4555ZM44.8237 34.9839C43.8692 35.3331 42.8818 35.7117 41.3545 35.7117H36.2512C35.1804 35.7117 34.3057 34.8354 34.3057 33.7663C34.3057 33.5954 34.3279 33.4295 34.3697 33.2715C33.6247 32.998 33.0899 32.28 33.0899 31.4429C33.0899 31.1189 33.1702 30.8126 33.312 30.5431C32.9302 30.1874 32.6908 29.6809 32.6908 29.1206C32.6908 28.4818 33.0021 27.9127 33.4805 27.5576C33.3805 27.3239 33.3251 27.0671 33.3251 26.7982C33.3251 25.7275 34.2009 24.8527 35.2715 24.8527H38.3991C38.1302 24.0907 37.9501 23.1519 38.0434 22.3109C38.1713 21.158 38.7523 20.1906 40.0473 19.8725C40.2512 19.8224 40.4668 19.8563 40.6456 19.9664C40.8244 20.0765 40.9516 20.2537 40.9986 20.4583C41.5002 22.638 41.4267 23.0028 42.7436 23.8641C43.8192 24.5668 43.748 24.5424 44.5697 25.7314C44.6469 25.8427 44.7439 25.9272 44.8675 25.9793C45.0261 25.4595 45.511 25.0791 46.0812 25.0791H48.0424C48.738 25.0791 49.3108 25.6493 49.3108 26.3474V34.8181C49.3108 35.5162 48.738 36.0865 48.0424 36.0865H46.0812C45.4392 36.0865 44.9055 35.6042 44.8237 34.9839ZM44.8128 27.583C44.1175 27.4896 43.6359 27.1384 43.2798 26.624L43.2795 26.6235C42.6474 25.709 42.7128 25.7177 41.8857 25.1773L41.8854 25.1771C40.4296 24.2251 40.1762 23.7916 39.7348 21.9514C39.5962 22.2497 39.5714 22.624 39.5905 22.9908C39.6362 23.8659 39.9614 24.7792 40.2596 25.1239C40.4604 25.3561 40.5074 25.684 40.3797 25.9631C40.2521 26.2422 39.9733 26.4214 39.6664 26.4214H35.2715C35.0639 26.4214 34.8937 26.5906 34.8937 26.7982C34.8937 27.0055 35.0639 27.1751 35.2715 27.1751H38.3013C38.7342 27.1751 39.0856 27.5265 39.0856 27.9594C39.0856 28.3922 38.7342 28.7437 38.3013 28.7437H34.6363C34.4288 28.7437 34.2594 28.9131 34.2594 29.1206C34.2594 29.328 34.4288 29.4974 34.6363 29.4974H38.3013C38.7342 29.4974 39.0856 29.8488 39.0856 30.2817C39.0856 30.7146 38.7342 31.0661 38.3013 31.0661H35.0354C34.8279 31.0661 34.6585 31.2358 34.6585 31.4429C34.6585 31.6505 34.8277 31.8208 35.0354 31.8208H38.3013C38.7342 31.8208 39.0856 32.1721 39.0856 32.6051C39.0856 33.0379 38.7342 33.3894 38.3013 33.3894H36.2512C36.0437 33.3894 35.8743 33.5588 35.8743 33.7663C35.8743 33.9733 36.0437 34.1431 36.2512 34.1431H41.3545C42.9115 34.1431 43.8423 33.6809 44.8128 33.3297V27.583ZM46.3815 26.6477V34.5178H47.7422V26.6477H46.3815ZM5.01196 27.2744C5.33412 26.4267 6.19392 24.1648 6.19392 24.1648C6.53686 23.256 7.8298 23.256 8.17274 24.1648L9.3548 27.2744C10.2616 27.3189 12.6779 27.4377 12.6753 27.4376C13.6549 27.4817 14.0477 28.7156 13.2909 29.3188L10.6959 31.4055C10.9341 32.2818 11.5679 34.6135 11.5677 34.6126C11.8282 35.5474 10.7868 36.3097 9.97255 35.7815C9.97166 35.781 9.97078 35.7804 9.9699 35.7798L7.18353 33.9562L4.3999 35.7796C4.39892 35.7802 4.39794 35.7809 4.39696 35.7815C3.58559 36.3078 2.54559 35.5491 2.79774 34.6171L2.79794 34.6162C2.79794 34.6162 3.43402 32.2765 3.67088 31.4056C2.96431 30.8373 1.07627 29.3192 1.07843 29.3209C0.319017 28.7156 0.711762 27.4817 1.68813 27.4377L5.01196 27.2744ZM3.12264 28.9439C3.93451 29.5968 4.91627 30.3863 4.91608 30.3861C5.25392 30.6519 5.39108 31.0671 5.28117 31.4848C5.28068 31.4868 5.2801 31.4889 5.27961 31.491L4.67431 33.7172C5.54598 33.1463 6.60039 32.4556 6.59931 32.4563C6.96255 32.2152 7.40206 32.2147 7.76549 32.455L9.69196 33.7159L9.08715 31.491C9.08657 31.4889 9.08598 31.4868 9.08549 31.4848C8.97549 31.0669 9.11294 30.6515 9.45029 30.3864L11.244 28.9439L8.93921 28.8307L8.93755 28.8306C8.50843 28.8086 8.15637 28.5556 8.00274 28.1496L7.18333 25.994L6.36441 28.1485C6.21039 28.5556 5.85823 28.8086 5.42921 28.8306L5.42755 28.8307L3.12264 28.9439ZM23.1871 17.702C19.4708 17.702 16.4381 14.6694 16.4381 10.9531C16.4381 7.23675 19.4708 4.2041 23.1871 4.2041C26.9034 4.2041 29.9361 7.23675 29.9361 10.9531C29.9361 14.6694 26.9034 17.702 23.1871 17.702ZM23.1871 16.1334C26.0396 16.1334 28.3674 13.8057 28.3674 10.9531C28.3674 8.10047 26.0396 5.77273 23.1871 5.77273C20.3345 5.77273 18.0068 8.10047 18.0068 10.9531C18.0068 13.8057 20.3345 16.1334 23.1871 16.1334ZM22.4027 7.34989V7.17802C22.4027 6.74518 22.7542 6.39371 23.1871 6.39371C23.62 6.39371 23.9714 6.74518 23.9714 7.17802V7.34194C24.6811 7.539 25.3236 8.02214 25.666 8.83645C25.8337 9.23547 25.646 9.69567 25.2469 9.86342C24.8478 10.0312 24.3876 9.84342 24.2199 9.4443C23.9536 8.81087 23.2401 8.69253 22.7304 8.89312C22.4661 8.99724 22.2414 9.20096 22.2563 9.51136C22.2676 9.74263 22.4286 9.86596 22.6071 9.95312C22.8265 10.0605 23.0808 10.1189 23.3194 10.1582C24.465 10.3457 25.7029 10.8919 25.8692 12.254L25.8694 12.2551C26.0248 13.5426 25.0522 14.3278 23.9714 14.5796V14.7281C23.9714 15.161 23.62 15.5124 23.1871 15.5124C22.7542 15.5124 22.4027 15.161 22.4027 14.7281V14.568C21.5079 14.3379 20.7542 13.7161 20.5129 12.7469C20.4083 12.3268 20.6645 11.901 21.0845 11.7964C21.5046 11.6917 21.9305 11.9479 22.0351 12.3679C22.1684 12.9035 22.723 13.1116 23.2463 13.0992C23.4903 13.0935 23.7559 13.0426 23.9802 12.9327C24.1723 12.8386 24.3419 12.6923 24.3121 12.4436C24.2779 12.1657 24.0778 12.0217 23.8576 11.9218C23.6101 11.8096 23.3289 11.7493 23.0662 11.7063L23.0654 11.7062C21.937 11.5204 20.7551 10.9293 20.6895 9.58783V9.58734C20.6393 8.54891 21.2717 7.78165 22.1559 7.43361C22.2363 7.40185 22.3187 7.37391 22.4027 7.34989ZM8.41823 20.728C8.23235 21.1189 7.76402 21.2853 7.37314 21.0994C6.98215 20.9134 6.81578 20.4451 7.00176 20.0542C8.38843 17.1388 10.5355 14.6537 13.1859 12.8562C13.5441 12.6132 14.0323 12.7067 14.2752 13.0651C14.5181 13.4233 14.4246 13.9114 14.0664 14.1544C11.6458 15.7961 9.6847 18.0655 8.41823 20.728ZM36.2257 37.9258C36.493 37.5854 36.9865 37.5261 37.327 37.7934C37.6674 38.0608 37.7267 38.5543 37.4593 38.8947C34.1595 43.096 29.0337 45.7963 23.2824 45.7963C17.5214 45.7963 12.3881 43.0869 9.08902 38.8737C8.82206 38.5329 8.88215 38.0395 9.22294 37.7726C9.56372 37.5058 10.0572 37.5658 10.324 37.9067C13.3362 41.7533 18.0225 44.2276 23.2824 44.2276C28.5334 44.2276 33.2129 41.7616 36.2257 37.9258ZM32.2844 14.0117C31.9224 13.7744 31.8213 13.2877 32.0586 12.9258C32.296 12.5638 32.7826 12.4625 33.1446 12.7C35.2304 14.0676 37.0158 15.8564 38.3796 17.945C38.6162 18.3074 38.5141 18.7938 38.1517 19.0305C37.7892 19.2671 37.3028 19.165 37.0662 18.8025C35.8205 16.8948 34.1896 15.261 32.2844 14.0117Z" fill="url(#paint0_linear_844_5812)"/>
<defs>
<linearGradient id="paint0_linear_844_5812" x1="24.9952" y1="45.7963" x2="24.9952" y2="4.2041" gradientUnits="userSpaceOnUse">
<stop stop-color="#3C53D7"/>
<stop offset="1" stop-color="#00BAA9"/>
</linearGradient>
</defs>
</svg>
