<svg width="71" height="71" viewBox="0 0 71 71" fill="none" xmlns="http://www.w3.org/2000/svg">
<g clip-path="url(#clip0_844_2736)">
<path d="M14.1058 32.724C13.939 33.759 13.8542 34.824 13.8542 35.9055C13.8542 38.3855 14.304 40.7576 15.1216 42.9506C16.0472 41.1295 17.0986 39.385 18.3454 37.7648C20.4031 35.1029 21.4654 40.8574 26.2519 41.1637C35.8632 42.0127 32.7788 47.5895 26.8726 51.3684C25.8964 51.8838 25.1827 52.7205 24.5976 53.7172C27.399 55.1978 30.5927 56.0346 33.9847 56.0346C38.7015 56.0346 43.0382 54.4145 46.4671 51.6979C44.188 46.5121 40.5021 44.0785 37.8128 42.0988C35.0415 40.0521 34.2199 38.4867 34.3361 37.2002C34.6464 33.7275 38.7699 30.9535 43.339 28.9807C42.6062 30.7635 42.2111 32.6857 42.1919 34.6545C42.1372 39.9373 45.9708 46.1758 50.0013 51.49C49.9316 51.5639 49.8577 51.6377 49.7839 51.7074C45.7411 55.7529 40.1535 58.2535 33.9833 58.2535C27.8132 58.2535 22.2255 55.7543 18.1827 51.7074C14.1372 47.6633 11.6367 42.0756 11.6367 35.9055C11.6367 29.7353 14.1359 24.1477 18.1827 20.1049C22.2255 16.0594 27.8132 13.5588 33.9833 13.5588C40.1535 13.5588 45.7411 16.058 49.7839 20.1049C50.1052 20.4262 50.4197 20.7557 50.7218 21.0975C50.0437 21.4311 49.3888 21.8139 48.7654 22.2445C48.5876 22.0504 48.4044 21.8604 48.2185 21.6703C45.4786 18.9346 41.9554 16.9809 38.0138 16.1783C35.0607 19.9107 32.5915 22.3758 27.5425 24.5564C20.5822 27.5643 21.6595 32.3344 18.299 32.8621C16.8456 33.0877 15.4538 33.0111 14.1058 32.724ZM70.5283 34.6764C70.6062 41.7762 62.064 51.702 57.4675 57.142C52.871 51.7006 44.3329 41.7762 44.4068 34.6764C44.4423 31.3746 45.7124 28.0797 48.2199 25.5723C50.7628 23.0293 54.1138 21.7551 57.4661 21.7551C60.8185 21.7551 64.1708 23.0307 66.7124 25.5723C69.2226 28.0811 70.4941 31.3746 70.5283 34.6764ZM66.0753 34.8199C66.0753 30.0799 62.2076 26.2121 57.4675 26.2121C52.7275 26.2121 48.8638 30.0799 48.8638 34.8199C48.8638 39.56 52.7275 43.4236 57.4675 43.4236C62.2076 43.4236 66.0753 39.56 66.0753 34.8199ZM57.8722 33.7357C57.7984 33.7207 57.7204 33.7084 57.6398 33.7084H57.5003H57.4388C57.2638 33.7084 57.1052 33.6387 56.989 33.5225C56.8769 33.4062 56.8031 33.2477 56.8031 33.0727C56.8031 32.8977 56.8769 32.7391 56.989 32.6229C57.1052 32.5107 57.2638 32.4369 57.4388 32.4369H57.8462C57.9515 32.4369 58.0472 32.4602 58.1292 32.5025C58.2222 32.549 58.3001 32.6146 58.3617 32.6967C58.7226 33.1889 59.4158 33.29 59.9079 32.9291C60.396 32.5654 60.5013 31.8709 60.1363 31.3787C59.8724 31.0219 59.5238 30.732 59.1245 30.5256C58.9536 30.4408 58.7677 30.367 58.5777 30.3164V29.7654C58.5777 29.1529 58.0814 28.6566 57.4689 28.6566C56.8564 28.6566 56.3601 29.1529 56.3601 29.7654V30.4285C56.0074 30.5762 55.6902 30.7895 55.4222 31.0561C54.9027 31.5715 54.5855 32.2852 54.5855 33.0713C54.5855 33.8574 54.9027 34.5711 55.4222 35.0906C55.8556 35.524 56.4298 35.8193 57.0697 35.9041C57.1435 35.9191 57.2214 35.9273 57.298 35.9273H57.4374H57.499C57.674 35.9273 57.8326 35.9971 57.9488 36.1133C58.065 36.2295 58.1388 36.3881 58.1388 36.5631C58.1388 36.7381 58.065 36.8967 57.9488 37.0129C57.8326 37.1291 57.674 37.1988 57.499 37.1988H57.0956C56.9904 37.1988 56.8947 37.1756 56.8085 37.1332C56.7197 37.0867 56.6417 37.0211 56.5802 36.9391C56.2165 36.4469 55.522 36.3457 55.0339 36.7107C54.5417 37.0744 54.4406 37.7648 54.8056 38.257C55.0695 38.6139 55.414 38.9078 55.8132 39.1102C55.9882 39.199 56.17 39.2687 56.3601 39.3193V39.8703C56.3601 40.4828 56.8564 40.9791 57.4689 40.9791C58.0814 40.9791 58.5777 40.4828 58.5777 39.8703V39.2072C58.9345 39.0596 59.2517 38.8463 59.5197 38.5797C60.0351 38.0643 60.3564 37.3506 60.3564 36.5645C60.3564 35.7783 60.0351 35.0646 59.5197 34.5492C59.0849 34.1117 58.5107 33.8164 57.8722 33.7357ZM5.84251 36.7504L9.79505 33.398C10.2599 33.0029 10.3187 32.3057 9.92357 31.8367C9.53255 31.3719 8.83119 31.3131 8.36497 31.7082L6.34154 33.4254C6.94173 26.6086 10.0111 20.5 14.6499 15.9938C19.6456 11.1457 26.4624 8.15703 33.9806 8.15703C37.7636 8.15703 41.3675 8.91309 44.6501 10.2803C48.0613 11.7021 51.1306 13.7871 53.6913 16.3725C54.122 16.8059 54.8234 16.8059 55.2527 16.3766C55.6861 15.9459 55.6902 15.2445 55.2568 14.8111C52.4937 12.0207 49.1796 9.77305 45.4978 8.2377C41.9472 6.75703 38.0562 5.93945 33.9792 5.93945C25.8677 5.93945 18.504 9.16738 13.1064 14.4078C8.14212 19.2285 4.84447 25.7596 4.15404 33.0494L2.61595 31.2352C2.22083 30.7703 1.52357 30.7115 1.05462 31.1066C0.589779 31.5018 0.53099 32.199 0.926107 32.6652L4.27845 36.6219C4.6763 37.0881 5.37357 37.1455 5.84251 36.7504ZM51.214 58.2166L46.2333 56.7715C45.6482 56.6006 45.0357 56.9383 44.8648 57.5275C44.6939 58.1127 45.0316 58.7252 45.6208 58.8961L48.3101 59.6754C46.3878 60.8375 44.3111 61.7754 42.1167 62.4467C39.5546 63.2328 36.823 63.6553 33.982 63.6553C27.3552 63.6553 21.274 61.3379 16.5079 57.466C11.6476 53.5203 8.14896 47.9668 6.81869 41.6148C6.69427 41.0146 6.10911 40.6305 5.51302 40.7549C4.91283 40.8834 4.52865 41.4686 4.65306 42.0646C6.08724 48.9238 9.86615 54.923 15.1134 59.1832C20.2677 63.3654 26.837 65.8729 33.9833 65.8729C37.0294 65.8729 39.9743 65.4162 42.7607 64.5631C44.966 63.885 47.0619 62.9621 49.0156 61.8273L48.399 63.9506C48.2281 64.5398 48.5658 65.1523 49.155 65.3219C49.7402 65.4887 50.3527 65.151 50.5236 64.5658L51.9687 59.5852C52.1396 59 51.7992 58.3875 51.214 58.2166Z" fill="url(#paint0_linear_844_2736)"/>
</g>
<defs>
<linearGradient id="paint0_linear_844_2736" x1="0.666478" y1="35.9055" x2="70.5295" y2="35.9055" gradientUnits="userSpaceOnUse">
<stop stop-color="#4D62FF"/>
<stop offset="0.193" stop-color="#466AFF"/>
<stop offset="0.492" stop-color="#3480FF"/>
<stop offset="0.8579" stop-color="#17A3FF"/>
<stop offset="1" stop-color="#0AB3FF"/>
</linearGradient>
<clipPath id="clip0_844_2736">
<rect width="70" height="70" fill="white" transform="translate(0.601562 0.90625)"/>
</clipPath>
</defs>
</svg>
