<svg width="370" height="535" viewBox="0 0 370 535" fill="none" xmlns="http://www.w3.org/2000/svg">
<g filter="url(#filter0_b_844_6779)">
<path d="M14 227.165C14 216.18 27.6892 210.927 35.3579 218.792C146.308 332.57 216.877 328.021 327.887 217.712C335.591 210.057 349 215.355 349 226.216V523C349 529.627 343.627 535 337 535H26C19.3726 535 14 529.627 14 523V227.165Z" fill="url(#paint0_linear_844_6779)"/>
<path d="M14.4 227.165C14.4 216.561 27.6378 211.448 35.0715 219.071C90.5613 275.975 136.044 303.391 181.606 302.685C227.161 301.978 272.655 273.16 328.169 217.996C335.635 210.577 348.6 215.73 348.6 226.216V523C348.6 529.406 343.406 534.6 337 534.6H26C19.5935 534.6 14.4 529.406 14.4 523V227.165Z" stroke="url(#paint1_linear_844_6779)" stroke-opacity="0.3" stroke-width="0.8"/>
</g>
<g filter="url(#filter1_f_844_6779)">
<circle cx="185" cy="185" r="85" fill="#3C53D7"/>
</g>
<g clip-path="url(#clip0_844_6779)">
<path d="M131 130.14V197C131 198.67 133.68 201.26 134.94 200.54L158.43 184.14C159.121 183.644 159.687 182.993 160.081 182.24C160.475 181.486 160.687 180.65 160.7 179.8L162.94 113C162.94 111.33 159.69 110.56 158.43 111.28L133.27 125.8C132.578 126.295 132.012 126.945 131.618 127.699C131.224 128.453 131.012 129.289 131 130.14Z" fill="url(#paint2_linear_844_6779)"/>
<path d="M133.688 131.69V198.5C133.688 200.17 134.688 200.94 135.957 200.22L161.118 185.69C161.812 185.198 162.379 184.548 162.774 183.793C163.168 183.039 163.379 182.202 163.387 181.35V114.54C163.387 112.87 162.388 112.1 161.118 112.83L135.997 127.35C135.3 127.843 134.728 128.492 134.326 129.246C133.925 130 133.706 130.837 133.688 131.69Z" fill="url(#paint3_linear_844_6779)"/>
<path d="M162.744 175.56V117.6C162.744 116.37 162.004 115.81 161.084 116.34L136.004 130.81C135.497 131.176 135.083 131.654 134.795 132.208C134.507 132.762 134.352 133.376 134.344 134V192C134.344 193.23 135.094 193.79 136.014 193.26L161.084 178.75C161.59 178.385 162.004 177.906 162.292 177.352C162.581 176.799 162.735 176.185 162.744 175.56Z" fill="url(#paint4_linear_844_6779)"/>
<path d="M136.308 192.369L161.368 177.889C161.573 177.775 161.745 177.609 161.868 177.409C162.052 177.05 162.148 176.652 162.148 176.249V118.249C162.148 117.149 161.448 116.769 160.778 117.159L135.708 131.659C135.506 131.778 135.337 131.947 135.218 132.149C135.032 132.507 134.935 132.905 134.938 133.309V191.309C134.938 192.369 135.628 192.759 136.308 192.369Z" fill="url(#paint5_linear_844_6779)"/>
<path style="mix-blend-mode:screen" d="M135.278 192.31L171.188 237.93C171.258 237.93 208.608 235.73 226.068 203.46C250.518 158.3 231.238 125.46 231.238 125.46C231.238 125.46 161.848 116.66 161.168 117L135.708 131.66C135.506 131.78 135.337 131.948 135.218 132.15C135.032 132.508 134.936 132.906 134.938 133.31V191.31C134.934 191.672 135.054 192.025 135.278 192.31Z" fill="url(#paint6_radial_844_6779)"/>
<path style="mix-blend-mode:lighten" opacity="0.2" d="M133.742 198.489C133.742 200.159 134.742 200.929 136.012 200.199L161.172 185.679C161.862 185.182 162.427 184.531 162.821 183.778C163.215 183.024 163.428 182.189 163.442 181.339V114.529C163.442 112.859 162.442 112.089 161.172 112.809L133.742 198.489Z" fill="url(#paint7_linear_844_6779)"/>
<path d="M148.699 122.409L152.859 119.999C153.006 119.895 153.127 119.757 153.211 119.597C153.294 119.437 153.338 119.259 153.339 119.079C153.339 118.729 153.129 118.559 152.859 118.719L148.699 121.119C148.553 121.224 148.433 121.362 148.35 121.522C148.267 121.682 148.222 121.859 148.219 122.039C148.219 122.399 148.429 122.559 148.699 122.409Z" fill="#120652"/>
<path d="M139.719 126.751C139.719 127.241 140.059 127.441 140.489 127.191C140.715 127.044 140.903 126.846 141.038 126.613C141.174 126.381 141.253 126.119 141.269 125.851C141.269 125.361 140.919 125.161 140.489 125.411C140.263 125.557 140.076 125.754 139.942 125.987C139.808 126.22 139.731 126.482 139.719 126.751Z" fill="#D7EFFF"/>
<path d="M139.704 127.67C138.804 127.16 139.284 125.53 140.254 124.98C140.406 124.889 140.58 124.841 140.758 124.84C140.935 124.839 141.109 124.885 141.263 124.973C141.417 125.062 141.544 125.19 141.632 125.344C141.72 125.498 141.766 125.672 141.764 125.85C141.764 127 140.584 128.19 139.704 127.67ZM140.254 126.76C140.406 126.653 140.532 126.512 140.622 126.349C140.712 126.187 140.764 126.006 140.774 125.82C140.612 125.917 140.479 126.055 140.387 126.22C140.296 126.385 140.25 126.571 140.254 126.76Z" fill="#120652"/>
<path d="M158.312 183.9L157.922 183.64L177.452 154.43L189.362 161.09L209.882 126.98L210.282 127.23L189.522 161.72L177.602 155.05L158.312 183.9Z" fill="#A0A0FF"/>
<path style="mix-blend-mode:screen" d="M210.079 135.539L192.189 165.269C191.459 166.5 190.277 167.397 188.895 167.771C187.513 168.144 186.041 167.964 184.789 167.269C182.811 166.158 180.485 165.835 178.278 166.365C176.072 166.895 174.147 168.24 172.889 170.129L158.109 192.199V206.199L210.109 176.199L210.079 135.539Z" fill="url(#paint8_linear_844_6779)"/>
<path d="M210.079 143L192.189 172.68C191.455 173.907 190.273 174.801 188.893 175.174C187.513 175.547 186.042 175.37 184.789 174.68C182.811 173.568 180.485 173.246 178.278 173.776C176.072 174.306 174.147 175.651 172.889 177.54L158.109 199.61V213.61L210.109 183.61L210.079 143Z" fill="url(#paint9_linear_844_6779)"/>
<path d="M210.39 195.6C214 195.6 217 197.31 217 199.41C217.002 199.602 216.979 199.794 216.93 199.98C216.45 201.81 213.71 203.21 210.41 203.21C207.11 203.21 204.41 201.81 203.9 199.98C203.849 199.794 203.822 199.602 203.82 199.41C203.8 197.31 206.75 195.6 210.39 195.6Z" fill="#E49800"/>
<path d="M210.393 196.75C213.693 196.75 216.393 198.15 216.913 199.98C216.433 201.81 213.693 203.21 210.393 203.21C207.093 203.21 204.393 201.81 203.883 199.98C204.363 198.15 207.093 196.75 210.393 196.75Z" fill="#FFB70E"/>
<path d="M201.57 199.41C201.57 200.71 202.43 202.01 204.16 203.01C206.092 203.991 208.228 204.503 210.395 204.503C212.562 204.503 214.698 203.991 216.63 203.01C218.35 202.01 219.21 200.71 219.21 199.41V202.18C219.21 203.48 218.35 204.78 216.63 205.78C214.697 206.757 212.561 207.265 210.395 207.265C208.229 207.265 206.094 206.757 204.16 205.78C202.43 204.78 201.57 203.48 201.57 202.18V199.41Z" fill="url(#paint10_linear_844_6779)"/>
<path d="M204.159 202.999C206.091 203.98 208.227 204.492 210.394 204.492C212.561 204.492 214.697 203.98 216.629 202.999C220.069 200.999 220.069 197.779 216.629 195.799C214.695 194.818 212.557 194.307 210.389 194.307C208.221 194.307 206.083 194.818 204.149 195.799C200.709 197.799 200.709 200.999 204.159 202.999ZM215.049 196.709C217.619 198.189 217.619 200.599 215.049 202.089C213.604 202.819 212.008 203.199 210.389 203.199C208.77 203.199 207.174 202.819 205.729 202.089C203.159 200.599 203.159 198.189 205.729 196.709C207.173 195.976 208.77 195.594 210.39 195.596C212.01 195.598 213.606 195.983 215.049 196.719V196.709Z" fill="#FFCC54"/>
<path d="M213.707 197.49L212.807 200.58L210.938 198.21L213.707 197.49Z" fill="#FFCC54"/>
<path d="M208.367 198.01L212.807 200.58L210.937 198.21L208.367 198.01Z" fill="#E49800"/>
<path d="M213.707 197.49L210.937 198.21L208.367 198.01L213.707 197.49Z" fill="#E49800"/>
<path d="M212.53 200.739L206.57 201.619L210.66 198.369L212.53 200.739Z" fill="#FFDD82"/>
<path d="M210.66 198.37L206.57 201.62L208.09 198.17L210.66 198.37Z" fill="#FFCC54"/>
<path d="M210.387 191.57C214.027 191.57 216.977 193.27 216.977 195.37C216.979 195.566 216.955 195.761 216.907 195.95C216.427 197.77 213.687 199.17 210.387 199.17C207.087 199.17 204.387 197.77 203.877 195.95C203.825 195.761 203.798 195.566 203.797 195.37C203.797 193.27 206.747 191.57 210.387 191.57Z" fill="#E49800"/>
<path d="M210.393 192.719C213.693 192.719 216.393 194.119 216.913 195.949C216.433 197.769 213.693 199.169 210.393 199.169C207.093 199.169 204.393 197.769 203.883 195.949C204.363 194.119 207.093 192.719 210.393 192.719Z" fill="#FFB70E"/>
<path d="M201.57 195.369C201.57 196.669 202.43 197.979 204.16 198.969C206.092 199.95 208.228 200.462 210.395 200.462C212.562 200.462 214.698 199.95 216.63 198.969C218.35 197.969 219.21 196.669 219.21 195.369V198.139C219.21 199.439 218.35 200.739 216.63 201.739C214.698 202.72 212.562 203.232 210.395 203.232C208.228 203.232 206.092 202.72 204.16 201.739C202.43 200.739 201.57 199.439 201.57 198.139V195.369Z" fill="url(#paint11_linear_844_6779)"/>
<path d="M204.159 198.999C206.091 199.98 208.227 200.492 210.394 200.492C212.561 200.492 214.697 199.98 216.629 198.999C220.069 196.999 220.069 193.789 216.629 191.799C214.695 190.818 212.557 190.307 210.389 190.307C208.221 190.307 206.083 190.818 204.149 191.799C200.709 193.759 200.709 196.999 204.159 198.999ZM215.049 192.709C217.619 194.199 217.619 196.599 215.049 198.089C213.606 198.824 212.009 199.207 210.389 199.207C208.769 199.207 207.172 198.824 205.729 198.089C203.159 196.599 203.159 194.199 205.729 192.709C207.17 191.97 208.766 191.581 210.385 191.576C212.005 191.571 213.603 191.949 215.049 192.679V192.709Z" fill="#FFCC54"/>
<path d="M213.707 193.449L212.807 196.539L210.938 194.169L213.707 193.449Z" fill="#FFCC54"/>
<path d="M208.367 193.969L212.807 196.539L210.937 194.169L208.367 193.969Z" fill="#E49800"/>
<path d="M213.707 193.449L210.937 194.169L208.367 193.969L213.707 193.449Z" fill="#E49800"/>
<path d="M212.53 196.7L206.57 197.58L210.66 194.33L212.53 196.7Z" fill="#FFDD82"/>
<path d="M210.66 194.329L206.57 197.579L208.09 194.129L210.66 194.329Z" fill="#FFCC54"/>
<path d="M210.387 187.529C214.027 187.529 216.977 189.229 216.977 191.329C216.979 191.525 216.955 191.72 216.907 191.909C216.427 193.739 213.687 195.139 210.387 195.139C207.087 195.139 204.387 193.739 203.877 191.909C203.825 191.72 203.798 191.525 203.797 191.329C203.797 189.229 206.747 187.529 210.387 187.529Z" fill="#E49800"/>
<path d="M210.393 188.68C213.693 188.68 216.393 190.08 216.913 191.91C216.433 193.74 213.693 195.14 210.393 195.14C207.093 195.14 204.393 193.74 203.883 191.91C204.363 190.08 207.093 188.68 210.393 188.68Z" fill="#FFB70E"/>
<path d="M201.57 191.328C201.57 192.638 202.43 193.938 204.16 194.928C206.092 195.909 208.228 196.421 210.395 196.421C212.562 196.421 214.698 195.909 216.63 194.928C218.35 193.928 219.21 192.638 219.21 191.328V194.098C219.21 195.398 218.35 196.708 216.63 197.698C214.698 198.679 212.562 199.191 210.395 199.191C208.228 199.191 206.092 198.679 204.16 197.698C202.43 196.698 201.57 195.398 201.57 194.098V191.328Z" fill="url(#paint12_linear_844_6779)"/>
<path d="M204.159 194.929C206.091 195.91 208.227 196.421 210.394 196.421C212.561 196.421 214.697 195.91 216.629 194.929C220.069 192.929 220.069 189.719 216.629 187.729C214.695 186.748 212.557 186.236 210.389 186.236C208.221 186.236 206.083 186.748 204.149 187.729C200.709 189.719 200.709 192.999 204.159 194.929ZM215.049 188.639C217.619 190.129 217.619 192.539 215.049 194.019C213.606 194.754 212.009 195.137 210.389 195.137C208.769 195.137 207.172 194.754 205.729 194.019C203.159 192.539 203.159 190.129 205.729 188.639C207.174 187.909 208.77 187.529 210.389 187.529C212.008 187.529 213.604 187.909 215.049 188.639Z" fill="#FFCC54"/>
<path d="M213.707 189.42L212.807 192.5L210.938 190.13L213.707 189.42Z" fill="#FFCC54"/>
<path d="M208.367 189.939L212.807 192.499L210.937 190.129L208.367 189.939Z" fill="#E49800"/>
<path d="M213.707 189.42L210.937 190.13L208.367 189.94L213.707 189.42Z" fill="#E49800"/>
<path d="M212.53 192.659L206.57 193.539L210.66 190.299L212.53 192.659Z" fill="#FFDD82"/>
<path d="M210.66 190.3L206.57 193.54L208.09 190.1L210.66 190.3Z" fill="#FFCC54"/>
<path d="M210.39 183.49C214 183.49 217 185.19 217 187.3C217.002 187.492 216.978 187.684 216.93 187.87C216.45 189.7 213.71 191.1 210.41 191.1C207.11 191.1 204.41 189.7 203.9 187.87C203.849 187.684 203.822 187.493 203.82 187.3C203.8 185.19 206.75 183.49 210.39 183.49Z" fill="#E49800"/>
<path d="M210.393 184.641C213.693 184.641 216.393 186.041 216.913 187.871C216.433 189.701 213.693 191.101 210.393 191.101C207.093 191.101 204.393 189.701 203.883 187.871C204.363 186.001 207.093 184.641 210.393 184.641Z" fill="#FFB70E"/>
<path d="M201.57 187.299C201.57 188.599 202.43 189.899 204.16 190.899C206.093 191.878 208.229 192.388 210.395 192.388C212.562 192.388 214.698 191.878 216.63 190.899C218.35 189.899 219.21 188.599 219.21 187.299V190.059C219.21 191.369 218.35 192.669 216.63 193.659C214.698 194.64 212.562 195.151 210.395 195.151C208.228 195.151 206.092 194.64 204.16 193.659C202.43 192.659 201.57 191.369 201.57 190.059V187.299Z" fill="url(#paint13_linear_844_6779)"/>
<path d="M204.159 190.9C206.092 191.878 208.228 192.388 210.394 192.388C212.56 192.388 214.696 191.878 216.629 190.9C220.069 188.9 220.069 185.68 216.629 183.7C214.695 182.718 212.557 182.207 210.389 182.207C208.221 182.207 206.083 182.718 204.149 183.7C200.709 185.68 200.709 188.91 204.159 190.9ZM215.049 184.61C217.619 186.09 217.619 188.5 215.049 189.99C213.604 190.719 212.008 191.099 210.389 191.099C208.77 191.099 207.174 190.719 205.729 189.99C203.159 188.5 203.159 186.09 205.729 184.61C207.172 183.875 208.769 183.492 210.389 183.492C212.009 183.492 213.606 183.875 215.049 184.61Z" fill="#FFCC54"/>
<path d="M213.707 185.379L212.807 188.459L210.938 186.099L213.707 185.379Z" fill="#FFCC54"/>
<path d="M208.367 185.9L212.807 188.46L210.937 186.1L208.367 185.9Z" fill="#E49800"/>
<path d="M213.707 185.379L210.937 186.099L208.367 185.899L213.707 185.379Z" fill="#E49800"/>
<path d="M212.53 188.63L206.57 189.5L210.66 186.26L212.53 188.63Z" fill="#FFDD82"/>
<path d="M210.66 186.261L206.57 189.501L208.09 186.061L210.66 186.261Z" fill="#FFCC54"/>
<path d="M210.39 179.449C214 179.449 217 181.159 217 183.259C217.002 183.451 216.979 183.643 216.93 183.829C216.45 185.659 213.71 187.059 210.41 187.059C207.11 187.059 204.41 185.659 203.9 183.829C203.849 183.644 203.822 183.452 203.82 183.259C203.8 181.159 206.75 179.449 210.39 179.449Z" fill="#E49800"/>
<path d="M210.393 180.609C213.693 180.609 216.393 182.009 216.913 183.829C216.433 185.659 213.693 187.059 210.393 187.059C207.093 187.059 204.393 185.659 203.883 183.829C204.363 181.999 207.093 180.609 210.393 180.609Z" fill="#FFB70E"/>
<path d="M201.57 183.26C201.57 184.56 202.43 185.87 204.16 186.86C206.092 187.841 208.228 188.352 210.395 188.352C212.562 188.352 214.698 187.841 216.63 186.86C218.35 185.86 219.21 184.56 219.21 183.26V186C219.21 187.3 218.35 188.6 216.63 189.6C214.698 190.581 212.562 191.092 210.395 191.092C208.228 191.092 206.092 190.581 204.16 189.6C202.43 188.6 201.57 187.3 201.57 186V183.26Z" fill="url(#paint14_linear_844_6779)"/>
<path d="M204.159 186.861C206.091 187.842 208.227 188.353 210.394 188.353C212.561 188.353 214.697 187.842 216.629 186.861C220.069 184.861 220.069 181.651 216.629 179.661C214.695 178.679 212.557 178.168 210.389 178.168C208.221 178.168 206.083 178.679 204.149 179.661C200.709 181.651 200.709 184.871 204.159 186.861ZM215.049 180.571C217.619 182.051 217.619 184.461 215.049 185.951C213.605 186.682 212.008 187.064 210.389 187.064C208.77 187.064 207.173 186.682 205.729 185.951C203.159 184.461 203.159 182.051 205.729 180.571C207.172 179.836 208.769 179.452 210.389 179.452C212.009 179.452 213.606 179.836 215.049 180.571Z" fill="#FFCC54"/>
<path d="M213.707 181.34L212.807 184.43L210.938 182.06L213.707 181.34Z" fill="#FFCC54"/>
<path d="M208.367 181.859L212.807 184.429L210.937 182.059L208.367 181.859Z" fill="#E49800"/>
<path d="M213.707 181.34L210.937 182.06L208.367 181.86L213.707 181.34Z" fill="#E49800"/>
<path d="M212.53 184.589L206.57 185.469L210.66 182.219L212.53 184.589Z" fill="#FFDD82"/>
<path d="M210.66 182.22L206.57 185.47L208.09 182.02L210.66 182.22Z" fill="#FFCC54"/>
<path d="M210.387 175.42C214.027 175.42 216.977 177.12 216.977 179.22C216.979 179.415 216.955 179.61 216.907 179.8C216.427 181.63 213.687 183 210.387 183C207.087 183 204.387 181.6 203.877 179.77C203.825 179.581 203.798 179.386 203.797 179.19C203.797 177.12 206.747 175.42 210.387 175.42Z" fill="#E49800"/>
<path d="M210.393 176.57C213.693 176.57 216.393 177.97 216.913 179.8C216.433 181.63 213.693 183 210.393 183C207.093 183 204.393 181.6 203.883 179.77C204.363 178 207.093 176.57 210.393 176.57Z" fill="#FFB70E"/>
<path d="M201.57 179.219C201.57 180.519 202.43 181.829 204.16 182.819C206.092 183.8 208.228 184.311 210.395 184.311C212.562 184.311 214.698 183.8 216.63 182.819C218.35 181.819 219.21 180.519 219.21 179.219V181.999C219.21 183.299 218.35 184.609 216.63 185.599C214.698 186.58 212.562 187.091 210.395 187.091C208.228 187.091 206.092 186.58 204.16 185.599C202.43 184.599 201.57 183.299 201.57 181.999V179.219Z" fill="url(#paint15_linear_844_6779)"/>
<path d="M204.159 182.82C206.091 183.801 208.227 184.312 210.394 184.312C212.561 184.312 214.697 183.801 216.629 182.82C220.069 180.82 220.069 177.61 216.629 175.62C214.695 174.638 212.557 174.127 210.389 174.127C208.221 174.127 206.083 174.638 204.149 175.62C200.709 177.61 200.709 180.83 204.159 182.82ZM215.049 176.53C217.619 178.02 217.619 180.43 215.049 181.91C213.606 182.645 212.009 183.028 210.389 183.028C208.769 183.028 207.172 182.645 205.729 181.91C203.159 180.43 203.159 178.02 205.729 176.53C207.174 175.8 208.77 175.42 210.389 175.42C212.008 175.42 213.604 175.8 215.049 176.53Z" fill="#FFCC54"/>
<path d="M213.707 177.311L212.807 180.391L210.938 178.021L213.707 177.311Z" fill="#FFCC54"/>
<path d="M208.367 177.82L212.807 180.39L210.937 178.02L208.367 177.82Z" fill="#E49800"/>
<path d="M213.707 177.311L210.937 178.021L208.367 177.821L213.707 177.311Z" fill="#E49800"/>
<path d="M212.53 180.55L206.57 181.43L210.66 178.18L212.53 180.55Z" fill="#FFDD82"/>
<path d="M210.66 178.18L206.57 181.43L208.09 177.99L210.66 178.18Z" fill="#FFCC54"/>
<path d="M210.387 171.379C214.027 171.379 216.977 173.079 216.977 175.179C216.979 175.374 216.955 175.569 216.907 175.759C216.427 177.589 213.687 178.999 210.387 178.999C207.087 178.999 204.387 177.599 203.877 175.769C203.825 175.58 203.798 175.385 203.797 175.189C203.797 173.079 206.747 171.379 210.387 171.379Z" fill="#E49800"/>
<path d="M210.393 172.529C213.693 172.529 216.393 173.929 216.913 175.759C216.433 177.589 213.693 178.999 210.393 178.999C207.093 178.999 204.393 177.599 203.883 175.769C204.363 173.929 207.093 172.529 210.393 172.529Z" fill="#FFB70E"/>
<path d="M201.57 175.18C201.57 176.49 202.43 177.79 204.16 178.79C206.094 179.766 208.229 180.275 210.395 180.275C212.561 180.275 214.697 179.766 216.63 178.79C218.35 177.79 219.21 176.49 219.21 175.18V178C219.21 179.31 218.35 180.61 216.63 181.6C214.698 182.581 212.562 183.092 210.395 183.092C208.228 183.092 206.092 182.581 204.16 181.6C202.43 180.6 201.57 179.31 201.57 178V175.18Z" fill="url(#paint16_linear_844_6779)"/>
<path d="M204.159 178.789C206.092 179.766 208.228 180.274 210.394 180.274C212.56 180.274 214.696 179.766 216.629 178.789C220.069 176.789 220.069 173.569 216.629 171.579C214.694 170.603 212.557 170.094 210.389 170.094C208.221 170.094 206.084 170.603 204.149 171.579C200.709 173.569 200.709 176.799 204.159 178.789ZM215.049 172.489C217.619 173.979 217.619 176.389 215.049 177.869C213.606 178.604 212.009 178.987 210.389 178.987C208.769 178.987 207.172 178.604 205.729 177.869C203.159 176.389 203.159 173.979 205.729 172.489C207.174 171.76 208.77 171.379 210.389 171.379C212.008 171.379 213.604 171.76 215.049 172.489Z" fill="#FFCC54"/>
<path d="M213.707 173.27L212.807 176.35L210.938 173.98L213.707 173.27Z" fill="#FFCC54"/>
<path d="M208.367 173.789L212.807 176.349L210.937 173.979L208.367 173.789Z" fill="#E49800"/>
<path d="M213.707 173.27L210.937 173.98L208.367 173.79L213.707 173.27Z" fill="#E49800"/>
<path d="M212.53 176.51L206.57 177.39L210.66 174.15L212.53 176.51Z" fill="#FFDD82"/>
<path d="M210.66 174.149L206.57 177.389L208.09 173.949L210.66 174.149Z" fill="#FFCC54"/>
<path d="M210.387 167.34C213.997 167.34 216.997 169.05 216.997 171.15C216.999 171.342 216.975 171.534 216.927 171.72C216.427 173.55 213.687 175 210.387 175C207.087 175 204.387 173.6 203.877 171.77C203.825 171.584 203.798 171.393 203.797 171.2C203.797 169.05 206.747 167.34 210.387 167.34Z" fill="#E49800"/>
<path d="M210.393 168.49C213.693 168.49 216.393 169.9 216.913 171.72C216.433 173.55 213.693 175 210.393 175C207.093 175 204.393 173.6 203.883 171.77C204.363 169.9 207.093 168.49 210.393 168.49Z" fill="#FFB70E"/>
<path d="M201.57 171.148C201.57 172.448 202.43 173.748 204.16 174.748C206.092 175.73 208.228 176.241 210.395 176.241C212.562 176.241 214.698 175.73 216.63 174.748C218.35 173.748 219.21 172.448 219.21 171.148V173.918C219.21 175.218 218.35 176.518 216.63 177.518C214.697 178.495 212.561 179.004 210.395 179.004C208.229 179.004 206.094 178.495 204.16 177.518C202.43 176.518 201.57 175.218 201.57 173.918V171.148Z" fill="url(#paint17_linear_844_6779)"/>
<path d="M204.159 174.749C206.091 175.73 208.227 176.242 210.394 176.242C212.561 176.242 214.697 175.73 216.629 174.749C220.069 172.749 220.069 169.539 216.629 167.549C214.695 166.568 212.557 166.057 210.389 166.057C208.221 166.057 206.083 166.568 204.149 167.549C200.709 169.539 200.709 172.759 204.159 174.749ZM215.049 168.459C217.619 169.939 217.619 172.349 215.049 173.839C213.604 174.569 212.008 174.949 210.389 174.949C208.77 174.949 207.174 174.569 205.729 173.839C203.159 172.349 203.159 169.939 205.729 168.459C207.172 167.724 208.769 167.341 210.389 167.341C212.009 167.341 213.606 167.724 215.049 168.459Z" fill="#FFCC54"/>
<path d="M213.707 169.23L212.807 172.32L210.938 169.95L213.707 169.23Z" fill="#FFCC54"/>
<path d="M208.367 169.75L212.807 172.32L210.937 169.95L208.367 169.75Z" fill="#E49800"/>
<path d="M213.707 169.23L210.937 169.95L208.367 169.75L213.707 169.23Z" fill="#E49800"/>
<path d="M212.53 172.479L206.57 173.359L210.66 170.109L212.53 172.479Z" fill="#FFDD82"/>
<path d="M210.66 170.11L206.57 173.36L208.09 169.91L210.66 170.11Z" fill="#FFCC54"/>
<path d="M190.4 207.141C194 207.141 197 208.851 197 211.001C196.999 211.197 196.972 211.392 196.92 211.581C196.44 213.401 193.71 214.801 190.41 214.801C187.11 214.801 184.41 213.401 183.89 211.581C183.842 211.391 183.818 211.196 183.82 211.001C183.81 208.851 186.76 207.141 190.4 207.141Z" fill="#E49800"/>
<path d="M190.403 208.299C193.703 208.299 196.403 209.699 196.913 211.529C196.433 213.349 193.703 214.749 190.403 214.749C187.103 214.749 184.403 213.349 183.883 211.529C184.363 209.699 187.103 208.299 190.403 208.299Z" fill="#FFB70E"/>
<path d="M181.578 211C181.578 212.3 182.438 213.61 184.158 214.6C186.092 215.581 188.23 216.093 190.398 216.093C192.567 216.093 194.704 215.581 196.638 214.6C198.358 213.6 199.218 212.3 199.218 211V213.77C199.218 215.07 198.358 216.37 196.638 217.37C194.704 218.351 192.567 218.863 190.398 218.863C188.23 218.863 186.092 218.351 184.158 217.37C182.438 216.37 181.578 215.07 181.578 213.77V211Z" fill="url(#paint18_linear_844_6779)"/>
<path d="M184.158 214.55C186.092 215.531 188.23 216.043 190.398 216.043C192.567 216.043 194.704 215.531 196.638 214.55C200.078 212.55 200.078 209.34 196.638 207.35C194.704 206.369 192.567 205.857 190.398 205.857C188.23 205.857 186.092 206.369 184.158 207.35C180.718 209.34 180.718 212.56 184.158 214.55ZM195.058 208.26C197.628 209.75 197.628 212.15 195.058 213.64C193.615 214.375 192.018 214.758 190.398 214.758C188.778 214.758 187.182 214.375 185.738 213.64C183.168 212.15 183.168 209.75 185.738 208.26C187.182 207.525 188.778 207.142 190.398 207.142C192.018 207.142 193.615 207.525 195.058 208.26Z" fill="#FFCC54"/>
<path d="M193.723 209.029L192.823 212.119L190.953 209.749L193.723 209.029Z" fill="#FFCC54"/>
<path d="M188.383 209.549L192.823 212.119L190.953 209.749L188.383 209.549Z" fill="#E49800"/>
<path d="M193.723 209.029L190.953 209.749L188.383 209.549L193.723 209.029Z" fill="#E49800"/>
<path d="M192.54 212.28L186.57 213.16L190.67 209.91L192.54 212.28Z" fill="#FFDD82"/>
<path d="M190.67 209.909L186.57 213.159L188.1 209.709L190.67 209.909Z" fill="#FFCC54"/>
<path d="M190.403 203.109C194.043 203.109 196.993 204.809 196.993 206.909C196.991 207.105 196.964 207.3 196.913 207.489C196.433 209.319 193.703 210.719 190.403 210.719C187.103 210.719 184.403 209.319 183.883 207.489C183.834 207.3 183.811 207.105 183.813 206.909C183.813 204.809 186.763 203.109 190.403 203.109Z" fill="#E49800"/>
<path d="M190.403 204.26C193.703 204.26 196.403 205.66 196.913 207.49C196.433 209.32 193.703 210.72 190.403 210.72C187.103 210.72 184.403 209.32 183.883 207.49C184.363 205.66 187.103 204.26 190.403 204.26Z" fill="#FFB70E"/>
<path d="M181.578 206.908C181.578 208.218 182.438 209.518 184.158 210.508C186.092 211.489 188.23 212.001 190.398 212.001C192.567 212.001 194.704 211.489 196.638 210.508C198.358 209.508 199.218 208.218 199.218 206.908V209.678C199.218 210.978 198.358 212.288 196.638 213.278C194.704 214.259 192.567 214.771 190.398 214.771C188.23 214.771 186.092 214.259 184.158 213.278C182.438 212.278 181.578 210.978 181.578 209.678V206.908Z" fill="url(#paint19_linear_844_6779)"/>
<path d="M184.158 210.509C186.092 211.49 188.23 212.002 190.398 212.002C192.567 212.002 194.704 211.49 196.638 210.509C200.078 208.509 200.078 205.299 196.638 203.309C194.704 202.328 192.567 201.816 190.398 201.816C188.23 201.816 186.092 202.328 184.158 203.309C180.718 205.299 180.718 208.519 184.158 210.509ZM195.058 204.219C197.628 205.709 197.628 208.119 195.058 209.599C193.615 210.334 192.018 210.717 190.398 210.717C188.778 210.717 187.182 210.334 185.738 209.599C183.168 208.119 183.168 205.709 185.738 204.219C187.183 203.489 188.779 203.109 190.398 203.109C192.017 203.109 193.613 203.489 195.058 204.219Z" fill="#FFCC54"/>
<path d="M193.723 205L192.823 208.08L190.953 205.71L193.723 205Z" fill="#FFCC54"/>
<path d="M188.383 205.52L192.823 208.08L190.953 205.71L188.383 205.52Z" fill="#E49800"/>
<path d="M193.723 205L190.953 205.71L188.383 205.52L193.723 205Z" fill="#E49800"/>
<path d="M192.54 208.239L186.57 209.119L190.67 205.869L192.54 208.239Z" fill="#FFDD82"/>
<path d="M190.67 205.87L186.57 209.12L188.1 205.68L190.67 205.87Z" fill="#FFCC54"/>
<path d="M190.403 199.07C194.043 199.07 196.993 200.77 196.993 202.88C196.991 203.073 196.964 203.265 196.913 203.45C196.433 205.28 193.703 206.68 190.403 206.68C187.103 206.68 184.403 205.28 183.883 203.45C183.835 203.264 183.811 203.073 183.813 202.88C183.813 200.77 186.763 199.07 190.403 199.07Z" fill="#E49800"/>
<path d="M190.403 200.219C193.703 200.219 196.403 201.619 196.913 203.449C196.433 205.279 193.703 206.679 190.403 206.679C187.103 206.679 184.403 205.279 183.883 203.449C184.363 201.619 187.103 200.219 190.403 200.219Z" fill="#FFB70E"/>
<path d="M181.578 202.881C181.578 204.181 182.438 205.481 184.158 206.481C186.093 207.457 188.231 207.966 190.398 207.966C192.566 207.966 194.703 207.457 196.638 206.481C198.358 205.481 199.218 204.181 199.218 202.881V205.641C199.218 206.951 198.358 208.251 196.638 209.241C194.704 210.222 192.567 210.733 190.398 210.733C188.23 210.733 186.092 210.222 184.158 209.241C182.438 208.241 181.578 206.951 181.578 205.641V202.881Z" fill="url(#paint20_linear_844_6779)"/>
<path d="M184.158 206.48C186.093 207.457 188.231 207.966 190.398 207.966C192.566 207.966 194.703 207.457 196.638 206.48C200.078 204.48 200.078 201.26 196.638 199.27C194.703 198.294 192.566 197.785 190.398 197.785C188.231 197.785 186.093 198.294 184.158 199.27C180.718 201.26 180.718 204.49 184.158 206.48ZM195.058 200.19C197.628 201.67 197.628 204.08 195.058 205.57C193.613 206.3 192.017 206.68 190.398 206.68C188.779 206.68 187.183 206.3 185.738 205.57C183.168 204.08 183.168 201.67 185.738 200.18C187.183 199.45 188.78 199.071 190.399 199.072C192.019 199.074 193.615 199.457 195.058 200.19Z" fill="#FFCC54"/>
<path d="M193.723 200.959L192.823 204.039L190.953 201.679L193.723 200.959Z" fill="#FFCC54"/>
<path d="M188.383 201.48L192.823 204.04L190.953 201.68L188.383 201.48Z" fill="#E49800"/>
<path d="M193.723 200.959L190.953 201.679L188.383 201.479L193.723 200.959Z" fill="#E49800"/>
<path d="M192.54 204.2L186.57 205.08L190.67 201.84L192.54 204.2Z" fill="#FFDD82"/>
<path d="M190.67 201.841L186.57 205.081L188.1 201.641L190.67 201.841Z" fill="#FFCC54"/>
<path d="M190.4 195C194 195 197 196.74 197 198.84C196.999 199.033 196.972 199.224 196.92 199.41C196.44 201.24 193.71 202.64 190.41 202.64C187.11 202.64 184.41 201.24 183.89 199.41C183.842 199.224 183.818 199.032 183.82 198.84C183.81 196.74 186.76 195 190.4 195Z" fill="#E49800"/>
<path d="M190.403 196.189C193.703 196.189 196.403 197.589 196.913 199.409C196.433 201.239 193.703 202.639 190.403 202.639C187.103 202.639 184.403 201.239 183.883 199.409C184.363 197.589 187.103 196.189 190.403 196.189Z" fill="#FFB70E"/>
<path d="M181.578 198.84C181.578 200.14 182.438 201.44 184.158 202.44C186.092 203.421 188.23 203.932 190.398 203.932C192.567 203.932 194.704 203.421 196.638 202.44C198.358 201.44 199.218 200.14 199.218 198.84V201.61C199.218 202.91 198.358 204.21 196.638 205.21C194.704 206.191 192.567 206.702 190.398 206.702C188.23 206.702 186.092 206.191 184.158 205.21C182.438 204.21 181.578 202.91 181.578 201.61V198.84Z" fill="url(#paint21_linear_844_6779)"/>
<path d="M184.158 202.441C186.092 203.422 188.23 203.933 190.398 203.933C192.567 203.933 194.704 203.422 196.638 202.441C200.078 200.441 200.078 197.231 196.638 195.241C194.704 194.259 192.567 193.748 190.398 193.748C188.23 193.748 186.092 194.259 184.158 195.241C180.718 197.231 180.718 200.451 184.158 202.441ZM195.058 196.151C197.628 197.631 197.628 200.041 195.058 201.531C193.613 202.26 192.017 202.64 190.398 202.64C188.779 202.64 187.183 202.26 185.738 201.531C183.168 200.041 183.168 197.631 185.738 196.151C187.182 195.416 188.778 195.033 190.398 195.033C192.018 195.033 193.615 195.416 195.058 196.151Z" fill="#FFCC54"/>
<path d="M193.723 196.92L192.823 200.01L190.953 197.64L193.723 196.92Z" fill="#FFCC54"/>
<path d="M188.383 197.439L192.823 200.009L190.953 197.639L188.383 197.439Z" fill="#E49800"/>
<path d="M193.723 196.92L190.953 197.64L188.383 197.44L193.723 196.92Z" fill="#E49800"/>
<path d="M192.54 200.169L186.57 201.049L190.67 197.799L192.54 200.169Z" fill="#FFDD82"/>
<path d="M190.67 197.8L186.57 201.05L188.1 197.6L190.67 197.8Z" fill="#FFCC54"/>
<path d="M190.4 191C194 191 197 192.7 197 194.8C196.999 194.996 196.972 195.191 196.92 195.38C196.44 197.21 193.71 198.61 190.41 198.61C187.11 198.61 184.41 197.21 183.89 195.38C183.842 195.191 183.818 194.996 183.82 194.8C183.81 192.7 186.76 191 190.4 191Z" fill="#E49800"/>
<path d="M190.403 192.15C193.703 192.15 196.403 193.55 196.913 195.38C196.433 197.21 193.703 198.61 190.403 198.61C187.103 198.61 184.403 197.21 183.883 195.38C184.363 193.55 187.103 192.15 190.403 192.15Z" fill="#FFB70E"/>
<path d="M181.578 194.799C181.578 196.099 182.438 197.409 184.158 198.399C186.092 199.38 188.23 199.891 190.398 199.891C192.567 199.891 194.704 199.38 196.638 198.399C198.358 197.399 199.218 196.099 199.218 194.799V197.569C199.218 198.869 198.358 200.179 196.638 201.169C194.704 202.15 192.567 202.661 190.398 202.661C188.23 202.661 186.092 202.15 184.158 201.169C182.438 200.169 181.578 198.869 181.578 197.569V194.799Z" fill="url(#paint22_linear_844_6779)"/>
<path d="M184.158 198.4C186.092 199.381 188.23 199.892 190.398 199.892C192.567 199.892 194.704 199.381 196.638 198.4C200.078 196.4 200.078 193.19 196.638 191.2C194.704 190.218 192.567 189.707 190.398 189.707C188.23 189.707 186.092 190.218 184.158 191.2C180.718 193.19 180.718 196.41 184.158 198.4ZM195.058 192.11C197.628 193.6 197.628 196.01 195.058 197.49C193.615 198.225 192.018 198.608 190.398 198.608C188.778 198.608 187.182 198.225 185.738 197.49C183.168 196.01 183.168 193.6 185.738 192.11C187.182 191.378 188.779 190.996 190.398 190.996C192.017 190.996 193.614 191.378 195.058 192.11Z" fill="#FFCC54"/>
<path d="M193.723 192.879L192.823 195.969L190.953 193.599L193.723 192.879Z" fill="#FFCC54"/>
<path d="M188.383 193.4L192.823 195.97L190.953 193.6L188.383 193.4Z" fill="#E49800"/>
<path d="M193.723 192.879L190.953 193.599L188.383 193.399L193.723 192.879Z" fill="#E49800"/>
<path d="M192.54 196.13L186.57 197.01L190.67 193.76L192.54 196.13Z" fill="#FFDD82"/>
<path d="M190.67 193.761L186.57 197.011L188.1 193.561L190.67 193.761Z" fill="#FFCC54"/>
<path d="M171.996 217.75C175.636 217.75 178.586 219.45 178.586 221.55C178.585 221.746 178.558 221.941 178.506 222.13C178.026 223.96 175.296 225.36 171.996 225.36C168.696 225.36 165.996 223.96 165.476 222.13C165.428 221.941 165.404 221.746 165.406 221.55C165.446 219.45 168.396 217.75 171.996 217.75Z" fill="#E49800"/>
<path d="M171.997 218.9C175.297 218.9 177.997 220.3 178.507 222.13C178.027 223.96 175.297 225.36 171.997 225.36C168.697 225.36 165.997 223.96 165.477 222.13C165.997 220.3 168.737 218.9 171.997 218.9Z" fill="#FFB70E"/>
<path d="M165.799 225.15C167.731 226.131 169.867 226.642 172.034 226.642C174.201 226.642 176.337 226.131 178.269 225.15C181.719 223.15 181.719 219.94 178.269 217.95C176.337 216.968 174.201 216.457 172.034 216.457C169.867 216.457 167.731 216.968 165.799 217.95C162.359 219.94 162.359 223.16 165.799 225.15ZM176.699 218.86C179.269 220.35 179.269 222.76 176.699 224.24C175.255 224.974 173.659 225.358 172.039 225.358C170.419 225.358 168.822 224.974 167.379 224.24C164.799 222.76 164.799 220.35 167.379 218.86C168.823 218.128 170.42 217.746 172.039 217.746C173.658 217.746 175.254 218.128 176.699 218.86Z" fill="#FFCC54"/>
<path d="M175.358 219.641L174.458 222.721L172.578 220.351L175.358 219.641Z" fill="#FFCC54"/>
<path d="M170.008 220.15L174.458 222.72L172.578 220.35L170.008 220.15Z" fill="#E49800"/>
<path d="M175.358 219.641L172.578 220.351L170.008 220.151L175.358 219.641Z" fill="#E49800"/>
<path d="M174.181 222.88L168.211 223.76L172.301 220.51L174.181 222.88Z" fill="#FFDD82"/>
<path d="M172.301 220.51L168.211 223.76L169.731 220.32L172.301 220.51Z" fill="#FFCC54"/>
<path d="M171.996 213.709C175.636 213.709 178.586 215.409 178.586 217.509C178.585 217.705 178.558 217.9 178.506 218.089C178.026 219.919 175.296 221.319 171.996 221.319C168.696 221.319 165.996 219.919 165.476 218.089C165.428 217.9 165.404 217.705 165.406 217.509C165.446 215.409 168.396 213.709 171.996 213.709Z" fill="#E49800"/>
<path d="M171.997 214.859C175.297 214.859 177.997 216.259 178.507 218.089C178.027 219.919 175.297 221.319 171.997 221.319C168.697 221.319 165.997 219.919 165.477 218.089C165.997 216.259 168.737 214.859 171.997 214.859Z" fill="#FFB70E"/>
<path d="M163.219 217.51C163.219 218.82 164.079 220.12 165.799 221.12C167.732 222.096 169.868 222.605 172.034 222.605C174.2 222.605 176.335 222.096 178.269 221.12C179.989 220.12 180.859 218.82 180.859 217.51V220.28C180.859 221.59 179.989 222.89 178.269 223.88C176.337 224.861 174.201 225.372 172.034 225.372C169.867 225.372 167.731 224.861 165.799 223.88C164.079 222.88 163.219 221.59 163.219 220.28V217.51Z" fill="url(#paint23_linear_844_6779)"/>
<path d="M165.799 221.119C167.732 222.096 169.868 222.604 172.034 222.604C174.2 222.604 176.335 222.096 178.269 221.119C181.719 219.119 181.719 215.899 178.269 213.909C176.335 212.933 174.2 212.424 172.034 212.424C169.868 212.424 167.732 212.933 165.799 213.909C162.359 215.899 162.359 219.129 165.799 221.119ZM176.699 214.819C179.269 216.309 179.269 218.719 176.699 220.199C175.255 220.934 173.659 221.317 172.039 221.317C170.419 221.317 168.822 220.934 167.379 220.199C164.799 218.719 164.799 216.309 167.379 214.819C168.824 214.09 170.42 213.709 172.039 213.709C173.658 213.709 175.254 214.09 176.699 214.819Z" fill="#FFCC54"/>
<path d="M175.358 215.6L174.458 218.68L172.578 216.31L175.358 215.6Z" fill="#FFCC54"/>
<path d="M170.008 216.119L174.458 218.679L172.578 216.309L170.008 216.119Z" fill="#E49800"/>
<path d="M175.358 215.6L172.578 216.31L170.008 216.12L175.358 215.6Z" fill="#E49800"/>
<path d="M174.181 218.84L168.211 219.72L172.301 216.48L174.181 218.84Z" fill="#FFDD82"/>
<path d="M172.301 216.479L168.211 219.719L169.731 216.279L172.301 216.479Z" fill="#FFCC54"/>
<path d="M171.996 209.67C175.636 209.67 178.586 211.38 178.586 213.48C178.585 213.673 178.558 213.864 178.506 214.05C178.026 215.88 175.296 217.28 171.996 217.28C168.696 217.28 165.996 215.88 165.476 214.05C165.428 213.864 165.404 213.672 165.406 213.48C165.446 211.38 168.396 209.67 171.996 209.67Z" fill="#E49800"/>
<path d="M171.997 210.82C175.297 210.82 177.997 212.23 178.507 214.05C178.027 215.88 175.297 217.28 171.997 217.28C168.697 217.28 165.997 215.88 165.477 214.05C165.997 212.23 168.737 210.82 171.997 210.82Z" fill="#FFB70E"/>
<path d="M163.219 213.479C163.219 214.779 164.079 216.079 165.799 217.079C167.731 218.06 169.867 218.571 172.034 218.571C174.201 218.571 176.337 218.06 178.269 217.079C179.989 216.079 180.859 214.779 180.859 213.479V216.249C180.859 217.549 179.989 218.849 178.269 219.849C176.335 220.825 174.2 221.334 172.034 221.334C169.868 221.334 167.732 220.825 165.799 219.849C164.079 218.849 163.219 217.549 163.219 216.249V213.479Z" fill="url(#paint24_linear_844_6779)"/>
<path d="M165.799 217.079C167.731 218.06 169.867 218.572 172.034 218.572C174.201 218.572 176.337 218.06 178.269 217.079C181.719 215.079 181.719 211.869 178.269 209.879C176.337 208.898 174.201 208.387 172.034 208.387C169.867 208.387 167.731 208.898 165.799 209.879C162.359 211.869 162.359 215.089 165.799 217.079ZM176.699 210.789C179.269 212.269 179.269 214.679 176.699 216.169C175.254 216.899 173.658 217.279 172.039 217.279C170.42 217.279 168.824 216.899 167.379 216.169C164.799 214.679 164.799 212.269 167.379 210.789C168.822 210.054 170.419 209.671 172.039 209.671C173.659 209.671 175.255 210.054 176.699 210.789Z" fill="#FFCC54"/>
<path d="M175.358 211.561L174.458 214.651L172.578 212.281L175.358 211.561Z" fill="#FFCC54"/>
<path d="M170.008 212.08L174.458 214.65L172.578 212.28L170.008 212.08Z" fill="#E49800"/>
<path d="M175.358 211.561L172.578 212.281L170.008 212.081L175.358 211.561Z" fill="#E49800"/>
<path d="M174.181 214.809L168.211 215.689L172.301 212.439L174.181 214.809Z" fill="#FFDD82"/>
<path d="M172.301 212.44L168.211 215.69L169.731 212.24L172.301 212.44Z" fill="#FFCC54"/>
<path d="M220.724 169.999C218.144 170.679 217.594 171.229 216.914 173.809C216.224 171.229 215.674 170.679 213.094 169.999C215.674 169.309 216.224 168.759 216.914 166.189C217.594 168.709 218.144 169.259 220.724 169.999Z" fill="white"/>
<path d="M176.996 218.099C175.276 218.559 174.906 218.929 174.456 220.649C173.996 218.929 173.626 218.559 171.906 218.099C173.626 217.639 173.996 217.269 174.456 215.549C174.906 217.269 175.276 217.639 176.996 218.099Z" fill="white"/>
<path d="M189.121 199.169C187.401 199.629 187.031 199.999 186.571 201.719C186.121 199.999 185.751 199.629 184.031 199.169C185.751 198.719 186.121 198.349 186.571 196.629C187.001 198.349 187.401 198.719 189.121 199.169Z" fill="white"/>
<path d="M209.113 174.81C207.393 175.27 207.023 175.64 206.573 177.36C206.113 175.64 205.743 175.27 204.023 174.81C205.743 174.35 206.113 173.98 206.573 172.26C207.003 174 207.393 174.35 209.113 174.81Z" fill="white"/>
</g>
<defs>
<filter id="filter0_b_844_6779" x="-26" y="174.1" width="415" height="400.9" filterUnits="userSpaceOnUse" color-interpolation-filters="sRGB">
<feFlood flood-opacity="0" result="BackgroundImageFix"/>
<feGaussianBlur in="BackgroundImageFix" stdDeviation="20"/>
<feComposite in2="SourceAlpha" operator="in" result="effect1_backgroundBlur_844_6779"/>
<feBlend mode="normal" in="SourceGraphic" in2="effect1_backgroundBlur_844_6779" result="shape"/>
</filter>
<filter id="filter1_f_844_6779" x="0" y="0" width="370" height="370" filterUnits="userSpaceOnUse" color-interpolation-filters="sRGB">
<feFlood flood-opacity="0" result="BackgroundImageFix"/>
<feBlend mode="normal" in="SourceGraphic" in2="BackgroundImageFix" result="shape"/>
<feGaussianBlur stdDeviation="50" result="effect1_foregroundBlur_844_6779"/>
</filter>
<linearGradient id="paint0_linear_844_6779" x1="21.1907" y1="203.563" x2="357.688" y2="518.007" gradientUnits="userSpaceOnUse">
<stop stop-opacity="0.25"/>
<stop offset="1" stop-color="#2D8CFF" stop-opacity="0.09"/>
</linearGradient>
<linearGradient id="paint1_linear_844_6779" x1="28.1949" y1="196" x2="414.281" y2="350.075" gradientUnits="userSpaceOnUse">
<stop stop-color="#2D8CFF" stop-opacity="0.68"/>
<stop offset="1" stop-color="#999999"/>
</linearGradient>
<linearGradient id="paint2_linear_844_6779" x1="162.93" y1="155.81" x2="131" y2="155.81" gradientUnits="userSpaceOnUse">
<stop stop-color="#6770F0"/>
<stop offset="1" stop-color="#A986FA"/>
</linearGradient>
<linearGradient id="paint3_linear_844_6779" x1="163.387" y1="156.52" x2="133.688" y2="156.52" gradientUnits="userSpaceOnUse">
<stop stop-color="white"/>
<stop offset="1" stop-color="#A69DF8"/>
</linearGradient>
<linearGradient id="paint4_linear_844_6779" x1="162.744" y1="154.78" x2="134.344" y2="154.78" gradientUnits="userSpaceOnUse">
<stop stop-color="#A69DF8"/>
<stop offset="1" stop-color="white"/>
</linearGradient>
<linearGradient id="paint5_linear_844_6779" x1="162.148" y1="154.779" x2="134.938" y2="154.779" gradientUnits="userSpaceOnUse">
<stop stop-color="#B3F4FF"/>
<stop offset="1" stop-color="#7886C9"/>
</linearGradient>
<radialGradient id="paint6_radial_844_6779" cx="0" cy="0" r="1" gradientUnits="userSpaceOnUse" gradientTransform="translate(136.068 141.65) scale(94.24 94.24)">
<stop stop-color="#0588ED"/>
<stop offset="0.08" stop-color="#0583E4"/>
<stop offset="0.2" stop-color="#0476CD"/>
<stop offset="0.35" stop-color="#0460A7"/>
<stop offset="0.53" stop-color="#034172"/>
<stop offset="0.73" stop-color="#011B2F"/>
<stop offset="0.77" stop-color="#011321"/>
<stop offset="0.81" stop-color="#010D17"/>
<stop offset="0.92" stop-color="#000406"/>
<stop offset="1"/>
</radialGradient>
<linearGradient id="paint7_linear_844_6779" x1="173.174" y1="124.689" x2="181.81" y2="214.898" gradientUnits="userSpaceOnUse">
<stop stop-color="#DAF0FF"/>
<stop offset="0.16" stop-color="#D6ECFC"/>
<stop offset="0.31" stop-color="#CBE2F2"/>
<stop offset="0.45" stop-color="#B9D0E2"/>
<stop offset="0.59" stop-color="#9FB6CA"/>
<stop offset="0.72" stop-color="#7D95AD"/>
<stop offset="0.86" stop-color="#546D88"/>
<stop offset="0.99" stop-color="#213B5B"/>
</linearGradient>
<linearGradient id="paint8_linear_844_6779" x1="158.109" y1="170.869" x2="210.079" y2="170.869" gradientUnits="userSpaceOnUse">
<stop stop-color="#7B2160"/>
<stop offset="1" stop-color="#F342BD"/>
</linearGradient>
<linearGradient id="paint9_linear_844_6779" x1="158.109" y1="178.28" x2="210.079" y2="178.28" gradientUnits="userSpaceOnUse">
<stop stop-color="#6B55F4"/>
<stop offset="1" stop-color="#45289B"/>
</linearGradient>
<linearGradient id="paint10_linear_844_6779" x1="219.243" y1="203.344" x2="201.609" y2="203.341" gradientUnits="userSpaceOnUse">
<stop stop-color="#FFB70E"/>
<stop offset="0.44" stop-color="#FFCC54"/>
<stop offset="0.7" stop-color="#FFF2D5"/>
<stop offset="1" stop-color="#FFB70E"/>
</linearGradient>
<linearGradient id="paint11_linear_844_6779" x1="219.242" y1="199.302" x2="201.599" y2="199.304" gradientUnits="userSpaceOnUse">
<stop stop-color="#FFB70E"/>
<stop offset="0.44" stop-color="#FFCC54"/>
<stop offset="0.7" stop-color="#FFF2D5"/>
<stop offset="1" stop-color="#FFB70E"/>
</linearGradient>
<linearGradient id="paint12_linear_844_6779" x1="219.247" y1="195.269" x2="201.604" y2="195.27" gradientUnits="userSpaceOnUse">
<stop stop-color="#FFB70E"/>
<stop offset="0.44" stop-color="#FFCC54"/>
<stop offset="0.7" stop-color="#FFF2D5"/>
<stop offset="1" stop-color="#FFB70E"/>
</linearGradient>
<linearGradient id="paint13_linear_844_6779" x1="219.246" y1="191.228" x2="201.603" y2="191.23" gradientUnits="userSpaceOnUse">
<stop stop-color="#FFB70E"/>
<stop offset="0.44" stop-color="#FFCC54"/>
<stop offset="0.7" stop-color="#FFF2D5"/>
<stop offset="1" stop-color="#FFB70E"/>
</linearGradient>
<linearGradient id="paint14_linear_844_6779" x1="219.245" y1="187.188" x2="201.602" y2="187.19" gradientUnits="userSpaceOnUse">
<stop stop-color="#FFB70E"/>
<stop offset="0.44" stop-color="#FFCC54"/>
<stop offset="0.7" stop-color="#FFF2D5"/>
<stop offset="1" stop-color="#FFB70E"/>
</linearGradient>
<linearGradient id="paint15_linear_844_6779" x1="219.25" y1="183.155" x2="201.607" y2="183.156" gradientUnits="userSpaceOnUse">
<stop stop-color="#FFB70E"/>
<stop offset="0.44" stop-color="#FFCC54"/>
<stop offset="0.7" stop-color="#FFF2D5"/>
<stop offset="1" stop-color="#FFB70E"/>
</linearGradient>
<linearGradient id="paint16_linear_844_6779" x1="219.24" y1="179.119" x2="201.606" y2="179.116" gradientUnits="userSpaceOnUse">
<stop stop-color="#FFB70E"/>
<stop offset="0.44" stop-color="#FFCC54"/>
<stop offset="0.7" stop-color="#FFF2D5"/>
<stop offset="1" stop-color="#FFB70E"/>
</linearGradient>
<linearGradient id="paint17_linear_844_6779" x1="219.245" y1="175.086" x2="201.611" y2="175.082" gradientUnits="userSpaceOnUse">
<stop stop-color="#FFB70E"/>
<stop offset="0.44" stop-color="#FFCC54"/>
<stop offset="0.7" stop-color="#FFF2D5"/>
<stop offset="1" stop-color="#FFB70E"/>
</linearGradient>
<linearGradient id="paint18_linear_844_6779" x1="199.253" y1="214.884" x2="181.61" y2="214.886" gradientUnits="userSpaceOnUse">
<stop stop-color="#FFB70E"/>
<stop offset="0.44" stop-color="#FFCC54"/>
<stop offset="0.7" stop-color="#FFF2D5"/>
<stop offset="1" stop-color="#FFB70E"/>
</linearGradient>
<linearGradient id="paint19_linear_844_6779" x1="199.243" y1="210.846" x2="181.609" y2="210.843" gradientUnits="userSpaceOnUse">
<stop stop-color="#FFB70E"/>
<stop offset="0.44" stop-color="#FFCC54"/>
<stop offset="0.7" stop-color="#FFF2D5"/>
<stop offset="1" stop-color="#FFB70E"/>
</linearGradient>
<linearGradient id="paint20_linear_844_6779" x1="199.248" y1="206.816" x2="181.614" y2="206.813" gradientUnits="userSpaceOnUse">
<stop stop-color="#FFB70E"/>
<stop offset="0.44" stop-color="#FFCC54"/>
<stop offset="0.7" stop-color="#FFF2D5"/>
<stop offset="1" stop-color="#FFB70E"/>
</linearGradient>
<linearGradient id="paint21_linear_844_6779" x1="199.247" y1="202.774" x2="181.613" y2="202.771" gradientUnits="userSpaceOnUse">
<stop stop-color="#FFB70E"/>
<stop offset="0.44" stop-color="#FFCC54"/>
<stop offset="0.7" stop-color="#FFF2D5"/>
<stop offset="1" stop-color="#FFB70E"/>
</linearGradient>
<linearGradient id="paint22_linear_844_6779" x1="199.247" y1="198.732" x2="181.604" y2="198.734" gradientUnits="userSpaceOnUse">
<stop stop-color="#FFB70E"/>
<stop offset="0.44" stop-color="#FFCC54"/>
<stop offset="0.7" stop-color="#FFF2D5"/>
<stop offset="1" stop-color="#FFB70E"/>
</linearGradient>
<linearGradient id="paint23_linear_844_6779" x1="180.884" y1="221.448" x2="163.241" y2="221.449" gradientUnits="userSpaceOnUse">
<stop stop-color="#FFB70E"/>
<stop offset="0.44" stop-color="#FFCC54"/>
<stop offset="0.7" stop-color="#FFF2D5"/>
<stop offset="1" stop-color="#FFB70E"/>
</linearGradient>
<linearGradient id="paint24_linear_844_6779" x1="180.889" y1="217.414" x2="163.246" y2="217.416" gradientUnits="userSpaceOnUse">
<stop stop-color="#FFB70E"/>
<stop offset="0.44" stop-color="#FFCC54"/>
<stop offset="0.7" stop-color="#FFF2D5"/>
<stop offset="1" stop-color="#FFB70E"/>
</linearGradient>
<clipPath id="clip0_844_6779">
<rect width="107.46" height="126.93" fill="white" transform="translate(131 111)"/>
</clipPath>
</defs>
</svg>
