<svg width="370" height="535" viewBox="0 0 370 535" fill="none" xmlns="http://www.w3.org/2000/svg">
<g filter="url(#filter0_b_844_6777)">
<path d="M14 227.165C14 216.18 27.6892 210.927 35.3579 218.792C146.308 332.57 216.877 328.021 327.887 217.712C335.591 210.057 349 215.355 349 226.216V523C349 529.627 343.627 535 337 535H26C19.3726 535 14 529.627 14 523V227.165Z" fill="url(#paint0_linear_844_6777)"/>
<path d="M14.4 227.165C14.4 216.561 27.6378 211.448 35.0715 219.071C90.5613 275.975 136.044 303.391 181.606 302.685C227.161 301.978 272.655 273.16 328.169 217.996C335.635 210.577 348.6 215.73 348.6 226.216V523C348.6 529.406 343.406 534.6 337 534.6H26C19.5935 534.6 14.4 529.406 14.4 523V227.165Z" stroke="url(#paint1_linear_844_6777)" stroke-opacity="0.3" stroke-width="0.8"/>
</g>
<g filter="url(#filter1_f_844_6777)">
<circle cx="185" cy="185" r="85" fill="#3C53D7"/>
</g>
<path d="M182.4 128.869L145 150.459L182.4 172.049L219.79 150.459L182.4 128.869Z" fill="url(#paint2_linear_844_6777)"/>
<path d="M204.291 150.461L182.391 137.811V143.981L204.291 156.621V150.461Z" fill="#2E1F88"/>
<path d="M182.39 137.811L160.5 150.461V156.621L182.39 143.981V137.811Z" fill="#382E98"/>
<path d="M145 153.621L182.4 175.211V188.331L145 166.741V153.621Z" fill="url(#paint3_linear_844_6777)"/>
<path d="M182.398 175.211L219.788 153.621V166.741L182.398 188.331V175.211Z" fill="url(#paint4_linear_844_6777)"/>
<path d="M145 150.461L182.4 172.051V185.161L145 163.581V150.461Z" fill="#2E1F88"/>
<path d="M182.398 172.051L219.788 150.461V163.581L182.398 185.161V172.051Z" fill="#382E98"/>
<path d="M169.93 150.459L182.39 157.649V163.809L169.93 156.619V150.459Z" fill="url(#paint5_radial_844_6777)"/>
<path d="M182.391 157.649L194.861 150.459V156.619L182.391 163.809V157.649Z" fill="url(#paint6_radial_844_6777)"/>
<path d="M169.93 150.46L182.39 143.26L194.86 150.46L182.39 157.65L169.93 150.46Z" fill="url(#paint7_radial_844_6777)"/>
<path d="M169.93 150.459L182.39 157.649V163.809L169.93 156.619V150.459Z" fill="url(#paint8_radial_844_6777)"/>
<path d="M182.391 157.649L194.861 150.459V156.619L182.391 163.809V157.649Z" fill="url(#paint9_radial_844_6777)"/>
<path d="M169.93 150.46L182.39 143.26L194.86 150.46L182.39 157.65L169.93 150.46Z" fill="url(#paint10_radial_844_6777)"/>
<path d="M169.93 150.459L182.39 157.649V163.809L169.93 156.619V150.459Z" fill="#2E1F88"/>
<path d="M182.391 157.649L194.861 150.459V156.619L182.391 163.809V157.649Z" fill="#382E98"/>
<path d="M169.93 150.46L182.39 143.26L194.86 150.46L182.39 157.65L169.93 150.46Z" fill="url(#paint11_radial_844_6777)"/>
<path d="M182.4 128.869L145 150.459L182.4 172.049L219.79 150.459L182.4 128.869ZM182.4 163.099L160.5 150.459L182.39 137.809L204.29 150.459L182.4 163.099Z" fill="url(#paint12_linear_844_6777)"/>
<g style="mix-blend-mode:color-dodge">
<path d="M169.93 150.46V91H194.86V150.46L182.39 157.65L169.93 150.46Z" fill="url(#paint13_radial_844_6777)"/>
</g>
<path d="M177.313 172.999C177.383 172.959 177.462 172.938 177.543 172.938C177.623 172.938 177.703 172.959 177.773 172.999C177.964 173.125 178.123 173.293 178.237 173.491C178.352 173.689 178.419 173.911 178.433 174.139C178.44 174.222 178.426 174.306 178.391 174.381C178.356 174.457 178.301 174.522 178.233 174.569C178.163 174.612 178.084 174.634 178.003 174.634C177.921 174.634 177.842 174.612 177.773 174.569C177.581 174.444 177.422 174.275 177.308 174.077C177.193 173.879 177.126 173.657 177.113 173.429C177.103 173.346 177.116 173.262 177.151 173.186C177.187 173.11 177.243 173.045 177.313 172.999Z" fill="#0E0751"/>
<path d="M175 171.579C175.07 171.539 175.149 171.518 175.23 171.518C175.311 171.518 175.39 171.539 175.46 171.579C175.651 171.705 175.81 171.873 175.925 172.071C176.039 172.269 176.106 172.491 176.12 172.719C176.128 172.802 176.113 172.886 176.078 172.961C176.043 173.037 175.988 173.102 175.92 173.149C175.849 173.187 175.77 173.207 175.69 173.207C175.61 173.207 175.531 173.187 175.46 173.149C175.258 173.028 175.089 172.861 174.965 172.661C174.841 172.461 174.768 172.234 174.75 171.999C174.749 171.913 174.772 171.828 174.816 171.754C174.86 171.68 174.924 171.62 175 171.579Z" fill="#87D6FF"/>
<path d="M177.311 175.729C177.382 175.692 177.461 175.672 177.541 175.672C177.622 175.672 177.701 175.692 177.771 175.729C177.963 175.855 178.122 176.023 178.236 176.221C178.351 176.419 178.418 176.641 178.431 176.869C178.439 176.952 178.425 177.036 178.39 177.111C178.354 177.187 178.3 177.252 178.231 177.299C178.161 177.337 178.082 177.357 178.001 177.357C177.921 177.357 177.842 177.337 177.771 177.299C177.58 177.174 177.421 177.005 177.307 176.807C177.192 176.609 177.125 176.387 177.111 176.159C177.104 176.076 177.118 175.993 177.153 175.917C177.188 175.842 177.243 175.777 177.311 175.729Z" fill="#87D6FF"/>
<path d="M172.591 170.219C172.66 170.177 172.739 170.154 172.821 170.154C172.902 170.154 172.981 170.177 173.051 170.219C173.242 170.345 173.401 170.513 173.515 170.711C173.63 170.909 173.697 171.131 173.711 171.359C173.722 171.44 173.709 171.523 173.673 171.597C173.638 171.671 173.58 171.732 173.509 171.773C173.438 171.814 173.357 171.832 173.275 171.826C173.193 171.82 173.115 171.79 173.051 171.739C172.86 171.614 172.7 171.445 172.586 171.247C172.471 171.049 172.404 170.827 172.391 170.599C172.391 170.525 172.41 170.451 172.445 170.385C172.479 170.319 172.529 170.262 172.591 170.219Z" fill="#87D6FF"/>
<path d="M174.997 174.37C175.066 174.327 175.146 174.305 175.227 174.305C175.308 174.305 175.388 174.327 175.457 174.37C175.648 174.495 175.807 174.664 175.922 174.862C176.036 175.059 176.103 175.281 176.117 175.51C176.129 175.591 176.116 175.674 176.08 175.747C176.044 175.821 175.987 175.882 175.916 175.923C175.845 175.964 175.763 175.983 175.681 175.977C175.599 175.971 175.521 175.94 175.457 175.89C175.266 175.764 175.107 175.596 174.992 175.398C174.877 175.2 174.811 174.978 174.797 174.75C174.798 174.675 174.816 174.601 174.851 174.535C174.886 174.469 174.936 174.412 174.997 174.37Z" fill="#87D6FF"/>
<path d="M177.31 178.521C177.38 178.48 177.459 178.459 177.54 178.459C177.621 178.459 177.7 178.48 177.77 178.521C177.961 178.646 178.12 178.815 178.235 179.013C178.35 179.21 178.416 179.432 178.43 179.661C178.439 179.742 178.426 179.825 178.39 179.899C178.355 179.973 178.299 180.036 178.23 180.081C178.16 180.121 178.081 180.142 178 180.142C177.919 180.142 177.84 180.121 177.77 180.081C177.587 179.961 177.432 179.802 177.318 179.615C177.204 179.428 177.133 179.218 177.11 179.001C177.093 178.91 177.102 178.816 177.138 178.73C177.173 178.645 177.233 178.572 177.31 178.521Z" fill="#87D6FF"/>
<path d="M170.231 168.86C170.301 168.82 170.38 168.799 170.461 168.799C170.542 168.799 170.621 168.82 170.691 168.86C170.882 168.986 171.041 169.154 171.156 169.352C171.27 169.55 171.337 169.772 171.351 170C171.359 170.083 171.344 170.167 171.309 170.243C171.274 170.318 171.219 170.383 171.151 170.43C171.082 170.473 171.002 170.495 170.921 170.495C170.84 170.495 170.76 170.473 170.691 170.43C170.493 170.307 170.327 170.139 170.207 169.939C170.087 169.739 170.016 169.513 170.001 169.28C169.996 169.196 170.015 169.112 170.055 169.037C170.096 168.963 170.157 168.902 170.231 168.86Z" fill="#0E0751"/>
<path d="M172.591 173C172.66 172.958 172.739 172.936 172.821 172.936C172.902 172.936 172.981 172.958 173.051 173C173.242 173.124 173.401 173.29 173.515 173.487C173.63 173.683 173.697 173.904 173.711 174.13C173.718 174.213 173.704 174.297 173.669 174.373C173.634 174.448 173.579 174.513 173.511 174.56C173.437 174.596 173.355 174.61 173.274 174.601C173.192 174.592 173.115 174.561 173.051 174.51C172.86 174.385 172.7 174.216 172.586 174.019C172.471 173.821 172.404 173.599 172.391 173.37C172.391 173.297 172.41 173.225 172.445 173.161C172.48 173.096 172.53 173.041 172.591 173Z" fill="#0E0751"/>
<path d="M174.999 177.161C175.068 177.118 175.148 177.096 175.229 177.096C175.31 177.096 175.39 177.118 175.459 177.161C175.65 177.286 175.809 177.455 175.924 177.653C176.038 177.85 176.105 178.072 176.119 178.301C176.127 178.382 176.113 178.464 176.077 178.538C176.042 178.612 175.987 178.675 175.919 178.721C175.85 178.763 175.77 178.785 175.689 178.785C175.608 178.785 175.528 178.763 175.459 178.721C175.268 178.597 175.109 178.431 174.994 178.234C174.88 178.038 174.813 177.818 174.799 177.591C174.791 177.508 174.806 177.424 174.841 177.349C174.876 177.273 174.93 177.208 174.999 177.161Z" fill="#0E0751"/>
<path d="M167.862 167.491C167.939 167.46 168.022 167.449 168.103 167.458C168.185 167.467 168.264 167.495 168.332 167.541C168.526 167.665 168.687 167.832 168.804 168.03C168.92 168.229 168.988 168.451 169.002 168.681C169.011 168.763 168.998 168.846 168.965 168.921C168.932 168.997 168.879 169.062 168.812 169.111C168.741 169.148 168.662 169.168 168.582 169.168C168.502 169.168 168.423 169.148 168.352 169.111C168.16 168.987 167.999 168.819 167.884 168.621C167.77 168.422 167.704 168.199 167.692 167.971C167.672 167.883 167.677 167.791 167.707 167.706C167.737 167.621 167.791 167.546 167.862 167.491Z" fill="#87D6FF"/>
<path d="M170.231 171.65C170.301 171.609 170.38 171.588 170.461 171.588C170.542 171.588 170.621 171.609 170.691 171.65C170.882 171.775 171.041 171.944 171.156 172.141C171.271 172.339 171.337 172.561 171.351 172.79C171.359 172.872 171.345 172.956 171.309 173.032C171.274 173.107 171.22 173.172 171.151 173.22C171.077 173.253 170.995 173.265 170.914 173.257C170.834 173.248 170.757 173.218 170.691 173.17C170.5 173.051 170.338 172.891 170.218 172.7C170.099 172.509 170.024 172.293 170.001 172.07C169.995 171.985 170.013 171.9 170.054 171.825C170.095 171.751 170.156 171.69 170.231 171.65Z" fill="#87D6FF"/>
<path d="M172.588 175.8C172.658 175.76 172.737 175.738 172.818 175.738C172.899 175.738 172.978 175.76 173.048 175.8C173.247 175.931 173.411 176.109 173.526 176.318C173.641 176.527 173.704 176.761 173.708 177C173.716 177.083 173.701 177.166 173.666 177.242C173.631 177.318 173.576 177.382 173.508 177.43C173.439 177.472 173.359 177.495 173.278 177.495C173.197 177.495 173.117 177.472 173.048 177.43C172.857 177.304 172.698 177.136 172.583 176.938C172.469 176.74 172.402 176.518 172.388 176.29C172.365 176.198 172.372 176.1 172.408 176.012C172.444 175.924 172.507 175.85 172.588 175.8Z" fill="#0E0751"/>
<path d="M165.503 166.13C165.578 166.095 165.662 166.082 165.745 166.09C165.827 166.099 165.906 166.13 165.973 166.18C166.163 166.307 166.32 166.475 166.433 166.673C166.546 166.871 166.611 167.093 166.623 167.32C166.632 167.401 166.619 167.483 166.586 167.557C166.552 167.631 166.499 167.694 166.433 167.74C166.363 167.781 166.283 167.802 166.203 167.802C166.122 167.802 166.043 167.781 165.973 167.74C165.78 167.617 165.62 167.449 165.505 167.25C165.39 167.052 165.324 166.829 165.313 166.6C165.296 166.512 165.305 166.421 165.339 166.338C165.373 166.254 165.429 166.182 165.503 166.13Z" fill="#87D6FF"/>
<path d="M167.86 170.28C167.932 170.24 168.013 170.219 168.095 170.219C168.178 170.219 168.259 170.24 168.33 170.28C168.531 170.409 168.696 170.585 168.813 170.792C168.93 170.999 168.994 171.232 169 171.47C169.011 171.551 168.998 171.633 168.965 171.707C168.931 171.781 168.878 171.845 168.81 171.89C168.74 171.931 168.661 171.952 168.58 171.952C168.5 171.952 168.42 171.931 168.35 171.89C168.158 171.766 167.997 171.598 167.882 171.4C167.768 171.202 167.702 170.979 167.69 170.75C167.672 170.664 167.678 170.574 167.708 170.491C167.738 170.408 167.791 170.335 167.86 170.28Z" fill="#0E0751"/>
<path d="M170.231 174.431C170.301 174.39 170.38 174.369 170.461 174.369C170.541 174.369 170.621 174.39 170.691 174.431C170.882 174.556 171.041 174.725 171.156 174.923C171.27 175.121 171.337 175.343 171.351 175.571C171.358 175.654 171.344 175.737 171.309 175.813C171.274 175.888 171.219 175.953 171.151 176.001C171.08 176.038 171.001 176.058 170.921 176.058C170.84 176.058 170.762 176.038 170.691 176.001C170.494 175.879 170.329 175.712 170.209 175.513C170.089 175.315 170.018 175.092 170.001 174.861C169.996 174.775 170.015 174.689 170.056 174.614C170.096 174.538 170.157 174.475 170.231 174.431Z" fill="#87D6FF"/>
<path d="M163.141 164.77C163.212 164.727 163.293 164.705 163.376 164.705C163.458 164.705 163.539 164.727 163.611 164.77C163.815 164.902 163.983 165.084 164.096 165.3C164.21 165.515 164.267 165.756 164.261 166C164.269 166.082 164.256 166.165 164.223 166.24C164.19 166.316 164.137 166.381 164.071 166.43C164.001 166.472 163.922 166.495 163.841 166.495C163.759 166.495 163.68 166.472 163.611 166.43C163.413 166.291 163.254 166.104 163.147 165.888C163.04 165.671 162.99 165.431 163.001 165.19C162.986 165.113 162.991 165.035 163.015 164.961C163.04 164.888 163.083 164.822 163.141 164.77Z" fill="#0E0751"/>
<path d="M165.501 168.92C165.583 168.883 165.675 168.87 165.763 168.885C165.852 168.899 165.935 168.939 166.001 169C166.19 169.124 166.348 169.291 166.461 169.488C166.573 169.684 166.639 169.904 166.651 170.13C166.661 170.212 166.649 170.295 166.615 170.371C166.582 170.446 166.529 170.512 166.461 170.56C166.392 170.602 166.313 170.625 166.231 170.625C166.15 170.625 166.071 170.602 166.001 170.56C165.81 170.437 165.65 170.27 165.536 170.074C165.421 169.878 165.354 169.657 165.341 169.43C165.313 169.338 165.313 169.241 165.342 169.15C165.37 169.059 165.426 168.978 165.501 168.92Z" fill="#87D6FF"/>
<path d="M167.86 173.07C167.936 173.035 168.02 173.021 168.102 173.03C168.185 173.039 168.264 173.07 168.33 173.12C168.524 173.244 168.685 173.412 168.802 173.61C168.918 173.808 168.986 174.031 169 174.26C169.01 174.341 168.997 174.422 168.963 174.496C168.93 174.57 168.877 174.634 168.81 174.68C168.74 174.72 168.661 174.742 168.58 174.742C168.5 174.742 168.42 174.72 168.35 174.68C168.158 174.556 167.997 174.388 167.882 174.19C167.768 173.992 167.702 173.769 167.69 173.54C167.672 173.454 167.678 173.364 167.708 173.28C167.738 173.197 167.791 173.124 167.86 173.07Z" fill="#87D6FF"/>
<path d="M160.779 163.399C160.849 163.361 160.928 163.342 161.009 163.342C161.089 163.342 161.168 163.361 161.239 163.399C161.431 163.523 161.592 163.691 161.707 163.889C161.821 164.088 161.887 164.31 161.899 164.539C161.908 164.621 161.895 164.704 161.861 164.78C161.828 164.855 161.775 164.92 161.709 164.969C161.637 165.009 161.556 165.031 161.474 165.031C161.391 165.031 161.31 165.009 161.239 164.969C161.049 164.843 160.891 164.674 160.778 164.476C160.665 164.278 160.601 164.057 160.589 163.829C160.58 163.747 160.593 163.664 160.626 163.589C160.659 163.513 160.712 163.448 160.779 163.399Z" fill="#87D6FF"/>
<path d="M163.136 167.56C163.208 167.519 163.289 167.498 163.371 167.498C163.454 167.498 163.535 167.519 163.606 167.56C163.796 167.686 163.954 167.854 164.067 168.052C164.179 168.25 164.244 168.472 164.256 168.7C164.265 168.782 164.252 168.864 164.219 168.94C164.186 169.015 164.133 169.081 164.066 169.13C163.997 169.172 163.917 169.194 163.836 169.194C163.755 169.194 163.676 169.172 163.606 169.13C163.424 169.001 163.274 168.832 163.168 168.636C163.063 168.44 163.004 168.222 162.996 168C162.978 167.92 162.981 167.838 163.006 167.76C163.03 167.683 163.075 167.613 163.136 167.56Z" fill="#87D6FF"/>
<path d="M165.499 171.71C165.57 171.67 165.651 171.648 165.734 171.648C165.816 171.648 165.897 171.67 165.969 171.71C166.158 171.836 166.316 172.005 166.429 172.203C166.542 172.401 166.607 172.622 166.619 172.85C166.628 172.932 166.615 173.015 166.581 173.09C166.548 173.166 166.495 173.231 166.429 173.28C166.359 173.322 166.28 173.345 166.199 173.345C166.118 173.345 166.038 173.322 165.969 173.28C165.776 173.156 165.615 172.988 165.501 172.79C165.386 172.592 165.32 172.369 165.309 172.14C165.298 172.058 165.31 171.974 165.343 171.898C165.377 171.822 165.43 171.757 165.499 171.71Z" fill="#87D6FF"/>
<path d="M158.418 162C158.488 161.958 158.567 161.936 158.648 161.936C158.73 161.936 158.809 161.958 158.878 162C159.071 162.124 159.232 162.292 159.346 162.491C159.461 162.689 159.527 162.912 159.538 163.14C159.549 163.221 159.536 163.303 159.503 163.377C159.469 163.451 159.416 163.515 159.348 163.56C159.277 163.601 159.196 163.622 159.113 163.622C159.031 163.622 158.95 163.601 158.878 163.56C158.689 163.434 158.531 163.266 158.418 163.068C158.305 162.87 158.24 162.648 158.228 162.42C158.221 162.34 158.235 162.259 158.268 162.186C158.302 162.112 158.353 162.048 158.418 162Z" fill="#87D6FF"/>
<path d="M160.779 166.191C160.849 166.15 160.928 166.129 161.009 166.129C161.089 166.129 161.169 166.15 161.239 166.191C161.431 166.314 161.592 166.482 161.707 166.681C161.821 166.879 161.887 167.102 161.899 167.331C161.908 167.413 161.895 167.496 161.861 167.571C161.828 167.646 161.775 167.712 161.709 167.761C161.636 167.798 161.555 167.818 161.474 167.818C161.392 167.818 161.311 167.798 161.239 167.761C161.049 167.634 160.891 167.466 160.778 167.268C160.665 167.07 160.601 166.848 160.589 166.621C160.58 166.538 160.593 166.456 160.626 166.38C160.659 166.305 160.712 166.239 160.779 166.191Z" fill="#87D6FF"/>
<path d="M163.14 170.341C163.213 170.303 163.294 170.283 163.375 170.283C163.457 170.283 163.538 170.303 163.61 170.341C163.8 170.467 163.958 170.635 164.071 170.833C164.184 171.031 164.249 171.253 164.26 171.481C164.269 171.563 164.256 171.646 164.223 171.721C164.19 171.797 164.137 171.862 164.07 171.911C164 171.948 163.921 171.968 163.84 171.968C163.76 171.968 163.681 171.948 163.61 171.911C163.427 171.781 163.276 171.611 163.17 171.413C163.064 171.215 163.006 170.995 163 170.771C162.986 170.693 162.991 170.613 163.015 170.538C163.04 170.462 163.083 170.395 163.14 170.341Z" fill="#0E0751"/>
<path d="M156.057 160.68C156.126 160.638 156.206 160.615 156.287 160.615C156.368 160.615 156.448 160.638 156.517 160.68C156.709 160.803 156.868 160.969 156.983 161.166C157.098 161.362 157.164 161.583 157.177 161.81C157.195 161.893 157.186 161.979 157.152 162.057C157.117 162.134 157.059 162.198 156.986 162.241C156.912 162.283 156.827 162.301 156.743 162.292C156.659 162.283 156.58 162.247 156.517 162.19C156.328 162.066 156.171 161.899 156.058 161.702C155.945 161.506 155.88 161.286 155.867 161.06C155.866 160.986 155.883 160.913 155.916 160.847C155.949 160.781 155.997 160.724 156.057 160.68Z" fill="#87D6FF"/>
<path d="M158.422 164.831C158.491 164.788 158.57 164.766 158.652 164.766C158.733 164.766 158.812 164.788 158.882 164.831C159.078 164.957 159.241 165.13 159.356 165.334C159.471 165.538 159.535 165.767 159.542 166.001C159.551 166.081 159.538 166.163 159.504 166.237C159.471 166.311 159.418 166.374 159.352 166.421C159.28 166.461 159.199 166.482 159.117 166.482C159.034 166.482 158.953 166.461 158.882 166.421C158.692 166.294 158.534 166.126 158.421 165.928C158.308 165.73 158.243 165.508 158.232 165.281C158.219 165.195 158.23 165.108 158.264 165.029C158.297 164.95 158.352 164.881 158.422 164.831Z" fill="#0E0751"/>
<path d="M160.778 169C160.847 168.958 160.927 168.936 161.008 168.936C161.089 168.936 161.169 168.958 161.238 169C161.431 169.124 161.591 169.292 161.706 169.491C161.821 169.689 161.886 169.912 161.898 170.14C161.907 170.221 161.894 170.303 161.861 170.377C161.827 170.451 161.774 170.514 161.708 170.56C161.636 170.601 161.555 170.622 161.473 170.622C161.39 170.622 161.31 170.601 161.238 170.56C161.048 170.434 160.89 170.266 160.777 170.068C160.665 169.87 160.6 169.648 160.588 169.42C160.581 169.34 160.594 169.259 160.628 169.186C160.661 169.112 160.713 169.048 160.778 169Z" fill="#87D6FF"/>
<path d="M153.7 159.319C153.77 159.279 153.849 159.258 153.93 159.258C154.011 159.258 154.09 159.279 154.16 159.319C154.353 159.443 154.513 159.611 154.628 159.81C154.743 160.008 154.809 160.231 154.82 160.459C154.828 160.542 154.813 160.626 154.778 160.702C154.743 160.777 154.689 160.842 154.62 160.889C154.546 160.925 154.464 160.939 154.383 160.93C154.302 160.921 154.225 160.89 154.16 160.839C153.969 160.714 153.81 160.545 153.695 160.348C153.581 160.15 153.514 159.928 153.5 159.699C153.498 159.624 153.516 159.55 153.551 159.483C153.586 159.417 153.637 159.36 153.7 159.319Z" fill="#87D6FF"/>
<path d="M156.061 163.47C156.131 163.429 156.21 163.408 156.291 163.408C156.372 163.408 156.451 163.429 156.521 163.47C156.714 163.594 156.874 163.762 156.989 163.96C157.104 164.158 157.17 164.381 157.181 164.61C157.19 164.692 157.177 164.775 157.144 164.85C157.11 164.926 157.058 164.991 156.991 165.04C156.92 165.082 156.839 165.104 156.756 165.104C156.673 165.104 156.592 165.082 156.521 165.04C156.331 164.914 156.174 164.745 156.061 164.547C155.948 164.349 155.883 164.127 155.871 163.9C155.86 163.818 155.872 163.734 155.906 163.658C155.939 163.582 155.993 163.517 156.061 163.47Z" fill="#87D6FF"/>
<path d="M158.417 167.62C158.486 167.577 158.566 167.555 158.647 167.555C158.728 167.555 158.808 167.577 158.877 167.62C159.07 167.741 159.231 167.907 159.346 168.103C159.461 168.3 159.526 168.522 159.537 168.75C159.546 168.832 159.533 168.915 159.499 168.99C159.466 169.066 159.413 169.131 159.347 169.18C159.276 169.222 159.194 169.244 159.112 169.244C159.029 169.244 158.948 169.222 158.877 169.18C158.682 169.05 158.521 168.874 158.408 168.669C158.294 168.464 158.232 168.234 158.227 168C158.225 167.925 158.241 167.852 158.274 167.786C158.307 167.719 158.356 167.662 158.417 167.62Z" fill="#0E0751"/>
<path d="M151.343 157.999C151.413 157.959 151.492 157.938 151.573 157.938C151.653 157.938 151.733 157.959 151.803 157.999C151.994 158.125 152.153 158.293 152.268 158.491C152.382 158.689 152.449 158.911 152.463 159.139C152.47 159.222 152.456 159.306 152.421 159.381C152.386 159.457 152.331 159.522 152.263 159.569C152.192 159.607 152.113 159.626 152.033 159.626C151.952 159.626 151.873 159.607 151.803 159.569C151.612 159.444 151.452 159.275 151.338 159.077C151.223 158.879 151.156 158.657 151.143 158.429C151.135 158.346 151.149 158.263 151.184 158.187C151.22 158.111 151.274 158.047 151.343 157.999Z" fill="#0E0751"/>
<path d="M153.701 162.1C153.776 162.07 153.857 162.059 153.937 162.067C154.017 162.076 154.094 162.104 154.161 162.15C154.354 162.274 154.514 162.442 154.629 162.64C154.744 162.838 154.809 163.061 154.821 163.29C154.829 163.373 154.814 163.457 154.779 163.532C154.744 163.608 154.689 163.673 154.621 163.72C154.55 163.758 154.471 163.777 154.391 163.777C154.311 163.777 154.232 163.758 154.161 163.72C153.97 163.594 153.811 163.426 153.696 163.228C153.581 163.03 153.515 162.808 153.501 162.58C153.483 162.489 153.493 162.395 153.528 162.31C153.564 162.224 153.624 162.151 153.701 162.1Z" fill="#0E0751"/>
<path d="M156.057 166.251C156.128 166.213 156.207 166.193 156.287 166.193C156.367 166.193 156.446 166.213 156.517 166.251C156.71 166.375 156.87 166.543 156.985 166.741C157.1 166.939 157.166 167.162 157.177 167.391C157.186 167.473 157.173 167.556 157.14 167.631C157.106 167.707 157.054 167.772 156.987 167.821C156.911 167.854 156.828 167.866 156.746 167.858C156.663 167.849 156.585 167.819 156.517 167.771C156.327 167.645 156.17 167.476 156.057 167.278C155.944 167.08 155.879 166.858 155.867 166.631C155.867 166.557 155.884 166.484 155.917 166.418C155.95 166.352 155.998 166.295 156.057 166.251Z" fill="#87D6FF"/>
<path d="M149.001 156.59C149.071 156.548 149.15 156.525 149.231 156.525C149.313 156.525 149.392 156.548 149.461 156.59C149.653 156.716 149.812 156.884 149.926 157.082C150.041 157.28 150.108 157.502 150.121 157.73C150.129 157.812 150.115 157.894 150.08 157.968C150.045 158.042 149.99 158.105 149.921 158.15C149.852 158.193 149.773 158.215 149.691 158.215C149.61 158.215 149.531 158.193 149.461 158.15C149.263 158.028 149.097 157.86 148.979 157.66C148.86 157.459 148.793 157.233 148.781 157C148.779 156.919 148.799 156.838 148.837 156.766C148.876 156.694 148.932 156.634 149.001 156.59Z" fill="#0E0751"/>
<path d="M151.343 160.74C151.416 160.705 151.499 160.691 151.58 160.7C151.661 160.709 151.738 160.74 151.803 160.79C151.994 160.916 152.153 161.084 152.268 161.282C152.382 161.48 152.449 161.702 152.463 161.93C152.474 162.011 152.461 162.094 152.426 162.168C152.39 162.242 152.332 162.303 152.261 162.344C152.19 162.385 152.109 162.403 152.027 162.397C151.945 162.391 151.867 162.361 151.803 162.31C151.612 162.185 151.452 162.016 151.338 161.818C151.223 161.62 151.156 161.398 151.143 161.17C151.135 161.087 151.149 161.004 151.184 160.928C151.22 160.853 151.274 160.788 151.343 160.74Z" fill="#87D6FF"/>
<path d="M153.701 164.889C153.77 164.847 153.85 164.824 153.931 164.824C154.012 164.824 154.092 164.847 154.161 164.889C154.354 165.013 154.514 165.181 154.629 165.379C154.744 165.577 154.81 165.8 154.821 166.029C154.83 166.111 154.817 166.193 154.781 166.268C154.746 166.342 154.691 166.405 154.621 166.449C154.551 166.489 154.472 166.511 154.391 166.511C154.311 166.511 154.231 166.489 154.161 166.449C153.97 166.324 153.811 166.155 153.696 165.957C153.582 165.759 153.515 165.537 153.501 165.309C153.495 165.228 153.511 165.146 153.546 165.073C153.581 164.999 153.634 164.936 153.701 164.889Z" fill="#87D6FF"/>
<path d="M148.998 159.381C149.072 159.346 149.154 159.332 149.235 159.34C149.316 159.349 149.394 159.381 149.458 159.431C149.65 159.553 149.81 159.719 149.925 159.916C150.04 160.112 150.106 160.334 150.118 160.561C150.126 160.644 150.111 160.727 150.076 160.803C150.041 160.878 149.987 160.943 149.918 160.991C149.849 161.033 149.769 161.056 149.688 161.056C149.607 161.056 149.527 161.033 149.458 160.991C149.267 160.865 149.108 160.697 148.993 160.499C148.879 160.301 148.812 160.079 148.798 159.851C148.78 159.761 148.789 159.669 148.825 159.585C148.861 159.501 148.921 159.43 148.998 159.381Z" fill="#87D6FF"/>
<path d="M151.341 163.53C151.41 163.487 151.49 163.465 151.571 163.465C151.652 163.465 151.732 163.487 151.801 163.53C151.991 163.654 152.15 163.82 152.264 164.017C152.379 164.213 152.446 164.433 152.461 164.66C152.47 164.743 152.456 164.827 152.42 164.903C152.385 164.978 152.33 165.043 152.261 165.09C152.192 165.132 152.112 165.155 152.031 165.155C151.95 165.155 151.87 165.132 151.801 165.09C151.616 164.97 151.46 164.809 151.346 164.621C151.231 164.432 151.161 164.219 151.141 164C151.124 163.91 151.134 163.818 151.17 163.734C151.205 163.651 151.265 163.58 151.341 163.53Z" fill="#0E0751"/>
<path d="M149.001 162.169C149.071 162.129 149.15 162.107 149.231 162.107C149.312 162.107 149.391 162.129 149.461 162.169C149.652 162.295 149.811 162.463 149.926 162.661C150.04 162.859 150.107 163.081 150.121 163.309C150.129 163.392 150.114 163.476 150.079 163.551C150.044 163.627 149.989 163.692 149.921 163.739C149.852 163.781 149.772 163.804 149.691 163.804C149.61 163.804 149.53 163.781 149.461 163.739C149.27 163.613 149.111 163.445 148.996 163.247C148.881 163.049 148.815 162.827 148.801 162.599C148.79 162.516 148.802 162.431 148.838 162.355C148.873 162.279 148.93 162.214 149.001 162.169Z" fill="#87D6FF"/>
<path d="M145 169.449L182.4 191.039V204.159L145 182.569V169.449Z" fill="url(#paint14_linear_844_6777)"/>
<path d="M182.398 191.039L219.788 169.449V182.569L182.398 204.159V191.039Z" fill="url(#paint15_linear_844_6777)"/>
<path d="M145 166.289L182.4 187.879V200.989L145 179.409V166.289Z" fill="#2E1F88"/>
<path d="M182.398 187.879L219.788 166.289V179.409L182.398 200.989V187.879Z" fill="#382E98"/>
<path d="M177.311 188.78C177.381 188.74 177.461 188.719 177.541 188.719C177.622 188.719 177.701 188.74 177.771 188.78C177.973 188.914 178.139 189.095 178.254 189.308C178.369 189.52 178.43 189.758 178.431 190C178.439 190.083 178.425 190.167 178.39 190.242C178.354 190.318 178.3 190.383 178.231 190.43C178.162 190.473 178.083 190.495 178.001 190.495C177.92 190.495 177.841 190.473 177.771 190.43C177.58 190.305 177.421 190.136 177.307 189.938C177.192 189.741 177.125 189.519 177.111 189.29C177.084 189.195 177.089 189.094 177.125 189.001C177.161 188.909 177.227 188.832 177.311 188.78Z" fill="#0E0751"/>
<path d="M174.999 187.409C175.069 187.369 175.148 187.348 175.229 187.348C175.31 187.348 175.389 187.369 175.459 187.409C175.65 187.535 175.809 187.703 175.924 187.901C176.038 188.099 176.105 188.321 176.119 188.549C176.127 188.632 176.112 188.716 176.077 188.791C176.042 188.867 175.987 188.932 175.919 188.979C175.848 189.017 175.769 189.037 175.689 189.037C175.609 189.037 175.53 189.017 175.459 188.979C175.268 188.854 175.109 188.685 174.994 188.487C174.88 188.289 174.813 188.068 174.799 187.839C174.791 187.756 174.806 187.673 174.841 187.597C174.876 187.522 174.93 187.457 174.999 187.409Z" fill="#87D6FF"/>
<path d="M177.309 191.559C177.38 191.522 177.459 191.502 177.539 191.502C177.62 191.502 177.699 191.522 177.769 191.559C177.96 191.685 178.12 191.853 178.234 192.051C178.349 192.249 178.416 192.471 178.429 192.699C178.437 192.782 178.423 192.866 178.388 192.941C178.352 193.017 178.298 193.082 178.229 193.129C178.155 193.159 178.073 193.171 177.993 193.162C177.913 193.153 177.836 193.125 177.769 193.079C177.578 192.954 177.419 192.785 177.305 192.587C177.19 192.389 177.123 192.168 177.109 191.939C177.11 191.865 177.129 191.791 177.163 191.725C177.198 191.659 177.248 191.602 177.309 191.559Z" fill="#87D6FF"/>
<path d="M172.591 186.049C172.66 186.007 172.739 185.984 172.821 185.984C172.902 185.984 172.981 186.007 173.051 186.049C173.242 186.175 173.401 186.343 173.515 186.541C173.63 186.739 173.697 186.961 173.711 187.189C173.722 187.27 173.709 187.353 173.673 187.427C173.638 187.501 173.58 187.562 173.509 187.603C173.438 187.644 173.357 187.662 173.275 187.656C173.193 187.65 173.115 187.62 173.051 187.569C172.86 187.444 172.7 187.275 172.586 187.077C172.471 186.879 172.404 186.658 172.391 186.429C172.391 186.355 172.41 186.281 172.445 186.215C172.479 186.149 172.529 186.092 172.591 186.049Z" fill="#87D6FF"/>
<path d="M174.997 190.2C175.066 190.157 175.146 190.135 175.227 190.135C175.308 190.135 175.388 190.157 175.457 190.2C175.648 190.325 175.807 190.494 175.922 190.692C176.036 190.889 176.103 191.111 176.117 191.34C176.129 191.421 176.116 191.504 176.08 191.577C176.044 191.651 175.987 191.712 175.916 191.753C175.845 191.794 175.763 191.813 175.681 191.807C175.599 191.801 175.521 191.77 175.457 191.72C175.266 191.594 175.107 191.426 174.992 191.228C174.877 191.03 174.811 190.808 174.797 190.58C174.798 190.505 174.816 190.432 174.851 190.365C174.886 190.299 174.936 190.243 174.997 190.2Z" fill="#87D6FF"/>
<path d="M177.309 194.35C177.383 194.317 177.464 194.304 177.545 194.313C177.626 194.322 177.703 194.352 177.769 194.4C177.96 194.526 178.119 194.694 178.233 194.892C178.348 195.09 178.415 195.312 178.429 195.54C178.438 195.622 178.424 195.705 178.389 195.779C178.353 195.853 178.298 195.916 178.229 195.96C178.159 196.001 178.079 196.022 177.999 196.022C177.918 196.022 177.838 196.001 177.769 195.96C177.577 195.835 177.418 195.666 177.304 195.468C177.189 195.27 177.122 195.049 177.109 194.82C177.093 194.731 177.104 194.639 177.139 194.556C177.175 194.472 177.233 194.401 177.309 194.35Z" fill="#87D6FF"/>
<path d="M170.231 184.691C170.301 184.65 170.38 184.629 170.461 184.629C170.542 184.629 170.621 184.65 170.691 184.691C170.882 184.816 171.041 184.985 171.156 185.182C171.27 185.38 171.337 185.602 171.351 185.831C171.359 185.914 171.344 185.997 171.309 186.073C171.274 186.148 171.219 186.213 171.151 186.261C171.082 186.303 171.002 186.325 170.921 186.325C170.84 186.325 170.76 186.303 170.691 186.261C170.493 186.137 170.327 185.969 170.207 185.769C170.087 185.569 170.016 185.343 170.001 185.111C169.996 185.026 170.015 184.942 170.055 184.867C170.096 184.793 170.157 184.732 170.231 184.691Z" fill="#0E0751"/>
<path d="M172.589 188.84C172.658 188.798 172.737 188.775 172.819 188.775C172.9 188.775 172.979 188.798 173.049 188.84C173.245 188.965 173.407 189.136 173.522 189.339C173.637 189.541 173.701 189.768 173.709 190C173.716 190.083 173.702 190.167 173.667 190.242C173.632 190.318 173.577 190.383 173.509 190.43C173.439 190.473 173.36 190.495 173.279 190.495C173.197 190.495 173.118 190.473 173.049 190.43C172.858 190.305 172.698 190.136 172.584 189.938C172.469 189.74 172.402 189.519 172.389 189.29C172.375 189.204 172.386 189.115 172.422 189.036C172.457 188.956 172.515 188.888 172.589 188.84Z" fill="#87D6FF"/>
<path d="M174.998 193C175.071 192.965 175.154 192.951 175.235 192.96C175.316 192.968 175.393 193 175.458 193.05C175.648 193.174 175.807 193.341 175.921 193.537C176.036 193.733 176.103 193.953 176.118 194.18C176.127 194.263 176.113 194.347 176.077 194.423C176.042 194.498 175.987 194.563 175.918 194.61C175.848 194.652 175.769 194.675 175.688 194.675C175.606 194.675 175.527 194.652 175.458 194.61C175.267 194.487 175.108 194.32 174.993 194.124C174.878 193.927 174.811 193.707 174.798 193.48C174.78 193.389 174.79 193.295 174.825 193.21C174.861 193.124 174.921 193.051 174.998 193Z" fill="#87D6FF"/>
<path d="M167.862 183.321C167.939 183.291 168.022 183.279 168.103 183.288C168.185 183.297 168.264 183.325 168.332 183.371C168.526 183.495 168.687 183.662 168.804 183.861C168.92 184.059 168.988 184.281 169.002 184.511C169.011 184.593 168.998 184.676 168.965 184.751C168.932 184.827 168.879 184.892 168.812 184.941C168.741 184.978 168.662 184.998 168.582 184.998C168.502 184.998 168.423 184.978 168.352 184.941C168.16 184.817 167.999 184.649 167.884 184.451C167.77 184.252 167.704 184.03 167.692 183.801C167.672 183.713 167.677 183.621 167.707 183.536C167.737 183.451 167.791 183.376 167.862 183.321Z" fill="#0E0751"/>
<path d="M170.231 187.48C170.301 187.439 170.38 187.418 170.461 187.418C170.542 187.418 170.621 187.439 170.691 187.48C170.882 187.605 171.041 187.774 171.156 187.972C171.271 188.169 171.337 188.391 171.351 188.62C171.359 188.703 171.345 188.786 171.309 188.862C171.274 188.937 171.22 189.002 171.151 189.05C171.081 189.09 171.002 189.111 170.921 189.111C170.84 189.111 170.761 189.09 170.691 189.05C170.493 188.926 170.327 188.758 170.207 188.558C170.087 188.358 170.017 188.132 170.001 187.9C169.995 187.815 170.013 187.73 170.054 187.656C170.095 187.581 170.156 187.52 170.231 187.48Z" fill="#87D6FF"/>
<path d="M172.594 191.63C172.664 191.59 172.743 191.568 172.824 191.568C172.905 191.568 172.984 191.59 173.054 191.63C173.245 191.756 173.404 191.924 173.519 192.122C173.633 192.32 173.7 192.542 173.714 192.77C173.722 192.853 173.707 192.937 173.672 193.012C173.637 193.088 173.582 193.152 173.514 193.2C173.445 193.242 173.365 193.265 173.284 193.265C173.203 193.265 173.123 193.242 173.054 193.2C172.863 193.074 172.704 192.906 172.589 192.708C172.474 192.51 172.408 192.288 172.394 192.06C172.384 191.977 172.397 191.892 172.433 191.816C172.468 191.741 172.524 191.676 172.594 191.63Z" fill="#87D6FF"/>
<path d="M165.5 182C165.575 181.951 165.661 181.926 165.75 181.926C165.839 181.926 165.926 181.951 166 182C166.19 182.126 166.348 182.295 166.46 182.493C166.573 182.69 166.638 182.912 166.65 183.14C166.659 183.22 166.646 183.302 166.613 183.376C166.58 183.45 166.527 183.513 166.46 183.56C166.39 183.6 166.311 183.621 166.23 183.621C166.149 183.621 166.07 183.6 166 183.56C165.807 183.436 165.647 183.268 165.532 183.07C165.417 182.871 165.352 182.648 165.34 182.42C165.33 182.342 165.339 182.263 165.367 182.189C165.395 182.116 165.441 182.051 165.5 182Z" fill="#87D6FF"/>
<path d="M167.86 186.11C167.932 186.07 168.013 186.049 168.095 186.049C168.178 186.049 168.259 186.07 168.33 186.11C168.531 186.239 168.696 186.415 168.813 186.622C168.93 186.83 168.994 187.062 169 187.3C169.011 187.381 168.998 187.463 168.965 187.537C168.931 187.611 168.878 187.675 168.81 187.72C168.74 187.761 168.661 187.782 168.58 187.782C168.5 187.782 168.42 187.761 168.35 187.72C168.158 187.596 167.997 187.428 167.882 187.23C167.768 187.032 167.702 186.809 167.69 186.58C167.672 186.494 167.678 186.404 167.708 186.321C167.738 186.238 167.791 186.165 167.86 186.11Z" fill="#0E0751"/>
<path d="M170.231 190.261C170.301 190.22 170.38 190.199 170.461 190.199C170.541 190.199 170.621 190.22 170.691 190.261C170.882 190.386 171.041 190.555 171.156 190.753C171.27 190.951 171.337 191.173 171.351 191.401C171.358 191.484 171.344 191.567 171.309 191.643C171.274 191.718 171.219 191.783 171.151 191.831C171.08 191.868 171.001 191.888 170.921 191.888C170.84 191.888 170.762 191.868 170.691 191.831C170.494 191.709 170.329 191.542 170.209 191.344C170.089 191.145 170.018 190.922 170.001 190.691C169.996 190.605 170.015 190.52 170.056 190.444C170.096 190.368 170.157 190.305 170.231 190.261Z" fill="#0E0751"/>
<path d="M163.137 180.599C163.213 180.564 163.297 180.55 163.379 180.559C163.462 180.568 163.541 180.599 163.607 180.649C163.798 180.772 163.957 180.939 164.07 181.135C164.183 181.332 164.247 181.553 164.257 181.779C164.266 181.861 164.253 181.944 164.22 182.02C164.187 182.095 164.134 182.161 164.067 182.209C163.998 182.252 163.919 182.274 163.837 182.274C163.756 182.274 163.677 182.252 163.607 182.209C163.414 182.073 163.258 181.891 163.151 181.68C163.045 181.469 162.992 181.235 162.997 180.999C162.986 180.926 162.993 180.851 163.017 180.782C163.042 180.712 163.083 180.649 163.137 180.599Z" fill="#0E0751"/>
<path d="M165.498 184.75C165.569 184.708 165.65 184.686 165.733 184.686C165.816 184.686 165.897 184.708 165.968 184.75C166.157 184.875 166.314 185.042 166.427 185.238C166.54 185.434 166.605 185.654 166.618 185.88C166.628 185.962 166.616 186.046 166.582 186.121C166.549 186.197 166.495 186.262 166.428 186.31C166.359 186.353 166.279 186.375 166.198 186.375C166.117 186.375 166.037 186.353 165.968 186.31C165.777 186.187 165.617 186.021 165.502 185.824C165.388 185.628 165.321 185.407 165.308 185.18C165.298 185.098 165.31 185.015 165.344 184.939C165.377 184.863 165.431 184.798 165.498 184.75Z" fill="#0E0751"/>
<path d="M167.86 188.9C167.931 188.858 168.013 188.836 168.095 188.836C168.178 188.836 168.259 188.858 168.33 188.9C168.531 189.029 168.696 189.205 168.813 189.412C168.93 189.62 168.994 189.853 169 190.09C169.01 190.171 168.997 190.253 168.963 190.327C168.93 190.401 168.877 190.464 168.81 190.51C168.74 190.551 168.661 190.572 168.58 190.572C168.5 190.572 168.42 190.551 168.35 190.51C168.158 190.387 167.997 190.219 167.882 190.02C167.768 189.822 167.702 189.599 167.69 189.37C167.672 189.284 167.678 189.194 167.708 189.111C167.738 189.028 167.791 188.955 167.86 188.9Z" fill="#87D6FF"/>
<path d="M160.779 179.229C160.849 179.192 160.928 179.172 161.009 179.172C161.089 179.172 161.168 179.192 161.239 179.229C161.431 179.353 161.592 179.521 161.707 179.719C161.821 179.918 161.887 180.14 161.899 180.369C161.908 180.451 161.895 180.534 161.861 180.61C161.828 180.685 161.775 180.751 161.709 180.799C161.637 180.84 161.556 180.861 161.474 180.861C161.391 180.861 161.31 180.84 161.239 180.799C161.049 180.673 160.891 180.504 160.778 180.306C160.665 180.108 160.601 179.887 160.589 179.659C160.58 179.577 160.593 179.494 160.626 179.419C160.659 179.343 160.712 179.278 160.779 179.229Z" fill="#87D6FF"/>
<path d="M163.141 183.39C163.213 183.349 163.294 183.328 163.376 183.328C163.459 183.328 163.54 183.349 163.611 183.39C163.801 183.516 163.959 183.684 164.072 183.882C164.185 184.08 164.25 184.302 164.261 184.53C164.27 184.612 164.257 184.695 164.224 184.77C164.191 184.846 164.138 184.911 164.071 184.96C164.002 185.002 163.923 185.024 163.841 185.024C163.76 185.024 163.681 185.002 163.611 184.96C163.427 184.829 163.275 184.657 163.169 184.457C163.063 184.258 163.006 184.036 163.001 183.81C162.986 183.733 162.99 183.654 163.015 183.581C163.039 183.507 163.083 183.441 163.141 183.39Z" fill="#0E0751"/>
<path d="M165.503 187.54C165.575 187.5 165.656 187.479 165.738 187.479C165.82 187.479 165.901 187.5 165.973 187.54C166.163 187.666 166.321 187.835 166.433 188.033C166.546 188.231 166.611 188.452 166.623 188.68C166.632 188.762 166.619 188.845 166.586 188.92C166.552 188.996 166.5 189.061 166.433 189.11C166.367 189.145 166.292 189.163 166.217 189.161C166.142 189.159 166.068 189.138 166.003 189.1C165.81 188.983 165.647 188.823 165.527 188.632C165.407 188.441 165.334 188.225 165.313 188C165.296 187.913 165.305 187.823 165.339 187.741C165.373 187.659 165.43 187.589 165.503 187.54Z" fill="#0E0751"/>
<path d="M158.418 177.87C158.488 177.827 158.567 177.805 158.648 177.805C158.73 177.805 158.809 177.827 158.878 177.87C159.071 177.993 159.232 178.161 159.346 178.36C159.461 178.558 159.527 178.781 159.538 179.01C159.549 179.09 159.536 179.172 159.503 179.246C159.469 179.321 159.416 179.384 159.348 179.43C159.277 179.47 159.196 179.491 159.113 179.491C159.031 179.491 158.95 179.47 158.878 179.43C158.689 179.303 158.531 179.135 158.418 178.937C158.305 178.739 158.24 178.517 158.228 178.29C158.221 178.209 158.235 178.128 158.268 178.055C158.302 177.981 158.353 177.917 158.418 177.87Z" fill="#0E0751"/>
<path d="M160.779 181.999C160.849 181.959 160.928 181.938 161.009 181.938C161.089 181.938 161.169 181.959 161.239 181.999C161.431 182.123 161.592 182.291 161.707 182.489C161.821 182.688 161.887 182.91 161.899 183.139C161.908 183.221 161.895 183.304 161.861 183.38C161.828 183.455 161.775 183.52 161.709 183.569C161.636 183.607 161.555 183.626 161.474 183.626C161.392 183.626 161.311 183.607 161.239 183.569C161.049 183.443 160.891 183.274 160.778 183.076C160.665 182.878 160.601 182.657 160.589 182.429C160.58 182.347 160.593 182.264 160.626 182.189C160.659 182.113 160.712 182.048 160.779 181.999Z" fill="#87D6FF"/>
<path d="M163.14 186.171C163.213 186.133 163.294 186.113 163.375 186.113C163.457 186.113 163.538 186.133 163.61 186.171C163.8 186.297 163.958 186.466 164.071 186.664C164.184 186.861 164.249 187.083 164.26 187.311C164.269 187.393 164.256 187.476 164.223 187.551C164.19 187.627 164.137 187.692 164.07 187.741C163.996 187.771 163.914 187.782 163.834 187.773C163.754 187.765 163.677 187.736 163.61 187.691C163.433 187.566 163.287 187.404 163.181 187.215C163.075 187.027 163.014 186.816 163 186.601C162.986 186.523 162.991 186.443 163.015 186.368C163.04 186.293 163.083 186.225 163.14 186.171Z" fill="#0E0751"/>
<path d="M156.057 176.51C156.126 176.468 156.206 176.445 156.287 176.445C156.368 176.445 156.448 176.468 156.517 176.51C156.709 176.633 156.868 176.799 156.983 176.996C157.098 177.192 157.164 177.413 157.177 177.64C157.195 177.723 157.186 177.809 157.152 177.887C157.117 177.964 157.059 178.028 156.986 178.071C156.912 178.113 156.827 178.131 156.743 178.122C156.659 178.113 156.58 178.077 156.517 178.02C156.328 177.896 156.171 177.729 156.058 177.532C155.945 177.336 155.88 177.116 155.867 176.89C155.866 176.816 155.883 176.743 155.916 176.677C155.949 176.611 155.997 176.554 156.057 176.51Z" fill="#87D6FF"/>
<path d="M158.418 180.661C158.488 180.618 158.567 180.596 158.648 180.596C158.73 180.596 158.809 180.618 158.878 180.661C159.071 180.784 159.232 180.952 159.346 181.151C159.461 181.349 159.527 181.572 159.538 181.801C159.548 181.881 159.535 181.963 159.501 182.037C159.468 182.111 159.415 182.174 159.348 182.221C159.277 182.261 159.196 182.282 159.113 182.282C159.031 182.282 158.95 182.261 158.878 182.221C158.689 182.094 158.531 181.926 158.418 181.728C158.305 181.53 158.24 181.308 158.228 181.081C158.221 181 158.235 180.919 158.268 180.846C158.302 180.772 158.353 180.708 158.418 180.661Z" fill="#0E0751"/>
<path d="M160.776 184.809C160.845 184.767 160.925 184.744 161.006 184.744C161.087 184.744 161.167 184.767 161.236 184.809C161.436 184.938 161.6 185.114 161.716 185.321C161.831 185.529 161.893 185.762 161.896 185.999C161.905 186.08 161.892 186.161 161.859 186.235C161.826 186.309 161.773 186.373 161.706 186.419C161.634 186.459 161.553 186.48 161.471 186.48C161.389 186.48 161.308 186.459 161.236 186.419C161.046 186.293 160.889 186.124 160.776 185.926C160.663 185.728 160.598 185.507 160.586 185.279C160.57 185.191 160.579 185.1 160.612 185.016C160.646 184.933 160.703 184.861 160.776 184.809Z" fill="#87D6FF"/>
<path d="M153.7 175.15C153.77 175.109 153.849 175.088 153.93 175.088C154.011 175.088 154.09 175.109 154.16 175.15C154.353 175.273 154.513 175.441 154.628 175.64C154.743 175.838 154.809 176.061 154.82 176.29C154.828 176.372 154.813 176.456 154.778 176.532C154.743 176.607 154.689 176.672 154.62 176.72C154.546 176.755 154.464 176.769 154.383 176.76C154.302 176.751 154.225 176.72 154.16 176.67C153.969 176.544 153.81 176.375 153.695 176.178C153.581 175.98 153.514 175.758 153.5 175.53C153.498 175.454 153.516 175.38 153.551 175.313C153.586 175.247 153.637 175.191 153.7 175.15Z" fill="#87D6FF"/>
<path d="M156.061 179.3C156.131 179.26 156.21 179.238 156.291 179.238C156.372 179.238 156.451 179.26 156.521 179.3C156.714 179.424 156.874 179.592 156.989 179.79C157.104 179.988 157.17 180.211 157.181 180.44C157.19 180.522 157.177 180.605 157.144 180.68C157.11 180.756 157.058 180.821 156.991 180.87C156.92 180.912 156.839 180.934 156.756 180.934C156.673 180.934 156.592 180.912 156.521 180.87C156.331 180.744 156.174 180.575 156.061 180.377C155.948 180.179 155.883 179.957 155.871 179.73C155.86 179.648 155.872 179.564 155.906 179.488C155.939 179.412 155.993 179.347 156.061 179.3Z" fill="#0E0751"/>
<path d="M158.419 183.45C158.489 183.407 158.568 183.385 158.649 183.385C158.731 183.385 158.81 183.407 158.879 183.45C159.073 183.571 159.234 183.737 159.348 183.933C159.463 184.13 159.529 184.352 159.539 184.58C159.548 184.662 159.535 184.745 159.502 184.82C159.469 184.896 159.416 184.961 159.349 185.01C159.278 185.052 159.197 185.074 159.114 185.074C159.032 185.074 158.951 185.052 158.879 185.01C158.69 184.884 158.532 184.715 158.419 184.517C158.306 184.319 158.241 184.097 158.229 183.87C158.22 183.789 158.233 183.707 158.267 183.633C158.3 183.56 158.353 183.496 158.419 183.45Z" fill="#0E0751"/>
<path d="M151.338 173.78C151.408 173.74 151.488 173.719 151.568 173.719C151.649 173.719 151.728 173.74 151.798 173.78C152 173.914 152.166 174.095 152.281 174.308C152.396 174.52 152.457 174.758 152.458 175C152.466 175.083 152.452 175.167 152.416 175.242C152.381 175.318 152.327 175.383 152.258 175.43C152.183 175.461 152.102 175.472 152.022 175.463C151.942 175.454 151.865 175.426 151.798 175.38C151.607 175.255 151.448 175.086 151.333 174.888C151.219 174.691 151.152 174.469 151.138 174.24C151.125 174.153 151.136 174.063 151.172 173.981C151.207 173.9 151.265 173.83 151.338 173.78Z" fill="#0E0751"/>
<path d="M153.702 177.93C153.773 177.893 153.852 177.873 153.932 177.873C154.012 177.873 154.091 177.893 154.162 177.93C154.355 178.054 154.515 178.222 154.63 178.42C154.745 178.619 154.811 178.842 154.822 179.07C154.83 179.153 154.815 179.237 154.78 179.312C154.745 179.388 154.691 179.453 154.622 179.5C154.551 179.538 154.472 179.558 154.392 179.558C154.312 179.558 154.233 179.538 154.162 179.5C153.971 179.375 153.812 179.206 153.697 179.008C153.583 178.811 153.516 178.589 153.502 178.36C153.494 178.277 153.509 178.194 153.544 178.118C153.579 178.043 153.634 177.978 153.702 177.93Z" fill="#0E0751"/>
<path d="M156.06 182.081C156.131 182.043 156.21 182.023 156.29 182.023C156.37 182.023 156.449 182.043 156.52 182.081C156.713 182.205 156.873 182.373 156.988 182.571C157.103 182.769 157.169 182.992 157.18 183.221C157.189 183.303 157.176 183.386 157.143 183.461C157.109 183.537 157.057 183.602 156.99 183.651C156.918 183.691 156.837 183.712 156.755 183.712C156.673 183.712 156.592 183.691 156.52 183.651C156.33 183.525 156.172 183.356 156.06 183.158C155.947 182.96 155.882 182.738 155.87 182.511C155.861 182.429 155.874 182.346 155.907 182.27C155.941 182.195 155.993 182.129 156.06 182.081Z" fill="#87D6FF"/>
<path d="M148.999 172.42C149.068 172.378 149.148 172.355 149.229 172.355C149.31 172.355 149.39 172.378 149.459 172.42C149.65 172.546 149.809 172.714 149.924 172.912C150.038 173.11 150.105 173.332 150.119 173.56C150.127 173.642 150.113 173.724 150.077 173.798C150.042 173.872 149.987 173.935 149.919 173.98C149.85 174.023 149.77 174.045 149.689 174.045C149.608 174.045 149.528 174.023 149.459 173.98C149.267 173.858 149.107 173.692 148.992 173.495C148.877 173.299 148.811 173.078 148.799 172.85C148.791 172.767 148.806 172.684 148.841 172.608C148.876 172.533 148.93 172.468 148.999 172.42Z" fill="#87D6FF"/>
<path d="M151.343 176.57C151.416 176.535 151.499 176.521 151.58 176.53C151.661 176.539 151.738 176.57 151.803 176.62C151.994 176.746 152.153 176.914 152.268 177.112C152.382 177.31 152.449 177.532 152.463 177.76C152.474 177.841 152.461 177.924 152.426 177.998C152.39 178.072 152.332 178.133 152.261 178.174C152.19 178.215 152.109 178.233 152.027 178.227C151.945 178.221 151.867 178.191 151.803 178.14C151.612 178.015 151.452 177.846 151.338 177.648C151.223 177.45 151.156 177.229 151.143 177C151.135 176.917 151.149 176.834 151.184 176.758C151.22 176.683 151.274 176.618 151.343 176.57Z" fill="#87D6FF"/>
<path d="M153.701 180.719C153.77 180.677 153.85 180.654 153.931 180.654C154.012 180.654 154.092 180.677 154.161 180.719C154.354 180.843 154.514 181.011 154.629 181.209C154.744 181.408 154.81 181.63 154.821 181.859C154.83 181.941 154.817 182.024 154.781 182.098C154.746 182.172 154.691 182.235 154.621 182.279C154.551 182.32 154.472 182.341 154.391 182.341C154.311 182.341 154.231 182.32 154.161 182.279C153.97 182.154 153.811 181.985 153.696 181.787C153.582 181.589 153.515 181.367 153.501 181.139C153.495 181.058 153.511 180.976 153.546 180.903C153.581 180.829 153.634 180.766 153.701 180.719Z" fill="#87D6FF"/>
<path d="M149 175.21C149.07 175.17 149.149 175.148 149.23 175.148C149.311 175.148 149.39 175.17 149.46 175.21C149.651 175.336 149.81 175.504 149.925 175.702C150.04 175.9 150.106 176.122 150.12 176.35C150.128 176.433 150.113 176.517 150.078 176.592C150.043 176.668 149.989 176.733 149.92 176.78C149.851 176.823 149.771 176.845 149.69 176.845C149.609 176.845 149.529 176.823 149.46 176.78C149.269 176.654 149.11 176.486 148.995 176.288C148.881 176.09 148.814 175.868 148.8 175.64C148.79 175.557 148.804 175.473 148.839 175.397C148.874 175.321 148.93 175.256 149 175.21Z" fill="#0E0751"/>
<path d="M151.343 179.36C151.412 179.317 151.492 179.295 151.573 179.295C151.654 179.295 151.734 179.317 151.803 179.36C151.994 179.484 152.152 179.651 152.267 179.847C152.381 180.043 152.449 180.263 152.463 180.49C152.472 180.573 152.458 180.657 152.423 180.733C152.388 180.808 152.332 180.873 152.263 180.92C152.194 180.962 152.114 180.985 152.033 180.985C151.952 180.985 151.872 180.962 151.803 180.92C151.613 180.796 151.454 180.629 151.34 180.433C151.225 180.237 151.158 180.017 151.143 179.79C151.134 179.707 151.148 179.623 151.184 179.547C151.219 179.471 151.274 179.407 151.343 179.36Z" fill="#0E0751"/>
<path d="M149.001 177.999C149.071 177.959 149.15 177.938 149.231 177.938C149.312 177.938 149.391 177.959 149.461 177.999C149.652 178.125 149.811 178.293 149.926 178.491C150.04 178.689 150.107 178.911 150.121 179.139C150.129 179.222 150.114 179.306 150.079 179.381C150.044 179.457 149.989 179.522 149.921 179.569C149.852 179.612 149.772 179.634 149.691 179.634C149.61 179.634 149.53 179.612 149.461 179.569C149.27 179.444 149.111 179.275 148.996 179.077C148.881 178.879 148.815 178.657 148.801 178.429C148.79 178.346 148.802 178.261 148.838 178.185C148.873 178.109 148.93 178.044 149.001 177.999Z" fill="#87D6FF"/>
<path d="M145 185.279L182.4 206.869V219.989L145 198.399V185.279Z" fill="url(#paint16_linear_844_6777)"/>
<path d="M182.398 206.869L219.788 185.279V198.399L182.398 219.989V206.869Z" fill="url(#paint17_linear_844_6777)"/>
<path d="M145 182.119L182.4 203.699V216.819L145 195.229V182.119Z" fill="#2E1F88"/>
<path d="M182.398 203.699L219.788 182.119V195.229L182.398 216.819V203.699Z" fill="#382E98"/>
<path d="M177.313 204.61C177.383 204.57 177.462 204.549 177.543 204.549C177.623 204.549 177.703 204.57 177.773 204.61C177.964 204.736 178.123 204.904 178.237 205.102C178.352 205.3 178.419 205.522 178.433 205.75C178.44 205.833 178.426 205.917 178.391 205.993C178.356 206.068 178.301 206.133 178.233 206.18C178.163 206.223 178.084 206.245 178.003 206.245C177.921 206.245 177.842 206.223 177.773 206.18C177.581 206.055 177.422 205.886 177.308 205.689C177.193 205.491 177.126 205.269 177.113 205.04C177.103 204.957 177.116 204.873 177.151 204.797C177.187 204.721 177.243 204.656 177.313 204.61Z" fill="#0E0751"/>
<path d="M174.998 203.241C175.072 203.208 175.154 203.195 175.234 203.204C175.315 203.213 175.392 203.243 175.458 203.291C175.649 203.417 175.808 203.585 175.922 203.783C176.037 203.981 176.104 204.203 176.118 204.431C176.125 204.514 176.111 204.597 176.076 204.673C176.041 204.749 175.986 204.813 175.918 204.861C175.847 204.899 175.768 204.918 175.688 204.918C175.607 204.918 175.528 204.899 175.458 204.861C175.267 204.735 175.107 204.567 174.993 204.369C174.878 204.171 174.811 203.949 174.798 203.721C174.78 203.63 174.79 203.536 174.825 203.451C174.861 203.365 174.921 203.292 174.998 203.241Z" fill="#87D6FF"/>
<path d="M177.309 207.389C177.38 207.352 177.459 207.332 177.539 207.332C177.62 207.332 177.699 207.352 177.769 207.389C177.96 207.515 178.12 207.683 178.234 207.881C178.349 208.079 178.416 208.301 178.429 208.529C178.437 208.612 178.423 208.696 178.388 208.771C178.352 208.847 178.298 208.912 178.229 208.959C178.155 208.99 178.073 209.001 177.993 208.992C177.913 208.983 177.836 208.955 177.769 208.909C177.578 208.784 177.419 208.615 177.305 208.417C177.19 208.22 177.123 207.998 177.109 207.769C177.11 207.695 177.129 207.621 177.163 207.555C177.198 207.489 177.248 207.432 177.309 207.389Z" fill="#87D6FF"/>
<path d="M172.593 201.881C172.666 201.846 172.749 201.832 172.83 201.84C172.911 201.849 172.988 201.881 173.053 201.931C173.244 202.056 173.403 202.225 173.518 202.423C173.632 202.621 173.699 202.843 173.713 203.071C173.724 203.152 173.711 203.235 173.676 203.308C173.64 203.382 173.582 203.443 173.511 203.484C173.44 203.525 173.359 203.544 173.277 203.538C173.195 203.532 173.117 203.502 173.053 203.451C172.862 203.325 172.702 203.157 172.588 202.959C172.473 202.761 172.406 202.539 172.393 202.311C172.385 202.228 172.399 202.144 172.434 202.069C172.47 201.993 172.524 201.928 172.593 201.881Z" fill="#87D6FF"/>
<path d="M174.997 206C175.066 205.958 175.146 205.936 175.227 205.936C175.308 205.936 175.388 205.958 175.457 206C175.648 206.126 175.807 206.294 175.922 206.492C176.036 206.69 176.103 206.912 176.117 207.14C176.129 207.222 176.116 207.304 176.08 207.378C176.044 207.452 175.987 207.513 175.916 207.554C175.845 207.595 175.763 207.614 175.681 207.608C175.599 207.602 175.521 207.571 175.457 207.52C175.266 207.395 175.107 207.226 174.992 207.029C174.877 206.831 174.811 206.609 174.797 206.38C174.798 206.306 174.816 206.232 174.851 206.166C174.886 206.1 174.936 206.043 174.997 206Z" fill="#87D6FF"/>
<path d="M177.311 210.181C177.381 210.14 177.46 210.119 177.541 210.119C177.621 210.119 177.701 210.14 177.771 210.181C177.962 210.306 178.121 210.475 178.235 210.673C178.35 210.871 178.417 211.093 178.431 211.321C178.44 211.402 178.426 211.485 178.391 211.559C178.355 211.634 178.3 211.696 178.231 211.741C178.161 211.781 178.081 211.802 178.001 211.802C177.92 211.802 177.841 211.781 177.771 211.741C177.58 211.615 177.42 211.447 177.306 211.249C177.191 211.051 177.124 210.829 177.111 210.601C177.105 210.519 177.12 210.438 177.155 210.364C177.19 210.291 177.244 210.227 177.311 210.181Z" fill="#87D6FF"/>
<path d="M170.227 200.521C170.297 200.48 170.376 200.459 170.457 200.459C170.537 200.459 170.617 200.48 170.687 200.521C170.878 200.646 171.037 200.815 171.151 201.013C171.266 201.21 171.333 201.432 171.347 201.661C171.354 201.744 171.34 201.827 171.305 201.903C171.27 201.978 171.215 202.043 171.147 202.091C171.077 202.133 170.998 202.156 170.917 202.156C170.835 202.156 170.756 202.133 170.687 202.091C170.496 201.965 170.336 201.797 170.222 201.599C170.107 201.401 170.04 201.179 170.027 200.951C170.017 200.867 170.03 200.783 170.065 200.707C170.101 200.631 170.157 200.567 170.227 200.521Z" fill="#0E0751"/>
<path d="M172.593 204.67C172.662 204.628 172.742 204.605 172.823 204.605C172.904 204.605 172.984 204.628 173.053 204.67C173.245 204.793 173.405 204.959 173.52 205.155C173.634 205.352 173.701 205.573 173.713 205.8C173.721 205.883 173.706 205.967 173.671 206.042C173.636 206.118 173.581 206.183 173.513 206.23C173.444 206.273 173.364 206.295 173.283 206.295C173.202 206.295 173.122 206.273 173.053 206.23C172.862 206.105 172.703 205.936 172.588 205.738C172.473 205.541 172.407 205.319 172.393 205.09C172.385 205.009 172.399 204.927 172.434 204.853C172.47 204.778 172.524 204.716 172.593 204.67Z" fill="#0E0751"/>
<path d="M174.999 208.82C175.073 208.785 175.155 208.771 175.236 208.78C175.317 208.789 175.394 208.82 175.459 208.87C175.649 208.994 175.808 209.161 175.923 209.357C176.037 209.553 176.104 209.774 176.119 210C176.128 210.083 176.114 210.167 176.079 210.243C176.043 210.319 175.988 210.384 175.919 210.43C175.845 210.465 175.763 210.479 175.682 210.471C175.601 210.462 175.523 210.431 175.459 210.38C175.268 210.257 175.109 210.09 174.994 209.894C174.88 209.698 174.813 209.477 174.799 209.25C174.791 209.167 174.806 209.084 174.841 209.008C174.876 208.933 174.93 208.868 174.999 208.82Z" fill="#0E0751"/>
<path d="M167.857 199.149C167.929 199.111 168.01 199.092 168.092 199.092C168.174 199.092 168.254 199.111 168.327 199.149C168.517 199.275 168.674 199.444 168.787 199.642C168.9 199.84 168.965 200.062 168.977 200.289C168.986 200.371 168.973 200.454 168.939 200.53C168.906 200.605 168.853 200.67 168.787 200.719C168.716 200.757 168.637 200.777 168.557 200.777C168.477 200.777 168.398 200.757 168.327 200.719C168.134 200.595 167.974 200.427 167.859 200.229C167.744 200.031 167.678 199.808 167.667 199.579C167.658 199.497 167.671 199.414 167.704 199.339C167.738 199.263 167.79 199.198 167.857 199.149Z" fill="#87D6FF"/>
<path d="M170.227 203.31C170.297 203.269 170.377 203.248 170.457 203.248C170.538 203.248 170.617 203.269 170.687 203.31C170.878 203.435 171.038 203.604 171.152 203.802C171.267 204 171.334 204.221 171.347 204.45C171.355 204.533 171.341 204.616 171.306 204.692C171.27 204.767 171.216 204.832 171.147 204.88C171.077 204.92 170.998 204.941 170.917 204.941C170.837 204.941 170.757 204.92 170.687 204.88C170.496 204.754 170.337 204.586 170.223 204.388C170.108 204.19 170.041 203.968 170.027 203.74C170.016 203.656 170.029 203.572 170.064 203.495C170.1 203.419 170.156 203.355 170.227 203.31Z" fill="#87D6FF"/>
<path d="M172.594 207.46C172.664 207.42 172.743 207.398 172.824 207.398C172.905 207.398 172.984 207.42 173.054 207.46C173.245 207.586 173.404 207.754 173.519 207.952C173.633 208.15 173.7 208.372 173.714 208.6C173.722 208.683 173.707 208.767 173.672 208.842C173.637 208.918 173.582 208.983 173.514 209.03C173.445 209.073 173.365 209.095 173.284 209.095C173.203 209.095 173.123 209.073 173.054 209.03C172.863 208.904 172.704 208.736 172.589 208.538C172.474 208.34 172.408 208.118 172.394 207.89C172.384 207.807 172.397 207.723 172.433 207.647C172.468 207.571 172.524 207.506 172.594 207.46Z" fill="#0E0751"/>
<path d="M165.496 197.789C165.568 197.747 165.649 197.725 165.731 197.725C165.814 197.725 165.895 197.747 165.966 197.789C166.156 197.915 166.314 198.084 166.427 198.282C166.54 198.48 166.605 198.702 166.616 198.929C166.626 199.01 166.613 199.091 166.579 199.165C166.546 199.239 166.493 199.303 166.426 199.349C166.357 199.39 166.277 199.411 166.196 199.411C166.116 199.411 166.036 199.39 165.966 199.349C165.774 199.225 165.613 199.057 165.498 198.859C165.384 198.661 165.318 198.438 165.306 198.209C165.299 198.129 165.313 198.048 165.346 197.974C165.38 197.901 165.431 197.837 165.496 197.789Z" fill="#87D6FF"/>
<path d="M167.864 201.94C167.935 201.9 168.016 201.879 168.099 201.879C168.181 201.879 168.262 201.9 168.334 201.94C168.523 202.066 168.681 202.235 168.794 202.433C168.907 202.631 168.972 202.853 168.984 203.08C168.994 203.161 168.982 203.243 168.948 203.317C168.915 203.391 168.861 203.455 168.794 203.5C168.724 203.541 168.644 203.562 168.564 203.562C168.483 203.562 168.404 203.541 168.334 203.5C168.141 203.377 167.98 203.209 167.866 203.01C167.751 202.812 167.685 202.589 167.674 202.36C167.667 202.28 167.68 202.199 167.714 202.125C167.747 202.052 167.799 201.988 167.864 201.94Z" fill="#0E0751"/>
<path d="M170.233 206.091C170.303 206.051 170.383 206.029 170.463 206.029C170.544 206.029 170.623 206.051 170.693 206.091C170.884 206.217 171.044 206.385 171.158 206.583C171.273 206.781 171.34 207.003 171.353 207.231C171.361 207.314 171.347 207.397 171.312 207.473C171.276 207.549 171.222 207.613 171.153 207.661C171.082 207.699 171.004 207.718 170.923 207.718C170.843 207.718 170.764 207.699 170.693 207.661C170.502 207.535 170.343 207.367 170.228 207.169C170.114 206.971 170.047 206.749 170.033 206.521C170.026 206.438 170.04 206.354 170.075 206.279C170.11 206.203 170.165 206.138 170.233 206.091Z" fill="#87D6FF"/>
<path d="M163.143 196.43C163.214 196.388 163.295 196.365 163.378 196.365C163.461 196.365 163.542 196.388 163.613 196.43C163.804 196.553 163.962 196.719 164.075 196.916C164.189 197.112 164.253 197.333 164.263 197.56C164.272 197.642 164.259 197.725 164.226 197.8C164.192 197.876 164.14 197.941 164.073 197.99C163.999 198.025 163.917 198.039 163.836 198.03C163.755 198.021 163.678 197.99 163.613 197.94C163.42 197.816 163.26 197.648 163.145 197.45C163.03 197.251 162.965 197.029 162.953 196.8C162.953 196.727 162.97 196.656 163.003 196.592C163.036 196.527 163.084 196.472 163.143 196.43Z" fill="#0E0751"/>
<path d="M165.498 200.58C165.569 200.538 165.65 200.516 165.733 200.516C165.816 200.516 165.897 200.538 165.968 200.58C166.157 200.705 166.314 200.872 166.427 201.068C166.54 201.264 166.605 201.484 166.618 201.71C166.628 201.792 166.616 201.876 166.582 201.951C166.549 202.027 166.495 202.092 166.428 202.14C166.359 202.183 166.279 202.205 166.198 202.205C166.117 202.205 166.037 202.183 165.968 202.14C165.777 202.017 165.617 201.851 165.502 201.654C165.388 201.458 165.321 201.237 165.308 201.01C165.298 200.928 165.31 200.845 165.344 200.769C165.377 200.693 165.431 200.628 165.498 200.58Z" fill="#87D6FF"/>
<path d="M167.864 204.731C167.935 204.688 168.016 204.666 168.099 204.666C168.181 204.666 168.263 204.688 168.334 204.731C168.523 204.857 168.681 205.025 168.794 205.223C168.907 205.421 168.972 205.643 168.984 205.871C168.993 205.951 168.98 206.033 168.947 206.107C168.913 206.181 168.86 206.244 168.794 206.291C168.724 206.331 168.644 206.352 168.564 206.352C168.483 206.352 168.404 206.331 168.334 206.291C168.141 206.167 167.98 205.999 167.866 205.8C167.751 205.602 167.685 205.379 167.674 205.151C167.667 205.07 167.68 204.989 167.714 204.916C167.747 204.842 167.799 204.778 167.864 204.731Z" fill="#87D6FF"/>
<path d="M160.784 195.059C160.855 195.022 160.934 195.002 161.014 195.002C161.094 195.002 161.173 195.022 161.244 195.059C161.437 195.183 161.597 195.351 161.712 195.549C161.827 195.748 161.892 195.97 161.904 196.199C161.913 196.281 161.9 196.364 161.866 196.44C161.833 196.515 161.78 196.581 161.714 196.629C161.638 196.662 161.555 196.675 161.472 196.666C161.39 196.657 161.311 196.627 161.244 196.579C161.054 196.453 160.896 196.284 160.783 196.086C160.671 195.888 160.606 195.667 160.594 195.439C160.593 195.365 160.61 195.293 160.643 195.227C160.676 195.161 160.724 195.103 160.784 195.059Z" fill="#87D6FF"/>
<path d="M163.14 199.22C163.212 199.179 163.293 199.158 163.375 199.158C163.457 199.158 163.538 199.179 163.61 199.22C163.8 199.346 163.958 199.515 164.07 199.713C164.183 199.91 164.248 200.132 164.26 200.36C164.269 200.442 164.256 200.525 164.223 200.6C164.189 200.676 164.137 200.741 164.07 200.79C164.001 200.832 163.921 200.855 163.84 200.855C163.759 200.855 163.679 200.832 163.61 200.79C163.417 200.666 163.257 200.498 163.142 200.3C163.027 200.101 162.961 199.878 162.95 199.65C162.938 199.567 162.949 199.483 162.983 199.407C163.016 199.331 163.071 199.266 163.14 199.22Z" fill="#87D6FF"/>
<path d="M165.499 203.37C165.57 203.33 165.651 203.309 165.734 203.309C165.816 203.309 165.897 203.33 165.969 203.37C166.158 203.496 166.316 203.665 166.429 203.863C166.542 204.061 166.607 204.282 166.619 204.51C166.628 204.592 166.615 204.675 166.581 204.751C166.548 204.826 166.495 204.891 166.429 204.94C166.359 204.982 166.28 205.005 166.199 205.005C166.118 205.005 166.038 204.982 165.969 204.94C165.776 204.816 165.615 204.648 165.501 204.45C165.386 204.252 165.32 204.029 165.309 203.8C165.298 203.718 165.31 203.634 165.343 203.558C165.377 203.482 165.43 203.417 165.499 203.37Z" fill="#87D6FF"/>
<path d="M158.418 193.7C158.488 193.657 158.567 193.635 158.648 193.635C158.73 193.635 158.809 193.657 158.878 193.7C159.071 193.823 159.232 193.992 159.346 194.19C159.461 194.388 159.527 194.611 159.538 194.84C159.549 194.92 159.536 195.002 159.503 195.077C159.469 195.151 159.416 195.214 159.348 195.26C159.277 195.3 159.196 195.321 159.113 195.321C159.031 195.321 158.95 195.3 158.878 195.26C158.689 195.134 158.531 194.965 158.418 194.767C158.305 194.569 158.24 194.347 158.228 194.12C158.221 194.039 158.235 193.958 158.268 193.885C158.302 193.811 158.353 193.747 158.418 193.7Z" fill="#87D6FF"/>
<path d="M160.78 197.85C160.854 197.817 160.936 197.804 161.016 197.813C161.097 197.822 161.174 197.852 161.24 197.9C161.427 198.02 161.584 198.182 161.699 198.373C161.814 198.564 161.882 198.778 161.9 199C161.909 199.082 161.896 199.165 161.862 199.241C161.829 199.316 161.776 199.382 161.71 199.43C161.637 199.468 161.557 199.488 161.475 199.488C161.393 199.488 161.312 199.468 161.24 199.43C161.05 199.304 160.892 199.135 160.779 198.937C160.667 198.739 160.602 198.518 160.59 198.29C160.579 198.207 160.591 198.122 160.624 198.044C160.658 197.967 160.712 197.9 160.78 197.85Z" fill="#87D6FF"/>
<path d="M163.143 202.001C163.216 201.963 163.296 201.943 163.378 201.943C163.46 201.943 163.541 201.963 163.613 202.001C163.803 202.127 163.961 202.296 164.073 202.494C164.186 202.692 164.251 202.913 164.263 203.141C164.272 203.223 164.259 203.306 164.226 203.381C164.192 203.457 164.14 203.522 164.073 203.571C163.998 203.601 163.917 203.612 163.837 203.603C163.757 203.595 163.68 203.566 163.613 203.521C163.42 203.397 163.26 203.229 163.145 203.031C163.03 202.832 162.965 202.61 162.953 202.381C162.953 202.307 162.97 202.234 163.003 202.168C163.036 202.102 163.084 202.045 163.143 202.001Z" fill="#0E0751"/>
<path d="M156.057 192.34C156.126 192.298 156.206 192.275 156.287 192.275C156.368 192.275 156.448 192.298 156.517 192.34C156.709 192.463 156.868 192.63 156.983 192.826C157.098 193.022 157.164 193.243 157.177 193.47C157.195 193.553 157.186 193.639 157.152 193.717C157.117 193.794 157.059 193.859 156.986 193.901C156.912 193.943 156.827 193.961 156.743 193.952C156.659 193.943 156.58 193.907 156.517 193.85C156.328 193.726 156.171 193.559 156.058 193.362C155.945 193.166 155.88 192.946 155.867 192.72C155.866 192.646 155.883 192.573 155.916 192.507C155.949 192.441 155.997 192.384 156.057 192.34Z" fill="#87D6FF"/>
<path d="M158.417 196.49C158.491 196.455 158.573 196.441 158.654 196.45C158.735 196.459 158.812 196.49 158.877 196.54C159.07 196.664 159.23 196.832 159.345 197.03C159.46 197.229 159.525 197.451 159.537 197.68C159.546 197.761 159.533 197.842 159.5 197.916C159.466 197.99 159.413 198.054 159.347 198.1C159.275 198.14 159.194 198.162 159.112 198.162C159.03 198.162 158.949 198.14 158.877 198.1C158.687 197.974 158.529 197.805 158.417 197.607C158.304 197.409 158.239 197.188 158.227 196.96C158.21 196.872 158.219 196.781 158.253 196.697C158.287 196.614 158.344 196.542 158.417 196.49Z" fill="#0E0751"/>
<path d="M160.778 200.639C160.847 200.597 160.927 200.574 161.008 200.574C161.089 200.574 161.169 200.597 161.238 200.639C161.431 200.763 161.591 200.931 161.706 201.129C161.821 201.327 161.886 201.55 161.898 201.779C161.907 201.86 161.894 201.941 161.861 202.015C161.827 202.089 161.774 202.153 161.708 202.199C161.636 202.239 161.555 202.261 161.473 202.261C161.39 202.261 161.31 202.239 161.238 202.199C161.048 202.073 160.89 201.904 160.777 201.706C160.665 201.508 160.6 201.287 160.588 201.059C160.581 200.979 160.594 200.898 160.628 200.824C160.661 200.751 160.713 200.687 160.778 200.639Z" fill="#87D6FF"/>
<path d="M153.696 190.999C153.766 190.959 153.845 190.938 153.926 190.938C154.007 190.938 154.086 190.959 154.156 190.999C154.349 191.123 154.509 191.291 154.624 191.489C154.739 191.688 154.805 191.91 154.816 192.139C154.824 192.222 154.809 192.306 154.774 192.381C154.739 192.457 154.685 192.522 154.616 192.569C154.547 192.612 154.467 192.634 154.386 192.634C154.305 192.634 154.225 192.612 154.156 192.569C153.965 192.444 153.806 192.275 153.691 192.077C153.577 191.879 153.51 191.657 153.496 191.429C153.485 191.346 153.498 191.261 153.533 191.185C153.569 191.109 153.625 191.044 153.696 190.999Z" fill="#87D6FF"/>
<path d="M156.061 195.13C156.131 195.09 156.21 195.068 156.291 195.068C156.372 195.068 156.451 195.09 156.521 195.13C156.714 195.254 156.874 195.422 156.989 195.62C157.104 195.818 157.17 196.041 157.181 196.27C157.19 196.352 157.177 196.435 157.144 196.51C157.11 196.586 157.058 196.651 156.991 196.7C156.92 196.742 156.839 196.765 156.756 196.765C156.673 196.765 156.592 196.742 156.521 196.7C156.331 196.574 156.174 196.405 156.061 196.207C155.948 196.009 155.883 195.788 155.871 195.56C155.86 195.478 155.872 195.394 155.906 195.318C155.939 195.242 155.993 195.177 156.061 195.13Z" fill="#87D6FF"/>
<path d="M158.419 199.28C158.489 199.237 158.568 199.215 158.649 199.215C158.731 199.215 158.81 199.237 158.879 199.28C159.073 199.401 159.234 199.567 159.348 199.764C159.463 199.96 159.529 200.182 159.539 200.41C159.548 200.492 159.535 200.575 159.502 200.65C159.469 200.726 159.416 200.791 159.349 200.84C159.278 200.882 159.197 200.904 159.114 200.904C159.032 200.904 158.951 200.882 158.879 200.84C158.69 200.714 158.532 200.545 158.419 200.347C158.306 200.149 158.241 199.927 158.229 199.7C158.22 199.619 158.233 199.537 158.267 199.464C158.3 199.39 158.353 199.326 158.419 199.28Z" fill="#0E0751"/>
<path d="M151.341 189.61C151.411 189.57 151.49 189.549 151.571 189.549C151.651 189.549 151.731 189.57 151.801 189.61C151.992 189.736 152.151 189.904 152.265 190.102C152.38 190.3 152.447 190.522 152.461 190.75C152.468 190.833 152.454 190.917 152.419 190.993C152.384 191.068 152.329 191.133 152.261 191.18C152.19 191.218 152.111 191.238 152.031 191.238C151.95 191.238 151.871 191.218 151.801 191.18C151.604 191.051 151.442 190.876 151.327 190.671C151.212 190.466 151.148 190.236 151.141 190C151.14 189.924 151.158 189.849 151.192 189.781C151.227 189.713 151.278 189.654 151.341 189.61Z" fill="#0E0751"/>
<path d="M153.703 193.76C153.774 193.723 153.853 193.703 153.933 193.703C154.014 193.703 154.093 193.723 154.163 193.76C154.37 193.894 154.539 194.077 154.655 194.295C154.77 194.512 154.828 194.755 154.823 195C154.831 195.083 154.817 195.167 154.782 195.243C154.747 195.318 154.692 195.383 154.623 195.43C154.553 195.468 154.474 195.488 154.393 195.488C154.313 195.488 154.234 195.468 154.163 195.43C153.972 195.305 153.813 195.136 153.699 194.939C153.584 194.741 153.517 194.519 153.503 194.29C153.475 194.192 153.479 194.088 153.515 193.992C153.551 193.896 153.617 193.815 153.703 193.76Z" fill="#0E0751"/>
<path d="M156.06 197.911C156.131 197.873 156.21 197.854 156.29 197.854C156.37 197.854 156.449 197.873 156.52 197.911C156.713 198.035 156.873 198.203 156.988 198.401C157.103 198.599 157.169 198.822 157.18 199.051C157.189 199.133 157.176 199.216 157.143 199.291C157.109 199.367 157.057 199.432 156.99 199.481C156.918 199.521 156.837 199.542 156.755 199.542C156.673 199.542 156.592 199.521 156.52 199.481C156.33 199.355 156.172 199.186 156.06 198.988C155.947 198.79 155.882 198.568 155.87 198.341C155.861 198.259 155.874 198.176 155.907 198.1C155.941 198.025 155.993 197.96 156.06 197.911Z" fill="#87D6FF"/>
<path d="M148.999 188.25C149.068 188.208 149.148 188.186 149.229 188.186C149.31 188.186 149.39 188.208 149.459 188.25C149.65 188.376 149.809 188.544 149.924 188.742C150.038 188.94 150.105 189.162 150.119 189.39C150.127 189.472 150.113 189.554 150.077 189.628C150.042 189.702 149.987 189.765 149.919 189.81C149.85 189.853 149.77 189.875 149.689 189.875C149.608 189.875 149.528 189.853 149.459 189.81C149.267 189.688 149.107 189.522 148.992 189.325C148.877 189.129 148.811 188.908 148.799 188.68C148.791 188.597 148.806 188.514 148.841 188.438C148.876 188.363 148.93 188.298 148.999 188.25Z" fill="#0E0751"/>
<path d="M151.341 192.401C151.41 192.358 151.489 192.336 151.571 192.336C151.652 192.336 151.731 192.358 151.801 192.401C151.992 192.526 152.151 192.695 152.265 192.893C152.38 193.091 152.447 193.313 152.461 193.541C152.472 193.622 152.459 193.705 152.423 193.779C152.388 193.852 152.33 193.914 152.259 193.954C152.188 193.995 152.107 194.014 152.025 194.008C151.943 194.002 151.865 193.972 151.801 193.921C151.61 193.795 151.45 193.627 151.336 193.429C151.221 193.231 151.154 193.009 151.141 192.781C151.141 192.706 151.16 192.633 151.195 192.567C151.229 192.501 151.279 192.444 151.341 192.401Z" fill="#87D6FF"/>
<path d="M153.696 196.549C153.766 196.507 153.845 196.484 153.926 196.484C154.008 196.484 154.087 196.507 154.156 196.549C154.349 196.673 154.51 196.841 154.624 197.039C154.739 197.238 154.805 197.46 154.816 197.689C154.826 197.771 154.812 197.854 154.776 197.928C154.741 198.002 154.686 198.065 154.616 198.109C154.546 198.15 154.467 198.171 154.386 198.171C154.306 198.171 154.226 198.15 154.156 198.109C153.969 197.987 153.812 197.823 153.698 197.631C153.584 197.438 153.515 197.222 153.496 196.999C153.485 196.913 153.497 196.825 153.533 196.746C153.568 196.667 153.625 196.598 153.696 196.549Z" fill="#87D6FF"/>
<path d="M148.997 190.999C149.067 190.959 149.146 190.938 149.227 190.938C149.308 190.938 149.387 190.959 149.457 190.999C149.648 191.125 149.807 191.293 149.922 191.491C150.036 191.689 150.103 191.911 150.117 192.139C150.125 192.222 150.11 192.306 150.075 192.381C150.04 192.457 149.985 192.522 149.917 192.569C149.843 192.604 149.761 192.618 149.68 192.609C149.599 192.601 149.521 192.569 149.457 192.519C149.266 192.394 149.107 192.225 148.992 192.027C148.877 191.829 148.811 191.607 148.797 191.379C148.796 191.304 148.814 191.23 148.849 191.164C148.884 191.097 148.935 191.041 148.997 190.999Z" fill="#0E0751"/>
<path d="M151.343 195.19C151.412 195.147 151.492 195.125 151.573 195.125C151.654 195.125 151.734 195.147 151.803 195.19C151.994 195.314 152.152 195.481 152.267 195.677C152.381 195.873 152.449 196.093 152.463 196.32C152.472 196.403 152.458 196.487 152.423 196.563C152.388 196.638 152.332 196.703 152.263 196.75C152.194 196.792 152.114 196.815 152.033 196.815C151.952 196.815 151.872 196.792 151.803 196.75C151.613 196.626 151.454 196.459 151.34 196.263C151.225 196.067 151.158 195.847 151.143 195.62C151.134 195.537 151.148 195.453 151.184 195.377C151.219 195.301 151.274 195.237 151.343 195.19Z" fill="#87D6FF"/>
<path d="M149 193.829C149.07 193.789 149.149 193.768 149.23 193.768C149.311 193.768 149.39 193.789 149.46 193.829C149.651 193.96 149.809 194.134 149.92 194.337C150.031 194.541 150.093 194.768 150.1 194.999C150.108 195.082 150.093 195.166 150.058 195.241C150.023 195.317 149.968 195.382 149.9 195.429C149.83 195.47 149.751 195.491 149.67 195.491C149.589 195.491 149.51 195.47 149.44 195.429C149.249 195.304 149.09 195.135 148.975 194.937C148.861 194.739 148.794 194.517 148.78 194.289C148.764 194.199 148.777 194.107 148.816 194.024C148.856 193.942 148.92 193.874 149 193.829Z" fill="#87D6FF"/>
<path d="M183.593 133.3V135.85L182.203 135.05V132.49L183.593 133.3Z" fill="#29AAE1"/>
<path d="M180.71 134.97V137.52L179.32 136.72V134.17L180.71 134.97Z" fill="#29AAE1"/>
<path d="M188.32 122.869C187.892 122.673 187.419 122.594 186.95 122.64C186.481 122.685 186.033 122.854 185.65 123.129L185.36 123.299L184 122.499L184.3 122.329C184.679 122.051 185.126 121.88 185.594 121.835C186.062 121.789 186.534 121.87 186.96 122.069L188.32 122.869Z" fill="#9ECDEE"/>
<path d="M187.85 114.93C187.489 114.758 187.092 114.68 186.693 114.702C186.294 114.725 185.908 114.848 185.57 115.06L184.18 114.26C184.518 114.048 184.904 113.925 185.303 113.902C185.702 113.88 186.099 113.958 186.46 114.13L187.85 114.93Z" fill="#87C3EA"/>
<path d="M181.266 132.07L184.356 130.29C185.038 129.872 185.603 129.287 185.996 128.59C186.404 127.912 186.631 127.141 186.656 126.35C186.686 126.069 186.641 125.784 186.525 125.526C186.409 125.268 186.226 125.045 185.996 124.88L184.606 124.08C184.836 124.245 185.019 124.468 185.135 124.726C185.251 124.984 185.296 125.269 185.266 125.55C185.24 126.341 185.013 127.112 184.606 127.79C184.221 128.483 183.667 129.068 182.996 129.49L179.906 131.27L181.266 132.07Z" fill="#52B1E4"/>
<path d="M181.32 124.189L184.15 122.549C184.731 122.186 185.21 121.68 185.54 121.079C185.898 120.49 186.098 119.818 186.12 119.129C186.147 118.884 186.107 118.637 186.005 118.414C185.903 118.19 185.742 117.998 185.54 117.859L184.15 117.049C184.351 117.191 184.511 117.385 184.613 117.61C184.715 117.835 184.755 118.083 184.73 118.329C184.716 119.035 184.516 119.725 184.15 120.329C183.816 120.927 183.339 121.433 182.76 121.799L179.93 123.429L181.32 124.189Z" fill="#52B1E4"/>
<path d="M178.531 121.24V133.65L177.141 132.85V120.43L178.531 121.24Z" fill="#29AAE1"/>
<path d="M178.527 133.65L176.937 134.57L175.547 133.77L177.137 132.85L178.527 133.65Z" fill="#9ECDEE"/>
<path d="M176.937 134.57V137.14L175.547 136.34V133.77L176.937 134.57Z" fill="#29AAE1"/>
<path d="M185.571 112.239L183.601 113.379L182.211 112.569L184.181 111.439L185.571 112.239Z" fill="#9ECDEE"/>
<path d="M183.601 113.38V116.19L182.211 115.39V112.57L183.601 113.38Z" fill="#29AAE1"/>
<path d="M183.599 116.189L182.669 116.729L181.289 115.929L182.209 115.389L183.599 116.189Z" fill="#9ECDEE"/>
<path d="M182.67 113.909L180.71 115.049L179.32 114.249L181.29 113.109L182.67 113.909Z" fill="#9ECDEE"/>
<path d="M180.71 115.05V117.86L179.32 117.06V114.25L180.71 115.05Z" fill="#29AAE1"/>
<path d="M180.707 117.859L176.937 120.039L175.547 119.239L179.317 117.059L180.707 117.859Z" fill="#9ECDEE"/>
<path d="M176.937 120.04V122.15L175.547 121.35V119.24L176.937 120.04Z" fill="#29AAE1"/>
<path d="M185.648 123.13L185.358 123.3C186.381 122.633 187.234 121.734 187.845 120.676C188.457 119.618 188.81 118.43 188.878 117.21C188.928 116.776 188.861 116.336 188.686 115.935C188.51 115.534 188.231 115.188 187.878 114.93C187.517 114.758 187.119 114.68 186.721 114.703C186.322 114.725 185.936 114.848 185.597 115.06V112.24L183.597 113.38V116.19L182.677 116.73V113.91L180.677 115.05V117.87L176.938 120V122.11L178.527 121.2V133.65L176.938 134.57V137.14L180.707 135V137.55L182.707 136.42V133.83L183.628 133.3V135.85L185.628 134.72V132.16H185.707C186.807 131.446 187.722 130.482 188.379 129.348C189.036 128.213 189.416 126.939 189.488 125.63V125.36C189.428 122.91 187.738 121.93 185.648 123.13ZM181.317 119.63L184.148 118C185.238 117.37 186.148 117.88 186.148 119.14C186.125 119.829 185.926 120.501 185.567 121.09C185.238 121.691 184.759 122.197 184.177 122.56L181.347 124.2L181.317 119.63ZM185.968 128.63C185.582 129.323 185.028 129.908 184.358 130.33L181.267 132.11V126.83L184.358 125C185.608 124.28 186.628 124.86 186.628 126.31C186.618 127.112 186.401 127.898 185.997 128.59L185.968 128.63Z" fill="#007FB1"/>
<path d="M145 150.24L182.56 171.53H182.22L219.79 150.24L182.39 172.22L145 150.24Z" fill="url(#paint18_linear_844_6777)"/>
<defs>
<filter id="filter0_b_844_6777" x="-26" y="174.1" width="415" height="400.9" filterUnits="userSpaceOnUse" color-interpolation-filters="sRGB">
<feFlood flood-opacity="0" result="BackgroundImageFix"/>
<feGaussianBlur in="BackgroundImageFix" stdDeviation="20"/>
<feComposite in2="SourceAlpha" operator="in" result="effect1_backgroundBlur_844_6777"/>
<feBlend mode="normal" in="SourceGraphic" in2="effect1_backgroundBlur_844_6777" result="shape"/>
</filter>
<filter id="filter1_f_844_6777" x="0" y="0" width="370" height="370" filterUnits="userSpaceOnUse" color-interpolation-filters="sRGB">
<feFlood flood-opacity="0" result="BackgroundImageFix"/>
<feBlend mode="normal" in="SourceGraphic" in2="BackgroundImageFix" result="shape"/>
<feGaussianBlur stdDeviation="50" result="effect1_foregroundBlur_844_6777"/>
</filter>
<linearGradient id="paint0_linear_844_6777" x1="21.1907" y1="203.563" x2="357.688" y2="518.007" gradientUnits="userSpaceOnUse">
<stop stop-opacity="0.25"/>
<stop offset="1" stop-color="#2D8CFF" stop-opacity="0.09"/>
</linearGradient>
<linearGradient id="paint1_linear_844_6777" x1="28.1949" y1="196" x2="414.281" y2="350.075" gradientUnits="userSpaceOnUse">
<stop stop-color="#2D8CFF" stop-opacity="0.68"/>
<stop offset="1" stop-color="#999999"/>
</linearGradient>
<linearGradient id="paint2_linear_844_6777" x1="145" y1="150.459" x2="219.79" y2="150.459" gradientUnits="userSpaceOnUse">
<stop stop-color="#6B55F4"/>
<stop offset="1" stop-color="#45289B"/>
</linearGradient>
<linearGradient id="paint3_linear_844_6777" x1="145" y1="170.971" x2="182.4" y2="170.971" gradientUnits="userSpaceOnUse">
<stop stop-color="#6BC2F4"/>
<stop offset="1" stop-color="#5877C8"/>
</linearGradient>
<linearGradient id="paint4_linear_844_6777" x1="182.398" y1="170.971" x2="219.788" y2="170.971" gradientUnits="userSpaceOnUse">
<stop stop-color="#6BC2F4"/>
<stop offset="1" stop-color="#5877C8"/>
</linearGradient>
<radialGradient id="paint5_radial_844_6777" cx="0" cy="0" r="1" gradientUnits="userSpaceOnUse" gradientTransform="translate(175.74 165.539) scale(15.85)">
<stop stop-color="#0588ED"/>
<stop offset="1"/>
</radialGradient>
<radialGradient id="paint6_radial_844_6777" cx="0" cy="0" r="1" gradientUnits="userSpaceOnUse" gradientTransform="translate(188.211 165.539) scale(15.85 15.85)">
<stop stop-color="#0588ED"/>
<stop offset="1"/>
</radialGradient>
<radialGradient id="paint7_radial_844_6777" cx="0" cy="0" r="1" gradientUnits="userSpaceOnUse" gradientTransform="translate(181.56 159.51) scale(30.99 30.99)">
<stop stop-color="#0588ED"/>
<stop offset="1"/>
</radialGradient>
<radialGradient id="paint8_radial_844_6777" cx="0" cy="0" r="1" gradientUnits="userSpaceOnUse" gradientTransform="translate(175.74 165.539) scale(15.85)">
<stop stop-color="#0588ED"/>
<stop offset="1"/>
</radialGradient>
<radialGradient id="paint9_radial_844_6777" cx="0" cy="0" r="1" gradientUnits="userSpaceOnUse" gradientTransform="translate(188.211 165.539) scale(15.85 15.85)">
<stop stop-color="#0588ED"/>
<stop offset="1"/>
</radialGradient>
<radialGradient id="paint10_radial_844_6777" cx="0" cy="0" r="1" gradientUnits="userSpaceOnUse" gradientTransform="translate(181.56 159.51) scale(30.99 30.99)">
<stop stop-color="#0588ED"/>
<stop offset="1"/>
</radialGradient>
<radialGradient id="paint11_radial_844_6777" cx="0" cy="0" r="1" gradientUnits="userSpaceOnUse" gradientTransform="translate(181.56 159.51) scale(30.99 30.99)">
<stop stop-color="#0588ED"/>
<stop offset="1"/>
</radialGradient>
<linearGradient id="paint12_linear_844_6777" x1="145" y1="150.459" x2="219.79" y2="150.459" gradientUnits="userSpaceOnUse">
<stop stop-color="#6B55F4"/>
<stop offset="1" stop-color="#45289B"/>
</linearGradient>
<radialGradient id="paint13_radial_844_6777" cx="0" cy="0" r="1" gradientUnits="userSpaceOnUse" gradientTransform="translate(181.56 166.27) scale(73.23 73.23)">
<stop stop-color="#0588ED"/>
<stop offset="1"/>
</radialGradient>
<linearGradient id="paint14_linear_844_6777" x1="145" y1="186.799" x2="182.4" y2="186.799" gradientUnits="userSpaceOnUse">
<stop stop-color="#6BC2F4"/>
<stop offset="1" stop-color="#5877C8"/>
</linearGradient>
<linearGradient id="paint15_linear_844_6777" x1="182.398" y1="186.799" x2="219.788" y2="186.799" gradientUnits="userSpaceOnUse">
<stop stop-color="#6BC2F4"/>
<stop offset="1" stop-color="#5877C8"/>
</linearGradient>
<linearGradient id="paint16_linear_844_6777" x1="145" y1="202.629" x2="182.4" y2="202.629" gradientUnits="userSpaceOnUse">
<stop stop-color="#6BC2F4"/>
<stop offset="1" stop-color="#5877C8"/>
</linearGradient>
<linearGradient id="paint17_linear_844_6777" x1="182.398" y1="202.629" x2="219.788" y2="202.629" gradientUnits="userSpaceOnUse">
<stop stop-color="#6BC2F4"/>
<stop offset="1" stop-color="#5877C8"/>
</linearGradient>
<linearGradient id="paint18_linear_844_6777" x1="144.83" y1="161.23" x2="219.96" y2="161.23" gradientUnits="userSpaceOnUse">
<stop stop-color="#6B55F4"/>
<stop offset="0.44" stop-color="#84ADFB"/>
<stop offset="1" stop-color="#6B55F4"/>
</linearGradient>
</defs>
</svg>
