<svg width="80" height="80" viewBox="0 0 80 80" fill="none" xmlns="http://www.w3.org/2000/svg">
<g clip-path="url(#clip0_844_2396)">
<path opacity="0.1" d="M65.3359 69.0039C80.2087 54.131 80.2087 30.0174 65.3359 15.1446C50.463 0.271719 26.3494 0.271697 11.4766 15.1445C-3.39629 30.0174 -3.3963 54.131 11.4765 69.0039C26.3494 83.8767 50.463 83.8767 65.3359 69.0039Z" fill="#576A60"/>
<path d="M76.0189 43.3237C77.7899 22.365 62.2352 3.93891 41.2765 2.16791C20.3178 0.396903 1.89175 15.9516 0.120746 36.9103C-1.65026 57.869 13.9044 76.2951 34.8631 78.0661C55.8218 79.8371 74.2479 64.2824 76.0189 43.3237Z" fill="url(#paint0_linear_844_2396)"/>
<path d="M65.3437 65.4218C80.2165 50.549 80.2165 26.4354 65.3437 11.5625C50.4708 -3.31031 26.3572 -3.31033 11.4844 11.5625C-3.38848 26.4354 -3.38849 50.549 11.4844 65.4219C26.3572 80.2947 50.4709 80.2947 65.3437 65.4218Z" fill="url(#paint1_linear_844_2396)"/>
<path d="M38.0816 3.50517C47.7048 3.50206 56.9571 7.21743 63.9056 13.8751C70.8541 20.5329 74.9614 29.6179 75.3695 39.2325C75.3946 38.7052 75.4089 38.1563 75.4089 37.6361C75.4089 27.7367 71.4764 18.2428 64.4765 11.2429C57.4766 4.24304 47.9827 0.310547 38.0834 0.310547C28.184 0.310547 18.6901 4.24304 11.6902 11.2429C4.69033 18.2428 0.757813 27.7367 0.757813 37.6361C0.757813 38.1706 0.757804 38.7123 0.793678 39.2325C1.20611 29.6194 5.31477 20.5369 12.2623 13.8801C19.2099 7.22333 28.4597 3.50649 38.0816 3.50517Z" fill="url(#paint2_radial_844_2396)"/>
<path opacity="0.47" d="M3.87115 40.6782C3.87085 33.0454 6.25367 25.603 10.687 19.3897C15.1204 13.1764 21.383 8.50237 28.6008 6.01993C35.8186 3.53748 43.6315 3.37053 50.9487 5.54237C58.266 7.71422 64.7226 12.1165 69.4173 18.1347C66.7853 13.9106 63.3206 10.2669 59.2345 7.4255C55.1483 4.58414 50.5263 2.60471 45.6502 1.6079C40.7741 0.611094 35.7461 0.617793 30.8726 1.62757C25.9992 2.63736 21.3824 4.62907 17.3038 7.4813C13.2252 10.3335 9.7703 13.9865 7.14955 18.2176C4.5288 22.4486 2.79717 27.169 2.06026 32.0911C1.32335 37.0132 1.59656 42.0338 2.86327 46.8469C4.12999 51.66 6.36366 56.1646 9.42809 60.0863C5.78735 54.2683 3.86131 47.5414 3.87115 40.6782Z" fill="url(#paint3_linear_844_2396)"/>
<path d="M38.4077 6.58301C32.0644 6.58301 25.8635 8.46408 20.5892 11.9883C15.315 15.5126 11.2043 20.5217 8.77693 26.3823C6.3496 32.2428 5.71468 38.6916 6.95246 44.913C8.19025 51.1344 11.2451 56.849 15.7308 61.3342C20.2165 65.8194 25.9314 68.8736 32.153 70.1107C38.3745 71.3478 44.8232 70.7122 50.6835 68.2842C56.5438 65.8562 61.5524 61.7449 65.0761 56.4703C68.5998 51.1956 70.4801 44.9945 70.4794 38.6512C70.4794 34.4396 69.6499 30.2693 68.0381 26.3784C66.4263 22.4875 64.0638 18.9521 61.0856 15.9743C58.1075 12.9964 54.5718 10.6344 50.6807 9.02302C46.7896 7.41166 42.6193 6.58254 38.4077 6.58301ZM38.4077 69.3095C32.3441 69.3095 26.4166 67.5114 21.3748 64.1426C16.3331 60.7738 12.4036 55.9857 10.0831 50.3836C7.76266 44.7815 7.15552 38.6172 8.33848 32.67C9.52144 26.7229 12.4414 21.2601 16.729 16.9725C21.0166 12.6848 26.4794 9.76493 32.4266 8.58197C38.3737 7.39902 44.5381 8.00615 50.1401 10.3266C55.7422 12.6471 60.5304 16.5766 63.8992 21.6183C67.2679 26.6601 69.066 32.5875 69.066 38.6512C69.066 46.7823 65.8359 54.5803 60.0864 60.3299C54.3368 66.0794 46.5388 69.3095 38.4077 69.3095Z" fill="url(#paint4_linear_844_2396)"/>
<path d="M38.4083 69.3127C55.3404 69.3127 69.0666 55.5865 69.0666 38.6544C69.0666 21.7223 55.3404 7.99609 38.4083 7.99609C21.4762 7.99609 7.75 21.7223 7.75 38.6544C7.75 55.5865 21.4762 69.3127 38.4083 69.3127Z" fill="#A7836F"/>
<path d="M38.5695 68.1684C54.9608 68.1684 68.2485 54.8807 68.2485 38.4895C68.2485 22.0983 54.9608 8.81055 38.5695 8.81055C22.1783 8.81055 8.89062 22.0983 8.89062 38.4895C8.89062 54.8807 22.1783 68.1684 38.5695 68.1684Z" fill="url(#paint5_radial_844_2396)"/>
<path d="M11.2578 40.1614C11.2585 34.0825 13.2348 28.1684 16.8888 23.3102C20.5429 18.452 25.6768 14.9129 31.5171 13.2262C37.3574 11.5394 43.5877 11.7964 49.2692 13.9583C54.9508 16.1202 59.7758 20.07 63.0175 25.2126C61.3639 21.7694 59.0244 18.7004 56.1425 16.1937C53.2606 13.687 49.8969 11.7954 46.2579 10.635C42.6188 9.47461 38.781 9.06986 34.98 9.44556C31.1789 9.82127 27.4947 10.9695 24.1532 12.8199C20.8117 14.6702 17.8835 17.1837 15.5481 20.2061C13.2126 23.2286 11.5192 26.6962 10.5718 30.3964C9.6243 34.0966 9.44272 37.9514 10.0382 41.7243C10.6336 45.4972 11.9935 49.1087 14.0345 52.3372C12.2015 48.5403 11.2522 44.3776 11.2578 40.1614Z" fill="url(#paint6_linear_844_2396)"/>
<path d="M38.5719 66.3859C30.5876 66.3849 22.9121 63.3007 17.1469 57.7769C11.3818 52.253 7.97241 44.7163 7.63025 36.7393C7.63025 37.1769 7.60156 37.6182 7.60156 38.063C7.60156 46.2769 10.8645 54.1543 16.6726 59.9624C22.4806 65.7705 30.3581 69.0334 38.5719 69.0334C46.7858 69.0334 54.6633 65.7705 60.4713 59.9624C66.2794 54.1543 69.5423 46.2769 69.5423 38.063C69.5423 37.6182 69.5424 37.1769 69.5137 36.7393C69.1715 44.7163 65.7621 52.253 59.997 57.7769C54.2318 63.3007 46.5563 66.3849 38.5719 66.3859Z" fill="url(#paint7_radial_844_2396)"/>
<path opacity="0.47" d="M66.9625 35.537C66.9641 41.8724 64.9872 48.0503 61.3079 53.2079C57.6285 58.3655 52.4304 62.2453 46.4393 64.3057C40.4482 66.3661 33.9632 66.5041 27.8898 64.7005C21.8165 62.897 16.458 59.2418 12.5625 54.2455C14.744 57.754 17.6175 60.7812 21.0077 63.1424C24.3979 65.5036 28.2337 67.1492 32.2809 67.9789C36.3282 68.8086 40.502 68.8049 44.5478 67.9681C48.5936 67.1313 52.4265 65.4789 55.8125 63.1117C59.1985 60.7445 62.0667 57.7123 64.242 54.1999C66.4173 50.6876 67.8542 46.7688 68.4648 42.6828C69.0755 38.5967 68.8472 34.4291 67.7938 30.4342C66.7405 26.4394 64.8842 22.701 62.3383 19.4473C65.3625 24.2687 66.9652 29.8455 66.9625 35.537Z" fill="url(#paint8_linear_844_2396)"/>
<path d="M49.5089 46.7914C51.8874 46.7914 51.9663 46.9205 51.378 49.2523C50.6605 52.0721 50.6605 52.0649 47.7905 52.0577C44.9206 52.0506 41.9645 52.0577 39.0551 52.0577V52.1044C35.8264 52.1044 32.5977 52.0398 29.3941 52.1259C27.9376 52.1654 27.6435 51.6595 28.0309 50.368C28.5439 48.6389 28.9529 46.8918 29.4192 45.1555C29.6883 44.1546 29.5735 43.5053 28.3035 43.8532C27.0336 44.2012 26.9332 43.5591 27.1018 42.5546C27.3134 41.3133 27.7439 40.2586 29.0999 39.9358C30.6354 39.577 31.2524 38.5008 31.6112 37.0658C32.4793 33.4568 33.491 29.8909 34.3914 26.2676C34.7502 24.7896 35.4677 24.0147 37.1036 24.1151C38.5816 24.2084 40.0775 24.1761 41.5555 24.1151C43.0336 24.0541 43.4605 24.6353 43.0731 26.038C42.3556 28.664 41.6883 31.3044 41.0138 33.9304C40.7878 34.838 40.6946 35.6129 42.0901 35.2254C42.8076 35.021 43.9197 34.0236 44.282 35.2254C44.4322 35.802 44.3961 36.4113 44.1789 36.9661C43.9618 37.5209 43.5747 37.9928 43.0731 38.3142C42.858 38.4378 42.6337 38.5446 42.4022 38.6335C41.3618 39.1214 39.8695 39.0497 39.3959 40.2586C38.7434 42.0013 38.2628 43.8036 37.961 45.6398C37.7457 46.8559 38.8757 46.7411 39.6435 46.7483C42.926 46.7914 46.2121 46.7734 49.5089 46.7914Z" fill="#967362"/>
<path d="M47.9464 45.3706C50.3249 45.3706 50.4038 45.5033 49.8155 47.8316C49.098 50.6513 49.098 50.6441 46.228 50.6369C43.3581 50.6298 40.4056 50.6369 37.4926 50.6369V50.6836C34.2639 50.6836 26.0594 50.7051 26.0594 50.7051L26.472 48.9473C26.472 48.9473 27.315 45.4459 27.8567 43.7347C28.8361 40.6495 28.011 42.0845 26.741 42.4325C25.4711 42.7804 25.3707 42.1383 25.5393 41.1338C25.7509 39.8925 26.185 38.8414 27.5374 38.515C29.0729 38.1562 29.6899 37.0979 30.0487 35.645C30.9168 32.036 32.8289 24.8468 32.8289 24.8468L33.3742 22.6943H39.993H42.2029C42.2029 22.6943 40.1258 29.8908 39.4513 32.5311C39.2253 33.4387 39.1356 34.2136 40.5276 33.8262C41.2666 33.6253 42.3572 32.6244 42.7195 33.8262C42.8691 34.4029 42.8332 35.0121 42.6168 35.5673C42.4005 36.1224 42.0146 36.5952 41.5141 36.9185C41.297 37.0396 41.0717 37.1451 40.8397 37.2342C39.7993 37.7221 38.3069 37.654 37.8334 38.8594C37.1789 40.6014 36.6982 42.4039 36.3984 44.2405C36.1796 45.4567 37.3096 45.3383 38.0774 45.3455C41.3814 45.3706 44.6639 45.3526 47.9464 45.3706Z" fill="url(#paint9_linear_844_2396)"/>
<path opacity="0.13" d="M61.1122 58.2562C63.4234 55.7567 65.2873 52.8782 66.6225 49.7468L20.1185 15.4795C17.4254 17.7779 15.1287 20.5037 13.3203 23.5477L61.1122 58.2562Z" fill="url(#paint10_linear_844_2396)"/>
<path opacity="0.13" d="M64.6239 53.6252C66.4664 50.6249 67.7567 47.3189 68.4338 43.8638L25.5244 12.1221C22.4177 13.801 19.3217 15.9068 17.0078 18.54L64.6239 53.6252Z" fill="url(#paint11_linear_844_2396)"/>
</g>
<defs>
<linearGradient id="paint0_linear_844_2396" x1="-0.0195708" y1="40.1262" x2="76.1526" y2="40.1262" gradientUnits="userSpaceOnUse">
<stop stop-color="#AC8068"/>
<stop offset="1" stop-color="#94725D"/>
</linearGradient>
<linearGradient id="paint1_linear_844_2396" x1="38.4146" y1="5.37572" x2="38.4146" y2="74.1327" gradientUnits="userSpaceOnUse">
<stop stop-color="#AD8169"/>
<stop offset="0.04" stop-color="#BE9179"/>
<stop offset="0.08" stop-color="#C99D84"/>
<stop offset="0.14" stop-color="#D0A38A"/>
<stop offset="0.31" stop-color="#D2A58C"/>
<stop offset="0.32" stop-color="#D3A68D"/>
<stop offset="0.46" stop-color="#D5A88F"/>
<stop offset="0.49" stop-color="#C59980"/>
<stop offset="0.53" stop-color="#BA8D75"/>
<stop offset="0.59" stop-color="#B3876F"/>
<stop offset="0.75" stop-color="#B1856D"/>
<stop offset="0.94" stop-color="#C28C73"/>
</linearGradient>
<radialGradient id="paint2_radial_844_2396" cx="0" cy="0" r="1" gradientUnits="userSpaceOnUse" gradientTransform="translate(38.3829 -4.56658) scale(45.1013 45.1013)">
<stop stop-color="white"/>
<stop offset="0.1" stop-color="white"/>
<stop offset="1" stop-color="white"/>
</radialGradient>
<linearGradient id="paint3_linear_844_2396" x1="1.67562" y1="30.4898" x2="69.4173" y2="30.4898" gradientUnits="userSpaceOnUse">
<stop stop-color="white"/>
<stop offset="0.9" stop-color="#FFD5B5"/>
<stop offset="1" stop-color="#FFE9A7"/>
</linearGradient>
<linearGradient id="paint4_linear_844_2396" x1="6.33954" y1="38.6512" x2="70.4794" y2="38.6512" gradientUnits="userSpaceOnUse">
<stop stop-color="#AC8068"/>
<stop offset="1" stop-color="#94725D"/>
</linearGradient>
<radialGradient id="paint5_radial_844_2396" cx="0" cy="0" r="1" gradientUnits="userSpaceOnUse" gradientTransform="translate(33.9884 29.1298) scale(65.0332 65.0332)">
<stop stop-color="#AD8169"/>
<stop offset="0.04" stop-color="#BE9179"/>
<stop offset="0.08" stop-color="#C99D84"/>
<stop offset="0.14" stop-color="#D0A38A"/>
<stop offset="0.31" stop-color="#D2A58C"/>
<stop offset="0.4" stop-color="#CA9D85"/>
<stop offset="0.75" stop-color="#B1856D"/>
<stop offset="0.94" stop-color="#C28C73"/>
</radialGradient>
<linearGradient id="paint6_linear_844_2396" x1="28.4166" y1="22.9345" x2="18.0991" y2="6.96683" gradientUnits="userSpaceOnUse">
<stop stop-color="white"/>
<stop offset="0.9" stop-color="white"/>
<stop offset="1" stop-color="white"/>
</linearGradient>
<radialGradient id="paint7_radial_844_2396" cx="0" cy="0" r="1" gradientUnits="userSpaceOnUse" gradientTransform="translate(38.3208 73.0801) rotate(180) scale(37.4242 37.4242)">
<stop stop-color="white"/>
<stop offset="0.1" stop-color="white"/>
<stop offset="1" stop-color="white"/>
</radialGradient>
<linearGradient id="paint8_linear_844_2396" x1="68.7813" y1="43.9926" x2="12.5733" y2="43.9926" gradientUnits="userSpaceOnUse">
<stop stop-color="white"/>
<stop offset="0.9" stop-color="#FFD5B5"/>
<stop offset="1" stop-color="#FFE9A7"/>
</linearGradient>
<linearGradient id="paint9_linear_844_2396" x1="26.081" y1="26.7015" x2="48.9725" y2="55.114" gradientUnits="userSpaceOnUse">
<stop offset="0.16" stop-color="#AC6742"/>
<stop offset="0.27" stop-color="#C37D57"/>
<stop offset="0.37" stop-color="#D08A64"/>
<stop offset="0.46" stop-color="#D58F68"/>
<stop offset="0.49" stop-color="#C5805A"/>
<stop offset="0.53" stop-color="#BA744F"/>
<stop offset="0.59" stop-color="#B36E49"/>
<stop offset="0.75" stop-color="#B16C47"/>
<stop offset="0.94" stop-color="#C26E47"/>
</linearGradient>
<linearGradient id="paint10_linear_844_2396" x1="57.3849" y1="54.0589" x2="18.2961" y2="14.9665" gradientUnits="userSpaceOnUse">
<stop stop-color="white"/>
<stop offset="0.9" stop-color="white"/>
<stop offset="1" stop-color="white"/>
</linearGradient>
<linearGradient id="paint11_linear_844_2396" x1="61.119" y1="49.5965" x2="22.041" y2="10.5185" gradientUnits="userSpaceOnUse">
<stop stop-color="white"/>
<stop offset="0.9" stop-color="white"/>
<stop offset="1" stop-color="white"/>
</linearGradient>
<clipPath id="clip0_844_2396">
<rect width="79.2825" height="80" fill="white"/>
</clipPath>
</defs>
</svg>
