<svg width="36" height="36" viewBox="0 0 36 36" fill="none" xmlns="http://www.w3.org/2000/svg">
<path d="M6 30C5.175 30 4.469 29.7065 3.882 29.1195C3.295 28.5325 3.001 27.826 3 27V9C3 8.175 3.294 7.469 3.882 6.882C4.47 6.295 5.176 6.001 6 6H30C30.825 6 31.5315 6.294 32.1195 6.882C32.7075 7.47 33.001 8.176 33 9V27C33 27.825 32.7065 28.5315 32.1195 29.1195C31.5325 29.7075 30.826 30.001 30 30H6ZM18 19.2375C18.125 19.2375 18.2565 19.2185 18.3945 19.1805C18.5325 19.1425 18.6635 19.0865 18.7875 19.0125L29.4 12.375C29.6 12.25 29.75 12.094 29.85 11.907C29.95 11.72 30 11.5135 30 11.2875C30 10.7875 29.7875 10.4125 29.3625 10.1625C28.9375 9.9125 28.5 9.925 28.05 10.2L18 16.5L7.95 10.2C7.5 9.925 7.0625 9.919 6.6375 10.182C6.2125 10.445 6 10.8135 6 11.2875C6 11.5375 6.05 11.7565 6.15 11.9445C6.25 12.1325 6.4 12.276 6.6 12.375L17.2125 19.0125C17.3375 19.0875 17.469 19.144 17.607 19.182C17.745 19.22 17.876 19.2385 18 19.2375Z" fill="#2DFFE7" fill-opacity="0.68"/>
</svg>
