<svg width="125" height="126" viewBox="0 0 125 126" fill="none" xmlns="http://www.w3.org/2000/svg">
<g clip-path="url(#clip0_844_2618)">
<path style="mix-blend-mode:screen" d="M110.331 77.3889C107.401 86.8335 101.736 95.1971 94.0518 101.422C86.3681 107.647 77.011 111.453 67.1638 112.36C57.3167 113.267 47.4217 111.233 38.7304 106.516C30.0391 101.799 22.9417 94.6111 18.3358 85.8604C13.7298 77.1097 11.8223 67.1897 12.8544 57.3549C13.8864 47.5201 17.8117 38.2122 24.1338 30.6083C30.4559 23.0044 38.891 17.446 48.3722 14.6361C57.8534 11.8262 67.9549 11.8909 77.3993 14.8221C90.0628 18.7525 100.647 27.5521 106.822 39.2855C112.998 51.0189 114.26 64.7249 110.331 77.3889Z" fill="url(#paint0_radial_844_2618)"/>
<path style="mix-blend-mode:screen" d="M76.4882 40.1268C58.3941 34.5717 32.9728 45.9632 37.0383 32.7137C41.1038 19.4643 59.0709 13.232 77.1662 18.7828C95.2616 24.3336 106.645 39.6006 102.567 52.8277C98.4903 66.0548 94.5825 45.6959 76.4882 40.1268Z" fill="url(#paint1_linear_844_2618)"/>
<path style="mix-blend-mode:color-burn" d="M110.326 77.3877C106.395 90.052 97.595 100.636 85.8607 106.812C74.1264 112.988 60.4194 114.249 47.755 110.318C35.0908 106.388 24.5066 97.5873 18.3309 85.853C12.1552 74.1187 10.8939 60.4117 14.8244 47.7474C15.4202 45.8326 16.1278 43.9545 16.9435 42.1226C22.1463 30.486 31.5972 21.276 43.3642 16.3752C55.1312 11.4745 68.3258 11.2531 80.2505 15.7564C92.1753 20.2597 101.93 29.1475 107.52 40.6031C113.11 52.0586 114.114 65.2168 110.326 77.3877Z" fill="url(#paint2_radial_844_2618)"/>
<path style="mix-blend-mode:screen" d="M78.1845 64.7795C80.0862 63.3002 81.5691 61.3504 82.4868 59.1227C83.4045 56.8949 83.7251 54.4664 83.4171 52.0768C83.1091 49.6872 82.1831 47.4193 80.7305 45.4971C79.2779 43.5749 77.349 42.0649 75.1343 41.1162L77.163 34.3992L71.1596 32.5827L69.16 39.206L65.0722 37.97L67.0758 31.3339L61.0711 29.5216L59.0688 36.1534L48.8273 33.0588L46.5584 40.5647L53.7011 42.7256L44.4715 73.2755L37.3233 71.1176L35.0586 78.6248L45.3001 81.7194L43.2978 88.3513L49.3025 90.1636L51.3048 83.5317L55.3926 84.7678L53.3903 91.3996L59.3937 93.2162L61.396 86.5843L63.9163 87.3666C66.8177 88.2454 69.9272 88.1483 72.7681 87.0903C75.609 86.0323 78.0245 84.0716 79.6441 81.509C81.2638 78.9465 81.9982 75.9234 81.7349 72.9033C81.4715 69.8832 80.2249 67.0329 78.1861 64.7894L78.1845 64.7795ZM71.3935 48.086C72.9213 48.5478 74.2031 49.5976 74.9569 51.0045C75.7107 52.4113 75.8747 54.0601 75.4129 55.5879C74.9511 57.1157 73.9013 58.3975 72.4944 59.1513C71.0876 59.9051 69.4389 60.0691 67.911 59.6073L57.7163 56.5273L61.1988 45.0059L71.3935 48.086ZM66.2006 79.8561L51.999 75.5651L55.4815 64.0437L65.6762 67.1238L69.6831 68.3347C71.2109 68.7965 72.4928 69.8464 73.2465 71.2532C74.0003 72.6601 74.1644 74.3088 73.7026 75.8367C73.2407 77.3645 72.1909 78.6463 70.7841 79.4001C69.3772 80.1539 67.7285 80.3179 66.2006 79.8561Z" fill="url(#paint3_linear_844_2618)"/>
</g>
<defs>
<radialGradient id="paint0_radial_844_2618" cx="0" cy="0" r="1" gradientUnits="userSpaceOnUse" gradientTransform="translate(60.8231 60.7776) rotate(17.2425) scale(49.7041 49.7041)">
<stop offset="0.55"/>
<stop offset="0.61" stop-color="#070707"/>
<stop offset="0.69" stop-color="#191919"/>
<stop offset="0.78" stop-color="#373737"/>
<stop offset="0.89" stop-color="#616161"/>
<stop offset="0.94" stop-color="#7A7A7A"/>
</radialGradient>
<linearGradient id="paint1_linear_844_2618" x1="64.7296" y1="60.9618" x2="78.8096" y2="11.0371" gradientUnits="userSpaceOnUse">
<stop/>
<stop offset="0.09" stop-color="#070707"/>
<stop offset="0.22" stop-color="#1C1C1C"/>
<stop offset="0.37" stop-color="#3E3E3E"/>
<stop offset="0.55" stop-color="#6D6D6D"/>
<stop offset="0.75" stop-color="#A9A9A9"/>
<stop offset="0.96" stop-color="#F1F1F1"/>
<stop offset="1" stop-color="white"/>
</linearGradient>
<radialGradient id="paint2_radial_844_2618" cx="0" cy="0" r="1" gradientUnits="userSpaceOnUse" gradientTransform="translate(57.1069 72.7724) rotate(17.2425) scale(60.6651 60.6651)">
<stop offset="0.45" stop-color="white"/>
<stop offset="0.51" stop-color="#F8F8F8"/>
<stop offset="0.59" stop-color="#E6E6E6"/>
<stop offset="0.69" stop-color="#C8C8C8"/>
<stop offset="0.8" stop-color="#9E9E9E"/>
<stop offset="0.92" stop-color="#686868"/>
<stop offset="1" stop-color="#404040"/>
</radialGradient>
<linearGradient id="paint3_linear_844_2618" x1="124.098" y1="41.7387" x2="-32.2084" y2="89.5486" gradientUnits="userSpaceOnUse">
<stop stop-color="#F5F5F5"/>
<stop offset="1"/>
</linearGradient>
<clipPath id="clip0_844_2618">
<rect width="100" height="100" fill="white" transform="translate(29.6406) rotate(17.2425)"/>
</clipPath>
</defs>
</svg>
