<svg width="36" height="36" viewBox="0 0 36 36" fill="none" xmlns="http://www.w3.org/2000/svg">
<path d="M8.33539 29.2187C6.66876 29.2187 5.3125 27.8624 5.3125 26.1953V7.52344C5.3125 5.85626 6.66876 4.5 8.33539 4.5H22.8593C24.5325 4.5 25.8937 5.85626 25.8937 7.52344V15.884C25.8937 16.26 26.0903 16.5767 26.3737 16.7809C26.5586 16.9142 26.7735 17.009 27.0187 17.009C27.64 17.009 28.1437 16.5053 28.1437 15.884V7.52344C28.1437 4.61591 25.7729 2.25 22.8593 2.25H8.33539C5.42786 2.25 3.0625 4.61591 3.0625 7.52344V26.1953C3.0625 29.1028 5.42786 31.4687 8.33539 31.4687H16.6213C17.2426 31.4687 17.7463 30.965 17.7463 30.3437C17.7463 29.9676 17.5496 29.6509 17.2661 29.4467C17.0813 29.3135 16.8665 29.2187 16.6213 29.2187H8.33539Z" fill="white"/>
<path d="M21.8253 15.7344H9.375C8.75372 15.7344 8.25 16.2381 8.25 16.8594C8.25 17.4807 8.75372 17.9844 9.375 17.9844H21.8253C22.4465 17.9844 22.9503 17.4807 22.9503 16.8594C22.9503 16.2381 22.4465 15.7344 21.8253 15.7344Z" fill="white"/>
<path d="M9.375 12.7969H15.5999C16.2211 12.7969 16.7249 12.2932 16.7249 11.6719C16.7249 11.0506 16.2211 10.5469 15.5999 10.5469H9.375C8.75372 10.5469 8.25 11.0506 8.25 11.6719C8.25 12.2932 8.75372 12.7969 9.375 12.7969Z" fill="white"/>
<path d="M14.7867 20.9219H9.36719C8.74591 20.9219 8.24219 21.4256 8.24219 22.0469C8.24219 22.6682 8.74591 23.1719 9.36719 23.1719H14.7867C15.408 23.1719 15.9117 22.6682 15.9117 22.0469C15.9117 21.4256 15.408 20.9219 14.7867 20.9219Z" fill="white"/>
<path d="M24.0728 19.0824L21.858 22.4936L17.9276 23.5461C17.5596 23.6444 17.2668 23.9224 17.1487 24.2849C17.0312 24.6475 17.1048 25.0446 17.3448 25.3407L18.8673 27.2206L19.9052 28.502L19.6915 32.5653C19.6712 32.9455 19.8453 33.3102 20.1535 33.5343C20.3485 33.676 20.5808 33.7491 20.8148 33.7491C20.9511 33.7491 21.0873 33.7244 21.218 33.6744L25.0166 32.216L28.8145 33.6744C29.1699 33.8095 29.5704 33.7584 29.8791 33.5343C30.1873 33.3102 30.3614 32.9455 30.3411 32.5653L30.1274 28.502L32.6878 25.3407C32.9278 25.0446 33.0014 24.6475 32.8839 24.2849C32.7658 23.9224 32.473 23.6444 32.1049 23.5461L28.1751 22.4936L25.9603 19.0824C25.7607 18.7749 25.4112 18.624 25.0576 18.6121C24.6756 18.5993 24.2885 18.7504 24.0728 19.0824ZM22.8572 24.5552C23.1258 24.4832 23.3582 24.3146 23.5098 24.0811L25.0166 21.7608L26.5233 24.0811C26.675 24.3146 26.9073 24.4832 27.1759 24.5552L29.8489 25.271L28.1076 27.4215C27.9323 27.6374 27.8433 27.911 27.8582 28.1884L28.0032 30.9525L25.4198 29.9605C25.1605 29.8605 24.8726 29.8605 24.6134 29.9605L22.0294 30.9525L22.1744 28.1884C22.1892 27.911 22.1002 27.6374 21.925 27.4215L20.1837 25.271L22.8572 24.5552Z" fill="white"/>
</svg>
