<svg width="99" height="138" viewBox="0 0 99 138" fill="none" xmlns="http://www.w3.org/2000/svg">
<g clip-path="url(#clip0_844_2925)">
<path style="mix-blend-mode:screen" d="M50.9842 87.706L37.2909 58.7767L13.7647 83.3655L50.9842 87.706Z" fill="url(#paint0_linear_844_2925)"/>
<path style="mix-blend-mode:screen" d="M16.4062 14.6562L37.2897 58.7758L71.2203 56.168L16.4062 14.6562Z" fill="url(#paint1_linear_844_2925)"/>
<path style="mix-blend-mode:screen" d="M50.9824 87.7047L71.2197 56.1676L37.2891 58.7754L50.9824 87.7047Z" fill="url(#paint2_linear_844_2925)"/>
<path style="mix-blend-mode:screen" d="M13.7654 83.3639L37.2916 58.7752L16.4081 14.6556L13.7654 83.3639Z" fill="url(#paint3_linear_844_2925)"/>
<path style="mix-blend-mode:screen" d="M67.7477 123.119L55.2303 96.6737L17.6719 91.6172L67.7477 123.119Z" fill="url(#paint4_linear_844_2925)"/>
<path style="mix-blend-mode:screen" d="M67.7458 123.119L55.2285 96.6743L75.1269 64.4213L67.7458 123.119Z" fill="url(#paint5_linear_844_2925)"/>
<path style="mix-blend-mode:screen" d="M17.6719 91.6172L53.105 92.1837L75.1287 64.4207L55.2303 96.6737L17.6719 91.6172Z" fill="url(#paint6_linear_844_2925)"/>
<path style="mix-blend-mode:screen" d="M16.4078 14.6571L23.4984 61.0569L50.9846 87.7059L16.4078 14.6571Z" fill="url(#paint7_linear_844_2925)"/>
<path style="mix-blend-mode:screen" d="M13.7591 83.3636L23.4925 61.0552L50.9787 87.7042L13.7591 83.3636Z" fill="url(#paint8_linear_844_2925)"/>
<path style="mix-blend-mode:screen" d="M16.4062 14.6562L48.748 50.0953L50.983 87.7051L16.4062 14.6562Z" fill="url(#paint9_linear_844_2925)"/>
<path style="mix-blend-mode:screen" d="M71.2203 56.168L48.7481 50.0953L16.4062 14.6562L71.2203 56.168Z" fill="url(#paint10_linear_844_2925)"/>
<path style="mix-blend-mode:screen" d="M50.984 87.7052L48.749 50.0954L71.2213 56.1682L50.984 87.7052Z" fill="url(#paint11_linear_844_2925)"/>
<path style="mix-blend-mode:screen" d="M17.6719 91.6172L50.2074 103.951L67.7477 123.119L17.6719 91.6172Z" fill="url(#paint12_linear_844_2925)"/>
<path style="mix-blend-mode:screen" d="M55.23 96.6749L50.2071 103.952L67.7474 123.12L55.23 96.6749Z" fill="url(#paint13_linear_844_2925)"/>
<path style="mix-blend-mode:screen" d="M17.6719 91.6172L50.2074 103.951L55.2303 96.6737L17.6719 91.6172Z" fill="url(#paint14_linear_844_2925)"/>
<path style="mix-blend-mode:screen" d="M75.1269 64.4213L55.2285 96.6743L63.431 97.5595L75.1269 64.4213Z" fill="url(#paint15_linear_844_2925)"/>
<path style="mix-blend-mode:screen" d="M67.7458 123.119L63.431 97.5595L75.1269 64.4213L67.7458 123.119Z" fill="url(#paint16_linear_844_2925)"/>
<path style="mix-blend-mode:screen" d="M16.4081 14.6556L23.4987 61.0555L13.7654 83.3639L16.4081 14.6556Z" fill="url(#paint17_linear_844_2925)"/>
<path style="mix-blend-mode:screen" d="M70.1897 102.813C71.9914 103.231 73.3134 92.4687 71.4639 92.4392C69.6623 92.0202 68.3406 102.784 70.1897 102.813Z" fill="url(#paint18_radial_844_2925)"/>
<path style="mix-blend-mode:screen" opacity="0.73" d="M72.1801 97.7933C73.9716 83.4818 71.212 83.1431 69.4859 97.4628C67.6953 111.774 70.4532 112.112 72.1801 97.7933Z" fill="url(#paint19_radial_844_2925)"/>
<path style="mix-blend-mode:screen" opacity="0.73" d="M74.6599 98.0978C78.0326 70.5756 70.3928 69.6371 67.0042 97.1575C63.6327 124.678 71.2718 125.616 74.6599 98.0978Z" fill="url(#paint20_radial_844_2925)"/>
<path style="mix-blend-mode:screen" opacity="0.73" d="M71.0661 97.6563C73.7561 75.8444 73.2575 75.7828 70.589 97.5981C67.9006 119.408 68.3962 119.471 71.0661 97.6563Z" fill="url(#paint21_radial_844_2925)"/>
<path style="mix-blend-mode:screen" d="M49.7779 67.4597C51.1482 67.5196 50.6521 59.4918 49.2988 59.7214C47.9288 59.661 48.4257 67.6885 49.7779 67.4597Z" fill="url(#paint22_radial_844_2925)"/>
<path style="mix-blend-mode:screen" opacity="0.73" d="M50.5438 63.5291C49.9066 52.8507 47.8493 52.9772 48.5342 63.6532C49.1717 74.3334 51.2281 74.2049 50.5438 63.5291Z" fill="url(#paint23_radial_844_2925)"/>
<path style="mix-blend-mode:screen" opacity="0.73" d="M52.3906 63.415C51.1141 42.8888 45.417 43.2389 46.6819 63.7672C47.9588 84.2942 53.655 83.9422 52.3906 63.415Z" fill="url(#paint24_radial_844_2925)"/>
<path style="mix-blend-mode:screen" opacity="0.73" d="M49.7103 63.579C48.7111 47.3079 48.3392 47.331 49.3549 63.602C50.3536 79.8709 50.7247 79.8482 49.7103 63.579Z" fill="url(#paint25_radial_844_2925)"/>
<path style="mix-blend-mode:screen" d="M44.0464 45.0189C45.1528 44.2082 39.7413 38.2578 38.83 39.2829C37.7236 40.0936 43.1349 46.0436 44.0464 45.0189Z" fill="url(#paint26_radial_844_2925)"/>
<path style="mix-blend-mode:screen" opacity="0.73" d="M42.1759 41.4734C34.996 33.5431 33.4705 34.9292 40.6875 42.8274C47.8661 50.7579 49.391 49.3717 42.1759 41.4734Z" fill="url(#paint27_radial_844_2925)"/>
<path style="mix-blend-mode:screen" opacity="0.73" d="M43.5481 40.2267C29.7069 25.0163 25.4824 28.8549 39.3159 44.0747C53.1569 59.2848 57.3808 55.446 43.5481 40.2267Z" fill="url(#paint28_radial_844_2925)"/>
<path style="mix-blend-mode:screen" opacity="0.73" d="M41.5651 42.0305C30.6035 29.9654 30.3276 30.2156 41.3017 42.2704C52.263 54.3352 52.5385 54.0848 41.5651 42.0305Z" fill="url(#paint29_radial_844_2925)"/>
<path style="mix-blend-mode:screen" d="M66.5504 54.9044C66.8751 54.0669 61.7898 52.6925 61.6488 53.5795C61.3225 54.4178 66.4078 55.7921 66.5504 54.9044Z" fill="url(#paint30_radial_844_2925)"/>
<path style="mix-blend-mode:screen" opacity="0.73" d="M64.2701 53.6064C57.5469 51.7621 57.189 53.0867 63.9261 54.8794C70.6489 56.7238 71.0073 55.4005 64.2701 53.6064Z" fill="url(#paint31_radial_844_2925)"/>
<path style="mix-blend-mode:screen" opacity="0.73" d="M64.5911 52.4347C51.5873 48.9238 50.6101 52.5324 63.6127 56.0511C76.6163 59.5616 77.5931 55.9531 64.5911 52.4347Z" fill="url(#paint32_radial_844_2925)"/>
<path style="mix-blend-mode:screen" opacity="0.73" d="M64.1287 54.1297C53.8234 51.3387 53.7592 51.5742 64.0679 54.3549C74.3726 57.1457 74.4366 56.9107 64.1287 54.1297Z" fill="url(#paint33_radial_844_2925)"/>
<path style="mix-blend-mode:screen" d="M25.1498 94.4235C24.6571 95.3792 30.5348 97.6609 30.8155 96.6232C31.3082 95.6674 25.4305 93.3857 25.1498 94.4235Z" fill="url(#paint34_radial_844_2925)"/>
<path style="mix-blend-mode:screen" opacity="0.73" d="M27.6909 96.2569C35.459 99.3066 36.053 97.7764 28.2621 94.7859C20.4939 91.7391 19.9004 93.2661 27.6909 96.2569Z" fill="url(#paint35_radial_844_2925)"/>
<path style="mix-blend-mode:screen" opacity="0.73" d="M27.1681 97.6123C42.1992 103.442 43.8202 99.2715 28.7914 93.4322C13.7609 87.6025 12.1408 91.7729 27.1681 97.6123Z" fill="url(#paint36_radial_844_2925)"/>
<path style="mix-blend-mode:screen" opacity="0.73" d="M27.932 95.6537C39.8422 100.284 39.9484 100.012 28.0329 95.3935C16.1227 90.763 16.0171 91.0346 27.932 95.6537Z" fill="url(#paint37_radial_844_2925)"/>
<path style="mix-blend-mode:screen" d="M52.0798 106.138C51.4149 106.646 54.783 110.213 55.3268 109.578C55.9939 109.071 52.6243 105.502 52.0798 106.138Z" fill="url(#paint38_radial_844_2925)"/>
<path style="mix-blend-mode:screen" opacity="0.73" d="M53.2539 108.281C57.6938 113.02 58.6231 112.145 54.1475 107.438C49.7076 102.699 48.7785 103.575 53.2539 108.281Z" fill="url(#paint39_radial_844_2925)"/>
<path style="mix-blend-mode:screen" opacity="0.73" d="M52.4349 109.056C61.05 118.178 63.5834 115.788 54.9728 106.661C46.3621 97.5327 43.827 99.9275 52.4349 109.056Z" fill="url(#paint40_radial_844_2925)"/>
<path style="mix-blend-mode:screen" opacity="0.73" d="M53.6212 107.934C60.4442 115.169 60.6095 115.013 53.7794 107.784C46.9568 100.548 46.7914 100.704 53.6212 107.934Z" fill="url(#paint41_radial_844_2925)"/>
<path style="mix-blend-mode:screen" d="M58.8598 91.0587C58.201 90.543 55.6006 94.7036 56.3544 95.0693C57.0136 95.5848 59.6123 91.4246 58.8598 91.0587Z" fill="url(#paint42_radial_844_2925)"/>
<path style="mix-blend-mode:screen" opacity="0.73" d="M57.0839 92.7387C53.6209 98.2329 54.7037 98.9103 58.1253 93.3898C61.5881 87.8961 60.5045 87.2191 57.0839 92.7387Z" fill="url(#paint43_radial_844_2925)"/>
<path style="mix-blend-mode:screen" opacity="0.73" d="M56.1261 92.1406C49.4789 102.782 52.4309 104.629 59.0851 93.9905C65.7394 83.352 62.7798 81.5028 56.1261 92.1406Z" fill="url(#paint44_radial_844_2925)"/>
<path style="mix-blend-mode:screen" opacity="0.73" d="M57.5173 93.0083C52.2419 101.439 52.4348 101.56 57.7018 93.1233C62.977 84.6933 62.7849 84.5727 57.5173 93.0083Z" fill="url(#paint45_radial_844_2925)"/>
<path style="mix-blend-mode:overlay" d="M49.4431 57.6924L49.0658 50.3429C54.8164 51.8796 65.7037 54.7377 71.2222 56.1674C65.8498 54.6782 54.2613 51.3878 49.0499 50.0354L49.0469 49.9778L48.8663 49.9878C38.6039 38.6811 26.7964 25.7867 16.4081 14.6557C26.5682 26.0398 38.3223 38.9624 48.6645 50.2353L48.7011 50.2451L49.158 57.7127C44.8266 58.0323 40.679 58.3425 37.2103 58.5993C35.4964 60.3973 32.5663 63.4736 29.5116 66.6849L23.6459 60.9442C21.4661 46.4088 18.7806 29.1453 16.4081 14.6557C18.4746 29.2146 21.0753 46.5492 23.3405 61.079C20.6447 67.1116 16.4563 77.0718 13.7654 83.3639L19.7108 77.2783C21.6619 75.2374 25.7193 71.0714 29.5441 67.1123L50.9849 87.7045L29.7392 66.9101C32.8814 63.6569 35.837 60.5719 37.3053 58.9555C40.7387 58.6854 44.8635 58.3609 49.1749 58.0144L50.9849 87.7045L49.459 57.9917C57.0755 57.3792 65.2436 56.7049 71.2224 56.1678C65.1985 56.5443 57.0534 57.1312 49.4431 57.6924ZM19.5829 77.1554L13.7652 83.3635C16.6417 77.0116 20.653 67.8805 23.5438 61.3491L29.3136 66.8933C25.5389 70.8611 21.6101 74.9991 19.5829 77.1554Z" fill="url(#paint46_linear_844_2925)"/>
</g>
<defs>
<linearGradient id="paint0_linear_844_2925" x1="15.4091" y1="86.8394" x2="44.1375" y2="73.2412" gradientUnits="userSpaceOnUse">
<stop stop-color="#151717"/>
<stop offset="1" stop-color="#222B2E"/>
</linearGradient>
<linearGradient id="paint1_linear_844_2925" x1="29.4491" y1="42.2113" x2="58.1775" y2="28.613" gradientUnits="userSpaceOnUse">
<stop stop-color="#41464A"/>
<stop offset="1" stop-color="#283236"/>
</linearGradient>
<linearGradient id="paint2_linear_844_2925" x1="44.1356" y1="73.2398" x2="72.864" y2="59.6416" gradientUnits="userSpaceOnUse">
<stop stop-color="#A1A7AB"/>
<stop offset="1" stop-color="#222B2E"/>
</linearGradient>
<linearGradient id="paint3_linear_844_2925" x1="15.6297" y1="49.1177" x2="37.6669" y2="53.4901" gradientUnits="userSpaceOnUse">
<stop stop-color="#414547"/>
<stop offset="1"/>
</linearGradient>
<linearGradient id="paint4_linear_844_2925" x1="28.3456" y1="114.167" x2="57.074" y2="100.569" gradientUnits="userSpaceOnUse">
<stop stop-color="#414547"/>
<stop offset="1"/>
</linearGradient>
<linearGradient id="paint5_linear_844_2925" x1="57.0721" y1="100.569" x2="85.8005" y2="86.9711" gradientUnits="userSpaceOnUse">
<stop stop-color="#A1A7AB"/>
<stop offset="1" stop-color="#222B2E"/>
</linearGradient>
<linearGradient id="paint6_linear_844_2925" x1="22.087" y1="100.945" x2="79.5438" y2="73.7483" gradientUnits="userSpaceOnUse">
<stop stop-color="#A1A7AB"/>
<stop offset="1" stop-color="#222B2E"/>
</linearGradient>
<linearGradient id="paint7_linear_844_2925" x1="21.5462" y1="56.9326" x2="33.6962" y2="51.1815" gradientUnits="userSpaceOnUse">
<stop stop-color="#222B2E"/>
<stop offset="1" stop-color="#849199"/>
</linearGradient>
<linearGradient id="paint8_linear_844_2925" x1="14.5822" y1="85.1024" x2="43.3106" y2="71.5041" gradientUnits="userSpaceOnUse">
<stop stop-color="#050505"/>
<stop offset="1" stop-color="#71878F"/>
</linearGradient>
<linearGradient id="paint9_linear_844_2925" x1="33.6946" y1="51.1807" x2="46.4124" y2="45.1609" gradientUnits="userSpaceOnUse">
<stop stop-color="#37454A"/>
<stop offset="1" stop-color="#7F8487"/>
</linearGradient>
<linearGradient id="paint10_linear_844_2925" x1="29.4491" y1="42.2113" x2="58.1775" y2="28.613" gradientUnits="userSpaceOnUse">
<stop stop-color="#93A1AB"/>
<stop offset="1" stop-color="#536970"/>
</linearGradient>
<linearGradient id="paint11_linear_844_2925" x1="42.7113" y1="58.9091" x2="59.711" y2="70.951" gradientUnits="userSpaceOnUse">
<stop stop-color="#A1A7AB"/>
<stop offset="1" stop-color="#4A5D63"/>
</linearGradient>
<linearGradient id="paint12_linear_844_2925" x1="20.5417" y1="88.2936" x2="63.1588" y2="118.482" gradientUnits="userSpaceOnUse">
<stop stop-color="#6B7F8F"/>
<stop offset="1" stop-color="#222B2E"/>
</linearGradient>
<linearGradient id="paint13_linear_844_2925" x1="51.2322" y1="102.632" x2="69.6297" y2="115.664" gradientUnits="userSpaceOnUse">
<stop stop-color="#222B2E"/>
<stop offset="1" stop-color="#A1A7AB"/>
</linearGradient>
<linearGradient id="paint14_linear_844_2925" x1="23.0341" y1="102.946" x2="51.7625" y2="89.3474" gradientUnits="userSpaceOnUse">
<stop stop-color="#A1A7AB"/>
<stop offset="1" stop-color="#222B2E"/>
</linearGradient>
<linearGradient id="paint15_linear_844_2925" x1="51.7354" y1="89.2946" x2="80.4638" y2="75.6964" gradientUnits="userSpaceOnUse">
<stop stop-color="#7F99AB"/>
<stop offset="1" stop-color="#222B2E"/>
</linearGradient>
<linearGradient id="paint16_linear_844_2925" x1="57.0721" y1="100.569" x2="85.8005" y2="86.9711" gradientUnits="userSpaceOnUse">
<stop stop-color="#98A3AB"/>
<stop offset="1" stop-color="#222B2E"/>
</linearGradient>
<linearGradient id="paint17_linear_844_2925" x1="13.0056" y1="48.5968" x2="25.1232" y2="51.0013" gradientUnits="userSpaceOnUse">
<stop stop-color="#6A6E70"/>
<stop offset="1" stop-color="#4F646B"/>
</linearGradient>
<radialGradient id="paint18_radial_844_2925" cx="0" cy="0" r="1" gradientUnits="userSpaceOnUse" gradientTransform="translate(69.8989 97.6363) rotate(96.7762) scale(5.1354 1.41949)">
<stop stop-color="white"/>
<stop offset="0.04" stop-color="#EAEAEA"/>
<stop offset="0.15" stop-color="#B4B4B4"/>
<stop offset="0.26" stop-color="#848484"/>
<stop offset="0.37" stop-color="#5B5B5B"/>
<stop offset="0.49" stop-color="#3A3A3A"/>
<stop offset="0.61" stop-color="#212121"/>
<stop offset="0.73" stop-color="#0E0E0E"/>
<stop offset="0.86" stop-color="#040404"/>
<stop offset="1"/>
</radialGradient>
<radialGradient id="paint19_radial_844_2925" cx="0" cy="0" r="1" gradientUnits="userSpaceOnUse" gradientTransform="translate(69.9085 97.582) rotate(6.67539) scale(1.34788 10.9799)">
<stop stop-color="#B7BAEE"/>
<stop offset="0.08" stop-color="#8DA1E4"/>
<stop offset="0.11" stop-color="#7288C4"/>
<stop offset="0.17" stop-color="#4A6496"/>
<stop offset="0.18" stop-color="#496494"/>
<stop offset="0.3" stop-color="#435F77"/>
<stop offset="0.46" stop-color="#2B3D4D"/>
<stop offset="0.61" stop-color="#18232B"/>
<stop offset="0.75" stop-color="#0B1013"/>
<stop offset="0.89" stop-color="#030405"/>
<stop offset="1"/>
</radialGradient>
<radialGradient id="paint20_radial_844_2925" cx="0" cy="0" r="1" gradientUnits="userSpaceOnUse" gradientTransform="translate(77.455 102.148) rotate(6.27752) scale(3.71039 20.9725)">
<stop stop-color="#B7BAEE"/>
<stop offset="0.08" stop-color="#8DA1E4"/>
<stop offset="0.11" stop-color="#7288C4"/>
<stop offset="0.17" stop-color="#4A6496"/>
<stop offset="0.18" stop-color="#496494"/>
<stop offset="0.3" stop-color="#435F77"/>
<stop offset="0.46" stop-color="#2B3D4D"/>
<stop offset="0.61" stop-color="#18232B"/>
<stop offset="0.75" stop-color="#0B1013"/>
<stop offset="0.89" stop-color="#030405"/>
<stop offset="1"/>
</radialGradient>
<radialGradient id="paint21_radial_844_2925" cx="0" cy="0" r="1" gradientUnits="userSpaceOnUse" gradientTransform="translate(71.4962 74.3656) rotate(19.67) scale(0.247249 16.3184)">
<stop stop-color="#B7BAEE"/>
<stop offset="0.08" stop-color="#8DA1E4"/>
<stop offset="0.11" stop-color="#7288C4"/>
<stop offset="0.17" stop-color="#4A6496"/>
<stop offset="0.18" stop-color="#496494"/>
<stop offset="0.3" stop-color="#435F77"/>
<stop offset="0.46" stop-color="#2B3D4D"/>
<stop offset="0.61" stop-color="#18232B"/>
<stop offset="0.75" stop-color="#0B1013"/>
<stop offset="0.89" stop-color="#030405"/>
<stop offset="1"/>
</radialGradient>
<radialGradient id="paint22_radial_844_2925" cx="0" cy="0" r="1" gradientUnits="userSpaceOnUse" gradientTransform="translate(48.3048 64.6265) rotate(86.1925) scale(3.79538 1.02491)">
<stop stop-color="white"/>
<stop offset="0.04" stop-color="#EAEAEA"/>
<stop offset="0.15" stop-color="#B4B4B4"/>
<stop offset="0.26" stop-color="#848484"/>
<stop offset="0.37" stop-color="#5B5B5B"/>
<stop offset="0.49" stop-color="#3A3A3A"/>
<stop offset="0.61" stop-color="#212121"/>
<stop offset="0.73" stop-color="#0E0E0E"/>
<stop offset="0.86" stop-color="#040404"/>
<stop offset="1"/>
</radialGradient>
<radialGradient id="paint23_radial_844_2925" cx="0" cy="0" r="1" gradientUnits="userSpaceOnUse" gradientTransform="translate(50.6277 66.5151) rotate(-5.34687) scale(0.974999 8.14872)">
<stop stop-color="#B7BAEE"/>
<stop offset="0.08" stop-color="#8DA1E4"/>
<stop offset="0.11" stop-color="#7288C4"/>
<stop offset="0.17" stop-color="#4A6496"/>
<stop offset="0.18" stop-color="#496494"/>
<stop offset="0.3" stop-color="#435F77"/>
<stop offset="0.46" stop-color="#2B3D4D"/>
<stop offset="0.61" stop-color="#18232B"/>
<stop offset="0.75" stop-color="#0B1013"/>
<stop offset="0.89" stop-color="#030405"/>
<stop offset="1"/>
</radialGradient>
<radialGradient id="paint24_radial_844_2925" cx="0" cy="0" r="1" gradientUnits="userSpaceOnUse" gradientTransform="translate(45.8692 74.283) rotate(-5.10511) scale(2.86934 15.5714)">
<stop stop-color="#B7BAEE"/>
<stop offset="0.08" stop-color="#8DA1E4"/>
<stop offset="0.11" stop-color="#7288C4"/>
<stop offset="0.17" stop-color="#4A6496"/>
<stop offset="0.18" stop-color="#496494"/>
<stop offset="0.3" stop-color="#435F77"/>
<stop offset="0.46" stop-color="#2B3D4D"/>
<stop offset="0.61" stop-color="#18232B"/>
<stop offset="0.75" stop-color="#0B1013"/>
<stop offset="0.89" stop-color="#030405"/>
<stop offset="1"/>
</radialGradient>
<radialGradient id="paint25_radial_844_2925" cx="0" cy="0" r="1" gradientUnits="userSpaceOnUse" gradientTransform="translate(2.77922 49.8059) rotate(1.23506) scale(0.228106 12.3633)">
<stop stop-color="#B7BAEE"/>
<stop offset="0.08" stop-color="#8DA1E4"/>
<stop offset="0.11" stop-color="#7288C4"/>
<stop offset="0.17" stop-color="#4A6496"/>
<stop offset="0.18" stop-color="#496494"/>
<stop offset="0.3" stop-color="#435F77"/>
<stop offset="0.46" stop-color="#2B3D4D"/>
<stop offset="0.61" stop-color="#18232B"/>
<stop offset="0.75" stop-color="#0B1013"/>
<stop offset="0.89" stop-color="#030405"/>
<stop offset="1"/>
</radialGradient>
<radialGradient id="paint26_radial_844_2925" cx="0" cy="0" r="1" gradientUnits="userSpaceOnUse" gradientTransform="translate(43.2044 42.6696) rotate(47.8988) scale(3.79114 1.03828)">
<stop stop-color="white"/>
<stop offset="0.04" stop-color="#EAEAEA"/>
<stop offset="0.15" stop-color="#B4B4B4"/>
<stop offset="0.26" stop-color="#848484"/>
<stop offset="0.37" stop-color="#5B5B5B"/>
<stop offset="0.49" stop-color="#3A3A3A"/>
<stop offset="0.61" stop-color="#212121"/>
<stop offset="0.73" stop-color="#0E0E0E"/>
<stop offset="0.86" stop-color="#040404"/>
<stop offset="1"/>
</radialGradient>
<radialGradient id="paint27_radial_844_2925" cx="0" cy="0" r="1" gradientUnits="userSpaceOnUse" gradientTransform="translate(44.9962 38.4146) rotate(-40.5851) scale(0.949963 8.0893)">
<stop stop-color="#B7BAEE"/>
<stop offset="0.08" stop-color="#8DA1E4"/>
<stop offset="0.11" stop-color="#7288C4"/>
<stop offset="0.17" stop-color="#4A6496"/>
<stop offset="0.18" stop-color="#496494"/>
<stop offset="0.3" stop-color="#435F77"/>
<stop offset="0.46" stop-color="#2B3D4D"/>
<stop offset="0.61" stop-color="#18232B"/>
<stop offset="0.75" stop-color="#0B1013"/>
<stop offset="0.89" stop-color="#030405"/>
<stop offset="1"/>
</radialGradient>
<radialGradient id="paint28_radial_844_2925" cx="0" cy="0" r="1" gradientUnits="userSpaceOnUse" gradientTransform="translate(44.7366 44.4273) rotate(-42.8555) scale(2.82375 15.5555)">
<stop stop-color="#B7BAEE"/>
<stop offset="0.08" stop-color="#8DA1E4"/>
<stop offset="0.11" stop-color="#7288C4"/>
<stop offset="0.17" stop-color="#4A6496"/>
<stop offset="0.18" stop-color="#496494"/>
<stop offset="0.3" stop-color="#435F77"/>
<stop offset="0.46" stop-color="#2B3D4D"/>
<stop offset="0.61" stop-color="#18232B"/>
<stop offset="0.75" stop-color="#0B1013"/>
<stop offset="0.89" stop-color="#030405"/>
<stop offset="1"/>
</radialGradient>
<radialGradient id="paint29_radial_844_2925" cx="0" cy="0" r="1" gradientUnits="userSpaceOnUse" gradientTransform="translate(35.5658 84.3977) rotate(-51.895) scale(0.228037 12.1772)">
<stop stop-color="#B7BAEE"/>
<stop offset="0.08" stop-color="#8DA1E4"/>
<stop offset="0.11" stop-color="#7288C4"/>
<stop offset="0.17" stop-color="#4A6496"/>
<stop offset="0.18" stop-color="#496494"/>
<stop offset="0.3" stop-color="#435F77"/>
<stop offset="0.46" stop-color="#2B3D4D"/>
<stop offset="0.61" stop-color="#18232B"/>
<stop offset="0.75" stop-color="#0B1013"/>
<stop offset="0.89" stop-color="#030405"/>
<stop offset="1"/>
</radialGradient>
<radialGradient id="paint30_radial_844_2925" cx="0" cy="0" r="1" gradientUnits="userSpaceOnUse" gradientTransform="translate(64.8875 52.7161) rotate(15.4336) scale(2.49439 0.692508)">
<stop stop-color="white"/>
<stop offset="0.04" stop-color="#EAEAEA"/>
<stop offset="0.15" stop-color="#B4B4B4"/>
<stop offset="0.26" stop-color="#848484"/>
<stop offset="0.37" stop-color="#5B5B5B"/>
<stop offset="0.49" stop-color="#3A3A3A"/>
<stop offset="0.61" stop-color="#212121"/>
<stop offset="0.73" stop-color="#0E0E0E"/>
<stop offset="0.86" stop-color="#040404"/>
<stop offset="1"/>
</radialGradient>
<radialGradient id="paint31_radial_844_2925" cx="0" cy="0" r="1" gradientUnits="userSpaceOnUse" gradientTransform="translate(63.5977 55.238) rotate(-73.6964) scale(0.655804 5.29166)">
<stop stop-color="#B7BAEE"/>
<stop offset="0.08" stop-color="#8DA1E4"/>
<stop offset="0.11" stop-color="#7288C4"/>
<stop offset="0.17" stop-color="#4A6496"/>
<stop offset="0.18" stop-color="#496494"/>
<stop offset="0.3" stop-color="#435F77"/>
<stop offset="0.46" stop-color="#2B3D4D"/>
<stop offset="0.61" stop-color="#18232B"/>
<stop offset="0.75" stop-color="#0B1013"/>
<stop offset="0.89" stop-color="#030405"/>
<stop offset="1"/>
</radialGradient>
<radialGradient id="paint32_radial_844_2925" cx="0" cy="0" r="1" gradientUnits="userSpaceOnUse" gradientTransform="translate(61.9955 52.2421) rotate(-74.4156) scale(1.84212 10.2065)">
<stop stop-color="#B7BAEE"/>
<stop offset="0.08" stop-color="#8DA1E4"/>
<stop offset="0.11" stop-color="#7288C4"/>
<stop offset="0.17" stop-color="#4A6496"/>
<stop offset="0.18" stop-color="#496494"/>
<stop offset="0.3" stop-color="#435F77"/>
<stop offset="0.46" stop-color="#2B3D4D"/>
<stop offset="0.61" stop-color="#18232B"/>
<stop offset="0.75" stop-color="#0B1013"/>
<stop offset="0.89" stop-color="#030405"/>
<stop offset="1"/>
</radialGradient>
<radialGradient id="paint33_radial_844_2925" cx="0" cy="0" r="1" gradientUnits="userSpaceOnUse" gradientTransform="translate(61.811 31.9714) rotate(-70.33) scale(0.094483 8.12554)">
<stop stop-color="#B7BAEE"/>
<stop offset="0.08" stop-color="#8DA1E4"/>
<stop offset="0.11" stop-color="#7288C4"/>
<stop offset="0.17" stop-color="#4A6496"/>
<stop offset="0.18" stop-color="#496494"/>
<stop offset="0.3" stop-color="#435F77"/>
<stop offset="0.46" stop-color="#2B3D4D"/>
<stop offset="0.61" stop-color="#18232B"/>
<stop offset="0.75" stop-color="#0B1013"/>
<stop offset="0.89" stop-color="#030405"/>
<stop offset="1"/>
</radialGradient>
<radialGradient id="paint34_radial_844_2925" cx="0" cy="0" r="1" gradientUnits="userSpaceOnUse" gradientTransform="translate(29.6081 98.5896) rotate(-158.753) scale(3.0053 0.799729)">
<stop stop-color="white"/>
<stop offset="0.04" stop-color="#EAEAEA"/>
<stop offset="0.15" stop-color="#B4B4B4"/>
<stop offset="0.26" stop-color="#848484"/>
<stop offset="0.37" stop-color="#5B5B5B"/>
<stop offset="0.49" stop-color="#3A3A3A"/>
<stop offset="0.61" stop-color="#212121"/>
<stop offset="0.73" stop-color="#0E0E0E"/>
<stop offset="0.86" stop-color="#040404"/>
<stop offset="1"/>
</radialGradient>
<radialGradient id="paint35_radial_844_2925" cx="0" cy="0" r="1" gradientUnits="userSpaceOnUse" gradientTransform="translate(34.3715 96.6063) rotate(113.036) scale(0.784847 6.35997)">
<stop stop-color="#B7BAEE"/>
<stop offset="0.08" stop-color="#8DA1E4"/>
<stop offset="0.11" stop-color="#7288C4"/>
<stop offset="0.17" stop-color="#4A6496"/>
<stop offset="0.18" stop-color="#496494"/>
<stop offset="0.3" stop-color="#435F77"/>
<stop offset="0.46" stop-color="#2B3D4D"/>
<stop offset="0.61" stop-color="#18232B"/>
<stop offset="0.75" stop-color="#0B1013"/>
<stop offset="0.89" stop-color="#030405"/>
<stop offset="1"/>
</radialGradient>
<radialGradient id="paint36_radial_844_2925" cx="0" cy="0" r="1" gradientUnits="userSpaceOnUse" gradientTransform="translate(36.3726 85.4174) rotate(111.645) scale(2.27916 12.2566)">
<stop stop-color="#B7BAEE"/>
<stop offset="0.08" stop-color="#8DA1E4"/>
<stop offset="0.11" stop-color="#7288C4"/>
<stop offset="0.17" stop-color="#4A6496"/>
<stop offset="0.18" stop-color="#496494"/>
<stop offset="0.3" stop-color="#435F77"/>
<stop offset="0.46" stop-color="#2B3D4D"/>
<stop offset="0.61" stop-color="#18232B"/>
<stop offset="0.75" stop-color="#0B1013"/>
<stop offset="0.89" stop-color="#030405"/>
<stop offset="1"/>
</radialGradient>
<radialGradient id="paint37_radial_844_2925" cx="0" cy="0" r="1" gradientUnits="userSpaceOnUse" gradientTransform="translate(8.29592 133.212) rotate(109.67) scale(0.11301 9.71883)">
<stop stop-color="#B7BAEE"/>
<stop offset="0.08" stop-color="#8DA1E4"/>
<stop offset="0.11" stop-color="#7288C4"/>
<stop offset="0.17" stop-color="#4A6496"/>
<stop offset="0.18" stop-color="#496494"/>
<stop offset="0.3" stop-color="#435F77"/>
<stop offset="0.46" stop-color="#2B3D4D"/>
<stop offset="0.61" stop-color="#18232B"/>
<stop offset="0.75" stop-color="#0B1013"/>
<stop offset="0.89" stop-color="#030405"/>
<stop offset="1"/>
</radialGradient>
<radialGradient id="paint38_radial_844_2925" cx="0" cy="0" r="1" gradientUnits="userSpaceOnUse" gradientTransform="translate(56.4734 109.96) rotate(-133.529) scale(2.33134 0.633273)">
<stop stop-color="white"/>
<stop offset="0.04" stop-color="#EAEAEA"/>
<stop offset="0.15" stop-color="#B4B4B4"/>
<stop offset="0.26" stop-color="#848484"/>
<stop offset="0.37" stop-color="#5B5B5B"/>
<stop offset="0.49" stop-color="#3A3A3A"/>
<stop offset="0.61" stop-color="#212121"/>
<stop offset="0.73" stop-color="#0E0E0E"/>
<stop offset="0.86" stop-color="#040404"/>
<stop offset="1"/>
</radialGradient>
<radialGradient id="paint39_radial_844_2925" cx="0" cy="0" r="1" gradientUnits="userSpaceOnUse" gradientTransform="translate(45.2823 106.105) rotate(134.687) scale(0.593631 4.9527)">
<stop stop-color="#B7BAEE"/>
<stop offset="0.08" stop-color="#8DA1E4"/>
<stop offset="0.11" stop-color="#7288C4"/>
<stop offset="0.17" stop-color="#4A6496"/>
<stop offset="0.18" stop-color="#496494"/>
<stop offset="0.3" stop-color="#435F77"/>
<stop offset="0.46" stop-color="#2B3D4D"/>
<stop offset="0.61" stop-color="#18232B"/>
<stop offset="0.75" stop-color="#0B1013"/>
<stop offset="0.89" stop-color="#030405"/>
<stop offset="1"/>
</radialGradient>
<radialGradient id="paint40_radial_844_2925" cx="0" cy="0" r="1" gradientUnits="userSpaceOnUse" gradientTransform="translate(55.8691 112.485) rotate(137.144) scale(1.72257 9.54141)">
<stop stop-color="#B7BAEE"/>
<stop offset="0.08" stop-color="#8DA1E4"/>
<stop offset="0.11" stop-color="#7288C4"/>
<stop offset="0.17" stop-color="#4A6496"/>
<stop offset="0.18" stop-color="#496494"/>
<stop offset="0.3" stop-color="#435F77"/>
<stop offset="0.46" stop-color="#2B3D4D"/>
<stop offset="0.61" stop-color="#18232B"/>
<stop offset="0.75" stop-color="#0B1013"/>
<stop offset="0.89" stop-color="#030405"/>
<stop offset="1"/>
</radialGradient>
<radialGradient id="paint41_radial_844_2925" cx="0" cy="0" r="1" gradientUnits="userSpaceOnUse" gradientTransform="translate(72.4742 25.0479) rotate(128.105) scale(0.13915 7.51412)">
<stop stop-color="#B7BAEE"/>
<stop offset="0.08" stop-color="#8DA1E4"/>
<stop offset="0.11" stop-color="#7288C4"/>
<stop offset="0.17" stop-color="#4A6496"/>
<stop offset="0.18" stop-color="#496494"/>
<stop offset="0.3" stop-color="#435F77"/>
<stop offset="0.46" stop-color="#2B3D4D"/>
<stop offset="0.61" stop-color="#18232B"/>
<stop offset="0.75" stop-color="#0B1013"/>
<stop offset="0.89" stop-color="#030405"/>
<stop offset="1"/>
</radialGradient>
<radialGradient id="paint42_radial_844_2925" cx="0" cy="0" r="1" gradientUnits="userSpaceOnUse" gradientTransform="translate(58.0142 93.3155) rotate(-57.9746) scale(2.30593 0.639849)">
<stop stop-color="white"/>
<stop offset="0.04" stop-color="#EAEAEA"/>
<stop offset="0.15" stop-color="#B4B4B4"/>
<stop offset="0.26" stop-color="#848484"/>
<stop offset="0.37" stop-color="#5B5B5B"/>
<stop offset="0.49" stop-color="#3A3A3A"/>
<stop offset="0.61" stop-color="#212121"/>
<stop offset="0.73" stop-color="#0E0E0E"/>
<stop offset="0.86" stop-color="#040404"/>
<stop offset="1"/>
</radialGradient>
<radialGradient id="paint43_radial_844_2925" cx="0" cy="0" r="1" gradientUnits="userSpaceOnUse" gradientTransform="translate(52.2095 95.9139) rotate(-146.294) scale(0.591614 4.95042)">
<stop stop-color="#B7BAEE"/>
<stop offset="0.08" stop-color="#8DA1E4"/>
<stop offset="0.11" stop-color="#7288C4"/>
<stop offset="0.17" stop-color="#4A6496"/>
<stop offset="0.18" stop-color="#496494"/>
<stop offset="0.3" stop-color="#435F77"/>
<stop offset="0.46" stop-color="#2B3D4D"/>
<stop offset="0.61" stop-color="#18232B"/>
<stop offset="0.75" stop-color="#0B1013"/>
<stop offset="0.89" stop-color="#030405"/>
<stop offset="1"/>
</radialGradient>
<radialGradient id="paint44_radial_844_2925" cx="0" cy="0" r="1" gradientUnits="userSpaceOnUse" gradientTransform="translate(62.8222 94.3543) rotate(-148.235) scale(1.75064 9.52177)">
<stop stop-color="#B7BAEE"/>
<stop offset="0.08" stop-color="#8DA1E4"/>
<stop offset="0.11" stop-color="#7288C4"/>
<stop offset="0.17" stop-color="#4A6496"/>
<stop offset="0.18" stop-color="#496494"/>
<stop offset="0.3" stop-color="#435F77"/>
<stop offset="0.46" stop-color="#2B3D4D"/>
<stop offset="0.61" stop-color="#18232B"/>
<stop offset="0.75" stop-color="#0B1013"/>
<stop offset="0.89" stop-color="#030405"/>
<stop offset="1"/>
</radialGradient>
<radialGradient id="paint45_radial_844_2925" cx="0" cy="0" r="1" gradientUnits="userSpaceOnUse" gradientTransform="translate(41.6404 36.6752) rotate(-160.33) scale(0.0880311 7.39461)">
<stop stop-color="#B7BAEE"/>
<stop offset="0.08" stop-color="#8DA1E4"/>
<stop offset="0.11" stop-color="#7288C4"/>
<stop offset="0.17" stop-color="#4A6496"/>
<stop offset="0.18" stop-color="#496494"/>
<stop offset="0.3" stop-color="#435F77"/>
<stop offset="0.46" stop-color="#2B3D4D"/>
<stop offset="0.61" stop-color="#18232B"/>
<stop offset="0.75" stop-color="#0B1013"/>
<stop offset="0.89" stop-color="#030405"/>
<stop offset="1"/>
</radialGradient>
<linearGradient id="paint46_linear_844_2925" x1="4.96808" y1="64.7783" x2="62.4249" y2="37.5818" gradientUnits="userSpaceOnUse">
<stop stop-color="white"/>
<stop offset="0.25" stop-color="#A9AAAB"/>
<stop offset="0.44" stop-color="#FCFEFF"/>
<stop offset="0.68" stop-color="#6F6F70"/>
<stop offset="1" stop-color="#595959"/>
</linearGradient>
<clipPath id="clip0_844_2925">
<rect width="66.5957" height="120" fill="white" transform="translate(-13.0859 28.6152) rotate(-25.33)"/>
</clipPath>
</defs>
</svg>
