<svg width="30" height="30" viewBox="0 0 30 30" fill="none" xmlns="http://www.w3.org/2000/svg">
<g clip-path="url(#clip0_844_2263)">
<path d="M29.3725 7.73262C29.0275 6.43387 28.0112 5.41012 26.72 5.06262C24.3812 4.43262 15 4.43262 15 4.43262C15 4.43262 5.61875 4.43262 3.27875 5.06262C1.98875 5.41012 0.9725 6.43262 0.6275 7.73262C0 10.0876 0 15.0001 0 15.0001C0 15.0001 0 19.9126 0.6275 22.2676C0.9725 23.5664 1.98875 24.5901 3.28 24.9376C5.61875 25.5676 15 25.5676 15 25.5676C15 25.5676 24.3813 25.5676 26.7213 24.9376C28.0113 24.5901 29.0275 23.5676 29.3738 22.2676C30 19.9126 30 15.0001 30 15.0001C30 15.0001 30 10.0876 29.3725 7.73262ZM11.9325 19.4614V10.5389L19.7725 15.0001L11.9325 19.4614Z" fill="white"/>
</g>
<defs>
<clipPath id="clip0_844_2263">
<rect width="30" height="30" fill="white"/>
</clipPath>
</defs>
</svg>
