<svg width="70" height="70" viewBox="0 0 70 70" fill="none" xmlns="http://www.w3.org/2000/svg">
<path d="M64.5312 33.9062H63.4047C63.1234 26.7529 60.1557 19.9685 55.0936 14.9064C50.0315 9.84434 43.2471 6.87664 36.0938 6.59531V5.46875C36.0938 5.17867 35.9785 4.90047 35.7734 4.69535C35.5683 4.49023 35.2901 4.375 35 4.375C34.7099 4.375 34.4317 4.49023 34.2266 4.69535C34.0215 4.90047 33.9062 5.17867 33.9062 5.46875V6.60625C27.3406 6.82857 21.0573 9.33007 16.1355 13.6811C11.2136 18.0322 7.9603 23.9612 6.93438 30.45C6.88796 30.7372 6.95753 31.031 7.12778 31.2669C7.29803 31.5028 7.55501 31.6614 7.84219 31.7078C8.12937 31.7542 8.42322 31.6847 8.65911 31.5144C8.89499 31.3442 9.05359 31.0872 9.1 30.8C10.0428 24.825 13.0323 19.3632 17.5573 15.349C22.0823 11.3348 27.8615 9.01757 33.9062 8.79375V14.2734C28.7885 14.5481 23.9528 16.7047 20.3287 20.3287C16.7047 23.9528 14.5481 28.7885 14.2734 33.9062H5.46875C5.17867 33.9062 4.90047 34.0215 4.69535 34.2266C4.49023 34.4317 4.375 34.7099 4.375 35C4.375 35.2901 4.49023 35.5683 4.69535 35.7734C4.90047 35.9785 5.17867 36.0938 5.46875 36.0938H6.59531C6.87664 43.2471 9.84434 50.0315 14.9064 55.0936C19.9685 60.1557 26.7529 63.1234 33.9062 63.4047V64.5312C33.9062 64.8213 34.0215 65.0995 34.2266 65.3046C34.4317 65.5098 34.7099 65.625 35 65.625C35.2901 65.625 35.5683 65.5098 35.7734 65.3046C35.9785 65.0995 36.0938 64.8213 36.0938 64.5312V63.3937C42.6594 63.1714 48.9427 60.67 53.8646 56.3189C58.7864 51.9678 62.0397 46.0388 63.0656 39.55C63.112 39.2628 63.0425 38.969 62.8722 38.7331C62.7879 38.6163 62.6814 38.5172 62.5589 38.4416C62.4363 38.3659 62.3 38.3152 62.1578 38.2922C61.8706 38.2458 61.5768 38.3153 61.3409 38.4856C61.105 38.6558 60.9464 38.9128 60.9 39.2C59.9573 45.175 56.9677 50.6368 52.4427 54.651C47.9177 58.6652 42.1385 60.9824 36.0938 61.2062V55.7266C41.2116 55.4519 46.0472 53.2953 49.6713 49.6713C53.2953 46.0472 55.4519 41.2116 55.7266 36.0938H64.5312C64.8213 36.0938 65.0995 35.9785 65.3046 35.7734C65.5098 35.5683 65.625 35.2901 65.625 35C65.625 34.7099 65.5098 34.4317 65.3046 34.2266C65.0995 34.0215 64.8213 33.9062 64.5312 33.9062ZM55.7375 33.9062C55.4768 29.4005 53.766 25.0999 50.8604 21.6464C47.9548 18.1928 44.0103 15.7715 39.6156 14.7437C39.3313 14.6799 39.0334 14.7317 38.7872 14.8875C38.5411 15.0434 38.3669 15.2907 38.3031 15.575C38.2393 15.8593 38.291 16.1573 38.4469 16.4034C38.6028 16.6495 38.8501 16.8237 39.1344 16.8875C43.047 17.7986 46.5619 19.946 49.1585 23.0114C51.755 26.0768 53.2949 29.8971 53.55 33.9062H52.5C52.2099 33.9062 51.9317 34.0215 51.7266 34.2266C51.5215 34.4317 51.4062 34.7099 51.4062 35C51.4062 35.2901 51.5215 35.5683 51.7266 35.7734C51.9317 35.9785 52.2099 36.0938 52.5 36.0938H53.5391C53.27 40.6327 51.3456 44.9153 48.1304 48.1304C44.9153 51.3456 40.6327 53.27 36.0938 53.5391V52.5C36.0938 52.2099 35.9785 51.9317 35.7734 51.7266C35.5683 51.5215 35.2901 51.4062 35 51.4062C34.7099 51.4062 34.4317 51.5215 34.2266 51.7266C34.0215 51.9317 33.9062 52.2099 33.9062 52.5V61.2172C27.3328 60.9377 21.1037 58.201 16.4513 53.5487C11.799 48.8963 9.06235 42.6672 8.78281 36.0938H14.2625C14.5232 40.5995 16.234 44.9001 19.1396 48.3537C22.0452 51.8072 25.9897 54.2286 30.3844 55.2563C30.464 55.269 30.5444 55.2763 30.625 55.2781C30.8953 55.279 31.1563 55.1799 31.358 55C31.5596 54.82 31.6877 54.5719 31.7175 54.3033C31.7474 54.0347 31.6769 53.7646 31.5197 53.5448C31.3624 53.3249 31.1295 53.171 30.8656 53.1125C26.953 52.2014 23.4381 50.054 20.8415 46.9886C18.245 43.9232 16.7051 40.1029 16.45 36.0938H17.5C17.7901 36.0938 18.0683 35.9785 18.2734 35.7734C18.4785 35.5683 18.5938 35.2901 18.5938 35C18.5938 34.7099 18.4785 34.4317 18.2734 34.2266C18.0683 34.0215 17.7901 33.9062 17.5 33.9062H16.4609C16.73 29.3673 18.6544 25.0847 21.8695 21.8695C25.0847 18.6544 29.3673 16.73 33.9062 16.4609V17.5C33.9062 17.7901 34.0215 18.0683 34.2266 18.2734C34.4317 18.4785 34.7099 18.5938 35 18.5938C35.2901 18.5938 35.5683 18.4785 35.7734 18.2734C35.9785 18.0683 36.0938 17.7901 36.0938 17.5V8.78281C42.6672 9.06236 48.8963 11.799 53.5486 16.4514C58.201 21.1037 60.9376 27.3328 61.2172 33.9062H55.7375ZM21.875 35C21.875 37.5959 22.6448 40.1335 24.087 42.2919C25.5292 44.4503 27.579 46.1325 29.9773 47.1259C32.3756 48.1193 35.0146 48.3792 37.5606 47.8728C40.1066 47.3664 42.4452 46.1163 44.2808 44.2808C46.1163 42.4452 47.3664 40.1066 47.8728 37.5606C48.3792 35.0146 48.1193 32.3756 47.1259 29.9773C46.1325 27.579 44.4503 25.5292 42.2919 24.087C40.1335 22.6448 37.5959 21.875 35 21.875C31.5199 21.8778 28.1831 23.2614 25.7223 25.7223C23.2614 28.1831 21.8778 31.5199 21.875 35ZM41.2453 30.5812C41.3467 30.6824 41.4272 30.8026 41.482 30.9349C41.5369 31.0673 41.5652 31.2091 41.5652 31.3523C41.5652 31.4956 41.5369 31.6374 41.482 31.7697C41.4272 31.9021 41.3467 32.0223 41.2453 32.1234L33.95 39.4188C33.8485 39.521 33.7274 39.6018 33.594 39.6563C33.4606 39.7108 33.3175 39.7379 33.1734 39.7359C33.031 39.7378 32.8896 39.7106 32.758 39.6561C32.6264 39.6016 32.5072 39.5208 32.4078 39.4188L28.7547 35.7766C28.5501 35.5703 28.4356 35.2914 28.4362 35.0009C28.4368 34.7104 28.5524 34.432 28.7579 34.2266C28.9633 34.0212 29.2417 33.9055 29.5322 33.9049C29.8227 33.9043 30.1016 34.0189 30.3078 34.2234L33.1734 37.1L39.6922 30.5812C39.8987 30.3764 40.1778 30.2614 40.4688 30.2614C40.7597 30.2614 41.0388 30.3764 41.2453 30.5812Z" fill="url(#paint0_linear_844_2733)"/>
<defs>
<linearGradient id="paint0_linear_844_2733" x1="4.375" y1="35" x2="65.625" y2="35" gradientUnits="userSpaceOnUse">
<stop stop-color="#00C0FF"/>
<stop offset="1" stop-color="#5558FF"/>
</linearGradient>
</defs>
</svg>
