<svg width="100" height="100" viewBox="0 0 100 100" fill="none" xmlns="http://www.w3.org/2000/svg">
<path d="M40.6241 93.7618H59.3789C60.2427 93.7618 60.9417 93.062 60.9417 92.1989V79.861C70.0413 74.8982 74.5685 62.4661 70.2303 52.6051C69.4024 50.7168 66.5908 51.896 67.3429 53.8034C74.0431 69.8327 56.5446 85.7155 41.2415 77.5265C24.1028 68.3245 30.5285 42.3348 50.0017 42.1863C53.1109 42.1855 56.1028 42.9438 58.7767 44.3625C60.4063 45.2286 61.9172 46.3404 63.2601 47.6831C63.8707 48.2935 64.8596 48.2935 65.4701 47.6831C67.4179 45.5765 62.349 43.0399 60.9419 42.0132C60.9417 42.0134 60.9417 29.6831 60.9417 29.6831H68.7562C69.3774 29.6831 69.9391 29.316 70.1879 28.7467C70.4366 28.1782 70.3252 27.5165 69.904 27.0602L51.1492 6.74252C50.56 6.10145 49.4429 6.10145 48.8537 6.74252L30.0989 27.0602C29.1754 28.0061 29.9215 29.7238 31.2468 29.6831C31.2467 29.6831 39.0612 29.6831 39.0612 29.6831V34.4182C39.0612 35.2814 39.7602 35.9812 40.6241 35.9812C41.4879 35.9812 42.1869 35.2814 42.1869 34.4182V28.1202C42.1869 27.257 41.4879 26.5573 40.6241 26.5573H34.8167L50.0014 10.1064L65.1862 26.5573H59.3788C58.515 26.5573 57.8159 27.257 57.8159 28.1202V40.516C43.9327 34.8861 27.8256 45.9142 28.1212 60.9412C28.0532 68.6554 32.3597 76.0671 39.0613 79.8686C39.0612 79.8686 39.0612 92.1989 39.0612 92.1989C39.0612 93.062 39.7603 93.7618 40.6241 93.7618ZM42.187 81.3659C47.0559 83.2996 52.9858 83.2854 57.816 81.3539V90.6359H42.187V81.3659Z" fill="url(#paint0_linear_844_2478)"/>
<path d="M46.8862 53.9569C46.7332 47.7073 38.6213 47.7068 38.4688 53.957C38.622 60.208 46.734 60.2053 46.8862 53.9569ZM42.6767 55.5686C41.2652 55.5019 41.266 52.4111 42.6767 52.3451C44.0904 52.4113 44.0896 55.5031 42.6767 55.5686Z" fill="url(#paint1_linear_844_2478)"/>
<path d="M57.3238 72.6625C62.8686 72.5086 62.8674 63.3404 57.3237 63.1875C51.7768 63.341 51.7782 72.51 57.3238 72.6625ZM57.3238 66.3133C58.7353 66.38 58.7346 69.4707 57.3238 69.5367C55.9102 69.4705 55.9109 66.3787 57.3238 66.3133Z" fill="url(#paint2_linear_844_2478)"/>
<path d="M43.3524 72.4534C44.0865 72.8804 45.0534 72.6352 45.4877 71.8811L57.2186 51.5635C57.6505 50.8164 57.3941 49.8601 56.6463 49.4282C55.8984 48.997 54.9429 49.2527 54.511 50.0006L42.7801 70.3182C42.3482 71.0654 42.6046 72.0215 43.3524 72.4534Z" fill="url(#paint3_linear_844_2478)"/>
<path d="M20.3013 82.8216C21.1653 82.8216 21.8642 82.1218 21.8642 81.2587V42.8334C22.7518 43.5948 24.0309 45.4282 24.99 45.3121C26.325 45.361 27.0931 43.5713 26.095 42.6441C26.0951 42.6441 21.4077 37.9568 21.4077 37.9568C20.9743 37.5165 20.2741 37.375 19.7042 37.6182C19.5517 37.4117 14.7051 42.5246 14.5075 42.6441C13.0704 44.099 15.2652 46.2915 16.7177 44.8541C16.7177 44.8542 18.7384 42.8334 18.7384 42.8334V81.2587C18.7384 82.1217 19.4375 82.8216 20.3013 82.8216Z" fill="url(#paint4_linear_844_2478)"/>
<path d="M76.1084 44.8541C76.1083 44.8542 78.1291 42.8334 78.1291 42.8334V81.2587C78.1291 82.1218 78.8281 82.8216 79.692 82.8216C80.5558 82.8216 81.2549 82.1218 81.2549 81.2587V42.8334C82.1423 43.5948 83.4216 45.4282 84.3806 45.3121C85.7156 45.361 86.4837 43.5713 85.4855 42.6441C85.4856 42.6441 80.7983 37.9568 80.7983 37.9568C80.365 37.5165 79.6648 37.375 79.0948 37.6182C78.9423 37.4117 74.0957 42.5246 73.8982 42.6441C72.4609 44.099 74.6559 46.2915 76.1084 44.8541Z" fill="url(#paint5_linear_844_2478)"/>
<defs>
<linearGradient id="paint0_linear_844_2478" x1="50.0044" y1="6.26172" x2="50.0044" y2="93.7618" gradientUnits="userSpaceOnUse">
<stop stop-color="white"/>
<stop offset="1" stop-color="#999999"/>
</linearGradient>
<linearGradient id="paint1_linear_844_2478" x1="42.6775" y1="49.2695" x2="42.6775" y2="58.6442" gradientUnits="userSpaceOnUse">
<stop stop-color="white"/>
<stop offset="1" stop-color="#999999"/>
</linearGradient>
<linearGradient id="paint2_linear_844_2478" x1="57.323" y1="63.1875" x2="57.323" y2="72.6625" gradientUnits="userSpaceOnUse">
<stop stop-color="white"/>
<stop offset="1" stop-color="#999999"/>
</linearGradient>
<linearGradient id="paint3_linear_844_2478" x1="49.9993" y1="49.2188" x2="49.9993" y2="72.6624" gradientUnits="userSpaceOnUse">
<stop stop-color="white"/>
<stop offset="1" stop-color="#999999"/>
</linearGradient>
<linearGradient id="paint4_linear_844_2478" x1="20.2945" y1="37.5" x2="20.2945" y2="82.8216" gradientUnits="userSpaceOnUse">
<stop stop-color="white"/>
<stop offset="1" stop-color="#999999"/>
</linearGradient>
<linearGradient id="paint5_linear_844_2478" x1="79.6851" y1="37.5" x2="79.6851" y2="82.8216" gradientUnits="userSpaceOnUse">
<stop stop-color="white"/>
<stop offset="1" stop-color="#999999"/>
</linearGradient>
</defs>
</svg>
