<svg width="94" height="82" viewBox="0 0 94 82" fill="none" xmlns="http://www.w3.org/2000/svg">
<path d="M47 31.625C47.2052 31.6249 47.4085 31.6652 47.5981 31.7437C47.7877 31.8222 47.96 31.9373 48.1051 32.0824C48.2502 32.2275 48.3653 32.3998 48.4438 32.5894C48.5223 32.779 48.5626 32.9823 48.5625 33.1875H50.125C50.5394 33.1875 50.9368 33.3521 51.2299 33.6451C51.5229 33.9382 51.6875 34.3356 51.6875 34.75C51.6875 35.1644 51.5229 35.5618 51.2299 35.8549C50.9368 36.1479 50.5394 36.3125 50.125 36.3125H45.4375V37.875H48.5625C49.391 37.8761 50.1852 38.2057 50.771 38.7915C51.3568 39.3773 51.6864 40.1715 51.6875 41V42.5625C51.6864 43.391 51.3568 44.1852 50.771 44.771C50.1852 45.3568 49.391 45.6864 48.5625 45.6875C48.5625 46.1019 48.3979 46.4993 48.1049 46.7924C47.8118 47.0854 47.4144 47.25 47 47.25C46.5856 47.25 46.1882 47.0854 45.8951 46.7924C45.6021 46.4993 45.4375 46.1019 45.4375 45.6875H43.875C43.4606 45.6875 43.0632 45.5229 42.7701 45.2299C42.4771 44.9368 42.3125 44.5394 42.3125 44.125C42.3125 43.7106 42.4771 43.3132 42.7701 43.0201C43.0632 42.7271 43.4606 42.5625 43.875 42.5625H48.5625V41H45.4375C44.609 40.9989 43.8148 40.6693 43.229 40.0835C42.6432 39.4977 42.3136 38.7035 42.3125 37.875V36.3125C42.3136 35.484 42.6432 34.6898 43.229 34.104C43.8148 33.5182 44.609 33.1886 45.4375 33.1875C45.4374 32.9823 45.4777 32.779 45.5562 32.5894C45.6347 32.3998 45.7498 32.2275 45.8949 32.0824C46.04 31.9373 46.2123 31.8222 46.4019 31.7437C46.5915 31.6652 46.7948 31.6249 47 31.625ZM47 26.9375C49.4723 26.9375 51.889 27.6706 53.9446 29.0441C56.0002 30.4176 57.6024 32.3699 58.5485 34.654C59.4946 36.938 59.7421 39.4514 59.2598 41.8761C58.7775 44.3009 57.587 46.5282 55.8388 48.2763C54.0907 50.0245 51.8634 51.215 49.4386 51.6973C47.0139 52.1796 44.5005 51.9321 42.2165 50.986C39.9324 50.0399 37.9801 48.4377 36.6066 46.3821C35.2331 44.3265 34.5 41.9098 34.5 39.4375C34.5038 36.1235 35.822 32.9462 38.1654 30.6029C40.5087 28.2595 43.686 26.9413 47 26.9375ZM47 30.0625C45.1458 30.0625 43.3332 30.6123 41.7915 31.6425C40.2498 32.6726 39.0482 34.1368 38.3386 35.8498C37.6291 37.5629 37.4434 39.4479 37.8051 41.2665C38.1669 43.085 39.0598 44.7555 40.3709 46.0666C41.682 47.3777 43.3525 48.2706 45.171 48.6324C46.9896 48.9941 48.8746 48.8084 50.5877 48.0989C52.3007 47.3893 53.7649 46.1877 54.795 44.646C55.8252 43.1043 56.375 41.2917 56.375 39.4375C56.3723 36.9519 55.3837 34.5689 53.6261 32.8114C51.8686 31.0538 49.4856 30.0652 47 30.0625ZM78.25 14.4375V9.75H67.8786L60.454 15.9378L64.0303 16.763C65.4101 17.0762 66.6419 17.8503 67.5226 18.9576C68.4033 20.065 68.8803 21.4394 68.875 22.8543V39.4375H78.25V34.75C78.2499 34.5448 78.2902 34.3415 78.3687 34.1519C78.4472 33.9623 78.5623 33.79 78.7074 33.6449C78.8525 33.4998 79.0248 33.3847 79.2144 33.3062C79.404 33.2277 79.6073 33.1874 79.8125 33.1875H92.3125C92.5177 33.1874 92.721 33.2277 92.9106 33.3062C93.1002 33.3847 93.2725 33.4998 93.4176 33.6449C93.5627 33.79 93.6778 33.9623 93.7563 34.1519C93.8348 34.3415 93.8751 34.5448 93.875 34.75V47.25C93.8751 47.4552 93.8348 47.6585 93.7563 47.8481C93.6778 48.0377 93.5627 48.21 93.4176 48.3551C93.2725 48.5002 93.1002 48.6153 92.9106 48.6938C92.721 48.7723 92.5177 48.8126 92.3125 48.8125H79.8125C79.6073 48.8126 79.404 48.7723 79.2144 48.6938C79.0248 48.6153 78.8525 48.5002 78.7074 48.3551C78.5623 48.21 78.4472 48.0377 78.3687 47.8481C78.2902 47.6585 78.2499 47.4552 78.25 47.25V42.5625H68.875V55.3875C68.8759 56.5163 68.5707 57.6243 67.9919 58.5934C67.4132 59.5626 66.5825 60.3568 65.5882 60.8913L58.8621 64.5125L67.8908 72.25H78.25V67.5625C78.2499 67.3573 78.2902 67.154 78.3687 66.9644C78.4472 66.7748 78.5623 66.6025 78.7074 66.4574C78.8525 66.3123 79.0248 66.1972 79.2144 66.1187C79.404 66.0402 79.6073 65.9999 79.8125 66H92.3125C92.5177 65.9999 92.721 66.0402 92.9106 66.1187C93.1002 66.1972 93.2725 66.3123 93.4176 66.4574C93.5627 66.6025 93.6778 66.7748 93.7563 66.9644C93.8348 67.154 93.8751 67.3573 93.875 67.5625V80.0625C93.8751 80.2677 93.8348 80.471 93.7563 80.6606C93.6778 80.8502 93.5627 81.0225 93.4176 81.1676C93.2725 81.3127 93.1002 81.4278 92.9106 81.5063C92.721 81.5848 92.5177 81.6251 92.3125 81.625H79.8125C79.6073 81.6251 79.404 81.5848 79.2144 81.5063C79.0248 81.4278 78.8525 81.3127 78.7074 81.1676C78.5623 81.0225 78.4472 80.8502 78.3687 80.6606C78.2902 80.471 78.2499 80.2677 78.25 80.0625V75.375H67.3125C66.9395 75.3754 66.5788 75.2417 66.2963 74.9981L55.9147 66.0996L49.9617 69.305C49.0517 69.7958 48.0339 70.0527 47 70.0527C45.9661 70.0527 44.9483 69.7958 44.0383 69.305L38.0853 66.0996L27.7037 74.9981C27.4212 75.2417 27.0605 75.3754 26.6875 75.375H15.75V80.0625C15.7501 80.2677 15.7098 80.471 15.6313 80.6606C15.5528 80.8502 15.4377 81.0225 15.2926 81.1676C15.1475 81.3127 14.9752 81.4278 14.7856 81.5063C14.596 81.5848 14.3927 81.6251 14.1875 81.625H1.6875C1.48228 81.6251 1.27904 81.5848 1.08942 81.5063C0.899791 81.4278 0.727495 81.3127 0.58238 81.1676C0.437265 81.0225 0.322177 80.8502 0.243696 80.6606C0.165215 80.471 0.124881 80.2677 0.125 80.0625V67.5625C0.124881 67.3573 0.165215 67.154 0.243696 66.9644C0.322177 66.7748 0.437265 66.6025 0.58238 66.4574C0.727495 66.3123 0.899791 66.1972 1.08942 66.1187C1.27904 66.0402 1.48228 65.9999 1.6875 66H14.1875C14.3927 65.9999 14.596 66.0402 14.7856 66.1187C14.9752 66.1972 15.1475 66.3123 15.2926 66.4574C15.4377 66.6025 15.5528 66.7748 15.6313 66.9644C15.7098 67.154 15.7501 67.3573 15.75 67.5625V72.25H26.1092L35.1379 64.5125L28.4133 60.8914C27.4186 60.3571 26.5875 59.5631 26.0085 58.5939C25.4294 57.6247 25.1241 56.5165 25.125 55.3875V42.5625H15.75V47.25C15.7501 47.4552 15.7098 47.6585 15.6313 47.8481C15.5528 48.0377 15.4377 48.21 15.2926 48.3551C15.1475 48.5002 14.9752 48.6153 14.7856 48.6938C14.596 48.7723 14.3927 48.8126 14.1875 48.8125H1.6875C1.48228 48.8126 1.27904 48.7723 1.08942 48.6938C0.899791 48.6153 0.727495 48.5002 0.58238 48.3551C0.437265 48.21 0.322177 48.0377 0.243696 47.8481C0.165215 47.6585 0.124881 47.4552 0.125 47.25V34.75C0.124881 34.5448 0.165215 34.3415 0.243696 34.1519C0.322177 33.9623 0.437265 33.79 0.58238 33.6449C0.727495 33.4998 0.899791 33.3847 1.08942 33.3062C1.27904 33.2277 1.48228 33.1874 1.6875 33.1875H14.1875C14.3927 33.1874 14.596 33.2277 14.7856 33.3062C14.9752 33.3847 15.1475 33.4998 15.2926 33.6449C15.4377 33.79 15.5528 33.9623 15.6313 34.1519C15.7098 34.3415 15.7501 34.5448 15.75 34.75V39.4375H25.125V22.8543C25.1197 21.4394 25.5967 20.065 26.4774 18.9576C27.3581 17.8503 28.5899 17.0762 29.9697 16.7629L33.5459 15.9377L26.1214 9.75H15.75V14.4375C15.7501 14.6427 15.7098 14.846 15.6313 15.0356C15.5528 15.2252 15.4377 15.3975 15.2926 15.5426C15.1475 15.6877 14.9752 15.8028 14.7856 15.8813C14.596 15.9598 14.3927 16.0001 14.1875 16H1.6875C1.48228 16.0001 1.27904 15.9598 1.08942 15.8813C0.899791 15.8028 0.727495 15.6877 0.58238 15.5426C0.437265 15.3975 0.322177 15.2252 0.243696 15.0356C0.165215 14.846 0.124881 14.6427 0.125 14.4375V1.9375C0.124881 1.73228 0.165215 1.52904 0.243696 1.33942C0.322177 1.14979 0.437265 0.977495 0.58238 0.83238C0.727495 0.687265 0.899791 0.572177 1.08942 0.493696C1.27904 0.415215 1.48228 0.374881 1.6875 0.375H14.1875C14.3927 0.374881 14.596 0.415215 14.7856 0.493696C14.9752 0.572177 15.1475 0.687265 15.2926 0.83238C15.4377 0.977495 15.5528 1.14979 15.6313 1.33942C15.7098 1.52904 15.7501 1.73228 15.75 1.9375V6.625H26.6875C27.0532 6.62494 27.4073 6.75289 27.6885 6.98664L37.388 15.0511L45.5947 13.1573C46.5187 12.9468 47.4783 12.9468 48.4023 13.1573L56.6187 15.053L66.3115 6.98662C66.5927 6.75287 66.9468 6.62493 67.3125 6.625H78.25V1.9375C78.2499 1.73228 78.2902 1.52904 78.3687 1.33942C78.4472 1.14979 78.5623 0.977495 78.7074 0.83238C78.8525 0.687265 79.0248 0.572177 79.2144 0.493696C79.404 0.415215 79.6073 0.374881 79.8125 0.375H92.3125C92.5177 0.374881 92.721 0.415215 92.9106 0.493696C93.1002 0.572177 93.2725 0.687265 93.4176 0.83238C93.5627 0.977495 93.6778 1.14979 93.7563 1.33942C93.8348 1.52904 93.8751 1.73228 93.875 1.9375V14.4375C93.8751 14.6427 93.8348 14.846 93.7563 15.0356C93.6778 15.2252 93.5627 15.3975 93.4176 15.5426C93.2725 15.6877 93.1002 15.8028 92.9106 15.8813C92.721 15.9598 92.5177 16.0001 92.3125 16H79.8125C79.6073 16.0001 79.404 15.9598 79.2144 15.8813C79.0248 15.8028 78.8525 15.6877 78.7074 15.5426C78.5623 15.3975 78.4472 15.2252 78.3687 15.0356C78.2902 14.846 78.2499 14.6427 78.25 14.4375ZM81.375 12.875H90.75V3.5H81.375V12.875ZM12.625 3.5H3.25V12.875H12.625V3.5ZM12.625 36.3125H3.25V45.6875H12.625V36.3125ZM12.625 69.125H3.25V78.5H12.625V69.125ZM81.375 78.5H90.75V69.125H81.375V78.5ZM81.375 45.6875H90.75V36.3125H81.375V45.6875ZM47.7034 16.2029C47.4733 16.1498 47.2378 16.1232 47.0015 16.1236C46.7633 16.124 46.5259 16.1506 46.2935 16.2029L30.6717 19.8086C29.982 19.9656 29.3664 20.3528 28.9263 20.9064C28.4861 21.46 28.2476 22.147 28.25 22.8543V55.3875C28.2498 55.9519 28.4027 56.5059 28.6923 56.9903C28.982 57.4748 29.3976 57.8717 29.8949 58.1387L45.5183 66.5524C45.9733 66.7987 46.4826 66.9277 47 66.9277C47.5174 66.9277 48.0266 66.7987 48.4816 66.5524L64.1066 58.1387C64.6035 57.8713 65.0187 57.4744 65.3081 56.9899C65.5975 56.5055 65.7502 55.9518 65.75 55.3875V22.8543C65.7524 22.147 65.5139 21.46 65.0738 20.9064C64.6336 20.3528 64.018 19.9656 63.3284 19.8086L47.7034 16.2029Z" fill="url(#paint0_linear_844_2248)"/>
<defs>
<linearGradient id="paint0_linear_844_2248" x1="47" y1="0.375" x2="47" y2="81.625" gradientUnits="userSpaceOnUse">
<stop stop-color="white"/>
<stop offset="1" stop-color="#999999"/>
</linearGradient>
</defs>
</svg>
