<svg width="100" height="100" viewBox="0 0 100 100" fill="none" xmlns="http://www.w3.org/2000/svg">
<path d="M86.477 31.2262C86.6828 31.2263 86.8851 31.1722 87.0633 31.0693C87.2416 30.9665 87.3897 30.8185 87.4926 30.6402L92.5121 21.9455C93.7426 22.4618 95.1204 22.5059 96.3814 22.0692C97.6423 21.6325 98.6978 20.7459 99.3455 19.5792C99.9931 18.4125 100.187 17.0478 99.8912 15.7467C99.595 14.4455 98.8289 13.2995 97.74 12.5282C96.651 11.7569 95.3158 11.4146 93.9901 11.5669C92.6644 11.7193 91.4415 12.3555 90.5558 13.3536C89.6702 14.3518 89.184 15.6416 89.1905 16.976C89.1971 18.3105 89.6958 19.5955 90.5912 20.5849L85.8008 28.8824H79.393V25.4912C79.3915 24.1966 78.8766 22.9555 77.9613 22.0401C77.0459 21.1247 75.8047 20.6098 74.5102 20.6084H71.119V14.2021L79.4166 9.41171C80.4025 10.3025 81.6824 10.7982 83.0112 10.8039C84.3399 10.8097 85.624 10.325 86.6176 9.44274C87.6111 8.56049 88.2443 7.34271 88.3957 6.02264C88.5472 4.70257 88.2063 3.37303 87.4384 2.28868C86.6705 1.20433 85.5295 0.4414 84.234 0.146036C82.9385 -0.149328 81.5796 0.0436337 80.4176 0.68796C79.2555 1.33229 78.372 2.38268 77.9363 3.63794C77.5006 4.8932 77.5433 6.26508 78.0563 7.49081L69.3612 12.5103C69.1829 12.6133 69.0349 12.7613 68.932 12.9396C68.8292 13.1179 68.7751 13.3201 68.7752 13.526V20.6096H51.1733V10.682C52.4732 10.3933 53.6209 9.63502 54.3962 8.55241C55.1716 7.46981 55.52 6.13912 55.3748 4.81545C55.2296 3.49179 54.601 2.26828 53.6094 1.37951C52.6178 0.490742 51.333 -0.000757309 50.0014 -0.000757309C48.6698 -0.000757309 47.385 0.490742 46.3934 1.37951C45.4018 2.26828 44.7732 3.49179 44.628 4.81545C44.4828 6.13912 44.8312 7.46981 45.6066 8.55241C46.3819 9.63502 47.5296 10.3933 48.8295 10.682V20.6084H31.2276V13.5248C31.2277 13.319 31.1736 13.1167 31.0708 12.9384C30.9679 12.7601 30.8199 12.6121 30.6416 12.5092L21.9465 7.48964C22.4627 6.25924 22.5066 4.88164 22.0699 3.62085C21.6332 2.36007 20.7466 1.30479 19.5799 0.657269C18.4133 0.00974967 17.0488 -0.184462 15.7478 0.111855C14.4469 0.408172 13.301 1.17417 12.5299 2.26305C11.7587 3.35193 11.4166 4.68709 11.569 6.01263C11.7213 7.33818 12.3575 8.56087 13.3556 9.44637C14.3537 10.3319 15.6435 10.8179 16.9778 10.8113C18.312 10.8047 19.5969 10.3059 20.5862 9.41053L28.8838 14.201V20.6072H25.4926C24.1981 20.6087 22.9569 21.1236 22.0415 22.039C21.1261 22.9543 20.6112 24.1955 20.6098 25.49V28.8812H14.2026L9.41195 20.5849C10.3023 19.5992 10.7976 18.3197 10.8032 16.9915C10.8087 15.6632 10.3241 14.3796 9.44203 13.3865C8.55999 12.3934 7.34257 11.7606 6.02296 11.6093C4.70335 11.458 3.37431 11.7989 2.29039 12.5666C1.20648 13.3343 0.443891 14.475 0.148693 15.77C-0.146506 17.065 0.046436 18.4235 0.690564 19.5851C1.33469 20.7467 2.38472 21.6299 3.63954 22.0654C4.89436 22.5009 6.26575 22.4582 7.49105 21.9455L12.5106 30.6402C12.6135 30.8185 12.7616 30.9665 12.9398 31.0693C13.1181 31.1722 13.3204 31.2263 13.5262 31.2262H20.61V48.8283H10.6834C10.3948 47.5284 9.63643 46.3807 8.55383 45.6054C7.47123 44.83 6.14054 44.4816 4.81687 44.6268C3.4932 44.772 2.2697 45.4006 1.38093 46.3922C0.492155 47.3838 0.000655845 48.6686 0.000655845 50.0002C0.000655845 51.3318 0.492155 52.6166 1.38093 53.6081C2.2697 54.5997 3.4932 55.2284 4.81687 55.3736C6.14054 55.5188 7.47123 55.1703 8.55383 54.395C9.63643 53.6197 10.3948 52.472 10.6834 51.1721H20.6098V68.7742H13.526C13.3202 68.7741 13.1179 68.8282 12.9396 68.931C12.7614 69.0339 12.6133 69.1819 12.5104 69.3601L7.49085 78.0549C6.26036 77.5386 4.88261 77.4945 3.62164 77.9312C2.36068 78.3678 1.30522 79.2545 0.657539 80.4212C0.0098591 81.5879 -0.184474 82.9526 0.111784 84.2537C0.408042 85.5548 1.17405 86.7009 2.263 87.4721C3.35195 88.2434 4.68723 88.5857 6.01294 88.4334C7.33865 88.2811 8.56151 87.6449 9.44717 86.6468C10.3328 85.6486 10.819 84.3587 10.8124 83.0243C10.8059 81.6899 10.3071 80.4048 9.41175 79.4154L14.2026 71.118H20.6098V74.5092C20.6112 75.8037 21.1261 77.0448 22.0415 77.9602C22.9569 78.8756 24.1981 79.3905 25.4926 79.392H28.8838V85.7992L20.5862 90.5896C19.6002 89.6989 18.3204 89.2031 16.9916 89.1974C15.6629 89.1917 14.3788 89.6764 13.3852 90.5586C12.3917 91.4408 11.7585 92.6586 11.6071 93.9787C11.4556 95.2988 11.7965 96.6283 12.5644 97.7127C13.3323 98.797 14.4733 99.5599 15.7688 99.8553C17.0643 100.151 18.4232 99.9577 19.5852 99.3134C20.7473 98.6691 21.6308 97.6187 22.0665 96.3634C22.5022 95.1081 22.4595 93.7363 21.9465 92.5105L30.6416 87.491C30.8199 87.3881 30.9679 87.24 31.0708 87.0617C31.1736 86.8835 31.2277 86.6812 31.2276 86.4754V79.392H48.8295V89.3183C47.5296 89.607 46.3819 90.3654 45.6066 91.448C44.8312 92.5306 44.4828 93.8612 44.628 95.1849C44.7732 96.5086 45.4018 97.7321 46.3934 98.6209C47.385 99.5096 48.6698 100.001 50.0014 100.001C51.333 100.001 52.6178 99.5096 53.6094 98.6209C54.601 97.7321 55.2296 96.5086 55.3748 95.1849C55.52 93.8612 55.1716 92.5306 54.3962 91.448C53.6209 90.3654 52.4732 89.607 51.1733 89.3183V79.392H68.7752V86.4756C68.7751 86.6814 68.8292 86.8837 68.932 87.0619C69.0349 87.2402 69.1829 87.3883 69.3612 87.4912L78.0563 92.5107C77.5401 93.7411 77.4962 95.1187 77.9329 96.3795C78.3696 97.6403 79.2562 98.6956 80.4229 99.3431C81.5895 99.9906 82.954 100.185 84.255 99.8885C85.5559 99.5922 86.7018 98.8262 87.4729 97.7373C88.244 96.6484 88.5862 95.3133 88.4338 93.9877C88.2815 92.6622 87.6453 91.4395 86.6472 90.554C85.6491 89.6685 84.3593 89.1825 83.025 89.1891C81.6908 89.1957 80.4059 89.6945 79.4166 90.5898L71.119 85.7994V79.392H74.5104C75.8049 79.3905 77.0461 78.8756 77.9615 77.9602C78.8768 77.0448 79.3917 75.8037 79.3932 74.5092V71.118H85.8006L90.591 79.4154C89.7007 80.4011 89.2054 81.6806 89.1998 83.0089C89.1943 84.3371 89.6789 85.6207 90.561 86.6138C91.443 87.6069 92.6604 88.2398 93.98 88.391C95.2996 88.5423 96.6287 88.2015 97.7126 87.4337C98.7965 86.666 99.5591 85.5254 99.8543 84.2304C100.149 82.9353 99.9566 81.5769 99.3124 80.4153C98.6683 79.2537 97.6183 78.3705 96.3635 77.935C95.1086 77.4994 93.7372 77.5421 92.5119 78.0549L87.4924 69.3601C87.3895 69.1819 87.2414 69.0339 87.0632 68.931C86.8849 68.8282 86.6826 68.7741 86.4768 68.7742H79.3928V51.1721H89.3192C89.6078 52.472 90.3662 53.6197 91.4488 54.395C92.5314 55.1703 93.8621 55.5188 95.1857 55.3736C96.5094 55.2284 97.7329 54.5997 98.6217 53.6081C99.5105 52.6166 100.002 51.3318 100.002 50.0002C100.002 48.6686 99.5105 47.3838 98.6217 46.3922C97.7329 45.4006 96.5094 44.772 95.1857 44.6268C93.8621 44.4816 92.5314 44.83 91.4488 45.6054C90.3662 46.3807 89.6078 47.5284 89.3192 48.8283H79.393V31.2262H86.477ZM94.5957 13.8961C95.2013 13.8961 95.7933 14.0757 96.2968 14.4121C96.8004 14.7486 97.1928 15.2268 97.4246 15.7863C97.6563 16.3457 97.717 16.9614 97.5988 17.5553C97.4807 18.1493 97.1891 18.6949 96.7608 19.1231C96.3326 19.5513 95.787 19.8429 95.1931 19.9611C94.5991 20.0792 93.9835 20.0186 93.424 19.7868C92.8645 19.5551 92.3863 19.1626 92.0499 18.6591C91.7134 18.1556 91.5338 17.5636 91.5338 16.958C91.5348 16.1462 91.8576 15.3679 92.4317 14.7939C93.0057 14.2199 93.784 13.897 94.5957 13.8961ZM83.0436 2.34393C83.6492 2.34389 84.2412 2.52344 84.7448 2.85986C85.2483 3.19629 85.6408 3.67448 85.8726 4.23397C86.1043 4.79346 86.165 5.40911 86.0469 6.00308C85.9288 6.59704 85.6372 7.14264 85.209 7.57088C84.7807 7.99911 84.2352 8.29075 83.6412 8.40891C83.0472 8.52707 82.4316 8.46645 81.8721 8.23471C81.3126 8.00296 80.8344 7.61051 80.4979 7.10698C80.1615 6.60344 79.9819 6.01145 79.9819 5.40585C79.9831 4.59418 80.306 3.81609 80.8799 3.24213C81.4538 2.66817 82.2319 2.34517 83.0436 2.34393ZM46.9395 5.40585C46.9394 4.8002 47.119 4.20815 47.4555 3.70456C47.7919 3.20097 48.2701 2.80846 48.8297 2.57667C49.3892 2.34488 50.0049 2.28422 50.5989 2.40237C51.1929 2.52052 51.7386 2.81216 52.1668 3.24041C52.5951 3.66867 52.8867 4.2143 53.0049 4.80831C53.123 5.40232 53.0624 6.01803 52.8306 6.57756C52.5988 7.1371 52.2063 7.61533 51.7027 7.95178C51.1991 8.28824 50.607 8.4678 50.0014 8.46776C49.1896 8.46683 48.4113 8.14394 47.8373 7.56992C47.2633 6.9959 46.9404 6.21763 46.9395 5.40585ZM16.9592 8.46776C16.3536 8.4678 15.7616 8.28825 15.2581 7.95183C14.7545 7.61541 14.362 7.13721 14.1302 6.57773C13.8985 6.01824 13.8378 5.40258 13.9559 4.80862C14.074 4.21465 14.3656 3.66905 14.7938 3.24082C15.2221 2.81258 15.7676 2.52094 16.3616 2.40278C16.9556 2.28462 17.5712 2.34525 18.1307 2.57699C18.6902 2.80873 19.1684 3.20119 19.5049 3.70472C19.8413 4.20825 20.0209 4.80025 20.0209 5.40585C20.0197 6.21752 19.6968 6.99561 19.1229 7.56957C18.549 8.14352 17.7709 8.46652 16.9592 8.46776ZM2.34515 16.958C2.34511 16.3524 2.52466 15.7604 2.86108 15.2568C3.19751 14.7533 3.6757 14.3608 4.23519 14.129C4.79467 13.8972 5.41033 13.8366 6.00429 13.9547C6.59826 14.0728 7.14386 14.3644 7.5721 14.7926C8.00033 15.2208 8.29197 15.7664 8.41013 16.3604C8.52829 16.9543 8.46767 17.57 8.23592 18.1295C8.00418 18.689 7.61173 19.1672 7.10819 19.5037C6.60466 19.8401 6.01266 20.0197 5.40706 20.0197C4.59531 20.0188 3.81707 19.6959 3.24306 19.1219C2.66905 18.548 2.34613 17.7697 2.34515 16.958ZM5.40706 53.0621C4.80148 53.0621 4.20949 52.8825 3.70596 52.5461C3.20243 52.2096 2.80997 51.7314 2.57823 51.1719C2.34648 50.6124 2.28584 49.9968 2.40398 49.4028C2.52213 48.8089 2.81375 48.2633 3.24196 47.8351C3.67018 47.4069 4.21576 47.1152 4.80971 46.9971C5.40367 46.879 6.01932 46.9396 6.57881 47.1713C7.1383 47.4031 7.61651 47.7955 7.95295 48.2991C8.2894 48.8026 8.46898 49.3946 8.46898 50.0002C8.4681 50.812 8.14522 51.5903 7.57119 52.1643C6.99716 52.7383 6.21887 53.0612 5.40706 53.0621ZM5.40706 86.1043C4.80148 86.1043 4.20949 85.9247 3.70596 85.5883C3.20243 85.2518 2.80997 84.7736 2.57823 84.2141C2.34648 83.6546 2.28584 83.039 2.40398 82.445C2.52213 81.8511 2.81375 81.3055 3.24196 80.8773C3.67018 80.4491 4.21576 80.1574 4.80971 80.0393C5.40367 79.9212 6.01932 79.9818 6.57881 80.2135C7.1383 80.4453 7.61651 80.8377 7.95295 81.3413C8.2894 81.8448 8.46898 82.4368 8.46898 83.0424C8.46805 83.8542 8.14516 84.6324 7.57114 85.2064C6.99712 85.7805 6.21885 86.1034 5.40706 86.1043ZM16.9592 97.6564C16.3536 97.6565 15.7616 97.4769 15.2581 97.1405C14.7545 96.8041 14.362 96.3259 14.1302 95.7664C13.8985 95.2069 13.8378 94.5913 13.9559 93.9973C14.074 93.4033 14.3656 92.8577 14.7938 92.4295C15.2221 92.0013 15.7676 91.7096 16.3616 91.5915C16.9556 91.4733 17.5712 91.5339 18.1307 91.7657C18.6902 91.9974 19.1684 92.3899 19.5049 92.8934C19.8413 93.3969 20.0209 93.9889 20.0209 94.5945C20.0197 95.4062 19.6968 96.1843 19.1229 96.7582C18.549 97.3322 17.7709 97.6552 16.9592 97.6564ZM53.0633 94.5945C53.0634 95.2002 52.8838 95.7922 52.5473 96.2958C52.2109 96.7994 51.7327 97.1919 51.1731 97.4237C50.6136 97.6555 49.9979 97.7161 49.4039 97.598C48.8099 97.4799 48.2642 97.1882 47.836 96.76C47.4077 96.3317 47.1161 95.7861 46.9979 95.1921C46.8798 94.598 46.9404 93.9823 47.1722 93.4228C47.404 92.8633 47.7965 92.385 48.3001 92.0486C48.8037 91.7121 49.3958 91.5326 50.0014 91.5326C50.8132 91.5335 51.5915 91.8564 52.1655 92.4305C52.7395 93.0045 53.0624 93.7827 53.0633 94.5945ZM83.0438 91.5326C83.6494 91.5326 84.2414 91.7122 84.7449 92.0486C85.2484 92.3851 85.6409 92.8633 85.8726 93.4228C86.1044 93.9823 86.165 94.5979 86.0469 95.1919C85.9287 95.7858 85.6371 96.3314 85.2089 96.7596C84.7807 97.1878 84.2351 97.4795 83.6411 97.5976C83.0472 97.7157 82.4315 97.6551 81.872 97.4234C81.3125 97.1916 80.8343 96.7992 80.4979 96.2956C80.1614 95.7921 79.9819 95.2001 79.9819 94.5945C79.9831 93.7828 80.306 93.0048 80.8799 92.4308C81.4538 91.8568 82.2319 91.5338 83.0436 91.5326H83.0438ZM77.0494 74.5092C77.0487 75.1823 76.781 75.8277 76.305 76.3038C75.829 76.7798 75.1836 77.0475 74.5104 77.0482H25.4926C24.8194 77.0475 24.1741 76.7797 23.6981 76.3037C23.2221 75.8277 22.9543 75.1823 22.9536 74.5092V25.4912C22.9543 24.818 23.2221 24.1727 23.6981 23.6967C24.1741 23.2207 24.8194 22.9529 25.4926 22.9521H74.5104C75.1836 22.9529 75.829 23.2206 76.305 23.6966C76.781 24.1726 77.0487 24.818 77.0494 25.4912V74.5092ZM97.6576 83.0424C97.6577 83.648 97.4781 84.24 97.1417 84.7435C96.8053 85.2471 96.3271 85.6396 95.7676 85.8714C95.2081 86.1031 94.5925 86.1638 93.9985 86.0457C93.4045 85.9275 92.8589 85.6359 92.4307 85.2077C92.0025 84.7795 91.7108 84.2339 91.5927 83.64C91.4745 83.046 91.5351 82.4304 91.7669 81.8709C91.9986 81.3114 92.3911 80.8331 92.8946 80.4967C93.3981 80.1602 93.9901 79.9807 94.5957 79.9807C95.4075 79.9816 96.1857 80.3045 96.7597 80.8784C97.3338 81.4524 97.6567 82.2306 97.6576 83.0424ZM94.5957 46.9383C95.2013 46.9383 95.7933 47.1178 96.2968 47.4543C96.8004 47.7907 97.1928 48.2689 97.4246 48.8284C97.6563 49.3879 97.717 50.0036 97.5988 50.5975C97.4807 51.1915 97.1891 51.7371 96.7608 52.1653C96.3326 52.5935 95.787 52.8851 95.1931 53.0033C94.5991 53.1214 93.9835 53.0608 93.424 52.829C92.8645 52.5973 92.3863 52.2048 92.0499 51.7013C91.7134 51.1978 91.5338 50.6058 91.5338 50.0002C91.5347 49.1884 91.8576 48.4101 92.4316 47.8361C93.0056 47.262 93.7839 46.9391 94.5957 46.9383ZM50.0014 28.0256C46.4507 28.0255 42.9886 29.1339 40.0982 31.1961C37.2077 33.2583 35.0332 36.1714 33.878 39.5289C32.7228 42.8864 32.6445 46.5207 33.6542 49.9248C34.6638 53.3289 36.711 56.3329 39.51 58.5176C39.9491 58.8451 40.3035 59.2729 40.5435 59.7652C40.7836 60.2576 40.9024 60.8002 40.8901 61.3478V65.0105C40.8909 65.6032 41.0823 66.1799 41.4359 66.6556C41.7895 67.1312 42.2866 67.4806 42.8539 67.6521C43.5376 68.9562 44.565 70.0483 45.8248 70.8104C47.0847 71.5724 48.529 71.9752 50.0014 71.9752C51.4738 71.9752 52.9181 71.5724 54.178 70.8104C55.4378 70.0483 56.4652 68.9562 57.1489 67.6521C57.7162 67.4806 58.2133 67.1312 58.5669 66.6556C58.9205 66.1799 59.1119 65.6032 59.1127 65.0105V61.3478C59.1004 60.8002 59.2192 60.2576 59.4593 59.7653C59.6994 59.273 60.0537 58.8452 60.4928 58.5178C63.2919 56.3331 65.3391 53.3291 66.3488 49.925C67.3585 46.5209 67.2803 42.8864 66.1251 39.5289C64.9699 36.1714 62.7953 33.2582 59.9048 31.196C57.0143 29.1338 53.5521 28.0255 50.0014 28.0256ZM56.769 63.1713V65.0101C56.7676 65.12 56.7233 65.225 56.6456 65.3027C56.5679 65.3805 56.4629 65.4247 56.353 65.4262H43.6498C43.5399 65.4247 43.435 65.3805 43.3572 65.3027C43.2795 65.225 43.2352 65.12 43.2338 65.0101V63.1713H56.769ZM50.0014 45.3892C49.5662 45.3892 49.1409 45.2602 48.779 45.0184C48.4172 44.7767 48.1352 44.4331 47.9687 44.031C47.8022 43.629 47.7586 43.1866 47.8435 42.7598C47.9284 42.333 48.1379 41.941 48.4456 41.6333C48.7533 41.3256 49.1454 41.116 49.5722 41.0311C49.999 40.9462 50.4413 40.9898 50.8434 41.1563C51.2454 41.3229 51.589 41.6049 51.8308 41.9667C52.0726 42.3285 52.2016 42.7539 52.2016 43.1891C52.2009 43.7724 51.9689 44.3316 51.5564 44.7441C51.144 45.1566 50.5847 45.3886 50.0014 45.3892ZM50.0014 69.631C49.2068 69.6315 48.4209 69.4662 47.6938 69.1457C46.9668 68.8252 46.3145 68.3567 45.7787 67.7699H54.2241C53.6883 68.3567 53.036 68.8252 52.309 69.1457C51.5819 69.4662 50.796 69.6315 50.0014 69.631ZM59.0496 56.6709C58.4028 57.1665 57.8675 57.7928 57.4786 58.5089C57.0897 59.2251 56.856 60.0151 56.7926 60.8275H51.1733V47.5783C52.2387 47.2939 53.1644 46.6317 53.7777 45.7153C54.3911 44.7988 54.6502 43.6905 54.5068 42.5971C54.3633 41.5037 53.8272 40.4998 52.9982 39.7725C52.1693 39.0452 51.1042 38.6441 50.0014 38.6441C48.8986 38.6441 47.8335 39.0452 47.0046 39.7725C46.1756 40.4998 45.6395 41.5037 45.496 42.5971C45.3526 43.6905 45.6117 44.7988 46.2251 45.7153C46.8384 46.6317 47.7641 47.2939 48.8295 47.5783V60.8267H43.2102C43.1468 60.0143 42.9131 59.2243 42.5242 58.5081C42.1353 57.792 41.6 57.1657 40.9532 56.6701C38.5387 54.7859 36.7728 52.1948 35.9017 49.2587C35.0307 46.3225 35.098 43.1876 36.0943 40.2915C37.0906 37.3954 38.9662 34.8827 41.4594 33.1038C43.9525 31.325 46.9387 30.3688 50.0014 30.3688C53.0641 30.3688 56.0503 31.325 58.5434 33.1038C61.0366 34.8827 62.9122 37.3954 63.9085 40.2915C64.9048 43.1876 64.9721 46.3225 64.1011 49.2587C63.23 52.1948 61.4641 54.7859 59.0496 56.6701V56.6709Z" fill="url(#paint0_linear_844_2278)"/>
<defs>
<linearGradient id="paint0_linear_844_2278" x1="50.0015" y1="-0.0234375" x2="50.0015" y2="100.024" gradientUnits="userSpaceOnUse">
<stop stop-color="white"/>
<stop offset="1" stop-color="#999999"/>
</linearGradient>
</defs>
</svg>
