<svg width="871" height="682" viewBox="0 0 871 682" fill="none" xmlns="http://www.w3.org/2000/svg">
<path d="M622.295 44.5078C605.728 48.4245 590.466 58.612 575.945 72.6786C570.632 77.8286 565.224 77.3453 561.203 75.2203L591.72 90.4828C595.737 92.6036 601.145 93.0911 606.461 87.9411C620.982 73.8745 636.245 63.687 652.807 59.7703L622.295 44.5078Z" fill="url(#paint0_linear_881_1504)"/>
<path d="M531.742 35.666C543.667 40.5077 549.109 68.8119 561.209 75.2035L591.726 90.466C579.642 84.0743 574.184 55.766 562.255 50.9285L531.742 35.666Z" fill="url(#paint1_linear_881_1504)"/>
<path d="M531.735 35.6676C528.335 34.2926 524.41 34.8343 519.652 38.3009C498.456 53.8218 491.64 122.768 465.902 141.634C452.285 151.593 437.381 138.83 417.84 153.143C400.81 165.613 387.548 197.334 368.306 211.426C361.781 216.205 356.71 215.947 352.219 213.601L382.735 228.863C387.227 231.205 392.298 231.463 398.819 226.688C418.065 212.597 431.319 180.855 448.352 168.405C467.906 154.088 482.81 166.847 496.415 156.884C522.165 138.03 528.981 69.0801 550.165 53.5509C554.919 50.0676 558.848 49.5384 562.248 50.9176L531.735 35.6676Z" fill="url(#paint2_linear_881_1504)"/>
<path d="M352.217 213.601C346.042 210.384 340.967 203.226 334.688 199.801L365.204 215.063C371.475 218.488 376.558 225.642 382.733 228.863L352.217 213.601Z" fill="url(#paint3_linear_881_1504)"/>
<path d="M334.687 199.8C329.842 197.15 324.271 196.733 316.958 202.091C294.696 218.395 295.479 263.92 263.917 287.033C254.483 293.941 247.358 293.125 241.062 289.862L271.596 305.125C277.887 308.383 285.013 309.2 294.446 302.291C325.992 279.183 325.212 233.675 347.475 217.354C354.796 212.008 360.346 212.425 365.204 215.062L334.687 199.8Z" fill="url(#paint4_linear_881_1504)"/>
<path d="M770.915 385.658C770.915 380.183 766.748 374.708 758.386 370.529L573.411 278.029C556.703 269.696 529.611 269.696 512.903 278.029L327.928 370.529C319.573 374.696 315.398 380.183 315.398 385.658V681.175H770.915V385.658Z" fill="url(#paint5_linear_881_1504)"/>
<path d="M758.388 400.788L573.413 493.288C556.705 501.642 529.613 501.642 512.905 493.288L327.93 400.788C311.221 392.454 311.221 378.883 327.93 370.529L512.905 278.029C529.613 269.696 556.705 269.696 573.413 278.029L758.388 370.529C775.096 378.883 775.096 392.425 758.388 400.788Z" fill="url(#paint6_linear_881_1504)"/>
<path d="M865.249 398.462L842.578 387.129C836.22 383.949 825.911 383.949 819.553 387.129L795.349 399.212C792.17 400.804 790.578 402.887 790.578 404.97V451.22C790.578 453.303 792.17 455.387 795.349 456.979L818.016 468.316C824.374 471.495 834.682 471.495 841.041 468.316L865.249 456.208C868.428 454.62 870.016 452.537 870.016 450.454V404.204C870.016 402.137 868.428 400.053 865.249 398.462Z" fill="url(#paint7_linear_881_1504)"/>
<path d="M865.243 409.979L841.035 422.062C834.677 425.245 824.368 425.245 818.01 422.062L795.339 410.758C788.981 407.579 788.981 402.424 795.339 399.241L819.543 387.158C825.902 383.979 836.21 383.979 842.568 387.158L865.239 398.491C871.589 401.645 871.589 406.799 865.243 409.979Z" fill="url(#paint8_linear_881_1504)"/>
<path d="M727.671 507.718L705 496.384C698.642 493.205 688.333 493.205 681.975 496.384L657.771 508.468C654.592 510.059 653 512.143 653 514.226V534.022C653 536.105 654.592 538.189 657.771 539.776L680.437 551.114C686.796 554.293 697.104 554.293 703.462 551.114L727.671 539.03C730.85 537.439 732.438 535.355 732.438 533.272V513.476C732.438 511.393 730.85 509.309 727.671 507.718Z" fill="url(#paint9_linear_881_1504)"/>
<path d="M727.669 519.235L703.46 531.339C697.102 534.518 686.794 534.518 680.435 531.339L657.769 520.006C651.41 516.823 651.41 511.673 657.769 508.489L681.973 496.406C688.331 493.227 698.64 493.227 704.998 496.406L727.669 507.739C734.027 510.902 734.027 516.056 727.669 519.235Z" fill="url(#paint10_linear_881_1504)"/>
<path style="mix-blend-mode:multiply" d="M692.022 515.934H669.289V522.354H692.022V515.934Z" fill="url(#paint11_linear_881_1504)"/>
<path d="M692.033 522.356L679.195 515.935V503.098L692.033 509.519V522.356Z" fill="url(#paint12_linear_881_1504)"/>
<path d="M704.865 515.935L692.031 522.356V509.519L704.865 503.098V515.935Z" fill="url(#paint13_linear_881_1504)"/>
<path d="M704.866 503.096L692.033 509.517L679.195 503.096L692.033 496.68L704.866 503.096Z" fill="url(#paint14_linear_881_1504)"/>
<path style="mix-blend-mode:multiply" d="M543.125 319.342H432.445V358.367H543.125V319.342Z" fill="url(#paint15_linear_881_1504)"/>
<path d="M609.318 191.176L566.693 169.859C554.739 163.88 535.356 163.88 523.397 169.859L477.881 192.634C471.906 195.622 468.914 199.543 468.914 203.468V321.739C468.914 325.659 471.906 329.576 477.881 332.572L520.506 353.889C532.46 359.868 551.847 359.868 563.802 353.889L609.318 331.126C615.297 328.134 618.285 324.218 618.285 320.293V202.009C618.285 198.097 615.297 194.176 609.318 191.176Z" fill="url(#paint16_linear_881_1504)"/>
<path d="M609.325 212.843L563.808 235.605C551.854 241.584 532.471 241.584 520.513 235.605L477.887 214.289C465.933 208.309 465.933 198.614 477.887 192.622L523.404 169.859C535.362 163.88 554.746 163.88 566.7 169.859L609.325 191.176C621.283 197.168 621.283 206.864 609.325 212.843Z" fill="url(#paint17_linear_881_1504)"/>
<path style="mix-blend-mode:multiply" d="M661.124 378.133H550.445V417.158H661.124V378.133Z" fill="url(#paint18_linear_881_1504)"/>
<path d="M726.842 281.259L684.217 259.926C672.258 253.947 652.875 253.947 640.921 259.926L595.404 282.688C589.425 285.68 586.438 289.597 586.438 293.522V380.522C586.438 384.442 589.425 388.359 595.404 391.355L638.029 412.672C649.983 418.655 669.367 418.655 681.325 412.672L726.842 389.926C732.817 386.938 735.808 383.017 735.808 379.092V292.088C735.808 288.167 732.817 284.251 726.842 281.259Z" fill="url(#paint19_linear_881_1504)"/>
<path d="M726.844 302.913L681.327 325.676C669.369 331.655 649.985 331.655 638.031 325.676L595.406 304.359C583.448 298.38 583.448 288.684 595.406 282.692L640.923 259.926C652.877 253.947 672.26 253.947 684.219 259.926L726.844 281.242C738.798 287.238 738.798 296.934 726.844 302.913Z" fill="url(#paint20_linear_881_1504)"/>
<path style="mix-blend-mode:multiply" d="M425.968 378.117H315.289V417.142H425.968V378.117Z" fill="url(#paint21_linear_881_1504)"/>
<path d="M491.685 312.537L449.06 291.221C437.102 285.242 417.719 285.242 405.765 291.221L360.248 313.983C354.269 316.971 351.281 320.892 351.281 324.817V380.542C351.281 384.462 354.269 388.379 360.248 391.375L402.873 412.692C414.827 418.675 434.21 418.675 446.169 412.692L491.685 389.925C497.66 386.937 500.652 383.017 500.652 379.092V323.362C500.652 319.446 497.66 315.525 491.685 312.537Z" fill="url(#paint22_linear_881_1504)"/>
<path d="M491.687 334.192L446.179 356.954C434.22 362.933 414.837 362.933 402.883 356.954L360.258 335.637C348.299 329.658 348.299 319.962 360.258 313.971L405.762 291.221C417.716 285.242 437.099 285.242 449.058 291.221L491.683 312.537C503.641 318.517 503.641 328.212 491.687 334.192Z" fill="url(#paint23_linear_881_1504)"/>
<path d="M344.57 473.046L302.507 452.009C290.707 446.109 271.578 446.109 259.782 452.009L214.861 474.476C208.966 477.426 206.016 481.292 206.016 485.159V503.305C206.016 507.171 208.966 511.042 214.861 513.992L256.945 535.026C268.741 540.93 287.874 540.93 299.67 535.026L344.586 512.563C350.486 509.613 353.436 505.746 353.436 501.88V483.73C353.42 479.863 350.47 475.996 344.57 473.046Z" fill="url(#paint24_linear_881_1504)"/>
<path d="M344.572 494.417L299.655 516.88C287.859 522.78 268.726 522.78 256.93 516.88L214.847 495.842C203.051 489.942 203.051 480.376 214.847 474.476L259.784 452.009C271.58 446.109 290.709 446.109 302.509 452.009L344.572 473.046C356.372 478.946 356.372 488.513 344.572 494.417Z" fill="url(#paint25_linear_881_1504)"/>
<path d="M396.149 580.784L368.891 567.151V539.896L396.149 553.526V580.784Z" fill="url(#paint26_linear_881_1504)"/>
<path d="M423.407 567.151L396.148 580.784V553.526L423.407 539.896V567.151Z" fill="url(#paint27_linear_881_1504)"/>
<path d="M423.407 539.895L396.149 553.524L368.891 539.895L396.149 526.262L423.407 539.895Z" fill="url(#paint28_linear_881_1504)"/>
<path d="M817.423 213.596L791.548 200.654C789.211 199.488 785.423 199.488 783.086 200.654L757.211 213.596C756.044 214.179 755.461 214.946 755.461 215.708V243.321C755.461 244.088 756.044 244.854 757.211 245.438L783.086 258.379C785.423 259.546 789.211 259.546 791.548 258.379L817.423 245.438C818.59 244.854 819.173 244.088 819.173 243.321V215.708C819.169 214.946 818.586 214.179 817.423 213.596Z" fill="url(#paint29_linear_881_1504)"/>
<path d="M817.423 217.843L791.544 230.759C789.206 231.926 785.419 231.926 783.081 230.759L757.206 217.843C754.869 216.676 754.869 214.78 757.206 213.614L783.081 200.672C785.419 199.505 789.206 199.505 791.544 200.672L817.419 213.614C819.752 214.764 819.752 216.659 817.423 217.843Z" fill="url(#paint30_linear_881_1504)"/>
<path d="M763.021 169.574L742.426 159.27C741.362 158.809 740.214 158.57 739.055 158.57C737.895 158.57 736.748 158.809 735.684 159.27L715.076 169.574C714.146 170.041 713.68 170.649 713.68 171.262V193.258C713.68 193.866 714.146 194.479 715.076 194.924L735.684 205.229C736.748 205.688 737.895 205.926 739.055 205.926C740.214 205.926 741.361 205.688 742.426 205.229L763.021 194.924C763.955 194.458 764.417 193.845 764.417 193.258V171.262C764.417 170.649 763.955 170.041 763.021 169.574Z" fill="url(#paint31_linear_881_1504)"/>
<path d="M763.022 172.945L742.427 183.257C741.362 183.717 740.215 183.954 739.056 183.954C737.896 183.954 736.749 183.717 735.685 183.257L715.077 172.949C713.214 172.02 713.214 170.512 715.077 169.578L735.685 159.274C736.749 158.812 737.896 158.574 739.056 158.574C740.215 158.574 741.363 158.812 742.427 159.274L763.031 169.578C764.885 170.507 764.885 172.007 763.022 172.945Z" fill="url(#paint32_linear_881_1504)"/>
<path d="M789.83 48.2131L779.092 42.8423C778.538 42.6011 777.94 42.4766 777.336 42.4766C776.732 42.4766 776.134 42.6011 775.58 42.8423L764.846 48.2089C764.359 48.4548 764.117 48.7714 764.117 49.0881V60.5464C764.117 60.8673 764.359 61.1839 764.846 61.4256L775.58 66.7964C776.134 67.0355 776.732 67.1588 777.336 67.1588C777.94 67.1588 778.538 67.0355 779.092 66.7964L789.83 61.4256C790.313 61.1839 790.559 60.8673 790.559 60.5464V49.0923C790.559 48.7756 790.313 48.4589 789.83 48.2131Z" fill="url(#paint33_linear_881_1504)"/>
<path d="M789.829 49.9714L779.091 55.3423C778.536 55.5813 777.939 55.7046 777.335 55.7046C776.731 55.7046 776.133 55.5813 775.579 55.3423L764.845 49.9714C763.874 49.4881 763.874 48.7006 764.845 48.2131L775.579 42.8423C776.133 42.6011 776.731 42.4766 777.335 42.4766C777.939 42.4766 778.537 42.6011 779.091 42.8423L789.829 48.2089C790.799 48.7006 790.799 49.5089 789.829 49.9714Z" fill="url(#paint34_linear_881_1504)"/>
<path style="mix-blend-mode:multiply" d="M438.414 421.004V479.762H541.989L576.56 464.95L587.864 455.458V445.346L590.656 421.004H438.414Z" fill="url(#paint35_linear_881_1504)"/>
<path d="M590.661 421.004V358.675C563.782 345.233 520.207 345.233 493.328 358.675V421.004L509.557 429.121C527.474 420.162 556.52 420.162 574.432 429.121L590.682 421.004H590.661Z" fill="url(#paint36_linear_881_1504)"/>
<path d="M493.328 358.676V421.005L509.557 429.122V366.792L493.328 358.676Z" fill="url(#paint37_linear_881_1504)"/>
<path d="M590.659 358.676V421.005L574.43 429.122V366.792L590.659 358.676Z" fill="url(#paint38_linear_881_1504)"/>
<path d="M493.328 358.675L509.557 366.792C527.474 357.833 556.52 357.833 574.432 366.792L590.682 358.675C563.782 345.233 520.207 345.233 493.328 358.675Z" fill="url(#paint39_linear_881_1504)"/>
<path d="M590.656 320.092L574.406 328.208V429.121C583.365 433.6 587.844 439.471 587.844 445.346H610.794V344.429C610.815 335.621 604.09 326.813 590.656 320.092Z" fill="url(#paint40_linear_881_1504)"/>
<path d="M610.821 344.43H587.867V445.342H610.821V344.43Z" fill="url(#paint41_linear_881_1504)"/>
<path d="M574.43 328.208C583.388 332.688 587.867 338.558 587.867 344.429H610.817C610.817 335.621 604.096 326.813 590.659 320.092L574.43 328.208Z" fill="url(#paint42_linear_881_1504)"/>
<path d="M610.817 397.93H587.867C587.867 403.801 583.388 409.671 574.43 414.151V461.567L590.68 469.684C604.117 462.963 610.838 454.155 610.838 445.346L610.817 397.93Z" fill="url(#paint43_linear_881_1504)"/>
<path d="M590.659 422.267V469.684L574.43 461.567V414.15L590.659 422.267Z" fill="url(#paint44_linear_881_1504)"/>
<path d="M610.817 397.93H587.867C587.867 403.801 583.388 409.671 574.43 414.151L590.68 422.267C604.092 415.546 610.817 406.738 610.817 397.93Z" fill="url(#paint45_linear_881_1504)"/>
<path d="M590.657 459.509L574.407 451.392C556.49 460.351 527.449 460.351 509.532 451.392C503.178 448.213 499.082 444.334 497.236 440.255C499.082 436.171 503.178 432.292 509.532 429.113V418.951L493.303 410.834C479.811 417.58 473.095 426.434 473.149 435.28V445.234C473.099 454.076 479.815 462.93 493.307 469.676C520.186 483.117 563.761 483.117 590.64 469.676L590.657 459.509Z" fill="url(#paint46_linear_881_1504)"/>
<path d="M574.432 451.4C556.516 460.358 527.474 460.358 509.557 451.4C491.641 442.442 491.641 427.917 509.557 418.959L493.328 410.842C466.453 424.283 466.453 446.075 493.328 459.517C520.203 472.958 563.782 472.958 590.661 459.517L574.432 451.4Z" fill="url(#paint47_linear_881_1504)"/>
<path style="mix-blend-mode:screen" d="M701.765 89.8496H622.094V276.958H701.765V89.8496Z" fill="url(#paint48_linear_881_1504)"/>
<path style="mix-blend-mode:screen" d="M465.319 121.662H385.648V308.77H465.319V121.662Z" fill="url(#paint49_linear_881_1504)"/>
<path style="mix-blend-mode:screen" d="M582.952 0H503.281V187.108H582.952V0Z" fill="url(#paint50_linear_881_1504)"/>
<path style="mix-blend-mode:multiply" d="M664.871 280.547H586.438V309.789H664.871V280.547Z" fill="url(#paint51_linear_881_1504)"/>
<path d="M615.039 276.957V286.336C615.039 292.34 619.622 298.34 628.789 302.92C647.122 312.086 676.793 312.086 695.106 302.92C704.272 298.336 708.856 292.34 708.856 286.336V276.957H615.039Z" fill="url(#paint52_linear_881_1504)"/>
<path d="M661.931 300.408C687.828 300.408 708.822 289.909 708.822 276.958C708.822 264.007 687.828 253.508 661.931 253.508C636.033 253.508 615.039 264.007 615.039 276.958C615.039 289.909 636.033 300.408 661.931 300.408Z" fill="url(#paint53_linear_881_1504)"/>
<path d="M661.928 296.883C683.932 296.883 701.769 287.962 701.769 276.958C701.769 265.954 683.932 257.033 661.928 257.033C639.924 257.033 622.086 265.954 622.086 276.958C622.086 287.962 639.924 296.883 661.928 296.883Z" fill="#D3DAF3"/>
<path d="M633.759 265.224C649.317 257.44 674.546 257.44 690.105 265.224C697.284 268.815 701.142 273.436 701.696 278.14C702.342 272.653 698.484 267.061 690.105 262.87C674.546 255.09 649.317 255.09 633.759 262.87C625.38 267.061 621.517 272.653 622.163 278.14C622.717 273.436 626.592 268.815 633.759 265.224Z" fill="#B4C1F3"/>
<path d="M645.646 284.299L648.592 282.824C647.305 281.99 646.434 281.232 645.988 280.532C645.767 280.184 645.643 279.783 645.627 279.372C645.611 278.96 645.704 278.551 645.896 278.186C646.284 277.324 647.188 276.478 648.609 275.661L652.125 276.865C650.773 277.771 650.014 278.554 649.85 279.215C649.634 280.154 650.05 280.942 651.1 281.578L660.479 276.89C659.534 276.213 658.747 275.339 658.171 274.328C657.966 274.002 657.857 273.625 657.857 273.24C657.857 272.856 657.966 272.479 658.171 272.153C658.591 271.436 659.391 270.784 660.571 270.195C662.851 269.109 665.367 268.616 667.888 268.761C669.963 268.869 672.002 269.346 673.909 270.17L675.317 269.465L677.05 270.332L675.646 271.036C677.193 271.975 678.05 272.906 678.217 273.828C678.434 275.009 677.739 276.129 676.134 277.19L672.634 275.899C673.611 275.232 674.135 274.607 674.205 274.024C674.271 273.44 673.921 272.857 673.155 272.282L664.663 276.528C665.408 277.107 666.104 277.745 666.746 278.436C667.204 278.952 667.475 279.606 667.517 280.295C667.494 280.932 667.234 281.538 666.788 281.995C666.187 282.634 665.468 283.152 664.671 283.52C662.469 284.576 660.055 285.116 657.613 285.099C655.115 285.172 652.632 284.685 650.346 283.674L647.367 285.165L645.646 284.299ZM671.442 271.382C670.136 270.9 668.75 270.673 667.359 270.715C666.104 270.725 664.866 271.009 663.734 271.549C662.73 272.049 662.167 272.611 662.067 273.215C661.967 273.82 662.363 274.578 663.317 275.453L671.442 271.382ZM652.813 282.436C654.196 282.951 655.668 283.181 657.142 283.111C658.627 283.086 660.089 282.738 661.425 282.09C662.492 281.557 663.086 280.995 663.209 280.403C663.331 279.811 662.856 278.993 661.784 277.949L652.813 282.436Z" fill="#B4C1F3"/>
<path d="M645.646 282.729L648.592 281.254C647.305 280.421 646.434 279.662 645.988 278.962C645.767 278.614 645.643 278.214 645.627 277.802C645.611 277.39 645.704 276.981 645.896 276.617C646.285 275.756 647.189 274.914 648.609 274.092L652.125 275.296C650.773 276.199 650.014 276.982 649.85 277.646C649.634 278.585 650.05 279.374 651.1 280.012L660.459 275.342C659.513 274.664 658.726 273.79 658.15 272.779C657.945 272.453 657.837 272.076 657.837 271.692C657.837 271.307 657.945 270.93 658.15 270.604C658.57 269.887 659.37 269.235 660.55 268.646C662.83 267.56 665.346 267.067 667.867 267.212C669.942 267.32 671.981 267.797 673.888 268.621L675.296 267.917L677.03 268.783L675.625 269.487C677.173 270.426 678.029 271.357 678.196 272.279C678.413 273.457 677.718 274.578 676.113 275.642L672.613 274.35C673.591 273.683 674.114 273.058 674.184 272.475C674.253 271.892 673.903 271.311 673.134 270.733L664.642 274.979C665.386 275.559 666.082 276.198 666.725 276.887C667.183 277.403 667.454 278.058 667.496 278.746C667.473 279.383 667.213 279.989 666.767 280.446C666.166 281.085 665.447 281.603 664.65 281.971C662.449 283.029 660.035 283.57 657.592 283.55C655.105 283.618 652.634 283.131 650.359 282.125L647.38 283.617L645.646 282.729ZM671.442 269.812C670.136 269.332 668.75 269.106 667.359 269.146C666.104 269.155 664.866 269.439 663.734 269.979C662.73 270.479 662.167 271.042 662.067 271.646C661.967 272.25 662.363 273.008 663.317 273.883L671.442 269.812ZM652.813 280.867C654.196 281.382 655.668 281.611 657.142 281.542C658.627 281.516 660.089 281.168 661.425 280.521C662.492 279.987 663.086 279.432 663.209 278.854C663.33 278.262 662.854 277.446 661.784 276.396L652.813 280.867Z" fill="white"/>
<path style="mix-blend-mode:multiply" d="M425.965 311.738H347.531V340.98H425.965V311.738Z" fill="url(#paint54_linear_881_1504)"/>
<path d="M378.586 311.449V320.828C378.586 326.833 383.169 332.833 392.336 337.412C410.669 346.578 440.34 346.578 458.653 337.412C467.819 332.828 472.403 326.833 472.403 320.828V311.449H378.586Z" fill="url(#paint55_linear_881_1504)"/>
<path d="M425.478 334.9C451.375 334.9 472.369 324.401 472.369 311.45C472.369 298.499 451.375 288 425.478 288C399.58 288 378.586 298.499 378.586 311.45C378.586 324.401 399.58 334.9 425.478 334.9Z" fill="url(#paint56_linear_881_1504)"/>
<path d="M425.474 331.375C447.478 331.375 465.316 322.455 465.316 311.45C465.316 300.446 447.478 291.525 425.474 291.525C403.471 291.525 385.633 300.446 385.633 311.45C385.633 322.455 403.471 331.375 425.474 331.375Z" fill="#D3DAF3"/>
<path d="M397.305 299.717C412.863 291.933 438.093 291.933 453.651 299.717C460.83 303.308 464.688 307.929 465.243 312.633C465.888 307.146 462.03 301.554 453.651 297.367C438.093 289.583 412.863 289.583 397.305 297.367C388.926 301.554 385.068 307.146 385.709 312.633C386.263 307.929 390.122 303.308 397.305 299.717Z" fill="#B4C1F3"/>
<path d="M435.69 306.974C433.841 306.045 431.831 305.48 429.769 305.308C428.362 305.2 426.948 305.235 425.548 305.412C424.218 305.54 422.91 305.832 421.652 306.283L432.769 311.845L430.144 312.716L419.206 307.245C418.965 307.354 418.744 307.462 418.535 307.566C417.702 307.983 417.206 308.237 417.052 308.324L427.552 313.574L424.923 314.445L415.223 309.595C413.19 311.068 412.522 312.499 413.219 313.891C413.716 314.891 414.688 315.756 416.135 316.487C418.109 317.486 420.282 318.026 422.494 318.066L419.135 319.733C417.245 319.403 415.411 318.805 413.69 317.958C408.779 315.499 407.501 312.816 409.856 309.908C410.476 309.183 411.175 308.529 411.94 307.958L409.44 306.708L412.081 305.845L413.794 306.679C414.21 306.433 414.698 306.179 415.231 305.912C415.448 305.804 415.677 305.695 415.915 305.587L413.777 304.516L416.419 303.654L418.31 304.599C422.451 303.172 426.875 302.766 431.206 303.416C433.715 303.755 436.154 304.49 438.431 305.595C440.454 306.604 441.715 307.674 442.215 308.808L438.527 309.999C438.322 308.816 437.376 307.808 435.69 306.974Z" fill="#B4C1F3"/>
<path d="M435.69 305.384C433.839 304.465 431.829 303.909 429.769 303.746C428.362 303.638 426.948 303.673 425.548 303.85C424.219 303.98 422.91 304.273 421.652 304.721L432.769 310.284L430.144 311.155L419.206 305.684C418.965 305.792 418.744 305.9 418.535 306.005C417.702 306.421 417.206 306.675 417.052 306.763L427.552 312.013L424.923 312.875L415.223 308.025C413.19 309.5 412.522 310.932 413.219 312.321C413.716 313.321 414.688 314.186 416.135 314.917C418.108 315.919 420.282 316.459 422.494 316.496L419.135 318.163C417.245 317.833 415.411 317.235 413.69 316.388C408.779 313.93 407.501 311.246 409.856 308.338C410.475 307.613 411.174 306.96 411.94 306.392L409.44 305.142L412.081 304.28L413.794 305.134C414.21 304.888 414.698 304.634 415.231 304.367C415.448 304.259 415.677 304.15 415.915 304.042L413.777 302.975L416.419 302.109L418.31 303.055C422.451 301.627 426.875 301.222 431.206 301.871C433.725 302.209 436.174 302.948 438.46 304.059C440.483 305.073 441.744 306.143 442.244 307.271L438.556 308.463C438.331 307.252 437.376 306.225 435.69 305.384Z" fill="white"/>
<path style="mix-blend-mode:multiply" d="M543.605 189.801H465.172V219.042H543.605V189.801Z" fill="url(#paint57_linear_881_1504)"/>
<path d="M496.43 188.625V198.004C496.43 204.008 501.013 210.008 510.18 214.587C528.513 223.754 558.184 223.754 576.496 214.587C585.663 210.004 590.246 204.008 590.246 198.004V188.625H496.43Z" fill="url(#paint58_linear_881_1504)"/>
<path d="M543.321 212.076C569.219 212.076 590.213 201.577 590.213 188.626C590.213 175.675 569.219 165.176 543.321 165.176C517.424 165.176 496.43 175.675 496.43 188.626C496.43 201.577 517.424 212.076 543.321 212.076Z" fill="url(#paint59_linear_881_1504)"/>
<path d="M543.318 208.551C565.322 208.551 583.16 199.63 583.16 188.626C583.16 177.622 565.322 168.701 543.318 168.701C521.314 168.701 503.477 177.622 503.477 188.626C503.477 199.63 521.314 208.551 543.318 208.551Z" fill="url(#paint60_linear_881_1504)"/>
<path d="M515.286 176.768C530.844 168.985 556.074 168.985 571.632 176.768C578.815 180.356 582.674 184.977 583.228 189.685C583.874 184.202 580.011 178.61 571.632 174.418C556.074 166.639 530.844 166.639 515.286 174.418C506.907 178.61 503.049 184.202 503.694 189.685C504.249 184.977 508.107 180.356 515.286 176.768Z" fill="#174DBA"/>
<path d="M552.385 193.83C552.63 192.925 552.24 192.004 551.215 191.068C552.77 191.347 554.357 191.402 555.927 191.23C557.227 191.106 558.496 190.757 559.677 190.201C560.631 189.787 561.415 189.062 561.902 188.143C562.09 187.75 562.157 187.309 562.093 186.878C562.029 186.446 561.838 186.044 561.544 185.722C560.924 184.928 559.697 184.071 557.86 183.151L558.719 183.568L561.852 182.001L559.431 180.789L556.294 182.355L553.956 181.185L557.09 179.618L554.815 178.48L551.681 180.047L548.856 178.635L524.844 190.668L527.665 192.076L524.531 193.647L526.806 194.785L529.94 193.214L532.281 194.385L529.148 195.955L531.569 197.168L534.706 195.597L533.994 195.243C535.365 195.943 536.794 196.523 538.265 196.976C539.506 197.356 540.786 197.598 542.081 197.697C543.417 197.778 544.757 197.698 546.073 197.46C547.408 197.247 548.705 196.84 549.923 196.251C551.317 195.54 552.138 194.733 552.385 193.83ZM553.981 184.051C555.706 184.915 556.817 185.579 557.315 186.043C557.802 186.51 557.931 186.993 557.731 187.485C557.386 188.092 556.846 188.565 556.198 188.826C555.352 189.247 554.432 189.498 553.49 189.564C552.472 189.634 551.45 189.528 550.469 189.251C549.327 188.897 548.22 188.437 547.165 187.876L541.973 185.28L549.227 181.651L553.981 184.051ZM544.135 195.36C543.293 195.492 542.437 195.513 541.59 195.422C540.737 195.319 539.899 195.122 539.09 194.835C538.312 194.537 537.553 194.195 536.815 193.81L530.84 190.822L539.09 186.697L544.64 189.472C545.762 189.975 546.808 190.633 547.748 191.426C548.304 191.968 548.476 192.524 548.265 193.093C548.06 193.651 547.515 194.155 546.598 194.605C545.821 194.983 544.99 195.238 544.135 195.36Z" fill="#174DBA"/>
<path d="M552.525 192.134C552.769 191.229 552.379 190.308 551.354 189.372C552.909 189.651 554.496 189.706 556.067 189.534C557.367 189.41 558.635 189.061 559.817 188.505C560.77 188.092 561.554 187.368 562.042 186.451C562.23 186.057 562.297 185.616 562.233 185.184C562.169 184.752 561.978 184.349 561.683 184.026C561.063 183.23 558.858 181.884 558.858 181.884L561.992 180.318L559.571 179.105L556.433 180.672L554.096 179.501L557.229 177.934L554.954 176.797L551.821 178.364L548.996 176.951L525 188.955L527.821 190.364L524.688 191.934L526.962 193.072L530.096 191.505L532.437 192.672L529.304 194.243L531.725 195.455L534.846 193.876L534.133 193.522C535.505 194.221 536.934 194.803 538.404 195.259C539.647 195.636 540.926 195.876 542.221 195.976C543.556 196.057 544.896 195.977 546.213 195.739C547.548 195.528 548.846 195.12 550.063 194.53C551.457 193.836 552.278 193.037 552.525 192.134ZM554.121 182.355C555.846 183.216 556.957 183.882 557.454 184.351C557.942 184.818 558.071 185.297 557.871 185.789C557.525 186.396 556.985 186.869 556.337 187.13C555.492 187.553 554.572 187.804 553.629 187.868C552.612 187.937 551.59 187.832 550.608 187.555C549.466 187.201 548.36 186.741 547.304 186.18L542.112 183.584L549.367 179.959L554.121 182.355ZM544.275 193.664C543.433 193.796 542.577 193.817 541.729 193.726C540.877 193.623 540.038 193.426 539.229 193.139C538.452 192.841 537.692 192.499 536.954 192.114L530.979 189.126L539.229 185.001L544.779 187.776C545.902 188.279 546.948 188.937 547.888 189.73C548.443 190.286 548.615 190.841 548.404 191.397C548.2 191.959 547.654 192.459 546.738 192.909C545.961 193.287 545.13 193.542 544.275 193.664Z" fill="white"/>
<g style="mix-blend-mode:multiply">
<path d="M809.682 394.575C814.547 392.158 819.906 390.9 825.338 390.9C830.771 390.9 836.129 392.158 840.995 394.575L841.14 394.646C843.601 395.87 845.985 397.243 848.278 398.759C848.903 399.174 849.415 399.738 849.77 400.399C850.124 401.061 850.309 401.8 850.309 402.55C850.309 403.301 850.124 404.04 849.77 404.701C849.415 405.363 848.903 405.926 848.278 406.342C845.984 407.855 843.6 409.227 841.14 410.45L840.995 410.525C836.129 412.941 830.77 414.197 825.338 414.197C819.906 414.197 814.548 412.941 809.682 410.525L809.536 410.45C807.076 409.227 804.693 407.855 802.399 406.342C801.774 405.926 801.262 405.363 800.907 404.701C800.553 404.04 800.367 403.301 800.367 402.55C800.367 401.8 800.553 401.061 800.907 400.399C801.262 399.738 801.774 399.174 802.399 398.759C804.692 397.243 807.075 395.87 809.536 394.646L809.682 394.575Z" fill="#EBF0FF"/>
</g>
<path d="M829.112 407.692C827.029 409.271 822.587 411.925 820.495 412.609C818.312 413.317 817.249 411.588 818.529 410.004L826.22 401.196L828.949 404.113C829.924 405.175 830.466 406.671 829.112 407.692ZM833.758 401.659C831.449 400.896 827.687 398.538 826.112 397.109C824.47 395.617 825.633 393.909 827.695 394.234L836.633 395.35V399.671C836.643 400.018 836.566 400.362 836.409 400.672C836.253 400.982 836.021 401.248 835.735 401.446C835.449 401.643 835.119 401.766 834.773 401.803C834.428 401.84 834.079 401.791 833.758 401.659Z" fill="#130F40"/>
<path d="M828.382 334.042C826.322 339.213 824.763 344.569 823.728 350.038C822.702 355.562 822.224 361.174 822.303 366.792C822.44 378.142 824.694 389.659 827.798 401.038C828.033 401.906 827.925 402.831 827.497 403.622C827.07 404.413 826.355 405.01 825.5 405.29C824.646 405.57 823.716 405.512 822.904 405.127C822.091 404.742 821.457 404.06 821.132 403.221C818.973 397.55 816.994 391.763 815.373 385.809C813.704 379.8 812.506 373.67 811.79 367.475C811.081 361.152 810.998 354.774 811.54 348.434C812.108 342.043 813.289 335.722 815.069 329.559V329.53C815.312 328.628 815.731 327.783 816.304 327.046C816.876 326.308 817.589 325.691 818.402 325.231C819.215 324.772 820.111 324.479 821.038 324.369C821.965 324.259 822.905 324.335 823.803 324.592C824.701 324.849 825.538 325.283 826.267 325.867C826.995 326.451 827.6 327.174 828.047 327.994C828.493 328.814 828.772 329.715 828.866 330.644C828.961 331.573 828.87 332.511 828.598 333.405C828.54 333.609 828.465 333.834 828.382 334.042Z" fill="#130F40"/>
<path d="M840.385 325.817L836.868 394.221C836.815 395.116 836.422 395.956 835.769 396.571C835.117 397.186 834.254 397.528 833.358 397.528C832.461 397.528 831.599 397.186 830.946 396.571C830.294 395.956 829.901 395.116 829.847 394.221L826.331 325.817C826.279 324.862 826.422 323.906 826.752 323.008C827.081 322.111 827.59 321.289 828.248 320.595C828.906 319.901 829.698 319.347 830.576 318.969C831.455 318.591 832.401 318.396 833.358 318.396C834.314 318.396 835.261 318.591 836.139 318.969C837.018 319.347 837.81 319.901 838.468 320.595C839.125 321.289 839.634 322.111 839.964 323.008C840.294 323.906 840.437 324.862 840.385 325.817Z" fill="#130F40"/>
<path d="M842.789 331.047L843.418 335.376C843.438 335.514 843.507 335.64 843.611 335.732C843.716 335.823 843.85 335.874 843.989 335.876C844.135 335.878 844.276 335.823 844.382 335.723C844.488 335.622 844.55 335.484 844.556 335.339L844.71 331.876L842.789 331.047ZM845.018 333.826L844.772 336.743C844.758 336.924 844.781 337.107 844.84 337.279C844.9 337.451 844.995 337.609 845.118 337.743L846.368 339.068L845.614 334.28L845.018 333.826Z" fill="#F3ABC7"/>
<path d="M845.803 335.554L846.348 339.05C846.371 339.187 846.446 339.311 846.558 339.394C846.67 339.477 846.81 339.513 846.948 339.495C847.053 339.478 847.149 339.428 847.223 339.354C847.298 339.279 847.348 339.183 847.365 339.079L848.007 335.266L847.282 330.641C847.195 330.099 846.901 329.613 846.462 329.284C846.022 328.956 845.472 328.812 844.928 328.883L844.511 328.937C844.008 329.003 843.548 329.257 843.225 329.648C842.901 330.039 842.739 330.539 842.769 331.045L845.803 335.554Z" fill="#F3ABC7"/>
<path d="M839.513 297.332C843.678 301.463 846.607 306.676 847.967 312.382C848.608 315.113 848.924 317.911 848.908 320.716C848.895 323.48 848.632 326.237 848.121 328.953C848.052 329.333 847.908 329.696 847.699 330.021C847.489 330.346 847.218 330.626 846.9 330.846C846.582 331.066 846.224 331.222 845.846 331.303C845.468 331.385 845.078 331.391 844.698 331.322C844.318 331.253 843.955 331.109 843.63 330.9C843.305 330.69 843.025 330.419 842.805 330.101C842.585 329.783 842.43 329.425 842.348 329.047C842.266 328.669 842.26 328.279 842.329 327.899C842.329 327.828 842.358 327.749 842.375 327.682C842.96 325.447 843.207 323.137 843.108 320.828C843.013 318.553 842.573 316.305 841.804 314.161C841.069 312.078 840.006 310.126 838.654 308.378C837.345 306.686 835.746 305.239 833.933 304.103C833.406 303.774 832.954 303.337 832.607 302.821C832.26 302.305 832.025 301.722 831.918 301.11C831.811 300.498 831.834 299.87 831.985 299.267C832.137 298.664 832.414 298.099 832.798 297.611C833.182 297.122 833.665 296.719 834.215 296.429C834.765 296.139 835.37 295.968 835.99 295.928C836.611 295.887 837.233 295.977 837.816 296.192C838.399 296.408 838.93 296.744 839.375 297.178L839.513 297.332Z" fill="white"/>
<path d="M832.36 334.759L822.997 337.376C818.497 338.626 814.852 336.001 814.852 331.505C814.852 327.009 818.497 322.338 822.997 321.088L832.36 318.472C836.856 317.222 840.502 319.847 840.502 324.342C840.502 328.838 836.856 333.505 832.36 334.759Z" fill="#130F40"/>
<path d="M822.787 291.754C823.046 295.204 827.762 292.32 828.241 291.887C829.766 290.5 832.408 285.841 828.862 283.866C827.679 283.208 825.058 283.133 824.058 284.004C822.604 285.275 822.621 289.625 822.787 291.754Z" fill="#F3ABC7"/>
<path d="M824.094 293.404L830.623 287.059L830.931 299.834L825.052 299.604L825.923 293.688L824.094 293.404Z" fill="#F3ABC7"/>
<path d="M839.287 320.409C836.02 314.522 840.145 302.909 839.383 298.13C839.307 297.638 839.076 297.183 838.724 296.832C838.372 296.481 837.916 296.251 837.424 296.176C832.699 295.409 822.583 298.33 819.008 303.622C817.199 309.542 817.649 319.842 815.57 327.926C825.758 331.217 839.287 324.017 839.287 320.409Z" fill="white"/>
<path d="M796.819 278.337C796.672 278.366 796.541 278.45 796.453 278.571C796.364 278.692 796.324 278.842 796.34 278.991L796.573 280.858L795.74 279.5L793.953 277.833C793.846 277.743 793.709 277.696 793.569 277.702C793.43 277.707 793.297 277.764 793.197 277.862C793.098 277.959 793.038 278.091 793.029 278.23C793.021 278.37 793.065 278.507 793.153 278.616L794.553 280.195L794.719 280.612L792.982 280.016C792.917 279.976 792.844 279.95 792.768 279.939C792.692 279.928 792.615 279.933 792.541 279.953C792.467 279.974 792.398 280.009 792.339 280.057C792.279 280.105 792.23 280.165 792.194 280.233L791.403 281.712C791.347 281.813 791.326 281.93 791.341 282.044C791.356 282.159 791.406 282.266 791.486 282.35L792.319 283.208L793.003 284.32L794.519 286.512C794.629 286.667 794.768 286.799 794.929 286.899C795.089 287 795.268 287.068 795.455 287.1C795.642 287.131 795.834 287.125 796.019 287.082C796.203 287.039 796.378 286.96 796.532 286.85L797.811 285.95L798.157 285.704C799.049 285.079 799.273 284.275 798.815 282.954L797.478 278.729C797.436 278.593 797.346 278.478 797.224 278.406C797.102 278.334 796.958 278.309 796.819 278.337Z" fill="#F3ABC7"/>
<path d="M820.998 308.808C818.29 308.025 815.581 307.212 812.919 306.158C810.18 305.103 807.568 303.744 805.131 302.108C802.615 300.396 800.436 298.233 798.706 295.729C797.071 293.259 795.78 290.577 794.869 287.758C794.73 287.389 794.666 286.995 794.682 286.6C794.698 286.206 794.793 285.818 794.962 285.461C795.131 285.104 795.369 284.784 795.664 284.521C795.959 284.258 796.303 284.057 796.677 283.93C797.051 283.803 797.447 283.752 797.841 283.781C798.234 283.81 798.619 283.918 798.97 284.098C799.321 284.278 799.633 284.527 799.886 284.83C800.139 285.134 800.329 285.484 800.444 285.862C800.469 285.929 800.49 285.997 800.506 286.066C801.063 288.33 802.053 290.464 803.423 292.35C803.748 292.812 804.148 293.183 804.502 293.637C804.856 294.091 805.298 294.425 805.752 294.779C806.624 295.503 807.567 296.138 808.565 296.675C810.654 297.78 812.88 298.604 815.186 299.125C817.597 299.658 820.046 300.002 822.511 300.154H822.556C823.726 300.237 824.815 300.781 825.584 301.667C826.352 302.552 826.737 303.707 826.654 304.877C826.572 306.047 826.027 307.136 825.142 307.904C824.256 308.673 823.101 309.058 821.931 308.975C821.616 308.951 821.303 308.895 820.998 308.808Z" fill="white"/>
<path d="M849.752 296.055C848.619 295.084 847.048 294.805 845.556 294.772C844.065 294.738 842.561 294.888 841.094 294.626C839.627 294.363 838.14 293.572 837.548 292.205C837.023 290.997 837.281 289.576 836.848 288.33C836.302 286.763 834.719 285.738 833.098 285.413C832.931 285.38 832.765 285.351 832.598 285.33C832.484 284.431 832.105 283.585 831.511 282.901C829.29 280.43 826.452 279.722 823.515 279.605C819.106 279.43 815.973 282.397 823.84 285.622L825.565 285.947C823.481 290.113 829.769 289.08 829.869 291.501C829.981 294.134 819.269 297.638 821.448 304.226C823.627 310.813 836.952 311.443 840.894 310.476C844.836 309.509 848.565 307.097 850.415 303.48C851.053 302.298 851.38 300.973 851.365 299.63C851.356 298.955 851.209 298.289 850.931 297.674C850.654 297.059 850.253 296.508 849.752 296.055Z" fill="#130F40"/>
<g style="mix-blend-mode:multiply">
<path d="M291.486 472.891C286.621 470.476 281.263 469.219 275.832 469.219C270.4 469.219 265.043 470.476 260.178 472.891L260.032 472.966C257.57 474.186 255.186 475.558 252.894 477.074C252.269 477.489 251.755 478.053 251.4 478.714C251.045 479.376 250.859 480.115 250.859 480.866C250.859 481.617 251.045 482.356 251.4 483.017C251.755 483.679 252.269 484.242 252.894 484.657C255.186 486.175 257.57 487.548 260.032 488.77L260.178 488.841C265.042 491.258 270.4 492.516 275.832 492.516C281.264 492.516 286.622 491.258 291.486 488.841L291.632 488.77C294.093 487.547 296.477 486.174 298.769 484.657C299.394 484.242 299.906 483.678 300.261 483.017C300.615 482.355 300.801 481.616 300.801 480.866C300.801 480.115 300.615 479.376 300.261 478.715C299.906 478.053 299.394 477.49 298.769 477.074C296.477 475.559 294.093 474.187 291.632 472.966L291.486 472.891Z" fill="#EBF0FF"/>
</g>
<path d="M268.776 479.924C271.576 478.999 276.147 476.136 278.055 474.403C280.047 472.591 278.638 470.52 276.138 470.911L265.305 472.27V477.511C265.299 477.929 265.396 478.341 265.587 478.712C265.778 479.083 266.057 479.402 266.399 479.64C266.742 479.878 267.138 480.029 267.552 480.078C267.966 480.128 268.387 480.075 268.776 479.924Z" fill="#130F40"/>
<path d="M277.939 406.355L273.356 471.355C273.281 472.421 272.804 473.42 272.022 474.149C271.24 474.878 270.21 475.283 269.141 475.283C268.072 475.283 267.042 474.878 266.26 474.149C265.478 473.42 265.001 472.421 264.926 471.355L260.343 406.355C260.208 404.042 260.99 401.769 262.519 400.029C264.048 398.288 266.201 397.22 268.511 397.055C270.822 396.891 273.105 397.644 274.865 399.15C276.625 400.657 277.72 402.796 277.914 405.105C277.95 405.52 277.958 405.938 277.939 406.355Z" fill="#8EAAE8"/>
<path d="M273.092 484.258L273.559 479.824L287.355 483.22C289.346 483.72 289.326 487.291 286.888 487.291H275.451C273.771 487.291 272.959 485.478 273.092 484.258Z" fill="#130F40"/>
<path d="M273.715 478.491L278.565 459.533L279.777 454.791L280.381 452.42L280.673 451.258C280.744 450.933 280.823 450.608 280.886 450.283C281.399 447.699 281.511 445.051 281.219 442.433C281.074 441.151 280.83 439.881 280.49 438.637C280.323 438.016 280.127 437.387 279.911 436.808L279.127 434.629C278.03 431.629 276.894 428.659 275.719 425.72C273.46 419.963 270.851 414.35 267.906 408.912C267.361 407.868 267.031 406.724 266.935 405.55C266.84 404.376 266.981 403.194 267.351 402.075C267.721 400.957 268.311 399.924 269.088 399.038C269.864 398.151 270.811 397.43 271.871 396.917C272.932 396.403 274.084 396.108 275.261 396.048C276.438 395.989 277.614 396.166 278.721 396.57C279.828 396.973 280.843 397.595 281.705 398.398C282.567 399.202 283.259 400.17 283.74 401.245L283.773 401.329C286.325 407.704 288.482 414.23 290.231 420.87C291.115 424.112 291.937 427.352 292.698 430.591L293.281 433.091C293.502 434.058 293.698 435.037 293.823 436.008C294.675 441.837 294.168 447.785 292.344 453.387C292.194 453.845 292.027 454.299 291.865 454.754L291.423 455.916L290.544 458.199L288.79 462.783L281.765 481.049C281.373 482.048 280.616 482.861 279.647 483.322C278.678 483.783 277.57 483.858 276.548 483.532C275.525 483.206 274.665 482.503 274.142 481.566C273.619 480.629 273.473 479.528 273.731 478.487L273.715 478.491Z" fill="#8EAAE8"/>
<path d="M274.192 364.945L274.967 371.391L267.68 371.012V363.133L274.192 364.945Z" fill="#F3ABC7"/>
<path d="M276.797 363.47C276.797 364.479 275.406 366.004 273.506 365.266C272.864 365.02 268.727 363.133 268.727 363.133C268.727 363.133 268.835 356.22 269.652 355.608C270.781 354.774 273.593 354.566 274.731 355.412C276.385 356.645 276.772 361.216 276.797 363.47Z" fill="#F3ABC7"/>
<path d="M274.591 357.558C273.574 358.183 274.149 360.158 274.228 360.891C274.383 362.303 270.683 365.262 267.678 365.203C267.678 362.237 263.095 356.649 266.97 356.649C268.383 352.299 274.674 354.674 276.137 353.966C276.978 354.824 276.474 356.391 274.591 357.558Z" fill="#130F40"/>
<path d="M273.735 359.158L274.606 361.371C274.701 361.589 274.87 361.767 275.084 361.873C275.298 361.978 275.542 362.004 275.773 361.946L276.223 361.837C276.442 361.783 276.674 361.804 276.88 361.898C277.086 361.992 277.254 362.152 277.356 362.354L278.506 364.583C278.621 364.805 278.649 365.061 278.585 365.302C278.521 365.543 278.37 365.752 278.16 365.887L277.969 366.012C277.795 366.126 277.589 366.183 277.381 366.175L274.673 366.075C274.468 366.067 274.27 365.997 274.106 365.874C273.941 365.752 273.818 365.582 273.752 365.387L272.427 361.4L273.735 359.158ZM284.381 375.562C278.49 370.925 268.273 367.892 261.277 367.108C257.39 366.692 254.34 369.567 254.61 373.421C255.331 383.983 258.277 404.358 258.277 404.358C259.244 408.608 288.323 415.537 289.861 411.087L287.394 380.967C287.286 379.908 286.963 378.883 286.445 377.954C285.927 377.024 285.225 376.211 284.381 375.562Z" fill="#130F40"/>
<path d="M302.402 369.091C302.274 368.968 302.123 368.872 301.956 368.811C301.79 368.75 301.612 368.724 301.435 368.735C301.258 368.747 301.086 368.795 300.928 368.877C300.771 368.959 300.633 369.073 300.522 369.212L300.552 368.796L301.335 366.904C301.384 366.778 301.384 366.638 301.334 366.512C301.284 366.387 301.188 366.284 301.066 366.227C300.944 366.169 300.804 366.16 300.675 366.201C300.546 366.243 300.438 366.332 300.372 366.45L299.264 368.533L298.939 370.029L298.581 368.258C298.552 368.123 298.474 368.003 298.362 367.923C298.25 367.842 298.111 367.805 297.974 367.82C297.837 367.836 297.71 367.901 297.618 368.004C297.526 368.107 297.476 368.241 297.477 368.379L297.552 372.658C297.552 374.008 297.989 374.666 298.985 374.95L299.372 375.058L300.802 375.475C300.977 375.524 301.16 375.539 301.341 375.517C301.522 375.496 301.697 375.439 301.856 375.35C302.015 375.261 302.155 375.142 302.268 374.999C302.381 374.856 302.465 374.692 302.514 374.516L303.218 372.016L303.635 370.275L302.402 369.091Z" fill="#F3ABC7"/>
<path d="M302.989 376.349C303.243 378.016 303.58 379.749 303.822 381.504C304.064 383.258 304.322 385.054 304.422 386.92C304.479 387.892 304.479 388.865 304.422 389.837C304.375 390.934 304.198 392.022 303.897 393.079C303.698 393.732 303.418 394.357 303.064 394.941C302.626 395.669 302.041 396.297 301.347 396.787C300.591 397.317 299.72 397.66 298.805 397.787C297.994 397.895 297.169 397.854 296.372 397.666C295.187 397.365 294.06 396.868 293.039 396.195C292.181 395.657 291.361 395.062 290.585 394.412C289.105 393.162 287.793 391.912 286.518 390.662C284.018 388.104 281.68 385.512 279.314 382.999C278.915 382.576 278.604 382.078 278.397 381.535C278.191 380.991 278.094 380.413 278.111 379.831C278.129 379.25 278.26 378.678 278.499 378.148C278.737 377.618 279.078 377.14 279.501 376.741C279.924 376.342 280.422 376.031 280.966 375.825C281.509 375.618 282.088 375.521 282.669 375.539C283.25 375.556 283.822 375.688 284.353 375.926C284.883 376.165 285.361 376.505 285.76 376.929C285.928 377.108 286.081 377.3 286.218 377.504V377.529C288.101 380.387 290.022 383.174 292.051 385.745C293.01 387.002 294.045 388.199 295.151 389.329C295.644 389.83 296.168 390.299 296.722 390.733C297.105 391.036 297.525 391.29 297.972 391.487C298.239 391.566 298.014 391.554 297.926 391.674C297.876 391.724 297.893 391.749 297.96 391.674C298.062 391.531 298.145 391.374 298.205 391.208C298.406 390.625 298.531 390.018 298.576 389.404C298.641 388.661 298.664 387.915 298.647 387.17C298.585 385.566 298.425 383.967 298.168 382.383C297.901 380.749 297.58 379.137 297.201 377.424C297.048 376.668 297.198 375.882 297.618 375.235C298.039 374.589 298.696 374.132 299.449 373.965C300.202 373.797 300.991 373.932 301.645 374.34C302.3 374.747 302.769 375.396 302.951 376.145C302.951 376.208 302.976 376.27 302.989 376.333V376.349Z" fill="#130F40"/>
<path d="M0.333333 200C0.333333 201.473 1.52724 202.667 3 202.667C4.47276 202.667 5.66667 201.473 5.66667 200C5.66667 198.527 4.47276 197.333 3 197.333C1.52724 197.333 0.333333 198.527 0.333333 200ZM209 495.5H13V496.5H209V495.5ZM3.5 486V200H2.5V486H3.5ZM13 495.5C7.7533 495.5 3.5 491.247 3.5 486H2.5C2.5 491.799 7.20101 496.5 13 496.5V495.5Z" fill="url(#paint61_linear_881_1504)"/>
<path d="M845.667 118C845.667 119.473 844.473 120.667 843 120.667C841.527 120.667 840.333 119.473 840.333 118C840.333 116.527 841.527 115.333 843 115.333C844.473 115.333 845.667 116.527 845.667 118ZM762 183.5H833V184.5H762V183.5ZM842.5 174V118H843.5V174H842.5ZM833 183.5C838.247 183.5 842.5 179.247 842.5 174H843.5C843.5 179.799 838.799 184.5 833 184.5V183.5Z" fill="url(#paint62_linear_881_1504)"/>
<path d="M727.602 634.573C726.129 634.573 724.935 633.379 724.935 631.906C724.935 630.433 726.129 629.24 727.602 629.24C729.074 629.24 730.268 630.433 730.268 631.906C730.268 633.379 729.074 634.573 727.602 634.573ZM695.102 550.906L695.102 621.906L694.102 621.906L694.102 550.906L695.102 550.906ZM704.602 631.406L727.602 631.406L727.602 632.406L704.602 632.406L704.602 631.406ZM695.102 621.906C695.102 627.153 699.355 631.406 704.602 631.406L704.602 632.406C698.803 632.406 694.102 627.705 694.102 621.906L695.102 621.906Z" fill="url(#paint63_linear_881_1504)"/>
<defs>
<linearGradient id="paint0_linear_881_1504" x1="592.966" y1="92.812" x2="619.803" y2="44.3953" gradientUnits="userSpaceOnUse">
<stop stop-color="#1F68FF"/>
<stop offset="1" stop-color="#5991FF"/>
</linearGradient>
<linearGradient id="paint1_linear_881_1504" x1="573.638" y1="57.0535" x2="549.501" y2="69.2452" gradientUnits="userSpaceOnUse">
<stop stop-color="#174DBA"/>
<stop offset="1" stop-color="#7023FF"/>
</linearGradient>
<linearGradient id="paint2_linear_881_1504" x1="398.056" y1="239.018" x2="513.406" y2="30.9259" gradientUnits="userSpaceOnUse">
<stop stop-color="#7023FF"/>
<stop offset="0.32" stop-color="#0BAEFF"/>
<stop offset="0.63" stop-color="#4C41FF"/>
<stop offset="1" stop-color="#0BAEFF"/>
</linearGradient>
<linearGradient id="paint3_linear_881_1504" x1="371.008" y1="208.122" x2="346.079" y2="220.713" gradientUnits="userSpaceOnUse">
<stop stop-color="#174DBA"/>
<stop offset="1" stop-color="#7023FF"/>
</linearGradient>
<linearGradient id="paint4_linear_881_1504" x1="272.683" y1="307.391" x2="332.037" y2="200.316" gradientUnits="userSpaceOnUse">
<stop stop-color="#2A5EFF"/>
<stop offset="0.63" stop-color="#4B43FF"/>
<stop offset="1" stop-color="#15B2FF"/>
</linearGradient>
<linearGradient id="paint5_linear_881_1504" x1="543.423" y1="656.675" x2="543.423" y2="476.175" gradientUnits="userSpaceOnUse">
<stop stop-color="#161616" stop-opacity="0.12"/>
<stop offset="1" stop-color="#3377FF"/>
</linearGradient>
<linearGradient id="paint6_linear_881_1504" x1="315.401" y1="385.658" x2="770.917" y2="385.658" gradientUnits="userSpaceOnUse">
<stop stop-color="#E8EAFB"/>
<stop offset="1" stop-color="white"/>
</linearGradient>
<linearGradient id="paint7_linear_881_1504" x1="790.986" y1="427.741" x2="869.607" y2="427.741" gradientUnits="userSpaceOnUse">
<stop stop-color="#D3D7F2"/>
<stop offset="0.45" stop-color="#BBC9F8"/>
<stop offset="0.55" stop-color="#D3D7F2"/>
<stop offset="1" stop-color="#F2F3FF"/>
</linearGradient>
<linearGradient id="paint8_linear_881_1504" x1="790.572" y1="404.608" x2="870.01" y2="404.608" gradientUnits="userSpaceOnUse">
<stop stop-color="#E8EAFB"/>
<stop offset="1" stop-color="white"/>
</linearGradient>
<linearGradient id="paint9_linear_881_1504" x1="653.408" y1="523.759" x2="732.029" y2="523.759" gradientUnits="userSpaceOnUse">
<stop stop-color="#D3D7F2"/>
<stop offset="0.45" stop-color="#BBC9F8"/>
<stop offset="0.55" stop-color="#D3D7F2"/>
<stop offset="1" stop-color="#F2F3FF"/>
</linearGradient>
<linearGradient id="paint10_linear_881_1504" x1="652.998" y1="513.86" x2="732.435" y2="513.86" gradientUnits="userSpaceOnUse">
<stop stop-color="#E8EAFB"/>
<stop offset="1" stop-color="white"/>
</linearGradient>
<linearGradient id="paint11_linear_881_1504" x1="691.339" y1="519.142" x2="672.781" y2="519.142" gradientUnits="userSpaceOnUse">
<stop stop-color="#C0CFFF"/>
<stop offset="1" stop-color="white"/>
</linearGradient>
<linearGradient id="paint12_linear_881_1504" x1="685.612" y1="522.318" x2="685.612" y2="506.46" gradientUnits="userSpaceOnUse">
<stop stop-color="#3DC0FF"/>
<stop offset="1" stop-color="#00AAFF"/>
</linearGradient>
<linearGradient id="paint13_linear_881_1504" x1="692.094" y1="512.727" x2="704.802" y2="512.727" gradientUnits="userSpaceOnUse">
<stop stop-color="#42C0FF"/>
<stop offset="1" stop-color="#3DC0FF"/>
</linearGradient>
<linearGradient id="paint14_linear_881_1504" x1="679.354" y1="503.096" x2="705.154" y2="503.096" gradientUnits="userSpaceOnUse">
<stop stop-color="#42C0FF"/>
<stop offset="1" stop-color="#42FFFF"/>
</linearGradient>
<linearGradient id="paint15_linear_881_1504" x1="539.779" y1="338.854" x2="449.441" y2="338.854" gradientUnits="userSpaceOnUse">
<stop stop-color="#C0CFFF"/>
<stop offset="1" stop-color="white"/>
</linearGradient>
<linearGradient id="paint16_linear_881_1504" x1="469.681" y1="261.876" x2="617.527" y2="261.876" gradientUnits="userSpaceOnUse">
<stop stop-color="#D3D7F2"/>
<stop offset="0.45" stop-color="#BBC9F8"/>
<stop offset="0.55" stop-color="#D3D7F2"/>
<stop offset="1" stop-color="#F2F3FF"/>
</linearGradient>
<linearGradient id="paint17_linear_881_1504" x1="468.925" y1="202.739" x2="618.296" y2="202.739" gradientUnits="userSpaceOnUse">
<stop stop-color="#E8EAFB"/>
<stop offset="1" stop-color="white"/>
</linearGradient>
<linearGradient id="paint18_linear_881_1504" x1="657.779" y1="397.649" x2="567.441" y2="397.649" gradientUnits="userSpaceOnUse">
<stop stop-color="#C0CFFF"/>
<stop offset="1" stop-color="white"/>
</linearGradient>
<linearGradient id="paint19_linear_881_1504" x1="587.363" y1="336.309" x2="737.475" y2="336.309" gradientUnits="userSpaceOnUse">
<stop stop-color="#427DFF"/>
<stop offset="0.14" stop-color="#7023FF"/>
<stop offset="0.48" stop-color="#174DBA"/>
<stop offset="0.6" stop-color="#8A6EFF"/>
<stop offset="0.94" stop-color="#427DFF"/>
<stop offset="1" stop-color="#7073FF"/>
</linearGradient>
<linearGradient id="paint20_linear_881_1504" x1="587.365" y1="292.809" x2="737.477" y2="292.809" gradientUnits="userSpaceOnUse">
<stop stop-color="#8A6EFF"/>
<stop offset="1" stop-color="#42C0FF"/>
</linearGradient>
<linearGradient id="paint21_linear_881_1504" x1="422.618" y1="397.63" x2="332.281" y2="397.63" gradientUnits="userSpaceOnUse">
<stop stop-color="#C0CFFF"/>
<stop offset="1" stop-color="white"/>
</linearGradient>
<linearGradient id="paint22_linear_881_1504" x1="352.044" y1="351.95" x2="499.885" y2="351.95" gradientUnits="userSpaceOnUse">
<stop stop-color="#3DC0FF"/>
<stop offset="0.4" stop-color="#00AAFF"/>
<stop offset="0.6" stop-color="#42D6FF"/>
<stop offset="1" stop-color="#42C0FF"/>
</linearGradient>
<linearGradient id="paint23_linear_881_1504" x1="352.204" y1="324.087" x2="502.316" y2="324.087" gradientUnits="userSpaceOnUse">
<stop stop-color="#42C0FF"/>
<stop offset="1" stop-color="#42FFFF"/>
</linearGradient>
<linearGradient id="paint24_linear_881_1504" x1="1450.21" y1="493.517" x2="1596.11" y2="493.517" gradientUnits="userSpaceOnUse">
<stop stop-color="#D3D7F2"/>
<stop offset="0.45" stop-color="#BBC9F8"/>
<stop offset="0.55" stop-color="#D3D7F2"/>
<stop offset="1" stop-color="#F2F3FF"/>
</linearGradient>
<linearGradient id="paint25_linear_881_1504" x1="206.018" y1="484.446" x2="353.422" y2="484.446" gradientUnits="userSpaceOnUse">
<stop stop-color="#E8EAFB"/>
<stop offset="1" stop-color="white"/>
</linearGradient>
<linearGradient id="paint26_linear_881_1504" x1="395.103" y1="553.984" x2="369.595" y2="566.867" gradientUnits="userSpaceOnUse">
<stop stop-color="#174DBA"/>
<stop offset="1" stop-color="#7023FF"/>
</linearGradient>
<linearGradient id="paint27_linear_881_1504" x1="424.444" y1="567.192" x2="396.873" y2="554.309" gradientUnits="userSpaceOnUse">
<stop stop-color="#7023FF"/>
<stop offset="1" stop-color="#3377FF"/>
</linearGradient>
<linearGradient id="paint28_linear_881_1504" x1="370.12" y1="539.895" x2="422.361" y2="539.895" gradientUnits="userSpaceOnUse">
<stop stop-color="#1E69FF"/>
<stop offset="1" stop-color="#6697FF"/>
</linearGradient>
<linearGradient id="paint29_linear_881_1504" x1="1999.22" y1="229.517" x2="2062.29" y2="229.517" gradientUnits="userSpaceOnUse">
<stop stop-color="#D3D7F2"/>
<stop offset="0.45" stop-color="#BBC9F8"/>
<stop offset="0.55" stop-color="#D3D7F2"/>
<stop offset="1" stop-color="#F2F3FF"/>
</linearGradient>
<linearGradient id="paint30_linear_881_1504" x1="755.456" y1="215.709" x2="819.169" y2="215.709" gradientUnits="userSpaceOnUse">
<stop stop-color="#E8EAFB"/>
<stop offset="1" stop-color="white"/>
</linearGradient>
<linearGradient id="paint31_linear_881_1504" x1="1957.37" y1="182.258" x2="2007.6" y2="182.258" gradientUnits="userSpaceOnUse">
<stop stop-color="#D3D7F2"/>
<stop offset="0.45" stop-color="#BBC9F8"/>
<stop offset="0.55" stop-color="#D3D7F2"/>
<stop offset="1" stop-color="#F2F3FF"/>
</linearGradient>
<linearGradient id="paint32_linear_881_1504" x1="713.672" y1="171.262" x2="764.418" y2="171.262" gradientUnits="userSpaceOnUse">
<stop stop-color="#E8EAFB"/>
<stop offset="1" stop-color="white"/>
</linearGradient>
<linearGradient id="paint33_linear_881_1504" x1="2007.7" y1="54.8214" x2="2033.86" y2="54.8214" gradientUnits="userSpaceOnUse">
<stop stop-color="#D3D7F2"/>
<stop offset="0.45" stop-color="#BBC9F8"/>
<stop offset="0.55" stop-color="#D3D7F2"/>
<stop offset="1" stop-color="#F2F3FF"/>
</linearGradient>
<linearGradient id="paint34_linear_881_1504" x1="764.116" y1="49.0923" x2="790.558" y2="49.0923" gradientUnits="userSpaceOnUse">
<stop stop-color="#E8EAFB"/>
<stop offset="1" stop-color="white"/>
</linearGradient>
<linearGradient id="paint35_linear_881_1504" x1="586.056" y1="450.383" x2="461.789" y2="450.383" gradientUnits="userSpaceOnUse">
<stop stop-color="#C0CFFF"/>
<stop offset="1" stop-color="white"/>
</linearGradient>
<linearGradient id="paint36_linear_881_1504" x1="493.828" y1="388.858" x2="590.166" y2="388.858" gradientUnits="userSpaceOnUse">
<stop stop-color="#42C0FF"/>
<stop offset="1" stop-color="#3DC0FF"/>
</linearGradient>
<linearGradient id="paint37_linear_881_1504" x1="501.445" y1="428.988" x2="501.445" y2="370.967" gradientUnits="userSpaceOnUse">
<stop stop-color="#3DC0FF"/>
<stop offset="1" stop-color="#00AAFF"/>
</linearGradient>
<linearGradient id="paint38_linear_881_1504" x1="582.546" y1="428.988" x2="582.546" y2="370.967" gradientUnits="userSpaceOnUse">
<stop stop-color="#3DC0FF"/>
<stop offset="1" stop-color="#00AAFF"/>
</linearGradient>
<linearGradient id="paint39_linear_881_1504" x1="493.932" y1="357.696" x2="591.749" y2="357.696" gradientUnits="userSpaceOnUse">
<stop stop-color="#42C0FF"/>
<stop offset="1" stop-color="#42FFFF"/>
</linearGradient>
<linearGradient id="paint40_linear_881_1504" x1="592.623" y1="439.392" x2="592.623" y2="334.617" gradientUnits="userSpaceOnUse">
<stop stop-color="#C4D7FF"/>
<stop offset="1" stop-color="#9EB9F2"/>
</linearGradient>
<linearGradient id="paint41_linear_881_1504" x1="599.342" y1="451.963" x2="599.342" y2="344.126" gradientUnits="userSpaceOnUse">
<stop stop-color="#C4D7FF"/>
<stop offset="1" stop-color="#74A0FA"/>
</linearGradient>
<linearGradient id="paint42_linear_881_1504" x1="574.03" y1="332.263" x2="610.417" y2="332.263" gradientUnits="userSpaceOnUse">
<stop stop-color="#C4D7FF"/>
<stop offset="1" stop-color="white"/>
</linearGradient>
<linearGradient id="paint43_linear_881_1504" x1="609.725" y1="433.805" x2="590.521" y2="433.805" gradientUnits="userSpaceOnUse">
<stop stop-color="#3E61CC"/>
<stop offset="1" stop-color="#2044B4"/>
</linearGradient>
<linearGradient id="paint44_linear_881_1504" x1="582.546" y1="430.055" x2="582.546" y2="452.996" gradientUnits="userSpaceOnUse">
<stop stop-color="#1539AB"/>
<stop offset="1" stop-color="#284CBA"/>
</linearGradient>
<linearGradient id="paint45_linear_881_1504" x1="580.813" y1="420.534" x2="607.117" y2="394.23" gradientUnits="userSpaceOnUse">
<stop stop-color="#234CC4"/>
<stop offset="1" stop-color="#5E87FF"/>
</linearGradient>
<linearGradient id="paint46_linear_881_1504" x1="473.895" y1="445.301" x2="591.97" y2="445.301" gradientUnits="userSpaceOnUse">
<stop stop-color="#427DFF"/>
<stop offset="0.14" stop-color="#7023FF"/>
<stop offset="0.48" stop-color="#174DBA"/>
<stop offset="0.6" stop-color="#8A6EFF"/>
<stop offset="0.94" stop-color="#427DFF"/>
<stop offset="1" stop-color="#7073FF"/>
</linearGradient>
<linearGradient id="paint47_linear_881_1504" x1="-1111.2" y1="440.221" x2="-993.122" y2="440.221" gradientUnits="userSpaceOnUse">
<stop stop-color="#8A6EFF"/>
<stop offset="1" stop-color="#42C0FF"/>
</linearGradient>
<linearGradient id="paint48_linear_881_1504" x1="661.927" y1="269.775" x2="661.927" y2="112.475" gradientUnits="userSpaceOnUse">
<stop stop-color="#2B71FF"/>
<stop offset="1" stop-opacity="0.25"/>
</linearGradient>
<linearGradient id="paint49_linear_881_1504" x1="425.482" y1="301.587" x2="425.482" y2="144.291" gradientUnits="userSpaceOnUse">
<stop stop-color="#2B71FF"/>
<stop offset="1" stop-opacity="0.25"/>
</linearGradient>
<linearGradient id="paint50_linear_881_1504" x1="543.119" y1="179.925" x2="543.119" y2="22.625" gradientUnits="userSpaceOnUse">
<stop stop-color="#2B71FF"/>
<stop offset="1" stop-opacity="0.41"/>
</linearGradient>
<linearGradient id="paint51_linear_881_1504" x1="662.5" y1="295.168" x2="598.479" y2="295.168" gradientUnits="userSpaceOnUse">
<stop stop-color="#C0CFFF"/>
<stop offset="1" stop-color="white"/>
</linearGradient>
<linearGradient id="paint52_linear_881_1504" x1="615.522" y1="293.374" x2="708.343" y2="293.374" gradientUnits="userSpaceOnUse">
<stop stop-color="#D3D7F2"/>
<stop offset="0.35" stop-color="#BBC9F8"/>
<stop offset="0.65" stop-color="#D3D7F2"/>
<stop offset="1" stop-color="#F2F3FF"/>
</linearGradient>
<linearGradient id="paint53_linear_881_1504" x1="628.777" y1="293.445" x2="655.303" y2="240.392" gradientUnits="userSpaceOnUse">
<stop stop-color="#E8EAFB"/>
<stop offset="1" stop-color="white"/>
</linearGradient>
<linearGradient id="paint54_linear_881_1504" x1="423.594" y1="326.359" x2="359.573" y2="326.359" gradientUnits="userSpaceOnUse">
<stop stop-color="#C0CFFF"/>
<stop offset="1" stop-color="white"/>
</linearGradient>
<linearGradient id="paint55_linear_881_1504" x1="379.069" y1="327.866" x2="471.894" y2="327.866" gradientUnits="userSpaceOnUse">
<stop stop-color="#D3D7F2"/>
<stop offset="0.35" stop-color="#BBC9F8"/>
<stop offset="0.65" stop-color="#D3D7F2"/>
<stop offset="1" stop-color="#F2F3FF"/>
</linearGradient>
<linearGradient id="paint56_linear_881_1504" x1="392.319" y1="327.931" x2="418.846" y2="274.878" gradientUnits="userSpaceOnUse">
<stop stop-color="#E8EAFB"/>
<stop offset="1" stop-color="white"/>
</linearGradient>
<linearGradient id="paint57_linear_881_1504" x1="541.234" y1="204.422" x2="477.218" y2="204.422" gradientUnits="userSpaceOnUse">
<stop stop-color="#C0CFFF"/>
<stop offset="1" stop-color="white"/>
</linearGradient>
<linearGradient id="paint58_linear_881_1504" x1="495.713" y1="205.042" x2="588.888" y2="205.042" gradientUnits="userSpaceOnUse">
<stop stop-color="#8A6EFF"/>
<stop offset="0.37" stop-color="#174DBA"/>
<stop offset="1" stop-color="#4E89FF"/>
</linearGradient>
<linearGradient id="paint59_linear_881_1504" x1="498.538" y1="188.626" x2="588.413" y2="188.626" gradientUnits="userSpaceOnUse">
<stop stop-color="#1E69FF"/>
<stop offset="1" stop-color="#6697FF"/>
</linearGradient>
<linearGradient id="paint60_linear_881_1504" x1="505.268" y1="188.626" x2="581.635" y2="188.626" gradientUnits="userSpaceOnUse">
<stop stop-color="#1E69FF"/>
<stop offset="1" stop-color="#6697FF"/>
</linearGradient>
<linearGradient id="paint61_linear_881_1504" x1="71.901" y1="496.479" x2="165.583" y2="494.415" gradientUnits="userSpaceOnUse">
<stop stop-color="#3DC0FF"/>
<stop offset="1" stop-color="#D3D7F2"/>
</linearGradient>
<linearGradient id="paint62_linear_881_1504" x1="841.509" y1="184" x2="800.362" y2="184" gradientUnits="userSpaceOnUse">
<stop stop-color="#3DC0FF"/>
<stop offset="1" stop-color="#D3D7F2"/>
</linearGradient>
<linearGradient id="paint63_linear_881_1504" x1="694.602" y1="630.415" x2="694.602" y2="589.269" gradientUnits="userSpaceOnUse">
<stop stop-color="#3DC0FF"/>
<stop offset="1" stop-color="#D3D7F2"/>
</linearGradient>
</defs>
</svg>
